*
*
G04 PADS 9.5 Build Number: 522968 generated Gerber (RS-274-X) file*
G04 PC Version=2.1*
*
%IN "MiniVario_Full_Alt.pcb"*%
*
%MOIN*%
*
%FSLAX35Y35*%
*
*
*
*
G04 PC Standard Apertures*
*
*
G04 Thermal Relief Aperture macro.*
%AMTER*
1,1,$1,0,0*
1,0,$1-$2,0,0*
21,0,$3,$4,0,0,45*
21,0,$3,$4,0,0,135*
%
*
*
G04 Annular Aperture macro.*
%AMANN*
1,1,$1,0,0*
1,0,$2,0,0*
%
*
*
G04 Odd Aperture macro.*
%AMODD*
1,1,$1,0,0*
1,0,$1-0.005,0,0*
%
*
*
G04 PC Custom Aperture Macros*
*
*
*
*
*
*
G04 PC Aperture Table*
*
%ADD010C,0.001*%
%ADD044C,0.01575*%
%ADD049C,0.02362*%
%ADD051C,0.01*%
%ADD104C,0.0315*%
*
*
*
*
G04 PC Circuitry*
G04 Layer Name MiniVario_Full_Alt.pcb - circuitry*
%LPD*%
*
*
G04 PC Custom Flashes*
G04 Layer Name MiniVario_Full_Alt.pcb - flashes*
%LPD*%
*
*
G04 PC Circuitry*
G04 Layer Name MiniVario_Full_Alt.pcb - circuitry*
%LPD*%
*
G54D10*
G54D44*
G01X340354Y122835D02*
X386220D01*
X189764Y154724D02*
Y150197D01*
X193898*
G54D49*
X153346Y107874D03*
X209252Y108465D03*
X340354Y122835D03*
X386220D03*
X185827Y191732D03*
X250787Y195669D03*
X334252Y192913D03*
X354331Y226772D03*
Y240945D03*
X148819Y260236D03*
X285039Y266142D03*
Y274409D03*
G54D51*
X409949Y177165D02*
G75*
G03X409949I-2469J0D01*
G01Y185433D02*
G03X409949I-2469J0D01*
G01Y198031D02*
G03X409949I-2469J0D01*
G01Y206299D02*
G03X409949I-2469J0D01*
G01Y235433D02*
G03X409949I-2469J0D01*
G01Y243701D02*
G03X409949I-2469J0D01*
G01Y267323D02*
G03X409949I-2469J0D01*
G01Y275591D02*
G03X409949I-2469J0D01*
G01X368020Y258661D02*
G03X368020I-2272J0D01*
G01X366839Y287795D02*
G03X366839I-2272J0D01*
G01X361720Y192520D02*
G03X361720I-2271J0D01*
G01X361327Y222835D02*
G03X361327I-2272J0D01*
G01Y271654D02*
G03X361327I-2272J0D01*
G01X346366Y202362D02*
G03X346366I-2272J0D01*
G01X344398Y223425D02*
G03X344398I-2272J0D01*
G01X338492Y223622D02*
G03X338492I-2272J0D01*
G01X335146Y226969D02*
G03X335146I-2272J0D01*
G01X331602Y230906D02*
G03X331602I-2271J0D01*
G01X332587Y254724D02*
G03X332587I-2272J0D01*
G01Y261811D02*
G03X332587I-2272J0D01*
G01X320382Y198425D02*
G03X320382I-2272J0D01*
G01X319988Y206299D02*
G03X319988I-2271J0D01*
G01X323925Y253543D02*
G03X323925I-2271J0D01*
G01X325894Y273622D02*
G03X325894I-2272J0D01*
G01X320382Y257874D02*
G03X320382I-2272J0D01*
G01X320776Y266535D02*
G03X320776I-2272J0D01*
G01X306996Y273622D02*
G03X306996I-2272J0D01*
G01X265264Y200787D02*
G03X265264I-2272J0D01*
G01X267626Y213386D02*
G03X267626I-2272J0D01*
G01X259752Y201969D02*
G03X259752I-2272J0D01*
G01X260146Y208268D02*
G03X260146I-2272J0D01*
G01X262902Y212008D02*
G03X262902I-2272J0D01*
G01X245972Y207087D02*
G03X245972I-2271J0D01*
G01X238492Y191732D02*
G03X238492I-2272J0D01*
G01X237705Y208661D02*
G03X237705I-2272J0D01*
G01X229437Y207874D02*
G03X229437I-2272J0D01*
G01X204634Y207087D02*
G03X204634I-2272J0D01*
G01X196366Y206693D02*
G03X196366I-2272J0D01*
G01X190264D02*
G03X190264I-2272J0D01*
G01X300697Y257874D02*
G03X300697I-2272J0D01*
G01X308768Y183071D02*
G03X308768I-2272J0D01*
G01X284161Y171850D02*
G03X284161I-2271J0D01*
G01X282587Y179528D02*
G03X282587I-2272J0D01*
G01X255618Y170866D02*
G03X255618I-2272J0D01*
G01X253059Y183268D02*
G03X253059I-2272J0D01*
G01X238492Y174803D02*
G03X238492I-2272J0D01*
G01X198925Y175000D02*
G03X198925I-2271J0D01*
G01X277075Y279528D02*
G03X277075I-2272J0D01*
G01X273138Y285827D02*
G03X273138I-2272J0D01*
G01X267626Y237402D02*
G03X267626I-2272J0D01*
G01Y281102D02*
G03X267626I-2272J0D01*
G01X255421Y226969D02*
G03X255421I-2271J0D01*
G01X254240Y241929D02*
G03X254240I-2271J0D01*
G01X259949Y259252D02*
G03X259949I-2272J0D01*
G01X257390Y266339D02*
G03X257390I-2272J0D01*
G01X173138Y256890D02*
G03X173138I-2272J0D01*
G01X176681Y266929D02*
G03X176681I-2862J0D01*
G01X164083Y195669D02*
G03X164083I-2272J0D01*
G01X158571Y181102D02*
G03X158571I-2272J0D01*
G01X155815Y188583D02*
G03X155815I-2272J0D01*
G01X158571Y201969D02*
G03X158571I-2272J0D01*
G01X153453Y201181D02*
G03X153453I-2272J0D01*
G01X150697Y227559D02*
G03X150697I-2272J0D01*
G01X173925Y186024D02*
G03X173925I-2271J0D01*
G01X179437Y171654D02*
G03X179437I-2272J0D01*
G01X127862Y182677D02*
G03X127862I-2271J0D01*
G01X132193Y217323D02*
G03X132193I-2272J0D01*
G01X126287Y236220D02*
G03X126287I-2271J0D01*
G01X128256Y248425D02*
G03X128256I-2272J0D01*
G01Y278346D02*
G03X128256I-2272J0D01*
G01X286917Y129134D02*
G03X286917I-2271J0D01*
G01X270382Y107874D02*
G03X270382I-2272J0D01*
G01X268268Y113287D02*
G03X268268I-2914J0D01*
G01X252862Y104528D02*
G03X252862I-2862J0D01*
G01X213150Y113287D02*
G03X213150I-2914J0D01*
G01X196957Y110039D02*
G03X196957I-2272J0D01*
G01X205618Y131693D02*
G03X205618I-2272J0D01*
G01X185539Y124016D02*
G03X185539I-2468J0D01*
G01X158032Y113287D02*
G03X158032I-2914J0D01*
G01X412311Y122441D02*
G03X412311I-2468J0D01*
G01X408571Y136614D02*
G03X408571I-2272J0D01*
G01X391445Y118504D02*
G03X391445I-2272J0D01*
G01X390854Y146457D02*
G03X390854I-2271J0D01*
G01Y155118D02*
G03X390854I-2271J0D01*
G01X384752Y136614D02*
G03X384752I-2469J0D01*
G01X372547D02*
G03X372547I-2468J0D01*
G01X357783Y133858D02*
G03X357783I-2271J0D01*
G01X340067Y142126D02*
G03X340067I-2272J0D01*
G01X343413Y158661D02*
G03X343413I-2468J0D01*
G01X338295Y156102D02*
G03X338295I-2271J0D01*
G01X331799Y128150D02*
G03X331799I-2271J0D01*
G01X325500Y111614D02*
G03X325500I-2862J0D01*
G01X323532Y127953D02*
G03X323532I-2272J0D01*
G01X314673Y111024D02*
G03X314673I-2468J0D01*
G01X318020Y116535D02*
G03X318020I-2272J0D01*
G01X308177Y140354D02*
G03X308177I-2271J0D01*
G01X310736Y155118D02*
G03X310736I-2271J0D01*
G01X283768Y146457D02*
G03X283768I-2272J0D01*
G01X285736Y152756D02*
G03X285736I-2271J0D01*
G01X280028Y149606D02*
G03X280028I-2272J0D01*
G01X281012Y156496D02*
G03X281012I-2272J0D01*
G01X123138Y135039D02*
G03X123138I-2272J0D01*
G01X356406Y116535D02*
G03X356406I-2272J0D01*
G01X350697Y111811D02*
G03X350697I-2862J0D01*
G01X413673Y270579D02*
Y295563D01*
X405224*
Y288189*
X403937Y286902D02*
G03X405224Y288189I0J1287D01*
G01X403937Y286902D02*
X386614D01*
X385327Y288189D02*
G03X386614Y286902I1287J-0D01*
G01X385327Y288189D02*
Y295563D01*
X360356*
X357754D02*
G03X360356I1301J-1862D01*
G01X357754D02*
X294594D01*
Y286567*
Y283511D02*
G03Y286567I-1681J1528D01*
G01Y283511D02*
Y282630D01*
Y279574D02*
G03Y282630I-1681J1528D01*
G01Y279574D02*
Y251773D01*
Y247439D02*
G03Y251773I682J2167D01*
G01Y247439D02*
Y242325D01*
X296268Y242201D02*
G03X294594Y242325I-992J-2044D01*
G01X297433Y240870D02*
G03X296268Y242201I992J2043D01*
G01X294594Y237990D02*
G03X297433Y240870I682J2167D01*
G01X294594Y237990D02*
Y222628D01*
X290365Y218398*
X256064*
X252598D02*
G03X256064I1733J-1469D01*
G01X252598D02*
X245462D01*
X241232Y222628*
Y247824*
X237588Y251469*
X179735*
X176091Y247824*
Y243649*
Y240209D02*
G03Y243649I-1485J1720D01*
G01Y240209D02*
Y237153D01*
Y233713D02*
G03Y237153I-1485J1720D01*
G01Y233713D02*
Y191939D01*
X179735Y188295*
X198415*
X198435D02*
G03X198415I-10J-2271D01*
G01X198435D02*
X252077D01*
X256584D02*
G03X252077I-2253J288D01*
G01X256584D02*
X326819D01*
X329874D02*
G03X326819I-1528J-1681D01*
G01X329874D02*
X330756D01*
X333811D02*
G03X330756I-1528J-1681D01*
G01X333811D02*
X334693D01*
X337748D02*
G03X334693I-1528J-1681D01*
G01X337748D02*
X338630D01*
X341685D02*
G03X338630I-1528J-1681D01*
G01X341685D02*
X342567D01*
X345622D02*
G03X342567I-1528J-1681D01*
G01X345622D02*
X372254D01*
X376484Y184065*
Y173829*
X380128Y170185*
X405374*
X409587D02*
G03X405374I-2107J-1287D01*
G01X409587D02*
X413673D01*
Y197138*
X412992*
X411705Y198425D02*
G03X412992Y197138I1287J0D01*
G01X411705Y198425D02*
Y269291D01*
X412992Y270579D02*
G03X411705Y269291I0J-1288D01*
G01X412992Y270579D02*
X413673D01*
X314461Y167333D02*
Y183700D01*
X310991Y186508D02*
G03X314461Y183700I2001J-1075D01*
G01X310991Y186508D02*
X255256D01*
X253406D02*
G03X255256I925J2075D01*
G01X253406D02*
X200645D01*
X196206D02*
G03X200645I2219J-484D01*
G01X196206D02*
X179735D01*
X178471Y187031D02*
G03X179735Y186508I1264J1264D01*
G01X178471Y187031D02*
X174827Y190675D01*
X174303Y191939D02*
G03X174827Y190675I1788J0D01*
G01X174303Y191939D02*
Y233182D01*
Y237684D02*
G03Y233182I303J-2251D01*
G01Y237684D02*
Y239678D01*
Y244180D02*
G03Y239678I303J-2251D01*
G01Y244180D02*
Y245746D01*
X174358Y248265D02*
G03X174303Y245746I-1917J-1218D01*
G01X174827Y249088D02*
G03X174358Y248265I1264J-1264D01*
G01X174827Y249088D02*
X178471Y252732D01*
X179735Y253256D02*
G03X178471Y252732I-0J-1787D01*
G01X179735Y253256D02*
X237588D01*
X238852Y252732D02*
G03X237588Y253256I-1264J-1263D01*
G01X238852Y252732D02*
X242496Y249088D01*
X243020Y247824D02*
G03X242496Y249088I-1788J0D01*
G01X243020Y247824D02*
Y223368D01*
X246203Y220185*
X259132*
X261734D02*
G03X259132I-1301J1862D01*
G01X261734D02*
X289624D01*
X292807Y223368*
Y278833*
X290945Y279969D02*
G03X292807Y278833I1968J1133D01*
G01X287008Y279969D02*
G03X290945I1968J1133D01*
G01X283071D02*
G03X287008I1968J1133D01*
G01X279969Y283071D02*
G03X283071Y279969I1133J-1969D01*
G01Y286173D02*
G03X279969Y283071I-1969J-1134D01*
G01X287008Y286173D02*
G03X283071I-1969J-1134D01*
G01X290945D02*
G03X287008I-1969J-1134D01*
G01X292807Y287309D02*
G03X290945Y286173I106J-2270D01*
G01X292807Y287309D02*
Y295563D01*
X276104*
X273502D02*
G03X276104I1301J-1862D01*
G01X273502D02*
X258177D01*
Y274263*
X255684Y270957D02*
G03X258177Y274263I1993J1090D01*
G01X255684Y270957D02*
X160236D01*
X159736Y271457D02*
G03X160236Y270957I500J-0D01*
G01X159736Y271457D02*
Y295563D01*
X152665*
Y294633*
X153150Y294047D02*
G03X152665Y294633I-1969J-1134D01*
G01X156252Y290945D02*
G03X153150Y294047I-1134J1968D01*
G01Y287843D02*
G03X156252Y290945I1968J1133D01*
G01X152665Y287257D02*
G03X153150Y287843I-1484J1719D01*
G01X152665Y287257D02*
Y256486D01*
X150010Y253831*
X142333*
X140264Y251761*
Y238474*
Y233967D02*
G03Y238474I287J2253D01*
G01Y233967D02*
Y183637D01*
Y181718D02*
G03Y183637I2059J959D01*
G01Y181718D02*
Y171861D01*
X148435Y163689*
X173598*
X177583D02*
G03X173598I-1992J-1091D01*
G01X177583D02*
X198849D01*
X201939D02*
G03X198849I-1545J1665D01*
G01X201939D02*
X310817D01*
X314461Y167333*
X197138Y147154D02*
Y161902D01*
X177753*
X173428D02*
G03X177753I2163J696D01*
G01X173428D02*
X148435D01*
X147172Y162425D02*
G03X148435Y161902I1263J1264D01*
G01X147172Y162425D02*
X139000Y170597D01*
X138476Y171861D02*
G03X139000Y170597I1788J-0D01*
G01X138476Y171861D02*
Y235295D01*
Y237145D02*
G03Y235295I2075J-925D01*
G01Y237145D02*
Y251761D01*
X139000Y253025D02*
G03X138476Y251761I1264J-1264D01*
G01X139000Y253025D02*
X141069Y255095D01*
X142333Y255618D02*
G03X141069Y255095I0J-1787D01*
G01X142333Y255618D02*
X149270D01*
X150878Y257226*
Y286725*
X149213Y287843D02*
G03X150878Y286725I1968J1133D01*
G01X145276Y287843D02*
G03X149213I1968J1133D01*
G01X142173Y290945D02*
G03X145276Y287843I1134J-1969D01*
G01Y294047D02*
G03X142173Y290945I-1969J-1134D01*
G01X149213Y294047D02*
G03X145276I-1969J-1134D01*
G01X150878Y295165D02*
G03X149213Y294047I303J-2252D01*
G01X150878Y295165D02*
Y295563D01*
X129634*
Y288189*
X128346Y286902D02*
G03X129634Y288189I0J1287D01*
G01X128346Y286902D02*
X113112D01*
X112945Y283071D02*
G03X113112Y286902I-1134J1968D01*
G01X112945Y279134D02*
G03Y283071I-1134J1968D01*
G01X110677Y279134D02*
G03X112945I1134J-1969D01*
G01X109843Y279969D02*
G03X110677Y279134I1968J1133D01*
G01X105906Y279969D02*
G03X109843I1968J1133D01*
G01X105071Y279134D02*
G03X105906Y279969I-1134J1968D01*
G01X102803Y279134D02*
G03X105071I1134J-1969D01*
G01X102803Y283071D02*
G03Y279134I1134J-1969D01*
G01X105906Y286173D02*
G03X102803Y283071I-1969J-1134D01*
G01X109843Y286173D02*
G03X105906I-1969J-1134D01*
G01X110612Y286969D02*
G03X109843Y286173I1199J-1930D01*
G01X109736Y288189D02*
G03X110612Y286969I1288J-0D01*
G01X109736Y288189D02*
Y295563D01*
X101287*
Y176091*
X125984*
X126484Y175591D02*
G03X125984Y176091I-500J-0D01*
G01X126484Y175591D02*
Y147154D01*
X197138*
X300681Y101287D02*
Y132864D01*
X297037Y136508*
X150601*
X146957Y132864*
Y101287*
X152451*
X157785D02*
G03X152451I-2667J1174D01*
G01X157785D02*
X207569D01*
X212903D02*
G03X207569I-2667J1174D01*
G01X212903D02*
X262687D01*
X268022D02*
G03X262687I-2668J1174D01*
G01X268022D02*
X300681D01*
X413673D02*
Y168398D01*
X409898*
X405063D02*
G03X409898I2417J500D01*
G01X405063D02*
X380128D01*
X378864Y168921D02*
G03X380128Y168398I1264J1264D01*
G01X378864Y168921D02*
X375220Y172565D01*
X374697Y173829D02*
G03X375220Y172565I1787J0D01*
G01X374697Y173829D02*
Y183325D01*
X371514Y186508*
X346364*
X345228Y184646D02*
G03X346364Y186508I-1134J1968D01*
G01X342126Y181543D02*
G03X345228Y184646I1968J1134D01*
G01X338189Y181543D02*
G03X342126I1968J1134D01*
G01X335087Y184646D02*
G03X338189Y181543I1133J-1969D01*
G01X334252Y185480D02*
G03X335087Y184646I1968J1134D01*
G01X330315Y185480D02*
G03X334252I1968J1134D01*
G01X326077Y186508D02*
G03X330315Y185480I2269J106D01*
G01X326077Y186508D02*
X316248D01*
Y167333*
X315725Y166069D02*
G03X316248Y167333I-1264J1264D01*
G01X315725Y166069D02*
X313643Y163988D01*
X310722Y161902D02*
G03X313643Y163988I2270J-91D01*
G01X310722Y161902D02*
X310198D01*
X306731D02*
G03X310198I1734J-1469D01*
G01X306731D02*
X198925D01*
Y147154*
X197138Y145366D02*
G03X198925Y147154I-0J1788D01*
G01X197138Y145366D02*
X126484D01*
Y142126*
X125984Y141626D02*
G03X126484Y142126I0J500D01*
G01X125984Y141626D02*
X101287D01*
Y101287*
X109736*
Y108661*
X111024Y109949D02*
G03X109736Y108661I-0J-1288D01*
G01X111024Y109949D02*
X114447D01*
X114614Y113780D02*
G03X114447Y109949I1134J-1969D01*
G01X114614Y117717D02*
G03Y113780I1134J-1969D01*
G01X117717Y120819D02*
G03X114614Y117717I-1969J-1134D01*
G01X120819D02*
G03X117717Y120819I-1134J1968D01*
G01X120819Y113780D02*
G03Y117717I-1134J1968D01*
G01X121654Y112945D02*
G03X120819Y113780I-1969J-1134D01*
G01X125591Y112945D02*
G03X121654I-1969J-1134D01*
G01X129528D02*
G03X125591I-1969J-1134D01*
G01X133465D02*
G03X129528I-1969J-1134D01*
G01X136567Y109843D02*
G03X133465Y112945I-1134J1968D01*
G01X136567Y105906D02*
G03Y109843I-1134J1968D01*
G01X133465Y102803D02*
G03X136567Y105906I1968J1134D01*
G01X129634Y102636D02*
G03X133465Y102803I1862J1301D01*
G01X129634Y102636D02*
Y101287D01*
X145169*
Y132864*
Y132872D02*
G03Y132864I1788J-8D01*
G01X143012Y133313D02*
G03X145169Y132872I1476J1726D01*
G01X139862Y133503D02*
G03X143012Y133313I1673J1536D01*
G01X139862Y136576D02*
G03Y133503I-1673J-1537D01*
G01X143012Y136766D02*
G03X139862Y136576I-1477J-1727D01*
G01X146755Y135190D02*
G03X143012Y136766I-2267J-151D01*
G01X146755Y135190D02*
X149337Y137772D01*
X150601Y138295D02*
G03X149337Y137772I-0J-1787D01*
G01X150601Y138295D02*
X297037D01*
X298301Y137772D02*
G03X297037Y138295I-1264J-1264D01*
G01X298301Y137772D02*
X301945Y134128D01*
X302469Y132864D02*
G03X301945Y134128I-1788J-0D01*
G01X302469Y132864D02*
Y101287D01*
X385327*
Y108661*
X386614Y109949D02*
G03X385327Y108661I0J-1288D01*
G01X386614Y109949D02*
X403937D01*
X405157Y109073D02*
G03X403937Y109949I-1220J-412D01*
G01X409055Y109008D02*
G03X405157Y109073I-1968J-1134D01*
G01X412157Y105906D02*
G03X409055Y109008I-1133J1968D01*
G01Y102803D02*
G03X412157Y105906I1969J1134D01*
G01X405224Y102636D02*
G03X409055Y102803I1863J1301D01*
G01X405224Y102636D02*
Y101287D01*
X413673*
X409949Y177165D02*
G03X409949I-2469J0D01*
G01Y185433D02*
G03X409949I-2469J0D01*
G01Y198031D02*
G03X409949I-2469J0D01*
G01Y206299D02*
G03X409949I-2469J0D01*
G01Y235433D02*
G03X409949I-2469J0D01*
G01Y243701D02*
G03X409949I-2469J0D01*
G01Y267323D02*
G03X409949I-2469J0D01*
G01Y275591D02*
G03X409949I-2469J0D01*
G01X392472Y216142D02*
G03X389370Y219244I-1133J1968D01*
G01Y213039D02*
G03X392472Y216142I1969J1134D01*
G01X385433Y213039D02*
G03X389370I1969J1134D01*
G01X381496D02*
G03X385433I1969J1134D01*
G01X377559D02*
G03X381496I1969J1134D01*
G01X374457Y216142D02*
G03X377559Y213039I1134J-1969D01*
G01Y219244D02*
G03X374457Y216142I-1968J-1134D01*
G01X381496Y219244D02*
G03X377559I-1968J-1134D01*
G01X385433D02*
G03X381496I-1968J-1134D01*
G01X389370D02*
G03X385433I-1968J-1134D01*
G01X392472Y255512D02*
G03X389370Y258614I-1133J1968D01*
G01Y252410D02*
G03X392472Y255512I1969J1133D01*
G01X385433Y252410D02*
G03X389370I1969J1133D01*
G01X381496D02*
G03X385433I1969J1133D01*
G01X377559D02*
G03X381496I1969J1133D01*
G01X374457Y255512D02*
G03X377559Y252410I1134J-1969D01*
G01Y258614D02*
G03X374457Y255512I-1968J-1134D01*
G01X381496Y258614D02*
G03X377559I-1968J-1134D01*
G01X385433D02*
G03X381496I-1968J-1134D01*
G01X389370D02*
G03X385433I-1968J-1134D01*
G01X368020Y258661D02*
G03X368020I-2272J0D01*
G01X366839Y287795D02*
G03X366839I-2272J0D01*
G01X361720Y192520D02*
G03X361720I-2271J0D01*
G01X361327Y222835D02*
G03X361327I-2272J0D01*
G01Y271654D02*
G03X361327I-2272J0D01*
G01X346366Y202362D02*
G03X346366I-2272J0D01*
G01X344398Y223425D02*
G03X344398I-2272J0D01*
G01X343215Y239479D02*
G03X340449Y241784I-302J2450D01*
X343215Y239479I496J-2217*
G01X338492Y223622D02*
G03X338492I-2272J0D01*
G01X335146Y226969D02*
G03X335146I-2272J0D01*
G01X331602Y230906D02*
G03X331602I-2271J0D01*
G01X334348Y237992D02*
G03X332975I-687J2165D01*
X334348I686J-2165*
G01X332587Y254724D02*
G03X332587I-2272J0D01*
G01Y261811D02*
G03X332587I-2272J0D01*
G01X320382Y198425D02*
G03X320382I-2272J0D01*
G01X319988Y206299D02*
G03X319988I-2271J0D01*
G01X323925Y253543D02*
G03X323925I-2271J0D01*
G01X325894Y273622D02*
G03X325894I-2272J0D01*
G01X320382Y257874D02*
G03X320382I-2272J0D01*
G01X320776Y266535D02*
G03X320776I-2272J0D01*
G01X306996Y273622D02*
G03X306996I-2272J0D01*
G01X265264Y200787D02*
G03X265264I-2272J0D01*
G01X267626Y213386D02*
G03X267626I-2272J0D01*
G01X259752Y201969D02*
G03X259752I-2272J0D01*
G01X260146Y208268D02*
G03X260146I-2272J0D01*
G01X262902Y212008D02*
G03X262902I-2272J0D01*
G01X245972Y207087D02*
G03X245972I-2271J0D01*
G01X238492Y191732D02*
G03X238492I-2272J0D01*
G01X237705Y208661D02*
G03X237705I-2272J0D01*
G01X229437Y207874D02*
G03X229437I-2272J0D01*
G01X204634Y207087D02*
G03X204634I-2272J0D01*
G01X196366Y206693D02*
G03X196366I-2272J0D01*
G01X190264D02*
G03X190264I-2272J0D01*
G01X300697Y257874D02*
G03X300697I-2272J0D01*
G01X308768Y183071D02*
G03X308768I-2272J0D01*
G01X284161Y171850D02*
G03X284161I-2271J0D01*
G01X282587Y179528D02*
G03X282587I-2272J0D01*
G01X262885Y178227D02*
G03X261524Y180041I895J2088D01*
X262885Y178227I-894J-2088*
G01X255618Y170866D02*
G03X255618I-2272J0D01*
G01X253059Y183268D02*
G03X253059I-2272J0D01*
G01X238492Y174803D02*
G03X238492I-2272J0D01*
G01X198925Y175000D02*
G03X198925I-2271J0D01*
G01X268731Y227548D02*
G03X269458Y228554I2135J-776D01*
X268731Y227548I-2135J777*
G01X277075Y279528D02*
G03X277075I-2272J0D01*
G01X273138Y285827D02*
G03X273138I-2272J0D01*
G01X267626Y237402D02*
G03X267626I-2272J0D01*
G01X261668Y243245D02*
G03X259986Y243566I-448J2227D01*
X261668Y243245I447J-2227*
G01X267626Y281102D02*
G03X267626I-2272J0D01*
G01X255421Y226969D02*
G03X255421I-2271J0D01*
G01X254240Y241929D02*
G03X254240I-2271J0D01*
G01X257086Y251413D02*
G03X256496Y251737I788J2130D01*
X257086Y251413I-787J-2131*
G01X259949Y259252D02*
G03X259949I-2272J0D01*
G01X257390Y266339D02*
G03X257390I-2272J0D01*
G01X220079Y256347D02*
G03Y258614I1968J1133D01*
G01X216142Y256347D02*
G03X220079I1968J1133D01*
G01X212205D02*
G03X216142I1968J1133D01*
G01X208268D02*
G03X212205I1968J1133D01*
G01X208268Y258614D02*
G03Y256347I-1969J-1134D01*
G01X212205Y258614D02*
G03X208268I-1969J-1134D01*
G01X216142D02*
G03X212205I-1969J-1134D01*
G01X220079D02*
G03X216142I-1969J-1134D01*
G01X220079Y264221D02*
G03Y266488I1968J1133D01*
G01X216142Y264221D02*
G03X220079I1968J1133D01*
G01X212205D02*
G03X216142I1968J1133D01*
G01X208268D02*
G03X212205I1968J1133D01*
G01X208268Y266488D02*
G03Y264221I-1969J-1134D01*
G01X212205Y266488D02*
G03X208268I-1969J-1134D01*
G01X216142D02*
G03X212205I-1969J-1134D01*
G01X220079D02*
G03X216142I-1969J-1134D01*
G01X173138Y256890D02*
G03X173138I-2272J0D01*
G01X176681Y266929D02*
G03X176681I-2862J0D01*
G01X164083Y195669D02*
G03X164083I-2272J0D01*
G01X158571Y181102D02*
G03X158571I-2272J0D01*
G01X155815Y188583D02*
G03X155815I-2272J0D01*
G01X158571Y201969D02*
G03X158571I-2272J0D01*
G01X153453Y201181D02*
G03X153453I-2272J0D01*
G01X150697Y227559D02*
G03X150697I-2272J0D01*
G01X167233Y181275D02*
G03X168201Y182308I2058J-960D01*
G01X164083D02*
G03X167233Y181275I2059J960D01*
G01X163870Y183243D02*
G03X164083Y182308I-2059J-960D01*
G01X168201D02*
G03X163870Y183243I-2059J960D01*
G01X173925Y186024D02*
G03X173925I-2271J0D01*
G01X179437Y171654D02*
G03X179437I-2272J0D01*
G01X267323Y291780D02*
G03Y294047I1968J1133D01*
G01X266488Y290945D02*
G03X267323Y291780I-1134J1968D01*
G01X263386Y287843D02*
G03X266488Y290945I1968J1133D01*
G01X260284D02*
G03X263386Y287843I1133J-1969D01*
G01Y294047D02*
G03X260284Y290945I-1969J-1134D01*
G01X267323Y294047D02*
G03X263386I-1969J-1134D01*
G01X141339Y150047D02*
G03Y152315I1968J1134D01*
G01X137402Y150047D02*
G03X141339I1968J1134D01*
G01X133465D02*
G03X137402I1968J1134D01*
G01X133465Y152315D02*
G03Y150047I-1969J-1134D01*
G01X137402Y152315D02*
G03X133465I-1969J-1134D01*
G01X141339D02*
G03X137402I-1969J-1134D01*
G01X141339Y157921D02*
G03Y160189I1968J1134D01*
G01X137402Y157921D02*
G03X141339I1968J1134D01*
G01X133465D02*
G03X137402I1968J1134D01*
G01X133465Y160189D02*
G03Y157921I-1969J-1134D01*
G01X137402Y160189D02*
G03X133465I-1969J-1134D01*
G01X141339D02*
G03X137402I-1969J-1134D01*
G01X133465Y165795D02*
G03Y168063I1968J1134D01*
Y165795I-1969J-1134*
G01X127862Y182677D02*
G03X127862I-2271J0D01*
G01X132193Y217323D02*
G03X132193I-2272J0D01*
G01X126287Y236220D02*
G03X126287I-2271J0D01*
G01X128256Y248425D02*
G03X128256I-2272J0D01*
G01Y278346D02*
G03X128256I-2272J0D01*
G01X114272Y180951D02*
G03Y184404I1476J1726D01*
G01X110827Y181543D02*
G03X114272Y180951I1968J1134D01*
G01X110827Y183811D02*
G03Y181543I-1969J-1134D01*
G01X114272Y184404D02*
G03X110827Y183811I-1477J-1727D01*
G01X112945Y251575D02*
G03X110677I-1134J1968D01*
G01X112945Y247638D02*
G03Y251575I-1134J1968D01*
G01X109843Y244535D02*
G03X112945Y247638I1968J1134D01*
G01X105906Y244535D02*
G03X109843I1968J1134D01*
G01X102803Y247638D02*
G03X105906Y244535I1134J-1969D01*
G01X102803Y251575D02*
G03Y247638I1134J-1969D01*
G01X105071Y251575D02*
G03X102803I-1134J1968D01*
G01X105906Y250740D02*
G03X105071Y251575I-1969J-1134D01*
G01X109843Y250740D02*
G03X105906I-1969J-1134D01*
G01X110677Y251575D02*
G03X109843Y250740I1134J-1969D01*
G01X286917Y129134D02*
G03X286917I-2271J0D01*
G01X270382Y107874D02*
G03X270382I-2272J0D01*
G01X268268Y113287D02*
G03X268268I-2914J0D01*
G01X252862Y104528D02*
G03X252862I-2862J0D01*
G01X213150Y113287D02*
G03X213150I-2914J0D01*
G01X196957Y110039D02*
G03X196957I-2272J0D01*
G01X223181Y121654D02*
G03X220079Y124756I-1134J1968D01*
G01Y118551D02*
G03X223181Y121654I1968J1134D01*
G01X216142Y118551D02*
G03X220079I1968J1134D01*
G01X212205D02*
G03X216142I1968J1134D01*
G01X208268D02*
G03X212205I1968J1134D01*
G01X204331D02*
G03X208268I1968J1134D01*
G01X200394D02*
G03X204331I1968J1134D01*
G01X197291Y121654D02*
G03X200394Y118551I1134J-1969D01*
G01Y124756D02*
G03X197291Y121654I-1969J-1134D01*
G01X204331Y124756D02*
G03X200394I-1969J-1134D01*
G01X208268D02*
G03X204331I-1969J-1134D01*
G01X212205D02*
G03X208268I-1969J-1134D01*
G01X216142D02*
G03X212205I-1969J-1134D01*
G01X220079D02*
G03X216142I-1969J-1134D01*
G01X205618Y131693D02*
G03X205618I-2272J0D01*
G01X185539Y124016D02*
G03X185539I-2468J0D01*
G01X158032Y113287D02*
G03X158032I-2914J0D01*
G01X412311Y122441D02*
G03X412311I-2468J0D01*
G01X408571Y136614D02*
G03X408571I-2272J0D01*
G01X409514Y151091D02*
G03X404660I-2427J1862D01*
G01X409514D02*
X409646D01*
X410146Y150591D02*
G03X409646Y151091I-500J-0D01*
G01X410146Y150591D02*
Y145472D01*
X409646Y144972D02*
G03X410146Y145472I-0J500D01*
G01X409646Y144972D02*
X404528D01*
X404028Y145472D02*
G03X404528Y144972I500J0D01*
G01X404028Y145472D02*
Y150591D01*
X404528Y151091D02*
G03X404028Y150591I-0J-500D01*
G01X404528Y151091D02*
X404660D01*
X391445Y118504D02*
G03X391445I-2272J0D01*
G01X384883Y120760D02*
G03Y124909I1337J2075D01*
G01Y120760D02*
X373102D01*
X372567D02*
G03X373102I268J-2256D01*
G01X372567D02*
X341692D01*
Y124909D02*
G03Y120760I-1338J-2074D01*
G01Y124909D02*
X384883D01*
X390854Y146457D02*
G03X390854I-2271J0D01*
G01Y155118D02*
G03X390854I-2271J0D01*
G01X384752Y136614D02*
G03X384752I-2469J0D01*
G01X372547D02*
G03X372547I-2468J0D01*
G01X357783Y133858D02*
G03X357783I-2271J0D01*
G01X340067Y142126D02*
G03X340067I-2272J0D01*
G01X343413Y158661D02*
G03X343413I-2468J0D01*
G01X338295Y156102D02*
G03X338295I-2271J0D01*
G01X331799Y128150D02*
G03X331799I-2271J0D01*
G01X325500Y111614D02*
G03X325500I-2862J0D01*
G01X323532Y127953D02*
G03X323532I-2272J0D01*
G01X314673Y111024D02*
G03X314673I-2468J0D01*
G01X318020Y116535D02*
G03X318020I-2272J0D01*
G01X308177Y140354D02*
G03X308177I-2271J0D01*
G01X310736Y155118D02*
G03X310736I-2271J0D01*
G01X283768Y146457D02*
G03X283768I-2272J0D01*
G01X285736Y152756D02*
G03X285736I-2271J0D01*
G01X280028Y149606D02*
G03X280028I-2272J0D01*
G01X281012Y156496D02*
G03X281012I-2272J0D01*
G01X128937Y131827D02*
G03Y135102I1575J1638D01*
Y131827I-1575J-1637*
G01X123138Y135039D02*
G03X123138I-2272J0D01*
G01X111417Y134102D02*
G03Y136370I1969J1134D01*
Y134102I-1968J-1134*
G01X356406Y116535D02*
G03X356406I-2272J0D01*
G01X350697Y111811D02*
G03X350697I-2862J0D01*
G01X405224Y295284D02*
X413673D01*
X405224Y294384D02*
X413673D01*
X405224Y293484D02*
X413673D01*
X405224Y292584D02*
X413673D01*
X405224Y291684D02*
X413673D01*
X405224Y290784D02*
X413673D01*
X405224Y289884D02*
X413673D01*
X405224Y288984D02*
X413673D01*
X405220Y288084D02*
X413673D01*
X404741Y287184D02*
X413673D01*
X366263Y286284D02*
X413673D01*
X295159Y285384D02*
X413673D01*
X295116Y284484D02*
X413673D01*
X294657Y283584D02*
X413673D01*
X294594Y282684D02*
X413673D01*
X295080Y281784D02*
X413673D01*
X295175Y280884D02*
X413673D01*
X294891Y279984D02*
X413673D01*
X294594Y279084D02*
X413673D01*
X294594Y278184D02*
X413673D01*
X409277Y277284D02*
X413673D01*
X409818Y276384D02*
X413673D01*
X409947Y275484D02*
X413673D01*
X409734Y274584D02*
X413673D01*
X409048Y273684D02*
X413673D01*
X361026Y272784D02*
X413673D01*
X361315Y271884D02*
X413673D01*
X361226Y270984D02*
X413673D01*
X409224Y196284D02*
X413673D01*
X176091Y195384D02*
X413673D01*
X360590Y194484D02*
X413673D01*
X361456Y193584D02*
X413673D01*
X361715Y192684D02*
X413673D01*
X361598Y191784D02*
X413673D01*
X361025Y190884D02*
X413673D01*
X256119Y189984D02*
X413673D01*
X256546Y189084D02*
X413673D01*
X372366Y188184D02*
X413673D01*
X409114Y187284D02*
X413673D01*
X409758Y186384D02*
X413673D01*
X409948Y185484D02*
X413673D01*
X409798Y184584D02*
X413673D01*
X409222Y183684D02*
X413673D01*
X376484Y182784D02*
X413673D01*
X376484Y181884D02*
X413673D01*
X376484Y180984D02*
X413673D01*
X376484Y180084D02*
X413673D01*
X408902Y179184D02*
X413673D01*
X409681Y178284D02*
X413673D01*
X409939Y177384D02*
X413673D01*
X409853Y176484D02*
X413673D01*
X409376Y175584D02*
X413673D01*
X376484Y174684D02*
X413673D01*
X376530Y173784D02*
X413673D01*
X377430Y172884D02*
X413673D01*
X378330Y171984D02*
X413673D01*
X408627Y171084D02*
X413673D01*
X409799Y197184D02*
X412651D01*
X360697Y270084D02*
X411977D01*
X409948Y198084D02*
X411751D01*
X409102Y269184D02*
X411705D01*
X409754Y268284D02*
X411705D01*
X409948Y267384D02*
X411705D01*
X409802Y266484D02*
X411705D01*
X409232Y265584D02*
X411705D01*
X319820Y264684D02*
X411705D01*
X331441Y263784D02*
X411705D01*
X332317Y262884D02*
X411705D01*
X332580Y261984D02*
X411705D01*
X332467Y261084D02*
X411705D01*
X367434Y260184D02*
X411705D01*
X392720Y259284D02*
X411705D01*
X393423Y258384D02*
X411705D01*
X393610Y257484D02*
X411705D01*
X393426Y256584D02*
X411705D01*
X392729Y255684D02*
X411705D01*
X393242Y254784D02*
X411705D01*
X393585Y253884D02*
X411705D01*
X393540Y252984D02*
X411705D01*
X393079Y252084D02*
X411705D01*
X296910Y251184D02*
X411705D01*
X297444Y250284D02*
X411705D01*
X297536Y249384D02*
X411705D01*
X297251Y248484D02*
X411705D01*
X296310Y247584D02*
X411705D01*
X294594Y246684D02*
X411705D01*
X408805Y245784D02*
X411705D01*
X409647Y244884D02*
X411705D01*
X409933Y243984D02*
X411705D01*
X409870Y243084D02*
X411705D01*
X409428Y242184D02*
X411705D01*
X407982Y241284D02*
X411705D01*
X344838Y240384D02*
X411705D01*
X343250Y239484D02*
X411705D01*
X342993Y238584D02*
X411705D01*
X408494Y237684D02*
X411705D01*
X409547Y236784D02*
X411705D01*
X409907Y235884D02*
X411705D01*
X409908Y234984D02*
X411705D01*
X409547Y234084D02*
X411705D01*
X408497Y233184D02*
X411705D01*
X331137Y232284D02*
X411705D01*
X331551Y231384D02*
X411705D01*
X331563Y230484D02*
X411705D01*
X331178Y229584D02*
X411705D01*
X334363Y228684D02*
X411705D01*
X334994Y227784D02*
X411705D01*
X335144Y226884D02*
X411705D01*
X334921Y225984D02*
X411705D01*
X359375Y225084D02*
X411705D01*
X360883Y224184D02*
X411705D01*
X361282Y223284D02*
X411705D01*
X361282Y222384D02*
X411705D01*
X360881Y221484D02*
X411705D01*
X359362Y220584D02*
X411705D01*
X392977Y219684D02*
X411705D01*
X393508Y218784D02*
X411705D01*
X393599Y217884D02*
X411705D01*
X393311Y216984D02*
X411705D01*
X392568Y216084D02*
X411705D01*
X393373Y215184D02*
X411705D01*
X393608Y214284D02*
X411705D01*
X393469Y213384D02*
X411705D01*
X392857Y212484D02*
X411705D01*
X266737Y211584D02*
X411705D01*
X262476Y210684D02*
X411705D01*
X261092Y209784D02*
X411705D01*
X260061Y208884D02*
X411705D01*
X409285Y207984D02*
X411705D01*
X409821Y207084D02*
X411705D01*
X409946Y206184D02*
X411705D01*
X409730Y205284D02*
X411705D01*
X409037Y204384D02*
X411705D01*
X346070Y203484D02*
X411705D01*
X346355Y202584D02*
X411705D01*
X346262Y201684D02*
X411705D01*
X345728Y200784D02*
X411705D01*
X409112Y199884D02*
X411705D01*
X409758Y198984D02*
X411705D01*
X345296Y241284D02*
X406979D01*
X342215Y237684D02*
X406466D01*
X294594Y233184D02*
X406463D01*
X379230Y171084D02*
X406334D01*
X294594Y245784D02*
X406156D01*
X376484Y179184D02*
X406059D01*
X345131Y204384D02*
X405923D01*
X360074Y273684D02*
X405913D01*
X294594Y269184D02*
X405858D01*
X319852Y199884D02*
X405848D01*
X373266Y187284D02*
X405847D01*
X376484Y183684D02*
X405739D01*
X318868Y196284D02*
X405737D01*
X320567Y265584D02*
X405728D01*
X294594Y277284D02*
X405684D01*
X319241Y207984D02*
X405676D01*
X376484Y175584D02*
X405585D01*
X345369Y242184D02*
X405533D01*
X335722Y236784D02*
X405414D01*
X335118Y234084D02*
X405413D01*
X299556Y244884D02*
X405314D01*
X376484Y178284D02*
X405280D01*
X319749Y205284D02*
X405230D01*
X325680Y274584D02*
X405226D01*
X319954Y268284D02*
X405206D01*
X320312Y198984D02*
X405203D01*
X374166Y186384D02*
X405202D01*
X375966Y184584D02*
X405163D01*
X320013Y197184D02*
X405162D01*
X320775Y266484D02*
X405159D01*
X294594Y276384D02*
X405143D01*
X319848Y207084D02*
X405140D01*
X376484Y176484D02*
X405108D01*
X345095Y243084D02*
X405090D01*
X335932Y235884D02*
X405053D01*
X335771Y234984D02*
X405053D01*
X344282Y243984D02*
X405028D01*
X376484Y177384D02*
X405021D01*
X319985Y206184D02*
X405014D01*
X324924Y275484D02*
X405014D01*
X320611Y267384D02*
X405013D01*
X320356Y198084D02*
X405012D01*
X375066Y185484D02*
X405012D01*
X388783Y259284D02*
X389957D01*
X388920Y212484D02*
X389820D01*
X389040Y219684D02*
X389700D01*
X389142Y252084D02*
X389598D01*
X384846Y259284D02*
X386020D01*
X384983Y212484D02*
X385883D01*
X366755Y287184D02*
X385810D01*
X385103Y219684D02*
X385763D01*
X385205Y252084D02*
X385661D01*
X366820Y288084D02*
X385331D01*
X360684Y295284D02*
X385327D01*
X361222Y294384D02*
X385327D01*
X361316Y293484D02*
X385327D01*
X361033Y292584D02*
X385327D01*
X360100Y291684D02*
X385327D01*
X294594Y290784D02*
X385327D01*
X365461Y289884D02*
X385327D01*
X366503Y288984D02*
X385327D01*
X380909Y259284D02*
X382083D01*
X381046Y212484D02*
X381946D01*
X381166Y219684D02*
X381826D01*
X381268Y252084D02*
X381724D01*
X376972Y259284D02*
X378146D01*
X377109Y212484D02*
X378009D01*
X377229Y219684D02*
X377889D01*
X377331Y252084D02*
X377787D01*
X256439Y216084D02*
X374362D01*
X367933Y259284D02*
X374209D01*
X332374Y255684D02*
X374200D01*
X267439Y212484D02*
X374072D01*
X291651Y219684D02*
X373952D01*
X323394Y252084D02*
X373850D01*
X332586Y254784D02*
X373687D01*
X256602Y216984D02*
X373618D01*
X266743Y215184D02*
X373556D01*
X368003Y258384D02*
X373506D01*
X366667Y256584D02*
X373503D01*
X267626Y213384D02*
X373460D01*
X290751Y218784D02*
X373421D01*
X331775Y252984D02*
X373389D01*
X332425Y253884D02*
X373345D01*
X256392Y217884D02*
X373330D01*
X267441Y214284D02*
X373322D01*
X367691Y257484D02*
X373319D01*
X331620Y256584D02*
X364829D01*
X331900Y260184D02*
X364062D01*
X320348Y257484D02*
X363805D01*
X294594Y289884D02*
X363673D01*
X319892Y259284D02*
X363563D01*
X320324Y258384D02*
X363493D01*
X294814Y286284D02*
X362871D01*
X294594Y288984D02*
X362631D01*
X294594Y287184D02*
X362379D01*
X294594Y288084D02*
X362314D01*
X292551Y220584D02*
X358749D01*
X343678Y225084D02*
X358736D01*
X176091Y194484D02*
X358307D01*
X325893Y273684D02*
X358036D01*
X294594Y291684D02*
X358010D01*
X238328Y190884D02*
X357873D01*
X237537Y193584D02*
X357442D01*
X294594Y295284D02*
X357426D01*
X294594Y270084D02*
X357413D01*
X238492Y191784D02*
X357300D01*
X343305Y221484D02*
X357229D01*
X344267Y224184D02*
X357227D01*
X238283Y192684D02*
X357183D01*
X325733Y272784D02*
X357085D01*
X294594Y292584D02*
X357077D01*
X294594Y294384D02*
X356889D01*
X294594Y270984D02*
X356884D01*
X344145Y222384D02*
X356829D01*
X344393Y223284D02*
X356828D01*
X325084Y271884D02*
X356795D01*
X294594Y293484D02*
X356794D01*
X318938Y204384D02*
X343058D01*
X265264Y200784D02*
X342461D01*
X259173Y203484D02*
X342119D01*
X265079Y201684D02*
X341926D01*
X264383Y202584D02*
X341834D01*
X300429Y243984D02*
X341545D01*
X336987Y221484D02*
X340946D01*
X300690Y243084D02*
X340732D01*
X337959Y225084D02*
X340574D01*
X334688Y242184D02*
X340458D01*
X338125Y222384D02*
X340107D01*
X338422Y224184D02*
X339985D01*
X338467Y223284D02*
X339859D01*
X334970Y237684D02*
X339674D01*
X335634Y241284D02*
X339457D01*
X335300Y238584D02*
X338897D01*
X335922Y240384D02*
X338825D01*
X335831Y239484D02*
X338675D01*
X293451Y221484D02*
X335454D01*
X334142Y225084D02*
X334482D01*
X294351Y222384D02*
X334316D01*
X294594Y224184D02*
X334019D01*
X294594Y223284D02*
X333974D01*
X300576Y242184D02*
X332634D01*
X294594Y237684D02*
X332353D01*
X294594Y234084D02*
X332205D01*
X296914Y238584D02*
X332023D01*
X300008Y241284D02*
X331689D01*
X294594Y225084D02*
X331606D01*
X294594Y236784D02*
X331601D01*
X294594Y234984D02*
X331552D01*
X297445Y239484D02*
X331492D01*
X297536Y240384D02*
X331401D01*
X294594Y235884D02*
X331390D01*
X329804Y228684D02*
X331385D01*
X294594Y225984D02*
X330827D01*
X294594Y227784D02*
X330754D01*
X294594Y226884D02*
X330604D01*
X294594Y263784D02*
X329188D01*
X319980Y256584D02*
X329010D01*
X294594Y228684D02*
X328857D01*
X323855Y252984D02*
X328855D01*
X294594Y260184D02*
X328730D01*
X294594Y262884D02*
X328313D01*
X322415Y255684D02*
X328256D01*
X323900Y253884D02*
X328205D01*
X294594Y261084D02*
X328163D01*
X294594Y261984D02*
X328050D01*
X323557Y254784D02*
X328044D01*
X294594Y232284D02*
X327525D01*
X294594Y229584D02*
X327483D01*
X294594Y231384D02*
X327110D01*
X294594Y230484D02*
X327099D01*
X306026Y275484D02*
X322320D01*
X306187Y271884D02*
X322160D01*
X306782Y274584D02*
X321564D01*
X306836Y272784D02*
X321511D01*
X306995Y273684D02*
X321351D01*
X318713Y255684D02*
X320893D01*
X294594Y252084D02*
X319913D01*
X294594Y254784D02*
X319750D01*
X294594Y252984D02*
X319452D01*
X294594Y253884D02*
X319408D01*
X299028Y255684D02*
X317508D01*
X176091Y196284D02*
X317352D01*
X294594Y264684D02*
X317188D01*
X294594Y268284D02*
X317053D01*
X176091Y204384D02*
X316495D01*
X294594Y265584D02*
X316441D01*
X294594Y267384D02*
X316397D01*
X265076Y199884D02*
X316369D01*
X300207Y259284D02*
X316329D01*
X300295Y256584D02*
X316241D01*
X294594Y266484D02*
X316233D01*
X176091Y197184D02*
X316208D01*
X260128Y207984D02*
X316192D01*
X264373Y198984D02*
X315908D01*
X300639Y258384D02*
X315896D01*
X300663Y257484D02*
X315872D01*
X176091Y198084D02*
X315864D01*
X245083Y205284D02*
X315684D01*
X259813Y207084D02*
X315585D01*
X258778Y206184D02*
X315448D01*
X294594Y275484D02*
X303423D01*
X294594Y271884D02*
X303262D01*
X294594Y274584D02*
X302666D01*
X294594Y272784D02*
X302613D01*
X294594Y273684D02*
X302454D01*
X294594Y255684D02*
X297823D01*
X294594Y244884D02*
X297295D01*
X294594Y259284D02*
X296644D01*
X294594Y256584D02*
X296556D01*
X294594Y243984D02*
X296421D01*
X294594Y258384D02*
X296211D01*
X294594Y257484D02*
X296187D01*
X294594Y243084D02*
X296160D01*
X262862Y211584D02*
X263971D01*
X255785Y215184D02*
X263966D01*
X262851Y212484D02*
X263269D01*
X176091Y214284D02*
X263268D01*
X262438Y213384D02*
X263083D01*
X176091Y198984D02*
X261611D01*
X259667Y202584D02*
X261602D01*
X258383Y199884D02*
X260908D01*
X259734Y201684D02*
X260905D01*
X259419Y200784D02*
X260720D01*
X259566Y209784D02*
X260168D01*
X176091Y213384D02*
X258822D01*
X236468Y210684D02*
X258784D01*
X176091Y212484D02*
X258409D01*
X176091Y211584D02*
X258398D01*
X245785Y206184D02*
X256970D01*
X176091Y199884D02*
X256578D01*
X237408Y209784D02*
X256182D01*
X245972Y207084D02*
X255935D01*
X176091Y203484D02*
X255788D01*
X245090Y208884D02*
X255687D01*
X245788Y207984D02*
X255620D01*
X176091Y200784D02*
X255542D01*
X176091Y202584D02*
X255294D01*
X176091Y201684D02*
X255227D01*
X176091Y215184D02*
X252877D01*
X237671Y189984D02*
X252543D01*
X176091Y217884D02*
X252269D01*
X176091Y216084D02*
X252222D01*
X178946Y189084D02*
X252115D01*
X176091Y216984D02*
X252060D01*
X176091Y218784D02*
X245076D01*
X176091Y219684D02*
X244176D01*
X176091Y220584D02*
X243276D01*
X176091Y221484D02*
X242376D01*
X203744Y205284D02*
X242319D01*
X237694Y208884D02*
X242311D01*
X228683Y206184D02*
X241616D01*
X237601Y207984D02*
X241614D01*
X176091Y222384D02*
X241476D01*
X237068Y207084D02*
X241429D01*
X176091Y247584D02*
X241232D01*
X176091Y246684D02*
X241232D01*
X176091Y245784D02*
X241232D01*
X176091Y244884D02*
X241232D01*
X176091Y243984D02*
X241232D01*
X176563Y243084D02*
X241232D01*
X176864Y242184D02*
X241232D01*
X176784Y241284D02*
X241232D01*
X176271Y240384D02*
X241232D01*
X176091Y239484D02*
X241232D01*
X176091Y238584D02*
X241232D01*
X176091Y237684D02*
X241232D01*
X176433Y236784D02*
X241232D01*
X176833Y235884D02*
X241232D01*
X176833Y234984D02*
X241232D01*
X176434Y234084D02*
X241232D01*
X176091Y233184D02*
X241232D01*
X176091Y232284D02*
X241232D01*
X176091Y231384D02*
X241232D01*
X176091Y230484D02*
X241232D01*
X176091Y229584D02*
X241232D01*
X176091Y228684D02*
X241232D01*
X176091Y227784D02*
X241232D01*
X176091Y226884D02*
X241232D01*
X176091Y225984D02*
X241232D01*
X176091Y225084D02*
X241232D01*
X176091Y224184D02*
X241232D01*
X176091Y223284D02*
X241232D01*
X176750Y248484D02*
X240573D01*
X177650Y249384D02*
X239673D01*
X178550Y250284D02*
X238773D01*
X179450Y251184D02*
X237873D01*
X176091Y193584D02*
X234904D01*
X178046Y189984D02*
X234770D01*
X176091Y210684D02*
X234398D01*
X176091Y192684D02*
X234158D01*
X177146Y190884D02*
X234113D01*
X176246Y191784D02*
X233949D01*
X229295Y207084D02*
X233799D01*
X228396Y209784D02*
X233458D01*
X229434Y207984D02*
X233265D01*
X229200Y208884D02*
X233172D01*
X176091Y209784D02*
X225935D01*
X204447Y206184D02*
X225648D01*
X203752Y208884D02*
X225130D01*
X204634Y207084D02*
X225036D01*
X204449Y207984D02*
X224896D01*
X195876Y205284D02*
X200980D01*
X194695Y208884D02*
X200973D01*
X196308Y206184D02*
X200278D01*
X195964Y207984D02*
X200275D01*
X196332Y207084D02*
X200091D01*
X188593Y208884D02*
X193494D01*
X189774Y205284D02*
X192313D01*
X189861Y207984D02*
X192225D01*
X190206Y206184D02*
X191881D01*
X190230Y207084D02*
X191857D01*
X176091Y208884D02*
X187391D01*
X176091Y205284D02*
X186210D01*
X176091Y207984D02*
X186123D01*
X176091Y206184D02*
X185778D01*
X176091Y207084D02*
X185754D01*
X314165Y183488D02*
X314461D01*
X308716Y182588D02*
X314461D01*
X308298Y181688D02*
X314461D01*
X282205Y180788D02*
X314461D01*
X282558Y179888D02*
X314461D01*
X282522Y178988D02*
X314461D01*
X282072Y178088D02*
X314461D01*
X262769Y177188D02*
X314461D01*
X262175Y176288D02*
X314461D01*
X238416Y175388D02*
X314461D01*
X238470Y174488D02*
X314461D01*
X283353Y173588D02*
X314461D01*
X284002Y172688D02*
X314461D01*
X284161Y171788D02*
X314461D01*
X283947Y170888D02*
X314461D01*
X283190Y169988D02*
X314461D01*
X254760Y169088D02*
X314461D01*
X143937Y168188D02*
X314461D01*
X201586Y167288D02*
X314415D01*
X202417Y166388D02*
X313515D01*
X202661Y165488D02*
X312615D01*
X308729Y183488D02*
X311819D01*
X202532Y164588D02*
X311715D01*
X308347Y184388D02*
X310975D01*
X200691Y186188D02*
X310849D01*
X306992Y185288D02*
X310725D01*
X251827D02*
X306000D01*
X281018Y181688D02*
X304694D01*
X252764Y184388D02*
X304645D01*
X252955Y182588D02*
X304276D01*
X253048Y183488D02*
X304263D01*
X276602Y295088D02*
X292807D01*
X277022Y294188D02*
X292807D01*
X277037Y293288D02*
X292807D01*
X276657Y292388D02*
X292807D01*
X275316Y291488D02*
X292807D01*
X266956Y290588D02*
X292807D01*
X267512Y289688D02*
X292807D01*
X267618Y288788D02*
X292807D01*
X271822Y287888D02*
X292807D01*
X276473Y277988D02*
X292807D01*
X258177Y277088D02*
X292807D01*
X258177Y276188D02*
X292807D01*
X258177Y275288D02*
X292807D01*
X258177Y274388D02*
X292807D01*
X259434Y273488D02*
X292807D01*
X259884Y272588D02*
X292807D01*
X259920Y271688D02*
X292807D01*
X259568Y270788D02*
X292807D01*
X258382Y269888D02*
X292807D01*
X175808Y268988D02*
X292807D01*
X256568Y268088D02*
X292807D01*
X257225Y267188D02*
X292807D01*
X257389Y266288D02*
X292807D01*
X257181Y265388D02*
X292807D01*
X256435Y264488D02*
X292807D01*
X223475Y263588D02*
X292807D01*
X152665Y262688D02*
X292807D01*
X152665Y261788D02*
X292807D01*
X259254Y260888D02*
X292807D01*
X259826Y259988D02*
X292807D01*
X259943Y259088D02*
X292807D01*
X259684Y258188D02*
X292807D01*
X258818Y257288D02*
X292807D01*
X224039Y256388D02*
X292807D01*
X259049Y255488D02*
X292807D01*
X259891Y254588D02*
X292807D01*
X260141Y253688D02*
X292807D01*
X260016Y252788D02*
X292807D01*
X259429Y251888D02*
X292807D01*
X257512Y250988D02*
X292807D01*
X257929Y250088D02*
X292807D01*
X257941Y249188D02*
X292807D01*
X257558Y248288D02*
X292807D01*
X262442Y247388D02*
X292807D01*
X263253Y246488D02*
X292807D01*
X263489Y245588D02*
X292807D01*
X263352Y244688D02*
X292807D01*
X262744Y243788D02*
X292807D01*
X262095Y242888D02*
X292807D01*
X262610Y241988D02*
X292807D01*
X262691Y241088D02*
X292807D01*
X262392Y240188D02*
X292807D01*
X266620Y239288D02*
X292807D01*
X267401Y238388D02*
X292807D01*
X267624Y237488D02*
X292807D01*
X267475Y236588D02*
X292807D01*
X266845Y235688D02*
X292807D01*
X243020Y234788D02*
X292807D01*
X243020Y233888D02*
X292807D01*
X243020Y232988D02*
X292807D01*
X243020Y232088D02*
X292807D01*
X268631Y231188D02*
X292807D01*
X269383Y230288D02*
X292807D01*
X269594Y229388D02*
X292807D01*
X272355Y228488D02*
X292807D01*
X272986Y227588D02*
X292807D01*
X273136Y226688D02*
X292807D01*
X272914Y225788D02*
X292807D01*
X272135Y224888D02*
X292807D01*
X261614Y223988D02*
X292807D01*
X262452Y223088D02*
X292527D01*
X289482Y278888D02*
X292408D01*
X290145Y286988D02*
X291745D01*
X262700Y222188D02*
X291627D01*
X290829Y279788D02*
X291061D01*
X262574Y221288D02*
X290727D01*
X261984Y220388D02*
X289827D01*
X285545Y278888D02*
X288471D01*
X286208Y286988D02*
X287808D01*
X286892Y279788D02*
X287124D01*
X281608Y278888D02*
X284534D01*
X282271Y286988D02*
X283871D01*
X282955Y279788D02*
X283187D01*
X276983Y278888D02*
X280597D01*
X255441Y169988D02*
X280589D01*
X238140Y173588D02*
X280426D01*
X272819Y286988D02*
X279934D01*
X255618Y170888D02*
X279832D01*
X254704Y172688D02*
X279778D01*
X255423Y171788D02*
X279619D01*
X265590Y181688D02*
X279612D01*
X258177Y283388D02*
X279543D01*
X267155Y282488D02*
X279302D01*
X277060Y279788D02*
X279250D01*
X273123Y286088D02*
X279087D01*
X272537Y284288D02*
X278959D01*
X275760Y281588D02*
X278883D01*
X276756Y280688D02*
X278869D01*
X273046Y285188D02*
X278836D01*
X264226Y178088D02*
X278558D01*
X266001Y180788D02*
X278425D01*
X265623Y178988D02*
X278108D01*
X266011Y179888D02*
X278072D01*
X271060Y291488D02*
X274291D01*
X267574Y281588D02*
X273846D01*
X258177Y277988D02*
X273133D01*
X269949Y295088D02*
X273004D01*
X271501Y292388D02*
X272949D01*
X267588Y280688D02*
X272850D01*
X265860Y278888D02*
X272623D01*
X271172Y294188D02*
X272584D01*
X271532Y293288D02*
X272569D01*
X267207Y279788D02*
X272546D01*
X267348Y287888D02*
X269911D01*
X254061Y224888D02*
X269597D01*
X258177Y284288D02*
X269195D01*
X266452Y286988D02*
X268913D01*
X255090Y225788D02*
X268819D01*
X258177Y285188D02*
X268686D01*
X266012Y295088D02*
X268633D01*
X258177Y286088D02*
X268609D01*
X255404Y226688D02*
X268596D01*
X267123Y291488D02*
X267523D01*
X267235Y294188D02*
X267411D01*
X243020Y231188D02*
X266014D01*
X255335Y227588D02*
X265866D01*
X243020Y230288D02*
X265263D01*
X254839Y228488D02*
X265213D01*
X243020Y229388D02*
X265052D01*
X258177Y278888D02*
X264849D01*
X262075Y295088D02*
X264696D01*
X262515Y286988D02*
X264256D01*
X261410Y239288D02*
X264088D01*
X243020Y235688D02*
X263863D01*
X258177Y282488D02*
X263554D01*
X258177Y279788D02*
X263502D01*
X263298Y294188D02*
X263474D01*
X262898Y178088D02*
X263333D01*
X243020Y238388D02*
X263308D01*
X243020Y236588D02*
X263233D01*
X258177Y281588D02*
X263135D01*
X258177Y280688D02*
X263121D01*
X243020Y237488D02*
X263084D01*
X252420Y181688D02*
X261970D01*
X171513Y180788D02*
X261558D01*
X258177Y295088D02*
X260759D01*
X258177Y286988D02*
X260319D01*
X256197Y247388D02*
X259999D01*
X258177Y290588D02*
X259816D01*
X253275Y243788D02*
X259697D01*
X258177Y291488D02*
X259649D01*
X258177Y294188D02*
X259537D01*
X243020Y239288D02*
X259456D01*
X171522Y179888D02*
X259440D01*
X258177Y287888D02*
X259424D01*
X258177Y289688D02*
X259260D01*
X243020Y223988D02*
X259252D01*
X258177Y292388D02*
X259207D01*
X243020Y246488D02*
X259188D01*
X258177Y293288D02*
X259177D01*
X258177Y288788D02*
X259154D01*
X243020Y244688D02*
X259089D01*
X237940Y176288D02*
X259085D01*
X243020Y245588D02*
X258952D01*
X246000Y220388D02*
X258882D01*
X254028Y242888D02*
X258771D01*
X171135Y178988D02*
X258608D01*
X197266Y177188D02*
X258491D01*
X253427Y240188D02*
X258475D01*
X243300Y223088D02*
X258414D01*
X169738Y178088D02*
X258362D01*
X245100Y221288D02*
X258292D01*
X254239Y241988D02*
X258256D01*
X254079Y241088D02*
X258175D01*
X244200Y222188D02*
X258166D01*
X152665Y269888D02*
X256972D01*
X223138Y255488D02*
X256699D01*
X224311Y257288D02*
X256536D01*
X239697Y251888D02*
X256319D01*
X152665Y260888D02*
X256101D01*
X150767Y254588D02*
X255857D01*
X152665Y270788D02*
X255787D01*
X238794Y252788D02*
X255732D01*
X224206Y258188D02*
X255670D01*
X142190Y253688D02*
X255607D01*
X152665Y259988D02*
X255528D01*
X223653Y259088D02*
X255411D01*
X243020Y247388D02*
X255221D01*
X240597Y250988D02*
X253905D01*
X242959Y248288D02*
X253859D01*
X224147Y264488D02*
X253801D01*
X176436Y268088D02*
X253669D01*
X241497Y250088D02*
X253489D01*
X242397Y249188D02*
X253476D01*
X224319Y265388D02*
X253055D01*
X223389Y267188D02*
X253011D01*
X224118Y266288D02*
X252847D01*
X243020Y224888D02*
X252238D01*
X237048Y172688D02*
X251989D01*
X143037Y169088D02*
X251933D01*
X243020Y228488D02*
X251461D01*
X179433Y171788D02*
X251270D01*
X178710Y169988D02*
X251252D01*
X243020Y225788D02*
X251209D01*
X179304Y170888D02*
X251075D01*
X243020Y227588D02*
X250964D01*
X243020Y226688D02*
X250895D01*
X243020Y243788D02*
X250662D01*
X243020Y240188D02*
X250510D01*
X243020Y242888D02*
X249909D01*
X243020Y241088D02*
X249858D01*
X200574Y185288D02*
X249748D01*
X243020Y241988D02*
X249698D01*
X171101Y181688D02*
X249155D01*
X200001Y184388D02*
X248811D01*
X168309Y182588D02*
X248620D01*
X168403Y183488D02*
X248526D01*
X179188Y172688D02*
X235393D01*
X198525Y176288D02*
X234501D01*
X198433Y173588D02*
X234301D01*
X198892Y175388D02*
X234025D01*
X198867Y174488D02*
X233971D01*
X219201Y255488D02*
X220956D01*
X219452Y267188D02*
X220706D01*
X219538Y263588D02*
X220619D01*
X219716Y259088D02*
X220442D01*
X215264Y255488D02*
X217019D01*
X215515Y267188D02*
X216769D01*
X215601Y263588D02*
X216682D01*
X215779Y259088D02*
X216505D01*
X211327Y255488D02*
X213082D01*
X211578Y267188D02*
X212832D01*
X211664Y263588D02*
X212745D01*
X211842Y259088D02*
X212568D01*
X207390Y255488D02*
X209145D01*
X207641Y267188D02*
X208895D01*
X207727Y263588D02*
X208808D01*
X207904Y259088D02*
X208631D01*
X172653Y255488D02*
X205208D01*
X176669Y267188D02*
X204958D01*
X152665Y263588D02*
X204871D01*
X171440Y259088D02*
X204694D01*
X173082Y256388D02*
X204308D01*
X176608Y266288D02*
X204228D01*
X175313Y264488D02*
X204199D01*
X172731Y258188D02*
X204140D01*
X173103Y257288D02*
X204036D01*
X176231Y265388D02*
X204028D01*
X144837Y167288D02*
X199201D01*
X145737Y166388D02*
X198371D01*
X176688Y164588D02*
X198255D01*
X146637Y165488D02*
X198126D01*
X173230Y184388D02*
X196849D01*
X173803Y185288D02*
X196276D01*
X173919Y186188D02*
X196159D01*
X140264Y177188D02*
X196041D01*
X178357Y173588D02*
X194874D01*
X140264Y176288D02*
X194782D01*
X140264Y174488D02*
X194440D01*
X140264Y175388D02*
X194415D01*
X141290Y252788D02*
X178529D01*
X173661Y187088D02*
X178414D01*
X140390Y251888D02*
X177626D01*
X172795Y187988D02*
X177514D01*
X140264Y250988D02*
X176726D01*
X155794Y188888D02*
X176614D01*
X140264Y173588D02*
X175974D01*
X140264Y250088D02*
X175826D01*
X155469Y189788D02*
X175714D01*
X142137Y169988D02*
X175621D01*
X140264Y172688D02*
X175143D01*
X141237Y170888D02*
X175027D01*
X173202Y249188D02*
X174926D01*
X140337Y171788D02*
X174898D01*
X154397Y190688D02*
X174815D01*
X147537Y164588D02*
X174494D01*
X174344Y248288D02*
X174364D01*
X140264Y191588D02*
X174338D01*
X174182Y245588D02*
X174303D01*
X140264Y244688D02*
X174303D01*
X140264Y239288D02*
X174303D01*
X141232Y238388D02*
X174303D01*
X140264Y232988D02*
X174303D01*
X140264Y232088D02*
X174303D01*
X140264Y231188D02*
X174303D01*
X140264Y230288D02*
X174303D01*
X149773Y229388D02*
X174303D01*
X150498Y228488D02*
X174303D01*
X150697Y227588D02*
X174303D01*
X150523Y226688D02*
X174303D01*
X149847Y225788D02*
X174303D01*
X140264Y224888D02*
X174303D01*
X140264Y223988D02*
X174303D01*
X140264Y223088D02*
X174303D01*
X140264Y222188D02*
X174303D01*
X140264Y221288D02*
X174303D01*
X140264Y220388D02*
X174303D01*
X140264Y219488D02*
X174303D01*
X140264Y218588D02*
X174303D01*
X140264Y217688D02*
X174303D01*
X140264Y216788D02*
X174303D01*
X140264Y215888D02*
X174303D01*
X140264Y214988D02*
X174303D01*
X140264Y214088D02*
X174303D01*
X140264Y213188D02*
X174303D01*
X140264Y212288D02*
X174303D01*
X140264Y211388D02*
X174303D01*
X140264Y210488D02*
X174303D01*
X140264Y209588D02*
X174303D01*
X140264Y208688D02*
X174303D01*
X140264Y207788D02*
X174303D01*
X140264Y206888D02*
X174303D01*
X140264Y205988D02*
X174303D01*
X140264Y205088D02*
X174303D01*
X156785Y204188D02*
X174303D01*
X158149Y203288D02*
X174303D01*
X158532Y202388D02*
X174303D01*
X158519Y201488D02*
X174303D01*
X158103Y200588D02*
X174303D01*
X152893Y199688D02*
X174303D01*
X140264Y198788D02*
X174303D01*
X162300Y197888D02*
X174303D01*
X163661Y196988D02*
X174303D01*
X164044Y196088D02*
X174303D01*
X164031Y195188D02*
X174303D01*
X163614Y194288D02*
X174303D01*
X140264Y193388D02*
X174303D01*
X140264Y192488D02*
X174303D01*
X142437Y237488D02*
X173637D01*
X140264Y243788D02*
X173300D01*
X140264Y240188D02*
X173148D01*
X140264Y233888D02*
X172941D01*
X142793Y236588D02*
X172650D01*
X140264Y242888D02*
X172547D01*
X140264Y241088D02*
X172496D01*
X142314Y234788D02*
X172428D01*
X142759Y235688D02*
X172349D01*
X140264Y241988D02*
X172335D01*
X152665Y264488D02*
X172325D01*
X152665Y268988D02*
X171830D01*
X140264Y249188D02*
X171680D01*
X152665Y265388D02*
X171407D01*
X152665Y268088D02*
X171202D01*
X152665Y266288D02*
X171029D01*
X152665Y267188D02*
X170968D01*
X140264Y245588D02*
X170700D01*
X140264Y248288D02*
X170538D01*
X155736Y187988D02*
X170512D01*
X152665Y259088D02*
X170292D01*
X140264Y246488D02*
X170239D01*
X140264Y247388D02*
X170195D01*
X168118Y184388D02*
X170077D01*
X155254Y187088D02*
X169646D01*
X167181Y185288D02*
X169504D01*
X140264Y186188D02*
X169388D01*
X151667Y255488D02*
X169079D01*
X152665Y258188D02*
X169002D01*
X140264Y178088D02*
X168845D01*
X152567Y256388D02*
X168651D01*
X152665Y257288D02*
X168630D01*
X157129Y178988D02*
X167448D01*
X163521Y180788D02*
X167069D01*
X158219Y179888D02*
X167060D01*
X140264Y185288D02*
X165102D01*
X164003Y181688D02*
X164510D01*
X162667Y184388D02*
X164165D01*
X163737Y183488D02*
X163881D01*
X140264Y197888D02*
X161322D01*
X143818Y184388D02*
X160955D01*
X158549Y180788D02*
X160101D01*
X140264Y194288D02*
X160008D01*
X140264Y196988D02*
X159961D01*
X144445Y183488D02*
X159885D01*
X155776Y295088D02*
X159736D01*
X156999Y294188D02*
X159736D01*
X157359Y293288D02*
X159736D01*
X157328Y292388D02*
X159736D01*
X156887Y291488D02*
X159736D01*
X156719Y290588D02*
X159736D01*
X157276Y289688D02*
X159736D01*
X157382Y288788D02*
X159736D01*
X157112Y287888D02*
X159736D01*
X156216Y286988D02*
X159736D01*
X152665Y286088D02*
X159736D01*
X152665Y285188D02*
X159736D01*
X152665Y284288D02*
X159736D01*
X152665Y283388D02*
X159736D01*
X152665Y282488D02*
X159736D01*
X152665Y281588D02*
X159736D01*
X152665Y280688D02*
X159736D01*
X152665Y279788D02*
X159736D01*
X152665Y278888D02*
X159736D01*
X152665Y277988D02*
X159736D01*
X152665Y277088D02*
X159736D01*
X152665Y276188D02*
X159736D01*
X152665Y275288D02*
X159736D01*
X152665Y274388D02*
X159736D01*
X152665Y273488D02*
X159736D01*
X152665Y272588D02*
X159736D01*
X152665Y271688D02*
X159736D01*
X158494Y181688D02*
X159619D01*
X140264Y195188D02*
X159591D01*
X140264Y196088D02*
X159578D01*
X158018Y182588D02*
X159560D01*
X140264Y204188D02*
X155814D01*
X140264Y178988D02*
X155469D01*
X144593Y182588D02*
X154580D01*
X153374Y200588D02*
X154495D01*
X152665Y295088D02*
X154460D01*
X152031Y203288D02*
X154450D01*
X140264Y179888D02*
X154380D01*
X144368Y181688D02*
X154104D01*
X153432Y201488D02*
X154079D01*
X153106Y202388D02*
X154067D01*
X143584Y180788D02*
X154049D01*
X152665Y286988D02*
X154020D01*
X153062Y294188D02*
X153237D01*
X140264Y190688D02*
X152689D01*
X140264Y187088D02*
X151833D01*
X140264Y189788D02*
X151618D01*
X140264Y187988D02*
X151351D01*
X140264Y188888D02*
X151292D01*
X140264Y203288D02*
X150331D01*
X140264Y199688D02*
X149469D01*
X140264Y202388D02*
X149256D01*
X140264Y200588D02*
X148988D01*
X140264Y201488D02*
X148930D01*
X140264Y229388D02*
X147077D01*
X140264Y225788D02*
X147003D01*
X140264Y228488D02*
X146352D01*
X140264Y226688D02*
X146327D01*
X140264Y227588D02*
X146154D01*
X140264Y180788D02*
X141062D01*
X140264Y184388D02*
X140828D01*
X140264Y181688D02*
X140278D01*
X177607Y161552D02*
X197138D01*
X176762Y160652D02*
X197138D01*
X145469Y159752D02*
X197138D01*
X145570Y158852D02*
X197138D01*
X145293Y157952D02*
X197138D01*
X144379Y157052D02*
X197138D01*
X126484Y156152D02*
X197138D01*
X126484Y155252D02*
X197138D01*
X126484Y154352D02*
X197138D01*
X143357Y153452D02*
X197138D01*
X145118Y152552D02*
X197138D01*
X145529Y151652D02*
X197138D01*
X145538Y150752D02*
X197138D01*
X145150Y149852D02*
X197138D01*
X143746Y148952D02*
X197138D01*
X126484Y148052D02*
X197138D01*
X144923Y160652D02*
X174419D01*
X126484Y161552D02*
X173574D01*
X113411Y286652D02*
X150878D01*
X113968Y285752D02*
X150878D01*
X114075Y284852D02*
X150878D01*
X113806Y283952D02*
X150878D01*
X112977Y283052D02*
X150878D01*
X113826Y282152D02*
X150878D01*
X114078Y281252D02*
X150878D01*
X127051Y280352D02*
X150878D01*
X127969Y279452D02*
X150878D01*
X128247Y278552D02*
X150878D01*
X128147Y277652D02*
X150878D01*
X127603Y276752D02*
X150878D01*
X113665Y275852D02*
X150878D01*
X112323Y274952D02*
X150878D01*
X101287Y274052D02*
X150878D01*
X101287Y273152D02*
X150878D01*
X101287Y272252D02*
X150878D01*
X101287Y271352D02*
X150878D01*
X101287Y270452D02*
X150878D01*
X101287Y269552D02*
X150878D01*
X101287Y268652D02*
X150878D01*
X101287Y267752D02*
X150878D01*
X101287Y266852D02*
X150878D01*
X101287Y265952D02*
X150878D01*
X101287Y265052D02*
X150878D01*
X101287Y264152D02*
X150878D01*
X101287Y263252D02*
X150878D01*
X101287Y262352D02*
X150878D01*
X101287Y261452D02*
X150878D01*
X101287Y260552D02*
X150878D01*
X101287Y259652D02*
X150878D01*
X101287Y258752D02*
X150878D01*
X101287Y257852D02*
X150878D01*
X101287Y256952D02*
X150604D01*
X148578Y294752D02*
X149847D01*
X101287Y256052D02*
X149704D01*
X149014Y287552D02*
X149411D01*
X126484Y162452D02*
X147144D01*
X126484Y163352D02*
X146244D01*
X144641Y294752D02*
X145910D01*
X145077Y287552D02*
X145474D01*
X126484Y164252D02*
X145344D01*
X136848Y165152D02*
X144444D01*
X137529Y166052D02*
X143544D01*
X139420Y153452D02*
X143257D01*
X139809Y148952D02*
X142868D01*
X137705Y166952D02*
X142644D01*
X140442Y157052D02*
X142235D01*
X129634Y294752D02*
X141973D01*
X129634Y291152D02*
X141872D01*
X137509Y167852D02*
X141744D01*
X140986Y160652D02*
X141692D01*
X129465Y287552D02*
X141537D01*
X141181Y152552D02*
X141496D01*
X141213Y149852D02*
X141465D01*
X129634Y290252D02*
X141428D01*
X129634Y293852D02*
X141238D01*
X129634Y292052D02*
X141205D01*
X113415Y255152D02*
X141130D01*
X129634Y288452D02*
X141097D01*
X129634Y289352D02*
X141067D01*
X129634Y292952D02*
X141036D01*
X136788Y168752D02*
X140844D01*
X113969Y254252D02*
X140227D01*
X126484Y169652D02*
X139944D01*
X114075Y253352D02*
X139327D01*
X135483Y153452D02*
X139320D01*
X126484Y170552D02*
X139044D01*
X135872Y148952D02*
X138931D01*
X113804Y252452D02*
X138615D01*
X126484Y171452D02*
X138524D01*
X112983Y251552D02*
X138476D01*
X126432Y250652D02*
X138476D01*
X127828Y249752D02*
X138476D01*
X128215Y248852D02*
X138476D01*
X128206Y247952D02*
X138476D01*
X127794Y247052D02*
X138476D01*
X114031Y246152D02*
X138476D01*
X114044Y245252D02*
X138476D01*
X113662Y244352D02*
X138476D01*
X112306Y243452D02*
X138476D01*
X101287Y242552D02*
X138476D01*
X101287Y241652D02*
X138476D01*
X101287Y240752D02*
X138476D01*
X101287Y239852D02*
X138476D01*
X101287Y238952D02*
X138476D01*
X125359Y238052D02*
X138476D01*
X126088Y237152D02*
X138476D01*
X125442Y234452D02*
X138476D01*
X101287Y233552D02*
X138476D01*
X101287Y232652D02*
X138476D01*
X101287Y231752D02*
X138476D01*
X101287Y230852D02*
X138476D01*
X101287Y229952D02*
X138476D01*
X101287Y229052D02*
X138476D01*
X101287Y228152D02*
X138476D01*
X101287Y227252D02*
X138476D01*
X101287Y226352D02*
X138476D01*
X101287Y225452D02*
X138476D01*
X101287Y224552D02*
X138476D01*
X101287Y223652D02*
X138476D01*
X101287Y222752D02*
X138476D01*
X101287Y221852D02*
X138476D01*
X101287Y220952D02*
X138476D01*
X101287Y220052D02*
X138476D01*
X131268Y219152D02*
X138476D01*
X131994Y218252D02*
X138476D01*
X132193Y217352D02*
X138476D01*
X132019Y216452D02*
X138476D01*
X131344Y215552D02*
X138476D01*
X101287Y214652D02*
X138476D01*
X101287Y213752D02*
X138476D01*
X101287Y212852D02*
X138476D01*
X101287Y211952D02*
X138476D01*
X101287Y211052D02*
X138476D01*
X101287Y210152D02*
X138476D01*
X101287Y209252D02*
X138476D01*
X101287Y208352D02*
X138476D01*
X101287Y207452D02*
X138476D01*
X101287Y206552D02*
X138476D01*
X101287Y205652D02*
X138476D01*
X101287Y204752D02*
X138476D01*
X101287Y203852D02*
X138476D01*
X101287Y202952D02*
X138476D01*
X101287Y202052D02*
X138476D01*
X101287Y201152D02*
X138476D01*
X101287Y200252D02*
X138476D01*
X101287Y199352D02*
X138476D01*
X101287Y198452D02*
X138476D01*
X101287Y197552D02*
X138476D01*
X101287Y196652D02*
X138476D01*
X101287Y195752D02*
X138476D01*
X101287Y194852D02*
X138476D01*
X101287Y193952D02*
X138476D01*
X101287Y193052D02*
X138476D01*
X101287Y192152D02*
X138476D01*
X101287Y191252D02*
X138476D01*
X101287Y190352D02*
X138476D01*
X101287Y189452D02*
X138476D01*
X101287Y188552D02*
X138476D01*
X101287Y187652D02*
X138476D01*
X101287Y186752D02*
X138476D01*
X101287Y185852D02*
X138476D01*
X101287Y184952D02*
X138476D01*
X127399Y184052D02*
X138476D01*
X127812Y183152D02*
X138476D01*
X127822Y182252D02*
X138476D01*
X127436Y181352D02*
X138476D01*
X126049Y180452D02*
X138476D01*
X101287Y179552D02*
X138476D01*
X101287Y178652D02*
X138476D01*
X101287Y177752D02*
X138476D01*
X101287Y176852D02*
X138476D01*
X126330Y175952D02*
X138476D01*
X126484Y175052D02*
X138476D01*
X126484Y174152D02*
X138476D01*
X126484Y173252D02*
X138476D01*
X126484Y172352D02*
X138476D01*
X126115Y235352D02*
X138452D01*
X136505Y157052D02*
X138298D01*
X126287Y236252D02*
X138280D01*
X137049Y160652D02*
X137755D01*
X137244Y152552D02*
X137559D01*
X137276Y149852D02*
X137528D01*
X131546Y153452D02*
X135383D01*
X131935Y148952D02*
X134994D01*
X132568Y157052D02*
X134361D01*
X132851Y168752D02*
X134078D01*
X132911Y165152D02*
X134018D01*
X133112Y160652D02*
X133818D01*
X133307Y152552D02*
X133622D01*
X133339Y149852D02*
X133591D01*
X126484Y153452D02*
X131446D01*
X126484Y148952D02*
X131057D01*
X126484Y157052D02*
X130424D01*
X126484Y168752D02*
X130141D01*
X126484Y165152D02*
X130081D01*
X126484Y160652D02*
X129881D01*
X126484Y152552D02*
X129685D01*
X126484Y149852D02*
X129654D01*
X126484Y157952D02*
X129510D01*
X126484Y167852D02*
X129420D01*
X126484Y166052D02*
X129400D01*
X126484Y159752D02*
X129334D01*
X126484Y151652D02*
X129274D01*
X126484Y150752D02*
X129265D01*
X126484Y158852D02*
X129233D01*
X126484Y166952D02*
X129225D01*
X101287Y219152D02*
X128574D01*
X101287Y215552D02*
X128498D01*
X101287Y218252D02*
X127848D01*
X101287Y216452D02*
X127823D01*
X101287Y217352D02*
X127650D01*
X113828Y250652D02*
X125536D01*
X116206Y180452D02*
X125132D01*
X113955Y280352D02*
X124918D01*
X114045Y276752D02*
X124366D01*
X113613Y247052D02*
X124174D01*
X114078Y249752D02*
X124140D01*
X113372Y279452D02*
X124000D01*
X114030Y277652D02*
X123821D01*
X117556Y184052D02*
X123782D01*
X113368Y247952D02*
X123762D01*
X113954Y248852D02*
X123753D01*
X117593Y181352D02*
X123745D01*
X113610Y278552D02*
X123722D01*
X117969Y183152D02*
X123369D01*
X117980Y182252D02*
X123359D01*
X101287Y238052D02*
X122672D01*
X101287Y234452D02*
X122590D01*
X101287Y237152D02*
X121944D01*
X101287Y235352D02*
X121917D01*
X101287Y236252D02*
X121744D01*
X113254Y180452D02*
X115290D01*
X109317D02*
X112337D01*
X108369Y243452D02*
X111316D01*
X104449Y274952D02*
X111299D01*
X110666Y184052D02*
X110987D01*
X110704Y181352D02*
X110950D01*
X109046Y251552D02*
X110639D01*
X109435Y279452D02*
X110250D01*
X109474Y286652D02*
X110211D01*
X105541Y255152D02*
X110207D01*
X105736Y278552D02*
X110012D01*
X109725Y244352D02*
X109960D01*
X105791Y275852D02*
X109957D01*
X101287Y287552D02*
X109905D01*
X105930Y252452D02*
X109819D01*
X101287Y294752D02*
X109736D01*
X101287Y293852D02*
X109736D01*
X101287Y292952D02*
X109736D01*
X101287Y292052D02*
X109736D01*
X101287Y291152D02*
X109736D01*
X101287Y290252D02*
X109736D01*
X101287Y289352D02*
X109736D01*
X101287Y288452D02*
X109736D01*
X106095Y254252D02*
X109653D01*
X106156Y277652D02*
X109592D01*
X106171Y276752D02*
X109577D01*
X106201Y253352D02*
X109547D01*
X101287Y180452D02*
X108400D01*
X104432Y243452D02*
X107379D01*
X101287Y184052D02*
X107050D01*
X101287Y181352D02*
X107013D01*
X105109Y251552D02*
X106702D01*
X101287Y183152D02*
X106637D01*
X101287Y182252D02*
X106627D01*
X105498Y279452D02*
X106313D01*
X105537Y286652D02*
X106274D01*
X105788Y244352D02*
X106023D01*
X101287Y243452D02*
X103442D01*
X101287Y274952D02*
X103425D01*
X101287Y283052D02*
X102771D01*
X101287Y251552D02*
X102765D01*
X101287Y247952D02*
X102380D01*
X101287Y279452D02*
X102376D01*
X101287Y286652D02*
X102337D01*
X101287Y255152D02*
X102333D01*
X101287Y278552D02*
X102138D01*
X101287Y247052D02*
X102135D01*
X101287Y244352D02*
X102086D01*
X101287Y275852D02*
X102083D01*
X101287Y252452D02*
X101945D01*
X101287Y283952D02*
X101942D01*
X101287Y282152D02*
X101922D01*
X101287Y250652D02*
X101920D01*
X101287Y248852D02*
X101794D01*
X101287Y280352D02*
X101793D01*
X101287Y285752D02*
X101780D01*
X101287Y254252D02*
X101779D01*
X101287Y277652D02*
X101718D01*
X101287Y246152D02*
X101717D01*
X101287Y245252D02*
X101704D01*
X101287Y276752D02*
X101703D01*
X101287Y253352D02*
X101673D01*
X101287Y284852D02*
X101673D01*
X101287Y281252D02*
X101670D01*
X101287Y249752D02*
X101670D01*
X205305Y132844D02*
X300681D01*
X205604Y131944D02*
X300681D01*
X285876Y131044D02*
X300681D01*
X286681Y130144D02*
X300681D01*
X286915Y129244D02*
X300681D01*
X286775Y128344D02*
X300681D01*
X286163Y127444D02*
X300681D01*
X146957Y126544D02*
X300681D01*
X223084Y125644D02*
X300681D01*
X224023Y124744D02*
X300681D01*
X224308Y123844D02*
X300681D01*
X224215Y122944D02*
X300681D01*
X223681Y122044D02*
X300681D01*
X223789Y121144D02*
X300681D01*
X224249Y120244D02*
X300681D01*
X224293Y119344D02*
X300681D01*
X223950Y118444D02*
X300681D01*
X222805Y117544D02*
X300681D01*
X146957Y116644D02*
X300681D01*
X266922Y115744D02*
X300681D01*
X267818Y114844D02*
X300681D01*
X268193Y113944D02*
X300681D01*
X268258Y113044D02*
X300681D01*
X268034Y112144D02*
X300681D01*
X267431Y111244D02*
X300681D01*
X196936Y110344D02*
X300681D01*
X269752Y109444D02*
X300681D01*
X270281Y108544D02*
X300681D01*
X270370Y107644D02*
X300681D01*
X270081Y106744D02*
X300681D01*
X269129Y105844D02*
X300681D01*
X266879Y104944D02*
X300681D01*
X267801Y104044D02*
X300681D01*
X268187Y103144D02*
X300681D01*
X268260Y102244D02*
X300681D01*
X268046Y101344D02*
X300681D01*
X204324Y133744D02*
X299801D01*
X148736Y134644D02*
X298901D01*
X149636Y135544D02*
X298001D01*
X150536Y136444D02*
X297101D01*
X205523Y131044D02*
X283415D01*
X146957Y127444D02*
X283128D01*
X205008Y130144D02*
X282611D01*
X146957Y128344D02*
X282516D01*
X146957Y129244D02*
X282377D01*
X252542Y105844D02*
X267092D01*
X196877Y109444D02*
X266468D01*
X251812Y106744D02*
X266140D01*
X196395Y108544D02*
X265939D01*
X146957Y107644D02*
X265850D01*
X252832Y104944D02*
X263829D01*
X211804Y115744D02*
X263787D01*
X212313Y111244D02*
X263278D01*
X252821Y104044D02*
X262908D01*
X212700Y114844D02*
X262891D01*
X212916Y112144D02*
X262674D01*
X212927Y101344D02*
X262663D01*
X252505Y103144D02*
X262522D01*
X213075Y113944D02*
X262515D01*
X213140Y113044D02*
X262451D01*
X251725Y102244D02*
X262449D01*
X213142D02*
X248275D01*
X146957Y106744D02*
X248188D01*
X213069Y103144D02*
X247495D01*
X146957Y105844D02*
X247458D01*
X212683Y104044D02*
X247179D01*
X211761Y104944D02*
X247168D01*
X218868Y117544D02*
X221289D01*
X219147Y125644D02*
X221011D01*
X220013Y118444D02*
X220145D01*
X214931Y117544D02*
X217352D01*
X215210Y125644D02*
X217074D01*
X216076Y118444D02*
X216208D01*
X210994Y117544D02*
X213415D01*
X211273Y125644D02*
X213137D01*
X212139Y118444D02*
X212271D01*
X207057Y117544D02*
X209478D01*
X207336Y125644D02*
X209200D01*
X156643Y104944D02*
X208711D01*
X156686Y115744D02*
X208669D01*
X208202Y118444D02*
X208334D01*
X196611Y111244D02*
X208159D01*
X157564Y104044D02*
X207790D01*
X157582Y114844D02*
X207773D01*
X195541Y112144D02*
X207556D01*
X157809Y101344D02*
X207545D01*
X157951Y103144D02*
X207404D01*
X157957Y113944D02*
X207397D01*
X158022Y113044D02*
X207333D01*
X158024Y102244D02*
X207331D01*
X203120Y117544D02*
X205541D01*
X203399Y125644D02*
X205263D01*
X204265Y118444D02*
X204397D01*
X147836Y133744D02*
X202369D01*
X146957Y130144D02*
X201685D01*
X199183Y117544D02*
X201604D01*
X146957Y132844D02*
X201388D01*
X199462Y125644D02*
X201326D01*
X146957Y131044D02*
X201170D01*
X146957Y131944D02*
X201089D01*
X200328Y118444D02*
X200460D01*
X146957Y117544D02*
X197667D01*
X184927Y125644D02*
X197389D01*
X184555Y122044D02*
X196792D01*
X146957Y121144D02*
X196684D01*
X146957Y118444D02*
X196523D01*
X185430Y124744D02*
X196450D01*
X185294Y122944D02*
X196257D01*
X146957Y120244D02*
X196223D01*
X146957Y119344D02*
X196179D01*
X185533Y123844D02*
X196164D01*
X157798Y112144D02*
X193829D01*
X146957Y108544D02*
X192975D01*
X157195Y111244D02*
X192759D01*
X146957Y109444D02*
X192493D01*
X146957Y110344D02*
X192434D01*
X146957Y122044D02*
X181586D01*
X146957Y125644D02*
X181215D01*
X146957Y122944D02*
X180847D01*
X146957Y124744D02*
X180712D01*
X146957Y123844D02*
X180608D01*
X146957Y104944D02*
X153593D01*
X146957Y115744D02*
X153550D01*
X146957Y111244D02*
X153041D01*
X146957Y104044D02*
X152672D01*
X146957Y114844D02*
X152655D01*
X146957Y112144D02*
X152438D01*
X146957Y101344D02*
X152427D01*
X146957Y103144D02*
X152285D01*
X146957Y113944D02*
X152279D01*
X146957Y113044D02*
X152215D01*
X146957Y102244D02*
X152212D01*
X409618Y167663D02*
X413673D01*
X408720Y166763D02*
X413673D01*
X315519Y165863D02*
X413673D01*
X314619Y164963D02*
X413673D01*
X313719Y164063D02*
X413673D01*
X314817Y163163D02*
X413673D01*
X315218Y162263D02*
X413673D01*
X315219Y161363D02*
X413673D01*
X342632Y160463D02*
X413673D01*
X343243Y159563D02*
X413673D01*
X343413Y158663D02*
X413673D01*
X343244Y157763D02*
X413673D01*
X390037Y156863D02*
X413673D01*
X407630Y155963D02*
X413673D01*
X409301Y155063D02*
X413673D01*
X409896Y154163D02*
X413673D01*
X410130Y153263D02*
X413673D01*
X410088Y152363D02*
X413673D01*
X409759Y151463D02*
X413673D01*
X410146Y150563D02*
X413673D01*
X410146Y149663D02*
X413673D01*
X410146Y148763D02*
X413673D01*
X410146Y147863D02*
X413673D01*
X410146Y146963D02*
X413673D01*
X410146Y146063D02*
X413673D01*
X410039Y145163D02*
X413673D01*
X389174Y144263D02*
X413673D01*
X339700Y143363D02*
X413673D01*
X340042Y142463D02*
X413673D01*
X339996Y141563D02*
X413673D01*
X339533Y140663D02*
X413673D01*
X308099Y139763D02*
X413673D01*
X406619Y138863D02*
X413673D01*
X408127Y137963D02*
X413673D01*
X408526Y137063D02*
X413673D01*
X408526Y136163D02*
X413673D01*
X408126Y135263D02*
X413673D01*
X406606Y134363D02*
X413673D01*
X357749Y133463D02*
X413673D01*
X357378Y132563D02*
X413673D01*
X356097Y131663D02*
X413673D01*
X302469Y130763D02*
X413673D01*
X331019Y129863D02*
X413673D01*
X331649Y128963D02*
X413673D01*
X331798Y128063D02*
X413673D01*
X331574Y127163D02*
X413673D01*
X330793Y126263D02*
X413673D01*
X302469Y125363D02*
X413673D01*
X411258Y124463D02*
X413673D01*
X412041Y123563D02*
X413673D01*
X412301Y122663D02*
X413673D01*
X412216Y121763D02*
X413673D01*
X411741Y120863D02*
X413673D01*
X390914Y119963D02*
X413673D01*
X391375Y119063D02*
X413673D01*
X391419Y118163D02*
X413673D01*
X391076Y117263D02*
X413673D01*
X389933Y116363D02*
X413673D01*
X356137Y115463D02*
X413673D01*
X355261Y114563D02*
X413673D01*
X350017Y113663D02*
X413673D01*
X350534Y112763D02*
X413673D01*
X350696Y111863D02*
X413673D01*
X350568Y110963D02*
X413673D01*
X411630Y110063D02*
X413673D01*
X412894Y109163D02*
X413673D01*
X413262Y108263D02*
X413673D01*
X413237Y107363D02*
X413673D01*
X412804Y106463D02*
X413673D01*
X412610Y105563D02*
X413673D01*
X413176Y104663D02*
X413673D01*
X413289Y103763D02*
X413673D01*
X413026Y102863D02*
X413673D01*
X412148Y101963D02*
X413673D01*
X407693Y110063D02*
X410417D01*
X408211Y101963D02*
X409899D01*
X408957Y109163D02*
X409153D01*
X388076Y124463D02*
X408427D01*
X387706Y120863D02*
X407944D01*
X388579Y123563D02*
X407644D01*
X388444Y121763D02*
X407469D01*
X388683Y122663D02*
X407384D01*
X390691Y155963D02*
X406544D01*
X350101Y110063D02*
X406480D01*
X316155Y166763D02*
X406240D01*
X383297Y134363D02*
X405993D01*
X383301Y138863D02*
X405980D01*
X405224Y101963D02*
X405962D01*
X316248Y167663D02*
X405343D01*
X405123Y109163D02*
X405216D01*
X390854Y155063D02*
X404872D01*
X384350Y135263D02*
X404473D01*
X384351Y137963D02*
X404472D01*
X285333Y151463D02*
X404415D01*
X390644Y154163D02*
X404277D01*
X390450Y145163D02*
X404135D01*
X285702Y152363D02*
X404085D01*
X384710Y136163D02*
X404073D01*
X384711Y137063D02*
X404072D01*
X389894Y153263D02*
X404043D01*
X284059Y150563D02*
X404028D01*
X280027Y149663D02*
X404028D01*
X279865Y148763D02*
X404028D01*
X390367Y147863D02*
X404028D01*
X390797Y146963D02*
X404028D01*
X390820Y146063D02*
X404028D01*
X373595Y116363D02*
X388413D01*
X338565Y144263D02*
X387992D01*
X374576Y119963D02*
X387432D01*
X309776Y153263D02*
X387271D01*
X374738Y117263D02*
X387270D01*
X342636Y156863D02*
X387128D01*
X375036Y119063D02*
X386971D01*
X375081Y118163D02*
X386927D01*
X283280Y147863D02*
X386799D01*
X283364Y145163D02*
X386715D01*
X337207Y154163D02*
X386521D01*
X338291Y155963D02*
X386474D01*
X283711Y146963D02*
X386368D01*
X283733Y146063D02*
X386345D01*
X338044Y155063D02*
X386312D01*
X348922Y109163D02*
X385429D01*
X302469Y108263D02*
X385327D01*
X302469Y107363D02*
X385327D01*
X302469Y106463D02*
X385327D01*
X302469Y105563D02*
X385327D01*
X302469Y104663D02*
X385327D01*
X302469Y103763D02*
X385327D01*
X302469Y102863D02*
X385327D01*
X302469Y101963D02*
X385327D01*
X371092Y134363D02*
X381270D01*
X371096Y138863D02*
X381266D01*
X372145Y135263D02*
X380217D01*
X372146Y137963D02*
X380216D01*
X372506Y136163D02*
X379856D01*
X372506Y137063D02*
X379856D01*
X316248Y168563D02*
X379377D01*
X316248Y169463D02*
X378322D01*
X316248Y170363D02*
X377422D01*
X316248Y171263D02*
X376522D01*
X316248Y172163D02*
X375622D01*
X316248Y173063D02*
X374869D01*
X346348Y182963D02*
X374697D01*
X346282Y182063D02*
X374697D01*
X345788Y181163D02*
X374697D01*
X316248Y180263D02*
X374697D01*
X316248Y179363D02*
X374697D01*
X316248Y178463D02*
X374697D01*
X316248Y177563D02*
X374697D01*
X316248Y176663D02*
X374697D01*
X316248Y175763D02*
X374697D01*
X316248Y174863D02*
X374697D01*
X316248Y173963D02*
X374697D01*
X346032Y183863D02*
X374159D01*
X345412Y184763D02*
X373259D01*
X346158Y185663D02*
X372359D01*
X356399Y116363D02*
X372074D01*
X302469Y119963D02*
X371094D01*
X356286Y117263D02*
X370932D01*
X302469Y119063D02*
X370633D01*
X355718Y118163D02*
X370589D01*
X357727Y134363D02*
X369065D01*
X307619Y138863D02*
X369061D01*
X357297Y135263D02*
X368013D01*
X298075Y137963D02*
X368011D01*
X299909Y136163D02*
X367652D01*
X299009Y137063D02*
X367651D01*
X302469Y131663D02*
X354927D01*
X300809Y135263D02*
X353727D01*
X302469Y132563D02*
X353645D01*
X301709Y134363D02*
X353297D01*
X302365Y133463D02*
X353275D01*
X348620Y114563D02*
X353006D01*
X317333Y118163D02*
X352549D01*
X317751Y115463D02*
X352131D01*
X317900Y117263D02*
X351982D01*
X318013Y116363D02*
X351869D01*
X316875Y114563D02*
X347049D01*
X324116Y109163D02*
X346748D01*
X324636Y113663D02*
X345653D01*
X325043Y110063D02*
X345568D01*
X325259Y112763D02*
X345135D01*
X325425Y110963D02*
X345101D01*
X325489Y111863D02*
X344973D01*
X341851Y181163D02*
X342401D01*
X314821Y160463D02*
X339258D01*
X338164Y156863D02*
X339254D01*
X302469Y120863D02*
X338869D01*
X313321Y159563D02*
X338647D01*
X337573Y157763D02*
X338646D01*
X302469Y124463D02*
X338499D01*
X309889Y158663D02*
X338476D01*
X337914Y181163D02*
X338464D01*
X302469Y121763D02*
X338130D01*
X302469Y123563D02*
X337996D01*
X302469Y122663D02*
X337892D01*
X282087Y144263D02*
X337025D01*
X308156Y140663D02*
X336057D01*
X126484Y143363D02*
X335890D01*
X307829Y141563D02*
X335594D01*
X306750Y142463D02*
X335549D01*
X333601Y184763D02*
X334903D01*
X310526Y154163D02*
X334840D01*
X316248Y181163D02*
X334527D01*
X280626Y157763D02*
X334474D01*
X316248Y183863D02*
X334283D01*
X316248Y182063D02*
X334033D01*
X310736Y155063D02*
X334004D01*
X316248Y182963D02*
X333967D01*
X309919Y156863D02*
X333883D01*
X310573Y155963D02*
X333756D01*
X329664Y184763D02*
X330966D01*
X322778Y126263D02*
X328262D01*
X322489Y129863D02*
X328036D01*
X323390Y127163D02*
X327481D01*
X323294Y128963D02*
X327407D01*
X323529Y128063D02*
X327258D01*
X316248Y184763D02*
X327029D01*
X316248Y185663D02*
X326283D01*
X313827Y109163D02*
X321160D01*
X302469Y113663D02*
X320639D01*
X314479Y110063D02*
X320232D01*
X302469Y129863D02*
X320031D01*
X313956Y112763D02*
X320016D01*
X314673Y110963D02*
X319851D01*
X314526Y111863D02*
X319786D01*
X302469Y126263D02*
X319741D01*
X302469Y128963D02*
X319225D01*
X302469Y127163D02*
X319130D01*
X302469Y128063D02*
X318991D01*
X302469Y114563D02*
X314621D01*
X302469Y118163D02*
X314164D01*
X302469Y115463D02*
X313745D01*
X302469Y117263D02*
X313596D01*
X302469Y116363D02*
X313483D01*
X310563Y159563D02*
X312663D01*
X310736Y160463D02*
X311163D01*
X310537Y161363D02*
X310765D01*
X302469Y109163D02*
X310582D01*
X302469Y112763D02*
X310453D01*
X302469Y110063D02*
X309931D01*
X302469Y111863D02*
X309883D01*
X302469Y110963D02*
X309737D01*
X285679Y153263D02*
X307153D01*
X279421Y158663D02*
X307040D01*
X280982Y156863D02*
X307010D01*
X285248Y154163D02*
X306403D01*
X198925Y161363D02*
X306392D01*
X198925Y159563D02*
X306366D01*
X280948Y155963D02*
X306356D01*
X280503Y155063D02*
X306194D01*
X198925Y160463D02*
X306193D01*
X126484Y142463D02*
X305061D01*
X101287Y138863D02*
X304192D01*
X101287Y141563D02*
X303982D01*
X101287Y139763D02*
X303712D01*
X101287Y140663D02*
X303655D01*
X279816Y150563D02*
X282871D01*
X198925Y154163D02*
X281681D01*
X279064Y151463D02*
X281597D01*
X198925Y153263D02*
X281250D01*
X198925Y152363D02*
X281227D01*
X126484Y144263D02*
X280905D01*
X279213Y147863D02*
X279712D01*
X126484Y145163D02*
X279629D01*
X198915Y146963D02*
X279282D01*
X198554Y146063D02*
X279259D01*
X198925Y158663D02*
X278059D01*
X198925Y155063D02*
X276977D01*
X198925Y157763D02*
X276855D01*
X198925Y155963D02*
X276532D01*
X198925Y156863D02*
X276498D01*
X198925Y151463D02*
X276447D01*
X198925Y147863D02*
X276299D01*
X198925Y150563D02*
X275696D01*
X198925Y148763D02*
X275646D01*
X198925Y149663D02*
X275485D01*
X101287Y137963D02*
X149563D01*
X145520Y137063D02*
X148628D01*
X146462Y136163D02*
X147728D01*
X146749Y135263D02*
X146828D01*
X132597Y132563D02*
X145169D01*
X131896Y131663D02*
X145169D01*
X101287Y130763D02*
X145169D01*
X101287Y129863D02*
X145169D01*
X101287Y128963D02*
X145169D01*
X101287Y128063D02*
X145169D01*
X101287Y127163D02*
X145169D01*
X101287Y126263D02*
X145169D01*
X101287Y125363D02*
X145169D01*
X101287Y124463D02*
X145169D01*
X101287Y123563D02*
X145169D01*
X101287Y122663D02*
X145169D01*
X120602Y121763D02*
X145169D01*
X121627Y120863D02*
X145169D01*
X121940Y119963D02*
X145169D01*
X121870Y119063D02*
X145169D01*
X121372Y118163D02*
X145169D01*
X121378Y117263D02*
X145169D01*
X121872Y116363D02*
X145169D01*
X121939Y115463D02*
X145169D01*
X121623Y114563D02*
X145169D01*
X136748Y113663D02*
X145169D01*
X137496Y112763D02*
X145169D01*
X137704Y111863D02*
X145169D01*
X137541Y110963D02*
X145169D01*
X136884Y110063D02*
X145169D01*
X137303Y109163D02*
X145169D01*
X137671Y108263D02*
X145169D01*
X137647Y107363D02*
X145169D01*
X137214Y106463D02*
X145169D01*
X137019Y105563D02*
X145169D01*
X137586Y104663D02*
X145169D01*
X137698Y103763D02*
X145169D01*
X137435Y102863D02*
X145169D01*
X136558Y101963D02*
X145169D01*
X142567Y137063D02*
X143456D01*
X139221D02*
X140504D01*
X139825Y133463D02*
X139899D01*
X121898Y137063D02*
X137157D01*
X132783Y133463D02*
X136553D01*
X122840Y136163D02*
X136215D01*
X132598Y134363D02*
X136020D01*
X131899Y135263D02*
X135928D01*
X132621Y101963D02*
X134308D01*
X132811Y113663D02*
X134118D01*
X129634Y101963D02*
X130371D01*
X128874Y113663D02*
X130181D01*
X128746Y131663D02*
X129128D01*
X128750Y135263D02*
X129124D01*
X124937Y113663D02*
X126244D01*
X101287Y131663D02*
X125978D01*
X123127Y135263D02*
X125975D01*
X101287Y132563D02*
X125277D01*
X123035Y134363D02*
X125276D01*
X122502Y133463D02*
X125091D01*
X121000Y113663D02*
X122307D01*
X114736Y137063D02*
X119834D01*
X114806Y133463D02*
X119230D01*
X115460Y136163D02*
X118892D01*
X116665Y121763D02*
X118768D01*
X115483Y134363D02*
X118697D01*
X115657Y135263D02*
X118606D01*
X117690Y120863D02*
X117743D01*
X101287Y121763D02*
X114831D01*
X101287Y113663D02*
X114433D01*
X101287Y110063D02*
X114297D01*
X101287Y118163D02*
X114061D01*
X101287Y117263D02*
X114056D01*
X101287Y114563D02*
X113810D01*
X101287Y120863D02*
X113806D01*
X101287Y112763D02*
X113686D01*
X101287Y110963D02*
X113640D01*
X101287Y119063D02*
X113563D01*
X101287Y116363D02*
X113561D01*
X101287Y115463D02*
X113494D01*
X101287Y119963D02*
X113493D01*
X101287Y111863D02*
X113477D01*
X110799Y137063D02*
X112036D01*
X110869Y133463D02*
X111966D01*
X101287Y109163D02*
X109838D01*
X101287Y108263D02*
X109736D01*
X101287Y107363D02*
X109736D01*
X101287Y106463D02*
X109736D01*
X101287Y105563D02*
X109736D01*
X101287Y104663D02*
X109736D01*
X101287Y103763D02*
X109736D01*
X101287Y102863D02*
X109736D01*
X101287Y101963D02*
X109736D01*
X101287Y137063D02*
X108099D01*
X101287Y133463D02*
X108029D01*
X101287Y136163D02*
X107375D01*
X101287Y134363D02*
X107352D01*
X101287Y135263D02*
X107177D01*
G54D104*
X182874Y116732D03*
X227559D03*
X286614Y116339D03*
X227559Y124409D03*
X372835Y127165D03*
X160236Y131496D03*
X227559Y130315D03*
X372835Y132087D03*
X192520Y141732D03*
X197047D03*
X240354Y147638D03*
X244882D03*
X189764Y150197D03*
Y154724D03*
X193898Y150197D03*
X372835Y154724D03*
X377362D03*
X236220Y166142D03*
Y170669D03*
X244685Y170079D03*
X383071Y188976D03*
Y184646D03*
X387992Y188976D03*
Y193504D03*
X106102Y216535D03*
X112598Y212205D03*
X106102D03*
X116535Y230709D03*
X390157Y231890D03*
X222638Y242717D03*
X227559D03*
X188189Y261811D03*
Y265748D03*
G74*
X0Y0D02*
M02*
