*
*
G04 PADS 9.5 Build Number: 522968 generated Gerber (RS-274-X) file*
G04 PC Version=2.1*
*
%IN "MiniVario_Full_Alt.pcb"*%
*
%MOIN*%
*
%FSLAX35Y35*%
*
*
*
*
G04 PC Standard Apertures*
*
*
G04 Thermal Relief Aperture macro.*
%AMTER*
1,1,$1,0,0*
1,0,$1-$2,0,0*
21,0,$3,$4,0,0,45*
21,0,$3,$4,0,0,135*
%
*
*
G04 Annular Aperture macro.*
%AMANN*
1,1,$1,0,0*
1,0,$2,0,0*
%
*
*
G04 Odd Aperture macro.*
%AMODD*
1,1,$1,0,0*
1,0,$1-0.005,0,0*
%
*
*
G04 PC Custom Aperture Macros*
*
*
*
*
*
*
G04 PC Aperture Table*
*
%ADD010C,0.001*%
%ADD014R,0.03X0.038*%
%ADD015R,0.038X0.03*%
%ADD021R,0.03543X0.03543*%
%ADD022C,0.03543*%
%ADD024R,0.036X0.036*%
%ADD030R,0.06102X0.03937*%
%ADD031C,0.02953*%
%ADD037R,0.05X0.036*%
%ADD039R,0.01575X0.05315*%
%ADD040R,0.06299X0.05512*%
%ADD041R,0.05709X0.05118*%
%ADD042R,0.0748X0.0748*%
%ADD044C,0.01575*%
%ADD045C,0.00787*%
%ADD048C,0.01181*%
%ADD049C,0.02362*%
%ADD050C,0.01969*%
%ADD051C,0.01*%
%ADD052R,0.05512X0.01181*%
%ADD053R,0.09055X0.10433*%
%ADD054R,0.0315X0.06614*%
%ADD055R,0.05079X0.05512*%
%ADD056R,0.05079X0.05118*%
%ADD057R,0.05906X0.06693*%
%ADD058R,0.06299X0.05906*%
%ADD059R,0.06693X0.05906*%
%ADD104C,0.0315*%
%ADD109R,0.04724X0.06299*%
*
*
*
*
G04 PC Circuitry*
G04 Layer Name MiniVario_Full_Alt.pcb - circuitry*
%LPD*%
*
*
G04 PC Custom Flashes*
G04 Layer Name MiniVario_Full_Alt.pcb - flashes*
%LPD*%
*
*
G04 PC Circuitry*
G04 Layer Name MiniVario_Full_Alt.pcb - circuitry*
%LPD*%
*
G54D10*
G54D14*
G01X227165Y217667D03*
Y211467D03*
X202362Y217667D03*
Y211467D03*
X235433Y217667D03*
Y211467D03*
X243701Y217667D03*
Y211467D03*
X176969Y121309D03*
Y127509D03*
X160236Y121309D03*
Y127509D03*
X185827Y217667D03*
Y211467D03*
X194094Y217667D03*
Y211467D03*
X218898Y217667D03*
Y211467D03*
X210630Y217667D03*
Y211467D03*
X244685Y161761D03*
Y155561D03*
X227165Y201919D03*
Y195719D03*
X202362Y201919D03*
Y195719D03*
X235433Y201919D03*
Y195719D03*
X243701Y201919D03*
Y195719D03*
X185827Y201919D03*
Y195719D03*
X194094Y201919D03*
Y195719D03*
X168701Y127509D03*
Y121309D03*
G54D15*
X344931Y158661D03*
X351131D03*
X344931Y150394D03*
X351131D03*
X303987Y116535D03*
X310187D03*
X360286D03*
X366486D03*
X129971Y278346D03*
X136171D03*
X129971Y256693D03*
X136171D03*
X112549Y222441D03*
X106349D03*
X112549Y230709D03*
X106349D03*
X136171Y270079D03*
X129971D03*
X136171Y248425D03*
X129971D03*
X344931Y133858D03*
X351131D03*
X344931Y142126D03*
X351131D03*
X307530Y212205D03*
X313730D03*
X307530Y220472D03*
X313730D03*
X307530Y228740D03*
X313730D03*
X307530Y237008D03*
X313730D03*
X307530Y245276D03*
X313730D03*
X307530Y253543D03*
X313730D03*
X307530Y261811D03*
X313730D03*
G54D21*
X407087Y148031D03*
G54D22*
Y152953D03*
G54D24*
X322084Y198612D03*
Y206112D03*
G54D30*
X199902Y104528D03*
Y111220D03*
X220571Y104528D03*
Y111220D03*
X144783Y104528D03*
Y111220D03*
X165453Y104528D03*
Y111220D03*
X255020Y104528D03*
Y111220D03*
X275689Y104528D03*
Y111220D03*
G54D31*
X210236Y113287D03*
Y102461D03*
X155118Y113287D03*
Y102461D03*
X265354Y113287D03*
Y102461D03*
G54D37*
X330084Y202362D03*
G54D39*
X340354Y117421D03*
X337795D03*
X335236D03*
X332677D03*
X330118D03*
G54D40*
X347835Y116535D03*
X322638D03*
G54D41*
X348720Y106890D03*
X321752D03*
G54D42*
X330512D03*
X339961D03*
G54D44*
X144783Y104528D02*
X150000D01*
X153346Y107874*
X199902Y104528D02*
X205315D01*
X209252Y108465*
X255020Y104528D02*
X250000D01*
X312205Y103937D02*
Y111024D01*
X227559Y116732D02*
Y124409D01*
X322638Y111614D02*
Y116535D01*
X340354Y117421D02*
Y122835D01*
X347835Y111811D02*
Y116535D01*
X160236Y127509D02*
Y131496D01*
X183071Y124016D02*
X185827Y126772D01*
Y191732*
X227559Y130315D02*
X236220Y138976D01*
Y166142*
X351131Y133858D02*
X355512D01*
X344931D02*
Y142126D01*
X370079Y136614D02*
X382283D01*
X192520Y141732D02*
X197047D01*
X337795Y142126D02*
X344931D01*
Y150394D02*
Y158661D01*
X244685Y161761D02*
Y170079D01*
X185827Y191732D02*
Y195719D01*
X194094*
X202362*
X227165D02*
X235433D01*
X243701*
X250787Y195669D02*
X250738Y195719D01*
X243701*
X210630Y217667D02*
Y221260D01*
X212992Y223622*
Y233760*
X210630Y217667D02*
X218898D01*
X112549Y222441D02*
Y230709D01*
X116535*
X124016Y236220D02*
X122244Y237992D01*
Y260827*
X140551Y236220D02*
Y238583D01*
X136220Y242913*
Y248376*
X136171Y248425*
X212992Y233760D02*
Y239764D01*
X215945Y242717*
X222638*
X125984Y248425D02*
X129971D01*
Y256693*
X227559Y242717D02*
X222638D01*
X122244Y260827D02*
X126378Y264961D01*
X134596*
X136171Y266535*
Y270079*
X188189Y261811D02*
Y265748D01*
X125984Y278346D02*
X129971D01*
Y270079*
G54D45*
X268110Y107874D02*
X262205D01*
X258858Y111220*
X255020*
X301969Y103937D02*
X302165Y105315D01*
Y111171*
X303987Y112992*
Y116535*
X368504Y103937D02*
X368439Y105519D01*
Y110803*
X366486Y112756*
Y116535*
X144783Y111220D02*
Y114764D01*
X146752Y116732*
X158858*
X160236Y118110*
Y121309*
X194685Y110039D02*
X195866Y111220D01*
X199902*
X310187Y116535D02*
X315748D01*
X335236Y117421D02*
Y121654D01*
X334055Y122835*
X323228*
X321260Y124803*
Y127953*
X337795Y117421D02*
Y124213D01*
X336220Y125787*
X331102*
X329528Y127362*
Y128150*
X354134Y116535D02*
X360286D01*
X372835Y118504D02*
X389173D01*
X160236Y121309D02*
X168701D01*
X176969*
X168701Y127509D02*
Y170669D01*
X174606Y176575*
Y235433*
X284646Y129134D02*
Y143307D01*
X281496Y146457*
X203346Y131693D02*
Y184055D01*
X201378Y186024*
X198425*
X277756Y149606D02*
X259449D01*
X257480Y151181*
Y201969*
X305906Y140354D02*
X308465Y142913D01*
Y155118*
X351131Y142126D02*
Y144488D01*
X349213Y146407*
X337598*
X336171Y147835*
Y155758*
X336024Y155906*
Y156102*
X278740Y156496D02*
X282087D01*
X283366Y157776*
Y170374*
X175591Y162598D02*
Y170079D01*
X177165Y171654*
X200394Y165354D02*
Y173622D01*
X199016Y175000*
X196654*
X308465Y160433D02*
Y181102D01*
X306496Y183071*
X312992Y161811D02*
Y185433D01*
X236220Y174803D02*
Y191732D01*
X253346Y170866D02*
Y180709D01*
X250787Y183268*
X260630Y177953D02*
Y212008D01*
X283366Y170374D02*
X281890Y171850D01*
X280315Y179528D02*
X268406Y191437D01*
Y220965*
X267323Y222047*
Y229331*
X153543Y188583D02*
Y198819D01*
X151181Y201181*
X156299Y181102D02*
Y201969D01*
X161811Y182283D02*
Y195669D01*
X171654Y186024D02*
X171850Y186220D01*
Y240551*
X173228Y241929*
X174606*
X169291Y180315D02*
Y245472D01*
X170866Y247047*
X172441*
X166142Y183268D02*
Y255512D01*
X167520Y256890*
X170866*
X254331Y188583D02*
Y216929D01*
X263780Y180315D02*
X265354Y181890D01*
Y213386*
X318110Y198425D02*
X321897D01*
X322084Y198612*
X323415*
X325591Y200787*
Y209449*
X329134Y212992*
X347835*
X348031Y213189*
X359449Y192520D02*
X363780D01*
X365748Y194488*
Y258661*
X187992Y206693D02*
Y209302D01*
X185827Y211467*
Y201919D02*
X185777Y201969D01*
X183858*
X182283Y203543*
Y216486*
X194094Y206693D02*
Y211467D01*
X202362Y207087D02*
Y211467D01*
X194094Y201919D02*
Y202018D01*
X192126*
X190601Y203543*
Y216535*
X202362Y201919D02*
X202263Y202018D01*
X200000*
X198475Y203543*
Y216142*
X227165Y207874D02*
Y211467D01*
Y201919D02*
X227265Y202018D01*
X229134*
X231053Y203937*
Y216142*
X243701Y207087D02*
Y211467D01*
X235433Y208661D02*
Y211467D01*
X243701Y201919D02*
X243750Y201969D01*
X245669*
X247244Y203543*
Y216092*
X235433Y201919D02*
X235532Y202018D01*
X237402*
X239320Y203937*
Y216142*
X262992Y200787D02*
Y243701D01*
X261220Y245472*
X257874Y208268D02*
Y253543D01*
X322084Y206112D02*
X321897Y206299D01*
X317717*
X322084Y206112D02*
Y209843D01*
X327202Y214961*
X347835*
X348031Y215157*
X330084Y202362D02*
X344094D01*
X129921Y217323D02*
Y221260D01*
X135433Y226772*
X147638*
X148425Y227559*
X182283Y216486D02*
X183465Y217667D01*
X185827*
X190601Y216535D02*
X191732Y217667D01*
X194094*
X185827D02*
Y224803D01*
X188189Y227165*
X198425*
X200000Y228740*
Y233760*
X198475Y216142D02*
X200000Y217667D01*
X202362*
X194094D02*
Y221260D01*
X197638Y224803*
X202756*
X204331Y226378*
Y233760*
X202362Y217667D02*
Y221260D01*
X204331Y223228*
X207087*
X208661Y224803*
Y233760*
X231053Y216142D02*
X229528Y217667D01*
X227165*
Y221260*
X224803Y223622*
X218504*
X217323Y224803*
Y233760*
X239320Y216142D02*
X237795Y217667D01*
X235433*
X243701D02*
Y224016D01*
X240157Y227559*
X231496*
X230315Y228740*
Y233760*
X235433Y217667D02*
Y222441D01*
X232677Y225197*
X227559*
X225984Y226772*
Y233760*
X247244Y216092D02*
X245669Y217667D01*
X243701*
X313730Y212205D02*
X320669D01*
X325591Y217126*
X348031*
Y219094D02*
X330315D01*
X329134Y220276*
X313927*
X313730Y220472*
X253150Y226969D02*
X255709Y229528D01*
Y249606*
X260433Y222047D02*
Y241339D01*
X270866Y226772D02*
Y285827D01*
X313730Y228740D02*
X323819D01*
X325984Y230906*
Y242323*
X328346Y244685*
X348031*
X332874Y226969D02*
X334843Y228937D01*
X348031*
X342126Y223425D02*
X343701Y225000D01*
X348031*
X336220Y223622D02*
X339567Y226969D01*
X348031*
X359055Y222835D02*
Y271654D01*
X265354Y237402D02*
Y281102D01*
X313730Y237008D02*
X321654D01*
X323622Y238976*
Y244685*
X325591Y246654*
X348031*
X329331Y230906D02*
X348031D01*
Y236811D02*
X343701D01*
X340945Y239567*
X348031Y234843D02*
X338976D01*
X333661Y240157*
X348031Y232874D02*
X347835Y233071D01*
X336417*
X333661Y235827*
X251969Y241929D02*
X253150Y243110D01*
Y264370*
X255118Y266339*
X298425Y242913D02*
Y257874D01*
X295276Y240157D02*
Y249606D01*
X313730Y245276D02*
X319882D01*
X323228Y248622*
X348031*
X342913Y241929D02*
X343701Y242717D01*
X348031*
X257677Y259252D02*
Y272047D01*
X313730Y253543D02*
X321654D01*
X348031Y256496D02*
X343898D01*
X342126Y258268*
Y264961*
X340551Y266535*
X318504*
X348031Y254528D02*
X334252D01*
X330906Y257874*
X318110*
X348031Y252559D02*
X332480D01*
X330315Y254724*
X348031Y250591D02*
X327559D01*
X324606Y253543*
X321654*
X365748Y258661D02*
Y286614D01*
X364567Y287795*
X313730Y261811D02*
X330315D01*
X274803Y279528D02*
Y293701D01*
X304724Y273622D02*
X323622D01*
X359055Y271654D02*
Y293701D01*
X174181Y127509D02*
X175469D01*
X176969Y130697D02*
Y129409D01*
X179756Y127509D02*
X178469D01*
X103161Y222441D02*
X104449D01*
X106349Y225228D02*
Y223941D01*
Y227921D02*
Y229209D01*
X103161Y230709D02*
X104449D01*
X106349Y233496D02*
Y232209D01*
X136171Y281134D02*
Y279846D01*
X139358Y278346D02*
X138071D01*
X136171Y275559D02*
Y276846D01*
Y259480D02*
Y258193D01*
X139358Y256693D02*
X138071D01*
X136171Y253906D02*
Y255193D01*
X213417Y211467D02*
X212130D01*
X210630Y208280D02*
Y209567D01*
X207843Y211467D02*
X209130D01*
X221654Y238354D02*
Y237067D01*
Y229165D02*
Y230453D01*
X221685Y211467D02*
X220398D01*
X218898Y208280D02*
Y209567D01*
X216110Y211467D02*
X217398D01*
X250681Y104528D02*
X251969D01*
X259358D02*
X258071D01*
X351131Y153181D02*
Y151894D01*
X354319Y150394D02*
X353031D01*
X351131Y147606D02*
Y148894D01*
X343988Y242717D02*
X345276D01*
X352075D02*
X350787D01*
X351131Y161449D02*
Y160161D01*
X354319Y158661D02*
X353031D01*
X351131Y155874D02*
Y157161D01*
X307530Y264598D02*
Y263311D01*
Y259024D02*
Y260311D01*
X304343Y261811D02*
X305630D01*
X307530Y256331D02*
Y255043D01*
Y250756D02*
Y252043D01*
X304343Y253543D02*
X305630D01*
X307530Y248063D02*
Y246776D01*
Y242488D02*
Y243776D01*
X304343Y245276D02*
X305630D01*
X307530Y239795D02*
Y238508D01*
Y234220D02*
Y235508D01*
X304343Y237008D02*
X305630D01*
X307530Y231528D02*
Y230240D01*
Y225953D02*
Y227240D01*
X304343Y228740D02*
X305630D01*
X307530Y223260D02*
Y221972D01*
Y217685D02*
Y218972D01*
X304343Y220472D02*
X305630D01*
X307530Y214992D02*
Y213705D01*
Y209417D02*
Y210705D01*
X304343Y212205D02*
X305630D01*
X347835Y120579D02*
Y119291D01*
Y112492D02*
Y113780D01*
X321752Y110736D02*
Y109449D01*
Y103043D02*
Y104331D01*
X317610Y106890D02*
X318898D01*
X361917Y103937D02*
X360630D01*
X354618D02*
X355906D01*
X358268Y108374D02*
Y107087D01*
X348720Y110736D02*
Y109449D01*
X352862Y106890D02*
X351575D01*
X348720Y103043D02*
Y104331D01*
X247472Y155561D02*
X246185D01*
X244685Y152374D02*
Y153661D01*
X241898Y155561D02*
X243185D01*
X322638Y120579D02*
Y119291D01*
Y112492D02*
Y113780D01*
X330118Y113476D02*
Y114764D01*
G54D48*
X340945Y158661D02*
X344931D01*
X354331Y226772D02*
Y237402D01*
X352953Y238780*
X348031*
Y240748D02*
X354134D01*
X354331Y240945*
X404924Y155116D02*
X405834Y154206D01*
X409250Y155116D02*
X408339Y154206D01*
G54D49*
X153346Y107874D03*
X209252Y108465D03*
X312205Y111024D03*
X183071Y124016D03*
X340354Y122835D03*
X386220D03*
X409843Y122441D03*
X370079Y136614D03*
X382283D03*
X340945Y158661D03*
X407480Y168898D03*
Y177165D03*
Y185433D03*
X185827Y191732D03*
X250787Y195669D03*
X334252Y192913D03*
X407480Y198031D03*
Y206299D03*
X354331Y226772D03*
X407480Y235433D03*
X342913Y241929D03*
X354331Y240945D03*
X407480Y243701D03*
X148819Y260236D03*
X285039Y266142D03*
X407480Y267323D03*
X285039Y274409D03*
X407480Y275591D03*
G54D50*
X131496Y103937D03*
Y107874D03*
X135433D03*
Y103937D03*
X268110Y107874D03*
X407087Y103937D03*
X411024D03*
X407087Y107874D03*
X411024D03*
X119685Y119685D03*
X115748D03*
X123622Y111811D03*
X119685D03*
X115748D03*
X119685Y115748D03*
X115748D03*
X131496Y111811D03*
X127559D03*
X135433D03*
X198425Y119685D03*
X202362D03*
X194685Y110039D03*
X206299Y119685D03*
X210236D03*
X214173D03*
X218110D03*
X222047D03*
X315748Y116535D03*
X354134D03*
X372835Y118504D03*
X389173D03*
X198425Y123622D03*
X202362D03*
X206299D03*
X210236D03*
X222047D03*
X214173D03*
X218110D03*
X284646Y129134D03*
X321260Y127953D03*
X329528Y128150D03*
X109449Y135236D03*
X113386D03*
X120866Y135039D03*
X130512Y133465D03*
X127362D03*
X141535Y135039D03*
X138189D03*
X144488D03*
X203346Y131693D03*
X355512Y133858D03*
X406299Y136614D03*
X277756Y149606D03*
X281496Y146457D03*
X305906Y140354D03*
X337795Y142126D03*
X388583Y146457D03*
X131496Y159055D03*
Y151181D03*
X135433Y159055D03*
X139370D03*
X143307D03*
Y151181D03*
X139370D03*
X135433D03*
X278740Y156496D03*
X283465Y152756D03*
X308465Y155118D03*
X336024Y156102D03*
X388583Y155118D03*
X131496Y166929D03*
X135433D03*
X175591Y162598D03*
X200394Y165354D03*
X308465Y160433D03*
X312992Y161811D03*
X177165Y171654D03*
X196654Y175000D03*
X236220Y174803D03*
X253346Y170866D03*
X260630Y177953D03*
X281890Y171850D03*
X280315Y179528D03*
X112795Y182677D03*
X108858D03*
X115748D03*
X125591D03*
X142323D03*
X153543Y188583D03*
X156299Y181102D03*
X161811Y182283D03*
X171654Y186024D03*
X169291Y180315D03*
X166142Y183268D03*
X198425Y186024D03*
X250787Y183268D03*
X254331Y188583D03*
X263780Y180315D03*
X306496Y183071D03*
X312992Y185433D03*
X332283Y186614D03*
X328346D03*
X336220Y182677D03*
X340157D03*
Y186614D03*
X336220D03*
X344094Y182677D03*
Y186614D03*
X161811Y195669D03*
X236220Y191732D03*
X318110Y198425D03*
X359449Y192520D03*
X151181Y201181D03*
X156299Y201969D03*
X187992Y206693D03*
X194094D03*
X202362Y207087D03*
X227165Y207874D03*
X243701Y207087D03*
X235433Y208661D03*
X262992Y200787D03*
X257874Y208268D03*
X257480Y201969D03*
X317717Y206299D03*
X344094Y202362D03*
X129921Y217323D03*
X254331Y216929D03*
X260630Y212008D03*
X265354Y213386D03*
X375591Y214173D03*
X379528D03*
X383465D03*
Y218110D03*
X379528D03*
X375591D03*
X387402Y214173D03*
X391339D03*
X387402Y218110D03*
X391339D03*
X148425Y227559D03*
X253150Y226969D03*
X260433Y222047D03*
X270866Y226772D03*
X267323Y229331D03*
X332874Y226969D03*
X342126Y223425D03*
X336220Y223622D03*
X359055Y222835D03*
X124016Y236220D03*
X140551D03*
X174606Y235433D03*
X265354Y237402D03*
X333661Y235827D03*
X329331Y230906D03*
X340945Y239567D03*
X103937Y249606D03*
X107874D03*
X111811D03*
Y245669D03*
X107874D03*
X103937D03*
X125984Y248425D03*
X172441Y247047D03*
X174606Y241929D03*
X251969D03*
X261220Y245472D03*
X260433Y241339D03*
X255709Y249606D03*
X298425Y242913D03*
X295276Y249606D03*
Y240157D03*
X333661D03*
X111811Y253543D03*
X103937D03*
X170866Y256890D03*
X210236Y257480D03*
X206299D03*
X222047D03*
X218110D03*
X214173D03*
X257874Y253543D03*
X257677Y259252D03*
X298425Y257874D03*
X318110D03*
X321654Y253543D03*
X330315Y254724D03*
X365748Y258661D03*
X375591Y253543D03*
X379528D03*
X383465D03*
Y257480D03*
X379528D03*
X375591D03*
X387402Y253543D03*
X391339D03*
Y257480D03*
X387402D03*
X206299Y265354D03*
X210236D03*
X222047D03*
X218110D03*
X214173D03*
X255118Y266339D03*
X318504Y266535D03*
X330315Y261811D03*
X111811Y277165D03*
X103937D03*
X125984Y278346D03*
X257677Y272047D03*
X274803Y279528D03*
X304724Y273622D03*
X323622D03*
X359055Y271654D03*
X103937Y281102D03*
X107874D03*
X111811Y285039D03*
X107874D03*
X103937D03*
X111811Y281102D03*
X143307Y288976D03*
X147244D03*
X151181D03*
X155118D03*
X261417D03*
X265354D03*
X270866Y285827D03*
X265354Y281102D03*
X281102D03*
Y285039D03*
X292913Y281102D03*
Y285039D03*
X285039Y281102D03*
X288976D03*
Y285039D03*
X285039D03*
X364567Y287795D03*
X143307Y292913D03*
X151181D03*
X147244D03*
X155118D03*
X261417D03*
X269291D03*
X265354D03*
X274803Y293701D03*
X359055D03*
G54D51*
X393020Y231890D02*
G75*
G03X393020I-2863J0D01*
G01X289476Y116339D02*
G03X289476I-2862J0D01*
G01X151287Y260236D02*
G03X151287I-2468J0D01*
G01X185736Y116732D02*
G03X185736I-2862J0D01*
G01X287508Y266142D02*
G03X287508I-2469J0D01*
G01Y274409D02*
G03X287508I-2469J0D01*
G01X336720Y192913D02*
G03X336720I-2468J0D01*
G01X413673Y271079D02*
Y295063D01*
G03X413173Y295563I-500J-0*
G01X405724*
G03X405224Y295063I0J-500*
G01Y288189*
X403937Y286902D02*
G03X405224Y288189I0J1287D01*
G01X403937Y286902D02*
X386614D01*
X385327Y288189D02*
G03X386614Y286902I1287J-0D01*
G01X385327Y288189D02*
Y295063D01*
G03X384827Y295563I-500J-0*
G01X361469*
G03X361034Y294817I-0J-500*
G01X360843Y292299D02*
G03X361034Y294817I-1788J1402D01*
G01X360843Y292299D02*
G03X360736Y291991I393J-308D01*
G01Y273364*
G03X360843Y273055I500J-0*
G01Y270252D02*
G03Y273055I-1788J1402D01*
G01Y270252D02*
G03X360736Y269943I393J-309D01*
G01Y224545*
G03X360843Y224236I500J-0*
G01X357267D02*
G03X360843I1788J-1401D01*
G01X357267D02*
G03X357374Y224545I-393J309D01*
G01Y225241*
G03X356446Y225499I-500J-0*
G01X352870Y224781D02*
G03X356446Y225499I1461J1991D01*
G01X352870Y224781D02*
G03X352075Y224387I-295J-403D01*
G01X352043Y224126D02*
G03X352075Y224387I-1256J283D01*
G01X352043Y224126D02*
G03Y223906I488J-110D01*
G01X352075Y223622D02*
G03X352043Y223906I-1288J0D01*
G01X352075Y223622D02*
Y222441D01*
X352043Y222157D02*
G03X352075Y222441I-1256J284D01*
G01X352043Y222157D02*
G03Y221937I488J-110D01*
G01X352075Y221654D02*
G03X352043Y221937I-1288J-0D01*
G01X352075Y221654D02*
Y220472D01*
X352043Y220189D02*
G03X352075Y220472I-1256J283D01*
G01X352043Y220189D02*
G03Y219969I488J-110D01*
G01X352075Y219685D02*
G03X352043Y219969I-1288J0D01*
G01X352075Y219685D02*
Y218504D01*
X352043Y218220D02*
G03X352075Y218504I-1256J284D01*
G01X352043Y218220D02*
G03Y218000I488J-110D01*
G01X352075Y217717D02*
G03X352043Y218000I-1288J-0D01*
G01X352075Y217717D02*
Y216535D01*
X352043Y216252D02*
G03X352075Y216535I-1256J283D01*
G01X352043Y216252D02*
G03Y216032I488J-110D01*
G01X352075Y215748D02*
G03X352043Y216032I-1288J0D01*
G01X352075Y215748D02*
Y214567D01*
X352043Y214283D02*
G03X352075Y214567I-1256J284D01*
G01X352043Y214283D02*
G03Y214063I488J-110D01*
G01X352075Y213780D02*
G03X352043Y214063I-1288J-0D01*
G01X352075Y213780D02*
Y212598D01*
X352043Y212315D02*
G03X352075Y212598I-1256J283D01*
G01X352043Y212315D02*
G03Y212095I488J-110D01*
G01X352075Y211811D02*
G03X352043Y212095I-1288J0D01*
G01X352075Y211811D02*
Y211236D01*
G03X352575Y210736I500J0*
G01X357480*
X358768Y209449D02*
G03X357480Y210736I-1288J-0D01*
G01X358768Y209449D02*
Y199016D01*
X357480Y197728D02*
G03X358768Y199016I0J1288D01*
G01X357480Y197728D02*
X348425D01*
X347138Y199016D02*
G03X348425Y197728I1287J-0D01*
G01X347138Y199016D02*
Y201260D01*
G03X346179Y201459I-500J0*
G01X342693Y200575D02*
G03X346179Y201459I1401J1787D01*
G01X342693Y200575D02*
G03X342384Y200681I-309J-394D01*
G01X334331*
G03X333842Y200288I-0J-500*
G01X332584Y199275D02*
G03X333842Y200288I0J1287D01*
G01X332584Y199275D02*
X327584D01*
X327041Y199395D02*
G03X327584Y199275I543J1167D01*
G01X327041Y199395D02*
G03X326476Y199295I-211J-453D01*
G01X325318Y198138*
G03X325172Y197784I354J-354*
G01Y196812*
X323884Y195525D02*
G03X325172Y196812I0J1287D01*
G01X323884Y195525D02*
X320284D01*
X319247Y196049D02*
G03X320284Y195525I1037J763D01*
G01X319247Y196049D02*
G03X318712Y196235I-402J-296D01*
G01X318555Y200653D02*
G03X318712Y196235I-445J-2228D01*
G01X318555Y200653D02*
G03X319109Y200939I98J490D01*
G01X320284Y201700D02*
G03X319109Y200939I0J-1288D01*
G01X320284Y201700D02*
X323409D01*
G03X323909Y202200I0J500*
G01Y202525*
G03X323409Y203025I-500J-0*
G01X320284*
X319081Y203854D02*
G03X320284Y203025I1203J458D01*
G01X319081Y203854D02*
G03X318452Y204150I-467J-177D01*
G01X318580Y208400D02*
G03X318452Y204150I-863J-2101D01*
G01X318580Y208400D02*
G03X319194Y208597I190J463D01*
G01X320010Y209170D02*
G03X319194Y208597I274J-1258D01*
G01X320010Y209170D02*
G03X320403Y209659I-107J489D01*
G01Y209843*
X320409Y209982D02*
G03X320403Y209843I1675J-139D01*
G01X320409Y209982D02*
G03X319911Y210524I-498J42D01*
G01X317282*
G03X316820Y210214I0J-500*
G01X315630Y209417D02*
G03X316820Y210214I-0J1288D01*
G01X315630Y209417D02*
X311830D01*
X310966Y209751D02*
G03X311830Y209417I864J954D01*
G01X310966Y209751D02*
G03X310294I-336J-371D01*
G01X309430Y209417D02*
G03X310294Y209751I-0J1288D01*
G01X309430Y209417D02*
X305630D01*
X304342Y210705D02*
G03X305630Y209417I1288J-0D01*
G01X304342Y210705D02*
Y213705D01*
X305630Y214992D02*
G03X304342Y213705I-0J-1287D01*
G01X305630Y214992D02*
X309430D01*
X310294Y214659D02*
G03X309430Y214992I-864J-954D01*
G01X310294Y214659D02*
G03X310966I336J370D01*
G01X311830Y214992D02*
G03X310966Y214659I-0J-1287D01*
G01X311830Y214992D02*
X315630D01*
X316820Y214195D02*
G03X315630Y214992I-1190J-490D01*
G01X316820Y214195D02*
G03X317282Y213886I462J191D01*
G01X319766*
G03X320119Y214032I-0J500*
G01X323828Y217741*
G03X323474Y218594I-354J353*
G01X317187*
G03X316751Y218340I-0J-500*
G01X315630Y217685D02*
G03X316751Y218340I-0J1287D01*
G01X315630Y217685D02*
X311830D01*
X310966Y218018D02*
G03X311830Y217685I864J954D01*
G01X310966Y218018D02*
G03X310294I-336J-370D01*
G01X309430Y217685D02*
G03X310294Y218018I-0J1287D01*
G01X309430Y217685D02*
X305630D01*
X304342Y218972D02*
G03X305630Y217685I1288J0D01*
G01X304342Y218972D02*
Y221972D01*
X305630Y223260D02*
G03X304342Y221972I-0J-1288D01*
G01X305630Y223260D02*
X309430D01*
X310294Y222927D02*
G03X309430Y223260I-864J-955D01*
G01X310294Y222927D02*
G03X310966I336J370D01*
G01X311830Y223260D02*
G03X310966Y222927I-0J-1288D01*
G01X311830Y223260D02*
X315630D01*
X316869Y222321D02*
G03X315630Y223260I-1239J-349D01*
G01X316869Y222321D02*
G03X317350Y221957I481J136D01*
G01X329134*
X330323Y221464D02*
G03X329134Y221957I-1189J-1188D01*
G01X330323Y221464D02*
X330865Y220922D01*
G03X331218Y220776I353J354*
G01X334745*
G03X335011Y221699I0J500*
G01X334013Y224157D02*
G03X335011Y221699I2207J-535D01*
G01X334013Y224157D02*
G03X333409Y224761I-486J118D01*
G01X330924Y228134D02*
G03X333409Y224761I1950J-1165D01*
G01X330924Y228134D02*
G03X330285Y228844I-429J256D01*
G01X327621Y229410D02*
G03X330285Y228844I1710J1496D01*
G01X327621Y229410D02*
G03X326891Y229435I-377J-329D01*
G01X325008Y227551*
X323819Y227059D02*
G03X325008Y227551I-0J1681D01*
G01X323819Y227059D02*
X317282D01*
G03X316820Y226750I0J-500*
G01X315630Y225953D02*
G03X316820Y226750I-0J1287D01*
G01X315630Y225953D02*
X311830D01*
X310966Y226286D02*
G03X311830Y225953I864J954D01*
G01X310966Y226286D02*
G03X310294I-336J-371D01*
G01X309430Y225953D02*
G03X310294Y226286I-0J1287D01*
G01X309430Y225953D02*
X305630D01*
X304342Y227240D02*
G03X305630Y225953I1288J0D01*
G01X304342Y227240D02*
Y230240D01*
X305630Y231528D02*
G03X304342Y230240I-0J-1288D01*
G01X305630Y231528D02*
X309430D01*
X310294Y231194D02*
G03X309430Y231528I-864J-954D01*
G01X310294Y231194D02*
G03X310966I336J371D01*
G01X311830Y231528D02*
G03X310966Y231194I-0J-1288D01*
G01X311830Y231528D02*
X315630D01*
X316820Y230731D02*
G03X315630Y231528I-1190J-491D01*
G01X316820Y230731D02*
G03X317282Y230421I462J190D01*
G01X322915*
G03X323269Y230568I0J500*
G01X324157Y231455*
G03X324303Y231809I-354J354*
G01Y236073*
G03X323450Y236426I-500J-0*
G01X322842Y235819*
X321654Y235327D02*
G03X322842Y235819I-0J1681D01*
G01X321654Y235327D02*
X317282D01*
G03X316820Y235017I0J-500*
G01X315630Y234220D02*
G03X316820Y235017I-0J1288D01*
G01X315630Y234220D02*
X311830D01*
X310966Y234554D02*
G03X311830Y234220I864J954D01*
G01X310966Y234554D02*
G03X310294I-336J-371D01*
G01X309430Y234220D02*
G03X310294Y234554I-0J1288D01*
G01X309430Y234220D02*
X305630D01*
X304342Y235508D02*
G03X305630Y234220I1288J-0D01*
G01X304342Y235508D02*
Y238508D01*
X305630Y239795D02*
G03X304342Y238508I-0J-1287D01*
G01X305630Y239795D02*
X309430D01*
X310294Y239462D02*
G03X309430Y239795I-864J-954D01*
G01X310294Y239462D02*
G03X310966I336J371D01*
G01X311830Y239795D02*
G03X310966Y239462I-0J-1287D01*
G01X311830Y239795D02*
X315630D01*
X316820Y238998D02*
G03X315630Y239795I-1190J-490D01*
G01X316820Y238998D02*
G03X317282Y238689I462J191D01*
G01X320750*
G03X321104Y238835I0J500*
G01X321794Y239526*
G03X321941Y239880I-353J354*
G01Y243750*
G03X321087Y244104I-500J0*
G01X321071Y244087*
X319882Y243594D02*
G03X321071Y244087I-0J1682D01*
G01X319882Y243594D02*
X317282D01*
G03X316820Y243285I0J-500*
G01X315630Y242488D02*
G03X316820Y243285I-0J1288D01*
G01X315630Y242488D02*
X311830D01*
X310966Y242821D02*
G03X311830Y242488I864J955D01*
G01X310966Y242821D02*
G03X310294I-336J-370D01*
G01X309430Y242488D02*
G03X310294Y242821I-0J1288D01*
G01X309430Y242488D02*
X305630D01*
X304342Y243776D02*
G03X305630Y242488I1288J-0D01*
G01X304342Y243776D02*
Y246776D01*
X305630Y248063D02*
G03X304342Y246776I-0J-1287D01*
G01X305630Y248063D02*
X309430D01*
X310294Y247730D02*
G03X309430Y248063I-864J-954D01*
G01X310294Y247730D02*
G03X310966I336J370D01*
G01X311830Y248063D02*
G03X310966Y247730I-0J-1287D01*
G01X311830Y248063D02*
X315630D01*
X316820Y247266D02*
G03X315630Y248063I-1190J-490D01*
G01X316820Y247266D02*
G03X317282Y246957I462J191D01*
G01X318978*
G03X319332Y247103I0J500*
G01X322040Y249811*
X323228Y250303D02*
G03X322040Y249811I0J-1681D01*
G01X323228Y250303D02*
X324262D01*
G03X324615Y251157I-0J500*
G01X324056Y251716*
G03X323703Y251862I-353J-354*
G01X323364*
G03X323055Y251756I-0J-500*
G01X320252D02*
G03X323055I1402J1787D01*
G01X320252D02*
G03X319943Y251862I-309J-394D01*
G01X317282*
G03X316820Y251553I0J-500*
G01X315630Y250756D02*
G03X316820Y251553I-0J1287D01*
G01X315630Y250756D02*
X311830D01*
X310966Y251089D02*
G03X311830Y250756I864J954D01*
G01X310966Y251089D02*
G03X310294I-336J-370D01*
G01X309430Y250756D02*
G03X310294Y251089I-0J1287D01*
G01X309430Y250756D02*
X305630D01*
X304342Y252043D02*
G03X305630Y250756I1288J0D01*
G01X304342Y252043D02*
Y255043D01*
X305630Y256331D02*
G03X304342Y255043I-0J-1288D01*
G01X305630Y256331D02*
X309430D01*
X310294Y255997D02*
G03X309430Y256331I-864J-954D01*
G01X310294Y255997D02*
G03X310966I336J371D01*
G01X311830Y256331D02*
G03X310966Y255997I-0J-1288D01*
G01X311830Y256331D02*
X315542D01*
G03X316006Y257019I0J500*
G01X315902Y258406D02*
G03X316006Y257019I2208J-532D01*
G01X315902Y258406D02*
G03X315416Y259024I-486J118D01*
G01X311830*
X310966Y259357D02*
G03X311830Y259024I864J954D01*
G01X310966Y259357D02*
G03X310294I-336J-371D01*
G01X309430Y259024D02*
G03X310294Y259357I-0J1287D01*
G01X309430Y259024D02*
X305630D01*
X304342Y260311D02*
G03X305630Y259024I1288J0D01*
G01X304342Y260311D02*
Y263311D01*
X305630Y264598D02*
G03X304342Y263311I-0J-1287D01*
G01X305630Y264598D02*
X309430D01*
X310294Y264265D02*
G03X309430Y264598I-864J-954D01*
G01X310294Y264265D02*
G03X310966I336J371D01*
G01X311830Y264598D02*
G03X310966Y264265I-0J-1287D01*
G01X311830Y264598D02*
X315630D01*
X316034Y264533D02*
G03X315630Y264598I-404J-1222D01*
G01X316034Y264533D02*
G03X316608Y265284I157J475D01*
G01X319906Y268323D02*
G03X316608Y265284I-1402J-1788D01*
G01X319906Y268323D02*
G03X320214Y268217I308J394D01*
G01X340551*
X341740Y267724D02*
G03X340551Y268217I-1189J-1189D01*
G01X341740Y267724D02*
X343315Y266149D01*
X343807Y264961D02*
G03X343315Y266149I-1681J-0D01*
G01X343807Y264961D02*
Y259171D01*
G03X343954Y258818I500J0*
G01X344346Y258425*
G03X344861Y258305I354J354*
G01X345276Y258374D02*
G03X344861Y258305I-0J-1287D01*
G01X345276Y258374D02*
X346638D01*
G03X347138Y258874I-0J500*
G01Y268701*
X348425Y269988D02*
G03X347138Y268701I0J-1287D01*
G01X348425Y269988D02*
X356540D01*
G03X356994Y270698I0J500*
G01X357267Y273055D02*
G03X356994Y270698I1788J-1401D01*
G01X357267Y273055D02*
G03X357374Y273364I-393J309D01*
G01Y291991*
G03X357267Y292299I-500J-0*
G01X357077Y294817D02*
G03X357267Y292299I1978J-1116D01*
G01X357077Y294817D02*
G03X356641Y295563I-436J246D01*
G01X277217*
G03X276782Y294817I-0J-500*
G01X276591Y292299D02*
G03X276782Y294817I-1788J1402D01*
G01X276591Y292299D02*
G03X276484Y291991I393J-308D01*
G01Y281238*
G03X276591Y280929I500J-0*
G01X273364Y277770D02*
G03X276591Y280929I1439J1758D01*
G01X273364Y277770D02*
G03X272547Y277383I-317J-387D01*
G01Y228482*
G03X272654Y228173I500J-0*
G01X269750Y224793D02*
G03X272654Y228173I1116J1979D01*
G01X269750Y224793D02*
G03X269004Y224358I-246J-435D01*
G01Y222951*
G03X269150Y222597I500J-0*
G01X269594Y222153*
X270087Y220965D02*
G03X269594Y222153I-1681J-0D01*
G01X270087Y220965D02*
Y192340D01*
G03X270233Y191987I500J0*
G01X280294Y181926*
G03X280588Y181783I354J353*
G01X278060Y179255D02*
G03X280588Y181783I2255J273D01*
G01X278060Y179255D02*
G03X277917Y179548I-497J-60D01*
G01X267889Y189576*
G03X267035Y189222I-354J-354*
G01Y181890*
X266543Y180701D02*
G03X267035Y181890I-1189J1189D01*
G01X266543Y180701D02*
X266178Y180336D01*
G03X266035Y180042I353J-354*
G01X263448Y178068D02*
G03X266035Y180042I332J2247D01*
G01X263448Y178068D02*
G03X262880Y177641I-73J-495D01*
G01X259836Y175824D02*
G03X262880Y177641I794J2129D01*
G01X259836Y175824D02*
G03X259161Y175356I-175J-468D01*
G01Y152229*
G03X259349Y151839I500J0*
G01X259902Y151397*
G03X260214Y151287I312J390*
G01X276046*
G03X276354Y151394I-0J500*
G01X279978Y149134D02*
G03X276354Y151394I-2222J472D01*
G01X279978Y149134D02*
G03X280653Y148566I489J-104D01*
G01X283751Y146730D02*
G03X280653Y148566I-2255J-273D01*
G01X283751Y146730D02*
G03X283894Y146436I497J60D01*
G01X285834Y144496*
X286327Y143307D02*
G03X285834Y144496I-1681J0D01*
G01X286327Y143307D02*
Y130844D01*
G03X286433Y130536I500J0*
G01X282858D02*
G03X286433I1788J-1402D01*
G01X282858D02*
G03X282965Y130844I-393J308D01*
G01Y142404*
G03X282818Y142757I-500J-0*
G01X281517Y144059*
G03X281223Y144201I-354J-354*
G01X279274Y146929D02*
G03X281223Y144201I2222J-472D01*
G01X279274Y146929D02*
G03X278599Y147497I-489J104D01*
G01X276354Y147819D02*
G03X278599Y147497I1402J1787D01*
G01X276354Y147819D02*
G03X276046Y147925I-308J-394D01*
G01X259449*
X258399Y148294D02*
G03X259449Y147925I1050J1312D01*
G01X258399Y148294D02*
X256430Y149868D01*
X255799Y151181D02*
G03X256430Y149868I1681J0D01*
G01X255799Y151181D02*
Y168899D01*
G03X254947Y169254I-500J0*
G01X251559Y172268D02*
G03X254947Y169254I1787J-1402D01*
G01X251559Y172268D02*
G03X251665Y172576I-394J308D01*
G01Y179805*
G03X251519Y180159I-500J0*
G01X250808Y180870*
G03X250514Y181012I-354J-354*
G01X253043Y183541D02*
G03X250514Y181012I-2256J-273D01*
G01X253043Y183541D02*
G03X253185Y183247I496J60D01*
G01X254535Y181897*
X254852Y181458D02*
G03X254535Y181897I-1506J-749D01*
G01X254852Y181458D02*
G03X255799Y181680I447J222D01*
G01Y185986*
G03X255124Y186454I-500J-0*
G01X252543Y189984D02*
G03X255124Y186454I1788J-1401D01*
G01X252543Y189984D02*
G03X252650Y190293I-393J309D01*
G01Y193032*
G03X251920Y193476I-500J-0*
G01X249490Y193569D02*
G03X251920Y193476I1297J2100D01*
G01X249490Y193569D02*
G03X249227Y193644I-263J-425D01*
G01X246856*
G03X246393Y193333I-0J-500*
G01X245201Y192531D02*
G03X246393Y193333I-0J1288D01*
G01X245201Y192531D02*
X242201D01*
X241009Y193333D02*
G03X242201Y192531I1192J486D01*
G01X241009Y193333D02*
G03X240546Y193644I-463J-189D01*
G01X238606*
G03X238175Y192889I-0J-500*
G01X238008Y190331D02*
G03X238175Y192889I-1788J1401D01*
G01X238008Y190331D02*
G03X237902Y190022I394J-309D01*
G01Y176513*
G03X238008Y176205I500J0*
G01X238059Y173468D02*
G03X238008Y176205I-1839J1335D01*
G01X238059Y173468D02*
G03X238130Y172802I404J-294D01*
G01X238337Y168742D02*
G03X238130Y172802I-2117J1927D01*
G01X238337Y168742D02*
G03Y168069I369J-336D01*
G01X238412Y164301D02*
G03X238337Y168069I-2192J1841D01*
G01X238412Y164301D02*
G03X238295Y163980I383J-321D01*
G01Y150617*
G03X239027Y150174I500J-0*
G01X242281Y149754D02*
G03X239027Y150174I-1927J-2116D01*
G01X242281Y149754D02*
G03X242955I337J370D01*
G01Y145522D02*
G03Y149754I1927J2116D01*
G01Y145522D02*
G03X242281I-337J-370D01*
G01X239027Y145102D02*
G03X242281Y145522I1327J2536D01*
G01X239027Y145102D02*
G03X238295Y144659I-232J-443D01*
G01Y138976*
X237688Y137509D02*
G03X238295Y138976I-1468J1467D01*
G01X237688Y137509D02*
X230555Y130377D01*
G03X230410Y130067I354J-354*
G01X228928Y127801D02*
G03X230410Y130067I-1369J2514D01*
G01X228928Y127801D02*
G03Y126923I239J-439D01*
G01X229751Y122569D02*
G03X228928Y126923I-2192J1840D01*
G01X229751Y122569D02*
G03X229634Y122247I383J-322D01*
G01Y118894*
G03X229751Y118573I500J0*
G01X225367D02*
G03X229751I2192J-1841D01*
G01X225367D02*
G03X225484Y118894I-383J321D01*
G01Y122247*
G03X225367Y122569I-500J0*
G01X226190Y126923D02*
G03X225367Y122569I1369J-2514D01*
G01X226190Y126923D02*
G03Y127801I-239J439D01*
G01X227311Y133166D02*
G03X226190Y127801I248J-2851D01*
G01X227311Y133166D02*
G03X227621Y133311I-44J498D01*
G01X233999Y139689*
G03X234146Y140043I-353J354*
G01Y163980*
G03X234029Y164301I-500J-0*
G01X234104Y168069D02*
G03X234029Y164301I2116J-1927D01*
G01X234104Y168069D02*
G03Y168742I-369J337D01*
G01X234311Y172802D02*
G03X234104Y168742I1909J-2133D01*
G01X234311Y172802D02*
G03X234382Y173468I-333J372D01*
G01X234433Y176205D02*
G03X234382Y173468I1787J-1402D01*
G01X234433Y176205D02*
G03X234539Y176513I-394J308D01*
G01Y190022*
G03X234433Y190331I-500J0*
G01X233968Y192027D02*
G03X234433Y190331I2252J-295D01*
G01X233968Y192027D02*
G03X233601Y192575I-496J65D01*
G01X232741Y193333D02*
G03X233601Y192575I1192J486D01*
G01X232741Y193333D02*
G03X232278Y193644I-463J-189D01*
G01X230320*
G03X229858Y193333I0J-500*
G01X228665Y192531D02*
G03X229857Y193333I0J1288D01*
G01X228665Y192531D02*
X225665D01*
X224378Y193819D02*
G03X225665Y192531I1287J-0D01*
G01X224378Y193819D02*
Y197619D01*
X224711Y198483D02*
G03X224378Y197619I954J-864D01*
G01X224711Y198483D02*
G03Y199155I-370J336D01*
G01X224378Y200019D02*
G03X224711Y199155I1287J-0D01*
G01X224378Y200019D02*
Y203819D01*
X225600Y205105D02*
G03X224378Y203819I65J-1286D01*
G01X225600Y205105D02*
G03X225862Y206014I-25J499D01*
G01X224918Y208208D02*
G03X225862Y206014I2247J-334D01*
G01X224918Y208208D02*
G03X224771Y208641I-494J73D01*
G01X224378Y209567D02*
G03X224771Y208641I1287J-0D01*
G01X224378Y209567D02*
Y213367D01*
X224711Y214231D02*
G03X224378Y213367I954J-864D01*
G01X224711Y214231D02*
G03Y214903I-370J336D01*
G01X224378Y215767D02*
G03X224711Y214903I1287J-0D01*
G01X224378Y215767D02*
Y219567D01*
X224795Y220515D02*
G03X224378Y219567I870J-948D01*
G01X224795Y220515D02*
G03X224810Y221237I-338J369D01*
G01X224253Y221794*
G03X223900Y221941I-353J-353*
G01X218504*
X217315Y222433D02*
G03X218504Y221941I1189J1189D01*
G01X217315Y222433D02*
X216134Y223614D01*
X215968Y223808D02*
G03X216134Y223614I1355J995D01*
G01X215968Y223808D02*
G03X215065Y223534I-403J-296D01*
G01X214459Y222155D02*
G03X215065Y223534I-1467J1467D01*
G01X214459Y222155D02*
X213244Y220940D01*
G03X213187Y220301I354J-353*
G01X213322Y220053D02*
G03X213187Y220301I-1192J-486D01*
G01X213322Y220053D02*
G03X213785Y219742I463J189D01*
G01X215742*
G03X216205Y220053I0J500*
G01X217398Y220854D02*
G03X216205Y220053I-0J-1287D01*
G01X217398Y220854D02*
X220398D01*
X221685Y219567D02*
G03X220398Y220854I-1287J-0D01*
G01X221685Y219567D02*
Y215767D01*
X221352Y214903D02*
G03X221685Y215767I-954J864D01*
G01X221352Y214903D02*
G03Y214231I370J-336D01*
G01X221685Y213367D02*
G03X221352Y214231I-1287J-0D01*
G01X221685Y213367D02*
Y209567D01*
X220398Y208280D02*
G03X221685Y209567I-0J1287D01*
G01X220398Y208280D02*
X217398D01*
X216110Y209567D02*
G03X217398Y208280I1288J-0D01*
G01X216110Y209567D02*
Y213367D01*
X216443Y214231D02*
G03X216110Y213367I955J-864D01*
G01X216443Y214231D02*
G03Y214903I-370J336D01*
G01X216205Y215281D02*
G03X216443Y214903I1193J486D01*
G01X216205Y215281D02*
G03X215742Y215592I-463J-189D01*
G01X213785*
G03X213322Y215281I0J-500*
G01X213084Y214903D02*
G03X213322Y215281I-954J864D01*
G01X213084Y214903D02*
G03Y214231I371J-336D01*
G01X213417Y213367D02*
G03X213084Y214231I-1287J-0D01*
G01X213417Y213367D02*
Y209567D01*
X212130Y208280D02*
G03X213417Y209567I-0J1287D01*
G01X212130Y208280D02*
X209130D01*
X207842Y209567D02*
G03X209130Y208280I1288J-0D01*
G01X207842Y209567D02*
Y213367D01*
X208176Y214231D02*
G03X207842Y213367I954J-864D01*
G01X208176Y214231D02*
G03Y214903I-371J336D01*
G01X207843Y215767D02*
G03X208176Y214903I1287J-0D01*
G01X207842Y215767D02*
Y219567D01*
X208356Y220596D02*
G03X207842Y219567I774J-1029D01*
G01X208356Y220596D02*
G03X208555Y220995I-301J399D01*
G01Y221260*
Y221271D02*
G03Y221260I2075J-11D01*
G01Y221271D02*
Y221274D01*
G03X207833Y221722I-500J0*
G01X207087Y221547D02*
G03X207833Y221722I-0J1681D01*
G01X207087Y221547D02*
X205234D01*
G03X204881Y221401I0J-500*
G01X204717Y221237*
G03X204733Y220515I354J-353*
G01X205150Y219567D02*
G03X204733Y220515I-1288J-0D01*
G01X205150Y219567D02*
Y215767D01*
X204816Y214903D02*
G03X205150Y215767I-954J864D01*
G01X204816Y214903D02*
G03Y214231I371J-336D01*
G01X205150Y213367D02*
G03X204816Y214231I-1288J-0D01*
G01X205150Y213367D02*
Y209567D01*
X204631Y208534D02*
G03X205150Y209567I-769J1033D01*
G01X204631Y208534D02*
G03X204466Y207944I298J-401D01*
G01X204194Y205744D02*
G03X204466Y207944I-1832J1343D01*
G01X204194Y205744D02*
G03X204392Y204992I404J-296D01*
G01X205150Y203819D02*
G03X204392Y204992I-1288J-0D01*
G01X205150Y203819D02*
Y200019D01*
X204816Y199155D02*
G03X205150Y200019I-954J864D01*
G01X204816Y199155D02*
G03Y198483I371J-336D01*
G01X205150Y197619D02*
G03X204816Y198483I-1288J-0D01*
G01X205150Y197619D02*
Y193819D01*
X203862Y192531D02*
G03X205150Y193819I0J1288D01*
G01X203862Y192531D02*
X200862D01*
X199670Y193333D02*
G03X200862Y192531I1192J486D01*
G01X199670Y193333D02*
G03X199207Y193644I-463J-189D01*
G01X197250*
G03X196787Y193333I-0J-500*
G01X195594Y192531D02*
G03X196787Y193333I0J1288D01*
G01X195594Y192531D02*
X192594D01*
X191402Y193333D02*
G03X192594Y192531I1192J486D01*
G01X191402Y193333D02*
G03X190939Y193644I-463J-189D01*
G01X188982*
G03X188519Y193333I-0J-500*
G01X188285Y192960D02*
G03X188519Y193333I-958J859D01*
G01X188285Y192959D02*
G03X188181Y192475I373J-333D01*
G01X187968Y190504D02*
G03X188181Y192475I-2141J1228D01*
G01X187968Y190504D02*
G03X187902Y190255I434J-249D01*
G01Y157798*
G03X188604Y157341I500J0*
G01X192392Y153590D02*
G03X188604Y157341I-2628J1134D01*
G01X192392Y153590D02*
G03X193006Y152917I459J-198D01*
G01X192138Y147939D02*
G03X193006Y152917I1760J2258D01*
G01X192138Y147939D02*
G03X191523I-307J-394D01*
G01X188604Y147580D02*
G03X191523Y147939I1160J2617D01*
G01X188604Y147580D02*
G03X187902Y147123I-202J-457D01*
G01Y126772*
X187294Y125305D02*
G03X187902Y126772I-1467J1467D01*
G01X187294Y125305D02*
X185583Y123593D01*
G03X185454Y123370I353J-353*
G01X180730Y123232D02*
G03X185454Y123370I2341J784D01*
G01X180730Y123232D02*
G03X180421Y123545I-474J-159D01*
X180603Y123946I-317J387*
G01X182426Y126398D02*
G03X180603Y123946I645J-2382D01*
G01X182426Y126398D02*
G03X182648Y126527I-131J483D01*
G01X183606Y127485*
X183605D02*
G03X183752Y127838I-353J353D01*
G01Y190255*
G03X183686Y190504I-500J-0*
G01X183473Y192475D02*
G03X183686Y190504I2354J-743D01*
G01X183473Y192475D02*
G03X183368Y192959I-477J151D01*
G01X183039Y193819D02*
G03X183368Y192960I1288J-0D01*
G01X183039Y193819D02*
Y197619D01*
X183373Y198483D02*
G03X183039Y197619I954J-864D01*
G01X183373Y198483D02*
G03Y199155I-371J336D01*
G01X183039Y200019D02*
G03X183373Y199155I1288J-0D01*
G01X183039Y200019D02*
Y200231D01*
G03X182842Y200630I-500J0*
G01X182670Y200780D02*
G03X182842Y200630I1188J1189D01*
G01X182670Y200780D02*
X181095Y202355D01*
X180602Y203543D02*
G03X181095Y202355I1681J0D01*
G01X180602Y203543D02*
Y216486D01*
X181095Y217675D02*
G03X180602Y216486I1188J-1189D01*
G01X181095Y217675D02*
X182276Y218856D01*
X182753Y219190D02*
G03X182276Y218856I712J-1523D01*
G01X182753Y219190D02*
G03X183041Y219622I-212J453D01*
G01X183836Y220757D02*
G03X183041Y219622I491J-1190D01*
G01X183836Y220757D02*
G03X184146Y221219I-190J462D01*
G01Y224803*
X184638Y225992D02*
G03X184146Y224803I1189J-1189D01*
G01X184638Y225992D02*
X187000Y228354D01*
X187304Y228595D02*
G03X187000Y228354I885J-1430D01*
G01X187304Y228595D02*
G03X187041Y229520I-263J425D01*
G01X182677*
X181390Y230807D02*
G03X182677Y229520I1287J0D01*
G01X181390Y230807D02*
Y236713D01*
X182677Y238000D02*
G03X181390Y236713I0J-1287D01*
G01X182677Y238000D02*
X189370D01*
X190658Y236713D02*
G03X189370Y238000I-1288J-0D01*
G01X190658Y236713D02*
Y230807D01*
X190112Y229755D02*
G03X190658Y230807I-742J1052D01*
G01X190112Y229755D02*
G03X190400Y228846I288J-409D01*
G01X197021*
G03X197414Y229656I0J500*
G01X197138Y230453D02*
G03X197414Y229656I1287J-0D01*
G01X197138Y230453D02*
Y237067D01*
X198425Y238354D02*
G03X197138Y237067I0J-1287D01*
G01X198425Y238354D02*
X201575D01*
X202000Y238282D02*
G03X201575Y238354I-425J-1215D01*
G01X202000Y238282D02*
G03X202331I165J472D01*
G01X202756Y238354D02*
G03X202331Y238282I-0J-1287D01*
G01X202756Y238354D02*
X205906D01*
X206331Y238282D02*
G03X205906Y238354I-425J-1215D01*
G01X206331Y238282D02*
G03X206661I165J472D01*
G01X207087Y238354D02*
G03X206661Y238282I-0J-1287D01*
G01X207087Y238354D02*
X210236D01*
X210367Y238348D02*
G03X210236Y238354I-131J-1281D01*
G01X210367Y238348D02*
G03X210917Y238845I50J497D01*
G01Y239764*
X211525Y241231D02*
G03X210917Y239764I1467J-1467D01*
G01X211525Y241231D02*
X214478Y244184D01*
X215945Y244791D02*
G03X214478Y244184I-0J-2074D01*
G01X215945Y244791D02*
X220476D01*
G03X220797Y244908I-0J500*
G01X224478D02*
G03X220797I-1840J-2191D01*
G01X224478D02*
G03X224800Y244791I322J383D01*
G01X225397*
G03X225718Y244908I-0J500*
G01Y240525D02*
G03Y244908I1841J2192D01*
G01Y240525D02*
G03X225397Y240642I-321J-383D01*
G01X224800*
G03X224478Y240525I-0J-500*
G01X220797D02*
G03X224478I1841J2192D01*
G01X220797D02*
G03X220476Y240642I-321J-383D01*
G01X217011*
G03X216658Y240495I0J-500*
G01X215370Y239208*
G03X215731Y238354I354J-354*
G01X215748D02*
G03X215731I0J-1287D01*
G01X215748D02*
X218898D01*
X219323Y238282D02*
G03X218898Y238354I-425J-1215D01*
G01X219323Y238282D02*
G03X219653I165J472D01*
G01X220079Y238354D02*
G03X219653Y238282I-0J-1287D01*
G01X220079Y238354D02*
X223228D01*
X223654Y238282D02*
G03X223228Y238354I-426J-1215D01*
G01X223654Y238282D02*
G03X223984I165J472D01*
G01X224409Y238354D02*
G03X223984Y238282I0J-1287D01*
G01X224409Y238354D02*
X227559D01*
X227984Y238282D02*
G03X227559Y238354I-425J-1215D01*
G01X227984Y238282D02*
G03X228315I166J472D01*
G01X228740Y238354D02*
G03X228315Y238282I0J-1287D01*
G01X228740Y238354D02*
X231890D01*
X232659Y238099D02*
G03X231890Y238354I-769J-1032D01*
G01X232659Y238099D02*
G03X232958Y238000I299J401D01*
G01X234079*
G03X234579Y238500I-0J500*
G01Y242815*
X235866Y244102D02*
G03X234579Y242815I0J-1287D01*
G01X235866Y244102D02*
X240945D01*
X242232Y242815D02*
G03X240945Y244102I-1287J-0D01*
G01X242232Y242815D02*
Y237697D01*
X240945Y236409D02*
G03X242232Y237697I-0J1288D01*
G01X240945Y236409D02*
X240764D01*
G03X240264Y235909I-0J-500*
G01Y230807*
X240002Y230029D02*
G03X240264Y230807I-1026J778D01*
G01X240002Y230029D02*
G03X240345Y229230I398J-302D01*
G01X241346Y228748D02*
G03X240345Y229230I-1189J-1189D01*
G01X241346Y228748D02*
X244890Y225204D01*
X245382Y224016D02*
G03X244890Y225204I-1681J-0D01*
G01X245382Y224016D02*
Y221219D01*
G03X245691Y220757I500J0*
G01X246488Y219567D02*
G03X245691Y220757I-1287J-0D01*
G01X246488Y219567D02*
Y219404D01*
G03X246686Y219006I500J0*
G01X246858Y218856D02*
G03X246686Y219006I-1189J-1189D01*
G01X246858Y218856D02*
X248433Y217281D01*
X248925Y216092D02*
G03X248433Y217281I-1681J0D01*
G01X248925Y216092D02*
Y203543D01*
X248433Y202355D02*
G03X248925Y203543I-1189J1188D01*
G01X248433Y202355D02*
X246858Y200780D01*
X246686Y200630D02*
G03X246858Y200780I-1017J1339D01*
G01X246686Y200630D02*
G03X246488Y200231I302J-399D01*
G01Y200019*
X246155Y199155D02*
G03X246488Y200019I-954J864D01*
G01X246155Y199155D02*
G03Y198483I371J-336D01*
G01X246393Y198105D02*
G03X246155Y198483I-1192J-486D01*
G01X246393Y198105D02*
G03X246856Y197794I463J189D01*
G01X249400*
G03X249634Y197852I0J500*
G01X251920Y197863D02*
G03X249634Y197852I-1133J-2194D01*
G01X251920Y197863D02*
G03X252650Y198307I230J444D01*
G01Y215219*
G03X252543Y215527I-500J-0*
G01X255447Y218908D02*
G03X252543Y215527I-1116J-1979D01*
G01X255447Y218908D02*
G03X256193Y219343I246J435D01*
G01Y225867*
G03X255234Y226065I-500J-0*
G01X252877Y229224D02*
G03X255234Y226065I273J-2255D01*
G01X252877Y229224D02*
G03X253170Y229367I-60J496D01*
G01X253881Y230077*
G03X254028Y230431I-353J354*
G01Y239637*
X254028D02*
G03X253246Y240051I-500J0D01*
G01X251149Y244048D02*
G03X253246Y240051I820J-2119D01*
G01X251149Y244048D02*
G03X251468Y244514I-181J466D01*
G01Y264370*
X251961Y265559D02*
G03X251468Y264370I1189J-1189D01*
G01X251961Y265559D02*
X252720Y266318D01*
G03X252863Y266611I-353J354*
G01X255428Y268589D02*
G03X252863Y266611I-310J-2250D01*
G01X255428Y268589D02*
G03X255996Y269084I68J495D01*
G01Y270337*
G03X255890Y270646I-500J0*
G01X255817Y270744D02*
G03X255890Y270646I1860J1303D01*
G01X255817Y270744D02*
G03X255407Y270957I-410J-287D01*
G01X242732*
G03X242232Y270457I0J-500*
G01Y266634*
X240945Y265346D02*
G03X242232Y266634I-0J1288D01*
G01X240945Y265346D02*
X235866D01*
X234579Y266634D02*
G03X235866Y265346I1287J-0D01*
G01X234579Y266634D02*
Y270457D01*
G03X234079Y270957I-500J-0*
G01X160236*
X159736Y271457D02*
G03X160236Y270957I500J-0D01*
G01X159736Y271457D02*
Y295063D01*
G03X159236Y295563I-500J-0*
G01X130134*
G03X129634Y295063I-0J-500*
G01Y288189*
X128346Y286902D02*
G03X129634Y288189I0J1287D01*
G01X128346Y286902D02*
X111024D01*
X109736Y288189D02*
G03X111024Y286902I1288J-0D01*
G01X109736Y288189D02*
Y295063D01*
G03X109236Y295563I-500J-0*
G01X101787*
G03X101287Y295063I0J-500*
G01Y176591*
G03X101787Y176091I500J-0*
G01X125984*
X126484Y175591D02*
G03X125984Y176091I-500J-0D01*
G01X126484Y175591D02*
Y142126D01*
X125984Y141626D02*
G03X126484Y142126I0J500D01*
G01X125984Y141626D02*
X101787D01*
G03X101287Y141126I0J-500*
G01Y101787*
G03X101787Y101287I500J0*
G01X109236*
G03X109736Y101787I0J500*
G01Y108661*
X111024Y109949D02*
G03X109736Y108661I-0J-1288D01*
G01X111024Y109949D02*
X128346D01*
X129634Y108661D02*
G03X128346Y109949I-1288J0D01*
G01X129634Y108661D02*
Y101787D01*
G03X130134Y101287I500J0*
G01X140120*
G03X140571Y102003I-0J500*
G01X140445Y102559D02*
G03X140571Y102003I1287J0D01*
G01X140445Y102559D02*
Y106496D01*
X140912Y107489D02*
G03X140445Y106496I820J-993D01*
G01X140912Y107489D02*
G03Y108259I-318J385D01*
G01X140445Y109252D02*
G03X140912Y108259I1287J-0D01*
G01X140445Y109252D02*
Y113189D01*
X141732Y114476D02*
G03X140445Y113189I0J-1287D01*
G01X141732Y114476D02*
X142613D01*
G03X143110Y114928I-0J500*
G01X143595Y115953D02*
G03X143110Y114928I1188J-1189D01*
G01X143595Y115953D02*
X145563Y117921D01*
X146752Y118413D02*
G03X145563Y117921I-0J-1681D01*
G01X146752Y118413D02*
X157019D01*
G03X157499Y119052I0J500*
G01X157449Y119409D02*
G03X157499Y119052I1287J0D01*
G01X157449Y119409D02*
Y123209D01*
X157782Y124074D02*
G03X157449Y123209I954J-865D01*
G01X157782Y124074D02*
G03Y124745I-370J335D01*
G01X157449Y125609D02*
G03X157782Y124745I1287J0D01*
G01X157449Y125609D02*
Y129409D01*
X157582Y129979D02*
G03X157449Y129409I1154J-570D01*
G01X157582Y129979D02*
G03X157595Y130393I-448J222D01*
G01X162878D02*
G03X157595I-2642J1103D01*
G01X162878D02*
G03X162891Y129979I461J-192D01*
G01X163024Y129409D02*
G03X162891Y129979I-1288J0D01*
G01X163024Y129409D02*
Y125609D01*
X162690Y124745D02*
G03X163024Y125609I-954J864D01*
G01X162690Y124745D02*
G03Y124074I371J-336D01*
G01X163008Y123412D02*
G03X162690Y124074I-1272J-203D01*
G01X163008Y123412D02*
G03X163501Y122991I493J79D01*
G01X165436*
G03X165929Y123412I-0J500*
G01X166247Y124074D02*
G03X165929Y123412I954J-865D01*
G01X166247Y124074D02*
G03Y124745I-371J335D01*
G01X165913Y125609D02*
G03X166247Y124745I1288J0D01*
G01X165913Y125609D02*
Y129409D01*
X166710Y130600D02*
G03X165913Y129409I491J-1191D01*
G01X166710Y130600D02*
G03X167020Y131062I-190J462D01*
G01Y170669*
X167512Y171858D02*
G03X167020Y170669I1189J-1189D01*
G01X167512Y171858D02*
X172779Y177125D01*
G03X172925Y177478I-354J353*
G01Y183362*
G03X172286Y183842I-500J-0*
G01X171505Y183757D02*
G03X172286Y183842I149J2267D01*
G01X171505Y183757D02*
G03X170972Y183258I-33J-499D01*
G01Y182025*
G03X171079Y181717I500J0*
G01X167026Y180485D02*
G03X171079Y181717I2265J-170D01*
G01X167026Y180485D02*
G03X166458Y181018I-499J38D01*
G01X164668Y181539D02*
G03X166458Y181018I1474J1729D01*
G01X164668Y181539D02*
G03X163887Y181361I-324J-381D01*
G01X160023Y183685D02*
G03X163887Y181361I1788J-1402D01*
G01X160023Y183685D02*
G03X160130Y183994I-393J309D01*
G01Y193959*
G03X160023Y194268I-500J0*
G01X163573Y197103D02*
G03X160023Y194268I-1762J-1434D01*
G01X163573Y197103D02*
G03X164461Y197419I388J316D01*
G01Y255512*
X164953Y256701D02*
G03X164461Y255512I1189J-1189D01*
G01X164953Y256701D02*
X166331Y258078D01*
X167520Y258571D02*
G03X166331Y258078I-0J-1681D01*
G01X167520Y258571D02*
X169156D01*
G03X169464Y258677I-0J500*
G01Y255102D02*
G03Y258677I1402J1788D01*
G01Y255102D02*
G03X169156Y255209I-308J-393D01*
G01X168423*
G03X168070Y255062I0J-500*
G01X167969Y254962*
G03X167823Y254608I354J-354*
G01Y247589*
G03X168676Y247235I500J-0*
G01X169677Y248236*
X170757Y248725D02*
G03X169677Y248236I109J-1678D01*
G01X170757Y248725D02*
G03X171034Y248831I-32J499D01*
G01X171647Y244919D02*
G03X171034Y248831I794J2128D01*
G01X171647Y244919D02*
G03X170972Y244450I-175J-469D01*
G01Y243258*
G03X171826Y242904I500J-0*
G01X172040Y243118*
X172941Y243586D02*
G03X172040Y243118I287J-1657D01*
G01X172941Y243586D02*
G03X173172Y243691I-85J492D01*
G01X174135Y239707D02*
G03X173172Y243691I471J2222D01*
G01X174135Y239707D02*
G03X173532Y239218I-103J-489D01*
G01Y238144*
G03X174135Y237655I500J0*
G01X176394Y234031D02*
G03X174135Y237655I-1788J1402D01*
G01X176394Y234031D02*
G03X176287Y233723I393J-308D01*
G01Y176575*
X175795Y175386D02*
G03X176287Y176575I-1189J1189D01*
G01X175795Y175386D02*
X170528Y170119D01*
G03X170382Y169766I354J-353*
G01Y131062*
G03X170691Y130600I500J0*
G01X171488Y129409D02*
G03X170691Y130600I-1287J0D01*
G01X171488Y129409D02*
Y125609D01*
X171155Y124745D02*
G03X171488Y125609I-954J864D01*
G01X171155Y124745D02*
G03Y124074I371J-336D01*
G01X171472Y123412D02*
G03X171155Y124074I-1271J-203D01*
G01X171472Y123412D02*
G03X171966Y122991I494J79D01*
G01X173703*
G03X174197Y123412I0J500*
G01X174514Y124074D02*
G03X174197Y123412I955J-865D01*
G01X174514Y124074D02*
G03Y124745I-370J335D01*
G01X174181Y125609D02*
G03X174514Y124745I1288J0D01*
G01X174181Y125609D02*
Y129409D01*
X175469Y130697D02*
G03X174181Y129409I-0J-1288D01*
G01X175469Y130697D02*
X178469D01*
X179756Y129409D02*
G03X178469Y130697I-1287J0D01*
G01X179756Y129409D02*
Y125609D01*
X179423Y124745D02*
G03X179756Y125609I-954J864D01*
G01X179423Y124745D02*
G03Y124074I370J-336D01*
G01X179646Y123730D02*
G03X179423Y124074I-1177J-521D01*
G01X179646Y123730D02*
G03X179939Y123460I458J202D01*
X179756Y123073I317J-387*
G01Y119409*
X178469Y118122D02*
G03X179756Y119409I-0J1287D01*
G01X178469Y118122D02*
X175469D01*
X174197Y119207D02*
G03X175469Y118122I1272J202D01*
G01X174197Y119207D02*
G03X173703Y119628I-494J-79D01*
G01X171966*
G03X171472Y119207I-0J-500*
G01X170201Y118122D02*
G03X171472Y119207I-0J1287D01*
G01X170201Y118122D02*
X167201D01*
X165929Y119207D02*
G03X167201Y118122I1272J202D01*
G01X165929Y119207D02*
G03X165436Y119628I-493J-79D01*
G01X163501*
G03X163008Y119207I0J-500*
G01X162205Y118210D02*
G03X163008Y119207I-469J1199D01*
G01X162205Y118210D02*
G03X161894Y117828I181J-466D01*
G01X161425Y116922D02*
G03X161894Y117828I-1189J1188D01*
G01X161425Y116922D02*
X160047Y115544D01*
X158858Y115051D02*
G03X160047Y115544I0J1681D01*
G01X158858Y115051D02*
X158289D01*
G03X157825Y114366I0J-500*
G01X155460Y110394D02*
G03X157825Y114366I-342J2893D01*
G01X155460Y110394D02*
G03X155153Y109556I59J-497D01*
G01Y106192D02*
G03Y109556I-1807J1682D01*
G01Y106192D02*
G03X155460Y105354I366J-341D01*
G01X157975Y101886D02*
G03X155460Y105354I-2857J575D01*
G01X157975Y101886D02*
G03X158465Y101287I490J-99D01*
G01X160789*
G03X161240Y102003I0J500*
G01X161114Y102559D02*
G03X161240Y102003I1288J0D01*
G01X161114Y102559D02*
Y106496D01*
X161582Y107489D02*
G03X161114Y106496I820J-993D01*
G01X161582Y107489D02*
G03Y108259I-319J385D01*
G01X161114Y109252D02*
G03X161582Y108259I1288J-0D01*
G01X161114Y109252D02*
Y113189D01*
X162402Y114476D02*
G03X161114Y113189I-0J-1287D01*
G01X162402Y114476D02*
X168504D01*
X169791Y113189D02*
G03X168504Y114476I-1287J-0D01*
G01X169791Y113189D02*
Y109252D01*
X169324Y108259D02*
G03X169791Y109252I-820J993D01*
G01X169324Y108259D02*
G03Y107489I318J-385D01*
G01X169791Y106496D02*
G03X169324Y107489I-1287J0D01*
G01X169791Y106496D02*
Y102559D01*
X169665Y102003D02*
G03X169791Y102559I-1161J556D01*
G01X169665Y102003D02*
G03X170116Y101287I451J-216D01*
G01X195238*
G03X195689Y102003I0J500*
G01X195563Y102559D02*
G03X195689Y102003I1287J0D01*
G01X195563Y102559D02*
Y106496D01*
X195712Y107097D02*
G03X195563Y106496I1138J-601D01*
G01X195712Y107097D02*
G03X195164Y107819I-443J233D01*
G01X194413Y112295D02*
G03X195164Y107819I272J-2256D01*
G01X194413Y112295D02*
G03X194700Y112431I-60J496D01*
G01X195248Y112784D02*
G03X194700Y112431I618J-1564D01*
G01X195248Y112784D02*
G03X195564Y113232I-184J465D01*
G01X196850Y114476D02*
G03X195564Y113232I0J-1287D01*
G01X196850Y114476D02*
X202953D01*
X204240Y113189D02*
G03X202953Y114476I-1287J-0D01*
G01X204240Y113189D02*
Y109252D01*
X203773Y108259D02*
G03X204240Y109252I-820J993D01*
G01X203773Y108259D02*
G03Y107489I318J-385D01*
G01X204077Y107124D02*
G03X203773Y107489I-1124J-628D01*
G01X204077Y107124D02*
G03X204867Y107014I436J243D01*
G01X206740Y108887*
G03X206869Y109110I-353J354*
G01X207965Y110571D02*
G03X206869Y109110I1287J-2106D01*
G01X207965Y110571D02*
G03X208075Y111333I-261J427D01*
G01X211459Y110642D02*
G03X208075Y111333I-1223J2645D01*
G01X211459Y110642D02*
G03X211262Y109898I210J-453D01*
G01X210419Y106289D02*
G03X211262Y109898I-1167J2176D01*
G01X210419Y106289D02*
G03X210594Y105352I236J-440D01*
G01X213093Y101886D02*
G03X210594Y105352I-2857J575D01*
G01X213093Y101886D02*
G03X213583Y101287I490J-99D01*
G01X215907*
G03X216358Y102003I0J500*
G01X216232Y102559D02*
G03X216358Y102003I1288J0D01*
G01X216232Y102559D02*
Y106496D01*
X216700Y107489D02*
G03X216232Y106496I820J-993D01*
G01X216700Y107489D02*
G03Y108259I-319J385D01*
G01X216232Y109252D02*
G03X216700Y108259I1288J-0D01*
G01X216232Y109252D02*
Y113189D01*
X217520Y114476D02*
G03X216232Y113189I-0J-1287D01*
G01X217520Y114476D02*
X223622D01*
X224909Y113189D02*
G03X223622Y114476I-1287J-0D01*
G01X224909Y113189D02*
Y109252D01*
X224442Y108259D02*
G03X224909Y109252I-820J993D01*
G01X224442Y108259D02*
G03Y107489I319J-385D01*
G01X224909Y106496D02*
G03X224442Y107489I-1287J0D01*
G01X224909Y106496D02*
Y102559D01*
X224783Y102003D02*
G03X224909Y102559I-1161J556D01*
G01X224783Y102003D02*
G03X225234Y101287I451J-216D01*
G01X250356*
G03X250807Y102003I0J500*
G01X250681Y102559D02*
G03X250807Y102003I1288J0D01*
G01X250681Y102559D02*
Y106496D01*
X251148Y107489D02*
G03X250681Y106496I821J-993D01*
G01X251148Y107489D02*
G03Y108259I-318J385D01*
G01X250681Y109252D02*
G03X251148Y108259I1288J-0D01*
G01X250681Y109252D02*
Y113189D01*
X251969Y114476D02*
G03X250681Y113189I-0J-1287D01*
G01X251969Y114476D02*
X258071D01*
X259358Y113189D02*
G03X258071Y114476I-1287J-0D01*
G01X259358Y113189D02*
Y113159D01*
G03X259629Y112714I500J-0*
G01X260047Y112409D02*
G03X259629Y112714I-1189J-1189D01*
G01X260047Y112409D02*
X262755Y109702D01*
G03X263108Y109555I353J353*
G01X264256*
G03X264417Y110529I-0J500*
G01X267098Y110953D02*
G03X264417Y110529I-1744J2334D01*
G01X267098Y110953D02*
G03X267526Y110069I299J-401D01*
G01Y105679D02*
G03Y110069I584J2195D01*
G01Y105679D02*
G03X267098Y104795I-129J-483D01*
G01X268211Y101886D02*
G03X267098Y104795I-2857J575D01*
G01X268211Y101886D02*
G03X268701Y101287I490J-99D01*
G01X271026*
G03X271477Y102003I-0J500*
G01X271350Y102559D02*
G03X271477Y102003I1288J0D01*
G01X271350Y102559D02*
Y106496D01*
X271818Y107489D02*
G03X271350Y106496I820J-993D01*
G01X271818Y107489D02*
G03Y108259I-319J385D01*
G01X271350Y109252D02*
G03X271818Y108259I1288J-0D01*
G01X271350Y109252D02*
Y113189D01*
X272638Y114476D02*
G03X271350Y113189I-0J-1287D01*
G01X272638Y114476D02*
X278740D01*
X280028Y113189D02*
G03X278740Y114476I-1288J-0D01*
G01X280028Y113189D02*
Y109252D01*
X279560Y108259D02*
G03X280028Y109252I-820J993D01*
G01X279560Y108259D02*
G03Y107489I319J-385D01*
G01X280028Y106496D02*
G03X279560Y107489I-1288J0D01*
G01X280028Y106496D02*
Y102559D01*
X279901Y102003D02*
G03X280028Y102559I-1161J556D01*
G01X279901Y102003D02*
G03X280352Y101287I451J-216D01*
G01X297819*
G03X298319Y101787I-0J500*
G01Y107087*
X299606Y108374D02*
G03X298319Y107087I0J-1287D01*
G01X299606Y108374D02*
X299984D01*
G03X300484Y108874I0J500*
G01Y111171*
X300977Y112360D02*
G03X300484Y111171I1188J-1189D01*
G01X300977Y112360D02*
X301681Y113064D01*
G03X301540Y113870I-354J353*
G01X300799Y115035D02*
G03X301540Y113870I1288J0D01*
G01X300799Y115035D02*
Y118035D01*
X302087Y119323D02*
G03X300799Y118035I-0J-1288D01*
G01X302087Y119323D02*
X305887D01*
X306751Y118990D02*
G03X305887Y119323I-864J-955D01*
G01X306751Y118990D02*
G03X307422I336J370D01*
G01X308287Y119323D02*
G03X307422Y118990I-0J-1288D01*
G01X308287Y119323D02*
X312087D01*
X313277Y118526D02*
G03X312087Y119323I-1190J-491D01*
G01X313277Y118526D02*
G03X313739Y118217I462J191D01*
G01X314038*
G03X314346Y118323I-0J500*
G01X317348Y118148D02*
G03X314346Y118323I-1600J-1613D01*
G01X317349Y118148D02*
G03X318201Y118502I352J354D01*
G01Y119291*
X319488Y120579D02*
G03X318201Y119291I0J-1288D01*
G01X319488Y120579D02*
X321934D01*
G03X322231Y121481I0J500*
G01X322040Y121646D02*
G03X322231Y121481I1188J1189D01*
G01X322040Y121646D02*
X320071Y123614D01*
X319579Y124803D02*
G03X320071Y123614I1681J0D01*
G01X319579Y124803D02*
Y126243D01*
G03X319472Y126551I-500J-0*
G01X323047D02*
G03X319472I-1787J1402D01*
G01X323048D02*
G03X322941Y126243I393J-308D01*
G01Y125707*
G03X323087Y125353I500J-0*
G01X323778Y124662*
G03X324132Y124516I354J354*
G01X328789*
G03X329143Y125369I0J500*
G01X328339Y126173*
X328281Y126234D02*
G03X328339Y126173I1247J1128D01*
G01X328281Y126234D02*
G03X328202Y126305I-371J-335D01*
G01X331794Y128001D02*
G03X328202Y126305I-2266J149D01*
G01X331794Y128001D02*
G03X332293Y127469I499J-32D01*
G01X336220*
X337409Y126976D02*
G03X336220Y127469I-1189J-1189D01*
G01X337409Y126976D02*
X338984Y125401D01*
X339056Y125325D02*
G03X338984Y125401I-1261J-1112D01*
G01X339056Y125325D02*
G03X339586Y125181I375J331D01*
G01X342495Y121606D02*
G03X339586Y125181I-2141J1229D01*
G01X342495Y121606D02*
G03X342429Y121357I434J-249D01*
G01Y120079*
Y119626*
G03X343420Y119532I500J-0*
G01X344685Y120579D02*
G03X343420Y119532I0J-1288D01*
G01X344685Y120579D02*
X350984D01*
X352272Y119291D02*
G03X350984Y120579I-1288J0D01*
G01X352272Y119291D02*
Y118949D01*
G03X353017Y118514I500J0*
G01X355536Y118323D02*
G03X353017Y118514I-1402J-1788D01*
G01X355536Y118323D02*
G03X355844Y118217I308J394D01*
G01X356733*
G03X357196Y118526I0J500*
G01X358386Y119323D02*
G03X357196Y118526I-0J-1288D01*
G01X358386Y119323D02*
X362186D01*
X363050Y118990D02*
G03X362186Y119323I-864J-955D01*
G01X363050Y118990D02*
G03X363722I336J370D01*
G01X364586Y119323D02*
G03X363722Y118990I-0J-1288D01*
G01X364586Y119323D02*
X368386D01*
X369596Y118474D02*
G03X368386Y119323I-1210J-439D01*
G01X369596Y118474D02*
G03X369925Y118164I471J170D01*
X369673Y117730I248J-434*
G01Y115035*
X368812Y113821D02*
G03X369673Y115035I-426J1214D01*
G01X368812Y113821D02*
G03X368624Y112995I166J-472D01*
G01X369627Y111992*
X370120Y110803D02*
G03X369627Y111992I-1681J0D01*
G01X370120Y110803D02*
Y108874D01*
G03X370620Y108374I500J0*
G01X370866*
X372154Y107087D02*
G03X370866Y108374I-1288J-0D01*
G01X372154Y107087D02*
Y101787D01*
G03X372654Y101287I500J0*
G01X384827*
G03X385327Y101787I-0J500*
G01Y108661*
X386614Y109949D02*
G03X385327Y108661I0J-1288D01*
G01X386614Y109949D02*
X403937D01*
X405224Y108661D02*
G03X403937Y109949I-1287J0D01*
G01X405224Y108661D02*
Y101787D01*
G03X405724Y101287I500J0*
G01X413173*
G03X413673Y101787I0J500*
G01Y196638*
G03X413173Y197138I-500J-0*
G01X412992*
X411705Y198425D02*
G03X412992Y197138I1287J0D01*
G01X411705Y198425D02*
Y269291D01*
X412992Y270579D02*
G03X411705Y269291I0J-1288D01*
G01X412992Y270579D02*
X413173D01*
G03X413673Y271079I0J500*
G01X342857Y153549D02*
Y155506D01*
G03X342545Y155969I-500J0*
G01X342172Y156203D02*
G03X342545Y155969I859J958D01*
G01X342172Y156203D02*
G03X341688Y156307I-334J-372D01*
G01X339107Y157014D02*
G03X341688Y156307I1838J1647D01*
G01X339107Y157014D02*
G03X338245Y156576I-373J-334D01*
G01X337932Y154870D02*
G03X338245Y156576I-1908J1232D01*
G01X337932Y154870D02*
G03X337852Y154599I420J-271D01*
G01Y148738*
G03X337998Y148385I500J0*
G01X338148Y148235*
G03X338502Y148088I354J353*
G01X341270*
G03X341763Y148674I0J500*
G01X341744Y148894D02*
G03X341763Y148674I1287J-0D01*
G01X341744Y148894D02*
Y151894D01*
X342545Y153086D02*
G03X341744Y151894I486J-1192D01*
G01X342545Y153086D02*
G03X342857Y153549I-188J463D01*
G01X357374Y242476D02*
Y256480D01*
G03X356874Y256980I-500J0*
G01X352575*
G03X352075Y256480I-0J-500*
G01Y255906*
X352043Y255622D02*
G03X352075Y255906I-1256J284D01*
G01X352043Y255622D02*
G03Y255402I488J-110D01*
G01X352075Y255118D02*
G03X352043Y255402I-1288J0D01*
G01X352075Y255118D02*
Y253937D01*
X352043Y253653D02*
G03X352075Y253937I-1256J284D01*
G01X352043Y253653D02*
G03Y253433I488J-110D01*
G01X352075Y253150D02*
G03X352043Y253433I-1288J-0D01*
G01X352075Y253150D02*
Y251969D01*
X352043Y251685D02*
G03X352075Y251969I-1256J284D01*
G01X352043Y251685D02*
G03Y251465I488J-110D01*
G01X352075Y251181D02*
G03X352043Y251465I-1288J0D01*
G01X352075Y251181D02*
Y250000D01*
X352043Y249716D02*
G03X352075Y250000I-1256J284D01*
G01X352043Y249716D02*
G03Y249496I488J-110D01*
G01X352075Y249213D02*
G03X352043Y249496I-1288J-0D01*
G01X352075Y249213D02*
Y248031D01*
X352043Y247748D02*
G03X352075Y248031I-1256J283D01*
G01X352043Y247748D02*
G03Y247528I488J-110D01*
G01X352075Y247244D02*
G03X352043Y247528I-1288J0D01*
G01X352075Y247244D02*
Y246063D01*
X352043Y245779D02*
G03X352075Y246063I-1256J284D01*
G01X352043Y245779D02*
G03Y245559I488J-110D01*
G01X352075Y245276D02*
G03X352043Y245559I-1288J-0D01*
G01X352075Y245276D02*
Y244094D01*
X352043Y243811D02*
G03X352075Y244094I-1256J283D01*
G01X352043Y243811D02*
G03Y243591I488J-110D01*
G01X352075Y243330D02*
G03X352043Y243591I-1288J-23D01*
G01X352075Y243330D02*
G03X352870Y242935I500J8D01*
G01X356446Y242218D02*
G03X352870Y242935I-2115J-1273D01*
G01X356446Y242218D02*
G03X357374Y242476I428J258D01*
G01X344020Y241622D02*
G03Y241842I-488J110D01*
G01X343988Y242126D02*
G03X344020Y241842I1288J-0D01*
G01X343988Y242126D02*
Y242504D01*
G03X343488Y243004I-500J-0*
G01X335137*
G03X334871Y242081I-0J-500*
G01X335917Y240430D02*
G03X334871Y242081I-2256J-273D01*
G01X335917Y240430D02*
G03X336059Y240137I496J60D01*
G01X338022Y238175*
G03X338839Y238716I353J353*
G01X343029Y240470D02*
G03X338839Y238716I-2084J-903D01*
G01X343029Y240470D02*
G03X343988Y240669I459J199D01*
G01Y241339*
X344020Y241622D02*
G03X343988Y241339I1256J-283D01*
G01X317402Y263492D02*
G03X317601Y264451I0J500D01*
G01X317477Y264509D02*
G03X317601Y264451I1027J2026D01*
G01X317477Y264509D02*
G03X316798Y263853I-225J-446D01*
G01X316820Y263802D02*
G03X316798Y263853I-1190J-491D01*
G01X316820Y263802D02*
G03X317282Y263492I462J190D01*
G01X317402*
X273122Y287971D02*
Y291991D01*
G03X273015Y292299I-500J-0*
G01X272825Y294817D02*
G03X273015Y292299I1978J-1116D01*
G01X272825Y294817D02*
G03X272389Y295563I-436J246D01*
G01X258677*
G03X258177Y295063I0J-500*
G01Y274632*
G03X258497Y274166I500J0*
G01X259465Y270646D02*
G03X258497Y274166I-1788J1401D01*
G01X259465Y270646D02*
G03X259358Y270337I393J-309D01*
G01Y260962*
G03X259465Y260654I500J0*
G01X255754Y258043D02*
G03X259465Y260654I1923J1209D01*
G01X255754Y258043D02*
G03X254831Y257777I-423J-266D01*
G01Y254645*
G03X255790Y254446I500J0*
G01X259662Y252142D02*
G03X255790Y254446I-1788J1401D01*
G01X259662Y252142D02*
G03X259555Y251833I393J-309D01*
G01Y247987*
G03X260265Y247534I500J0*
G01X262821Y247085D02*
G03X260265Y247534I-1601J-1613D01*
G01X262821Y247085D02*
G03X263673Y247439I352J354D01*
G01Y279392*
G03X263567Y279701I-500J0*
G01X267142D02*
G03X263567I-1788J1401D01*
G01X267142D02*
G03X267035Y279392I393J-309D01*
G01Y239112*
G03X267142Y238803I500J-0*
G01X265206Y235135D02*
G03X267142Y238803I148J2267D01*
G01X265206Y235135D02*
G03X264673Y234636I-33J-499D01*
G01Y231080*
G03X265561Y230765I500J0*
G01X268439Y231309D02*
G03X265561Y230765I-1116J-1978D01*
G01X268439Y231309D02*
G03X269185Y231745I246J436D01*
G01Y284117*
G03X269078Y284425I-500J-0*
G01X272305Y287584D02*
G03X269078Y284425I-1439J-1757D01*
G01X272305Y287584D02*
G03X273122Y287971I317J387D01*
G01X224030Y225303D02*
G03X224478Y226025I-0J500D01*
G01X224303Y226772D02*
G03X224478Y226025I1681J-0D01*
G01X224303Y226772D02*
Y228760D01*
G03X223642Y229234I-500J0*
G01X223228Y229165D02*
G03X223642Y229234I0J1288D01*
G01X223228Y229165D02*
X220079D01*
X219665Y229234D02*
G03X220079Y229165I414J1219D01*
G01X219665Y229234D02*
G03X219004Y228760I-161J-474D01*
G01Y225803*
G03X219504Y225303I500J0*
G01X224030*
X264417Y105219D02*
G03X264256Y106193I-161J474D01*
G01X262205*
X261016Y106685D02*
G03X262205Y106193I1189J1189D01*
G01X261016Y106685D02*
X259991Y107710D01*
G03X259199Y107116I-354J-353*
G01X259358Y106496D02*
G03X259199Y107116I-1287J0D01*
G01X259358Y106496D02*
Y102559D01*
X259232Y102003D02*
G03X259358Y102559I-1161J556D01*
G01X259232Y102003D02*
G03X259683Y101287I451J-216D01*
G01X262008*
G03X262498Y101886I-0J500*
G01X264417Y105219D02*
G03X262498Y101886I937J-2758D01*
G01X325938Y111611D02*
G03X325614Y112492I-324J381D01*
G01X319488*
X318201Y113780D02*
G03X319488Y112492I1287J-0D01*
G01X318201Y113780D02*
Y114568D01*
G03X317349Y114923I-500J0*
G01X314346Y114748D02*
G03X317348Y114923I1402J1787D01*
G01X314346Y114748D02*
G03X314038Y114854I-308J-394D01*
G01X313739*
G03X313277Y114545I0J-500*
G01X312992Y114120D02*
G03X313277Y114545I-905J915D01*
G01X312992Y114120D02*
G03X313152Y113303I352J-355D01*
G01X314346Y109795D02*
G03X313152Y113303I-2141J1229D01*
G01X314346Y109795D02*
G03X314280Y109546I434J-249D01*
G01Y108861*
G03X314720Y108365I500J0*
G01X315854Y107087D02*
G03X314720Y108365I-1287J-0D01*
G01X315854Y107087D02*
Y101787D01*
G03X316354Y101287I500J0*
G01X325614*
G03X325938Y102168I0J500*
G01X325546Y102757D02*
G03X325938Y102168I1226J393D01*
G01X325546Y102757D02*
G03X324940Y103087I-477J-153D01*
G01X324606Y103043D02*
G03X324940Y103087I0J1288D01*
G01X324606Y103043D02*
X318898D01*
X317610Y104331D02*
G03X318898Y103043I1288J-0D01*
G01X317610Y104331D02*
Y109449D01*
X318898Y110736D02*
G03X317610Y109449I-0J-1287D01*
G01X318898Y110736D02*
X324606D01*
X324940Y110692D02*
G03X324606Y110736I-334J-1243D01*
G01X324940Y110692D02*
G03X325546Y111023I129J483D01*
G01X325938Y111611D02*
G03X325546Y111023I834J-981D01*
G01X343528Y111917D02*
G03X343851Y112798I-0J500D01*
G01X343398Y113780D02*
G03X343851Y112798I1287J-0D01*
G01X343398Y113780D02*
Y114429D01*
G03X342406Y114523I-500J0*
G01X341142Y113476D02*
G03X342406Y114523I-0J1288D01*
G01X341142Y113476D02*
X339567D01*
X339212Y113526D02*
G03X339567Y113476I355J1238D01*
G01X339212Y113526D02*
G03X338937I-137J-481D01*
G01X338583Y113476D02*
G03X338937Y113526I-0J1288D01*
G01X338583Y113476D02*
X337008D01*
X336653Y113526D02*
G03X337008Y113476I355J1238D01*
G01X336653Y113526D02*
G03X336378I-137J-481D01*
G01X336024Y113476D02*
G03X336378Y113526I-0J1288D01*
G01X336024Y113476D02*
X334449D01*
X334094Y113526D02*
G03X334449Y113476I355J1238D01*
G01X334094Y113526D02*
G03X333819I-137J-481D01*
G01X333465Y113476D02*
G03X333819Y113526I-0J1288D01*
G01X333465Y113476D02*
X331890D01*
X331535Y113526D02*
G03X331890Y113476I355J1238D01*
G01X331535Y113526D02*
G03X331260I-137J-481D01*
G01X330906Y113476D02*
G03X331260Y113526I-0J1288D01*
G01X330906Y113476D02*
X329331D01*
X328066Y114523D02*
G03X329331Y113476I1265J241D01*
G01X328066Y114523D02*
G03X327075Y114429I-491J-94D01*
G01Y113780*
X326621Y112798D02*
G03X327075Y113780I-834J982D01*
G01X326621Y112798D02*
G03X326945Y111917I324J-381D01*
G01X334252*
X334961Y111705D02*
G03X334252Y111917I-709J-1075D01*
G01X334961Y111705D02*
G03X335512I275J417D01*
G01X336220Y111917D02*
G03X335512Y111705I0J-1287D01*
G01X336220Y111917D02*
X343528D01*
X366758Y108874D02*
Y109900D01*
G03X366611Y110253I-500J-0*
G01X365297Y111567*
X364805Y112756D02*
G03X365297Y111567I1681J-0D01*
G01X364805Y112756D02*
Y113270D01*
G03X364383Y113764I-500J0*
G01X363722Y114081D02*
G03X364383Y113764I864J954D01*
G01X363722Y114081D02*
G03X363050I-336J-370D01*
G01X362186Y113748D02*
G03X363050Y114081I-0J1287D01*
G01X362186Y113748D02*
X358386D01*
X357196Y114545D02*
G03X358386Y113748I1190J490D01*
G01X357196Y114545D02*
G03X356733Y114854I-463J-191D01*
G01X355844*
G03X355536Y114748I0J-500*
G01X353017Y114557D02*
G03X355536Y114748I1117J1978D01*
G01X353017Y114557D02*
G03X352272Y114122I-245J-435D01*
G01Y113780*
X350984Y112492D02*
G03X352272Y113780I0J1288D01*
G01X350984Y112492D02*
X344858D01*
G03X344534Y111611I0J-500*
G01X344927Y111023D02*
G03X344534Y111611I-1226J-393D01*
G01X344927Y111023D02*
G03X345533Y110692I476J152D01*
G01X345866Y110736D02*
G03X345533Y110692I0J-1287D01*
G01X345866Y110736D02*
X351575D01*
X352862Y109449D02*
G03X351575Y110736I-1287J-0D01*
G01X352862Y109449D02*
Y104331D01*
X351575Y103043D02*
G03X352862Y104331I-0J1288D01*
G01X351575Y103043D02*
X345866D01*
X345533Y103087D02*
G03X345866Y103043I333J1244D01*
G01X345533Y103087D02*
G03X344927Y102757I-130J-483D01*
G01X344534Y102168D02*
G03X344927Y102757I-833J982D01*
G01X344534Y102168D02*
G03X344858Y101287I324J-381D01*
G01X354118*
G03X354618Y101787I0J500*
G01Y107087*
X355906Y108374D02*
G03X354618Y107087I-0J-1287D01*
G01X355906Y108374D02*
X360630D01*
X361917Y107087D02*
G03X360630Y108374I-1287J-0D01*
G01X361917Y107087D02*
Y101787D01*
G03X362417Y101287I500J0*
G01X364354*
G03X364854Y101787I0J500*
G01Y107087*
X366142Y108374D02*
G03X364854Y107087I-0J-1287D01*
G01X366142Y108374D02*
X366258D01*
G03X366758Y108874I-0J500*
G01X409687Y151341D02*
G03X404487I-2600J1612D01*
G01X409687D02*
G03X409761Y150721I425J-263D01*
G01X410146Y149803D02*
G03X409761Y150721I-1288J0D01*
G01X410146Y149803D02*
Y146260D01*
X408858Y144972D02*
G03X410146Y146260I0J1288D01*
G01X408858Y144972D02*
X405315D01*
X404028Y146260D02*
G03X405315Y144972I1287J-0D01*
G01X404028Y146260D02*
Y149803D01*
X404412Y150721D02*
G03X404028Y149803I903J-918D01*
G01X404412Y150721D02*
G03X404487Y151341I-350J357D01*
G01X387772Y116716D02*
G03X388805Y120746I1401J1788D01*
G01X387772Y116716D02*
G03X387463Y116823I-309J-393D01*
G01X374545*
G03X374236Y116716I-0J-500*
G01X370653Y117870D02*
G03X374236Y116716I2182J634D01*
G01X370653Y117870D02*
G03X370314Y118210I-480J-140D01*
X370566Y118619I-247J434*
G01X374236Y120292D02*
G03X370566Y118619I-1401J-1788D01*
G01X374236Y120292D02*
G03X374545Y120185I309J393D01*
G01X384173*
G03X384518Y121047I0J500*
G01X388302Y121508D02*
G03X384518Y121047I-2082J1327D01*
G01X388302Y121508D02*
G03X388805Y120746I422J-269D01*
G01X381055Y134473D02*
G03Y138755I1228J2141D01*
G01Y134473D02*
G03X380806Y134539I-249J-434D01*
G01X375572*
G03X375165Y133749I-0J-500*
G01X374785Y129992D02*
G03X375165Y133749I-1950J2095D01*
G01X374785Y129992D02*
G03Y129260I341J-366D01*
G01X370884D02*
G03X374785I1951J-2095D01*
G01X370884D02*
G03Y129992I-341J366D01*
G01X370302Y133421D02*
G03X370884Y129992I2533J-1334D01*
G01X370302Y133421D02*
G03X369897Y134152I-442J233D01*
G01X371307Y138755D02*
G03X369897Y134152I-1228J-2141D01*
G01X371307Y138755D02*
G03X371556Y138689I249J434D01*
G01X380806*
G03X381055Y138755I0J500*
G01X375435Y152608D02*
G03Y156841I1927J2116D01*
G01Y152608D02*
G03X374762I-337J-370D01*
G01Y156841D02*
G03Y152608I-1927J-2117D01*
G01Y156841D02*
G03X375435I336J369D01*
G01X390108Y191577D02*
G03X385694Y191798I-2116J1927D01*
G01X390108Y191577D02*
G03Y190904I370J-337D01*
G01X386319Y186654D02*
G03X390108Y190904I1673J2322D01*
G01X386319Y186654D02*
G03X385587Y186010I-293J-405D01*
G01X380881Y186489D02*
G03X385587Y186010I2190J-1843D01*
G01X380881Y186489D02*
G03Y187133I-382J322D01*
G01X384962Y191125D02*
G03X380881Y187133I-1891J-2149D01*
G01X384962Y191125D02*
G03X385694Y191798I330J376D01*
G01X393020Y231890D02*
G03X393020I-2863J0D01*
G01X367536Y257260D02*
G03Y260063I-1788J1401D01*
G01Y257260D02*
G03X367429Y256951I393J-309D01*
G01Y194488*
X366937Y193299D02*
G03X367429Y194488I-1189J1189D01*
G01X366937Y193299D02*
X364968Y191331D01*
X363780Y190839D02*
G03X364968Y191331I-0J1681D01*
G01X363780Y190839D02*
X361159D01*
G03X360851Y190732I0J-500*
G01Y194307D02*
G03Y190732I-1402J-1787D01*
G01Y194307D02*
G03X361159Y194201I308J394D01*
G01X362876*
G03X363230Y194347I0J500*
G01X363920Y195038*
G03X364067Y195392I-353J354*
G01Y256951*
G03X363960Y257260I-500J0*
G01Y260063D02*
G03Y257260I1788J-1402D01*
G01Y260063D02*
G03X364067Y260372I-393J309D01*
G01Y285210*
G03X363747Y285677I-500J0*
G01X366822Y288068D02*
G03X363747Y285677I-2255J-273D01*
G01X366822Y288068D02*
G03X366959Y287781I497J60D01*
G01X367429Y286614D02*
G03X366959Y287781I-1681J0D01*
G01X367429Y286614D02*
Y260372D01*
G03X367536Y260063I500J-0*
G01X354319Y160161D02*
Y157161D01*
X353031Y155874D02*
G03X354319Y157161I0J1287D01*
G01X353031Y155874D02*
X349231D01*
X348367Y156207D02*
G03X349231Y155874I864J954D01*
G01X348367Y156207D02*
G03X347696I-336J-370D01*
G01X347318Y155969D02*
G03X347696Y156207I-487J1192D01*
G01X347318Y155969D02*
G03X347006Y155506I188J-463D01*
G01Y153549*
G03X347318Y153086I500J-0*
G01X347696Y152848D02*
G03X347318Y153086I-865J-954D01*
G01X347696Y152848D02*
G03X348367I335J370D01*
G01X349231Y153181D02*
G03X348367Y152848I0J-1287D01*
G01X349231Y153181D02*
X353031D01*
X354319Y151894D02*
G03X353031Y153181I-1288J-0D01*
G01X354319Y151894D02*
Y148894D01*
X353031Y147606D02*
G03X354319Y148894I0J1288D01*
G01X353031Y147606D02*
X351598D01*
G03X351244Y146753I-0J-500*
G01X352320Y145677*
X352654Y145200D02*
G03X352320Y145677I-1523J-712D01*
G01X352654Y145200D02*
G03X353086Y144912I453J212D01*
G01X354319Y143626D02*
G03X353086Y144912I-1288J-0D01*
G01X354319Y143626D02*
Y140626D01*
X353031Y139339D02*
G03X354319Y140626I0J1287D01*
G01X353031Y139339D02*
X349231D01*
X348367Y139672D02*
G03X349231Y139339I864J954D01*
G01X348367Y139672D02*
G03X347696I-336J-371D01*
G01X347318Y139434D02*
G03X347696Y139672I-487J1192D01*
G01X347318Y139434D02*
G03X347006Y138971I188J-463D01*
G01Y137013*
G03X347318Y136550I500J0*
G01X347696Y136312D02*
G03X347318Y136550I-865J-954D01*
G01X347696Y136312D02*
G03X348367I335J371D01*
G01X349231Y136646D02*
G03X348367Y136312I0J-1288D01*
G01X349231Y136646D02*
X353031D01*
X354319Y135358D02*
G03X353031Y136646I-1288J0D01*
G01X354319Y135358D02*
Y132358D01*
X353031Y131071D02*
G03X354319Y132358I0J1287D01*
G01X353031Y131071D02*
X349231D01*
X348367Y131404D02*
G03X349231Y131071I864J954D01*
G01X348367Y131404D02*
G03X347696I-336J-370D01*
G01X346831Y131071D02*
G03X347696Y131404I0J1287D01*
G01X346831Y131071D02*
X343031D01*
X341744Y132358D02*
G03X343031Y131071I1287J0D01*
G01X341744Y132358D02*
Y135358D01*
X342545Y136550D02*
G03X341744Y135358I486J-1192D01*
G01X342545Y136550D02*
G03X342857Y137013I-188J463D01*
G01Y138971*
G03X342545Y139434I-500J-0*
G01X342003Y139852D02*
G03X342545Y139434I1028J774D01*
G01X342003Y139852D02*
G03X341603Y140051I-400J-301D01*
G01X338821*
G03X338636Y140016I0J-500*
G01X336695Y144113D02*
G03X338636Y140016I1100J-1987D01*
G01X336695Y144113D02*
G03X336716Y144976I-242J438D01*
G01X336410Y145218D02*
G03X336716Y144976I1188J1189D01*
G01X336410Y145218D02*
X334982Y146646D01*
X334490Y147835D02*
G03X334982Y146646I1681J-0D01*
G01X334490Y147835D02*
Y154219D01*
G03X334357Y154559I-500J0*
G01X337687Y157649D02*
G03X334357Y154559I-1663J-1547D01*
G01X337687Y157649D02*
G03X338540Y158103I366J341D01*
G01X341688Y161015D02*
G03X338540Y158103I-743J-2354D01*
G01X341688Y161015D02*
G03X342172Y161120I150J477D01*
G01X343031Y161449D02*
G03X342172Y161120I0J-1288D01*
G01X343031Y161449D02*
X346831D01*
X347696Y161116D02*
G03X346831Y161449I-865J-955D01*
G01X347696Y161116D02*
G03X348367I335J370D01*
G01X349231Y161449D02*
G03X348367Y161116I0J-1288D01*
G01X349231Y161449D02*
X353031D01*
X354319Y160161D02*
G03X353031Y161449I-1288J0D01*
G01X322220Y271834D02*
G03Y275410I1402J1788D01*
G01Y271834D02*
G03X321912Y271941I-308J-393D01*
G01X306435*
G03X306126Y271834I-0J-500*
G01Y275410D02*
G03Y271834I-1402J-1788D01*
G01Y275410D02*
G03X306435Y275303I309J393D01*
G01X321912*
G03X322220Y275410I-0J500*
G01X300213Y256472D02*
G03X296638I-1788J1402D01*
G01X300213D02*
G03X300106Y256164I393J-308D01*
G01Y244624*
G03X300213Y244315I500J-0*
G01X298115Y240663D02*
G03X300213Y244315I310J2250D01*
G01X298115Y240663D02*
G03X297547Y240168I-68J-495D01*
G01Y240166*
X293488Y241559D02*
G03X297547Y240166I1788J-1402D01*
G01X293488Y241559D02*
G03X293594Y241868I-394J309D01*
G01Y247896*
G03X293488Y248205I-500J0*
G01X296069Y251735D02*
G03X293488Y248205I-793J-2129D01*
G01X296069Y251735D02*
G03X296744Y252203I175J468D01*
G01Y256164*
G03X296638Y256472I-500J-0*
G01X289476Y116339D02*
G03X289476I-2862J0D01*
G01X190509Y264072D02*
G03X185869I-2320J1676D01*
G01X190509D02*
G03Y263487I406J-292D01*
G01X185869D02*
G03X190509I2320J-1676D01*
G01X185869D02*
G03Y264072I-406J293D01*
G01X177662Y169437D02*
G03X174910Y171926I-497J2217D01*
G01X177662Y169437D02*
G03X177272Y168949I110J-488D01*
G01Y164309*
G03X177378Y164000I500J-0*
G01X173803D02*
G03X177378I1788J-1402D01*
G01X173803D02*
G03X173909Y164309I-394J309D01*
G01Y170079*
X174402Y171267D02*
G03X173909Y170079I1189J-1188D01*
G01X174402Y171267D02*
X174767Y171633D01*
G03X174910Y171926I-353J354*
G01X158087Y200567D02*
G03X154079Y202447I-1788J1402D01*
G01X158087Y200567D02*
G03X157980Y200258I393J-309D01*
G01Y182813*
G03X158087Y182504I500J-0*
G01X154512D02*
G03X158087I1787J-1402D01*
G01X154512D02*
G03X154618Y182813I-394J309D01*
G01Y185871*
G03X154014Y186360I-500J0*
G01X151756Y189984D02*
G03X154014Y186360I1787J-1401D01*
G01X151756Y189984D02*
G03X151862Y190293I-394J309D01*
G01Y197915*
G03X151716Y198269I-500J0*
G01X151202Y198783*
G03X150908Y198926I-354J-353*
G01X153155Y202305D02*
G03X150908Y198926I-1974J-1124D01*
G01X153155Y202305D02*
G03X154079Y202447I435J247D01*
G01X148527Y225290D02*
G03X146462Y228701I-102J2269D01*
G01X148527Y225290D02*
G03X148340Y225244I22J-500D01*
G01X147638Y225091D02*
G03X148340Y225244I-0J1681D01*
G01X147638Y225091D02*
X136337D01*
G03X135983Y224944I-0J-500*
G01X131749Y220710*
G03X131602Y220356I353J-354*
G01Y219033*
G03X131709Y218725I500J0*
G01X128134D02*
G03X131709I1787J-1402D01*
G01X128134D02*
G03X128240Y219033I-394J308D01*
G01Y221260*
X128733Y222449D02*
G03X128240Y221260I1188J-1189D01*
G01X128733Y222449D02*
X134244Y227960D01*
X135433Y228453D02*
G03X134244Y227960I0J-1681D01*
G01X135433Y228453D02*
X146029D01*
G03X146462Y228701I0J500*
G01X151287Y260236D02*
G03X151287I-2468J0D01*
G01X138441Y237061D02*
G03X142662I2110J-841D01*
G01X138441D02*
G03X138476Y237246I-465J185D01*
G01Y237516*
G03X138330Y237870I-500J0*
G01X134753Y241446*
X134146Y242913D02*
G03X134753Y241446I2074J0D01*
G01X134146Y242913D02*
Y245251D01*
G03X133821Y245719I-500J-0*
G01X133407Y245971D02*
G03X133821Y245719I864J954D01*
G01X133407Y245971D02*
G03X132735I-336J-371D01*
G01X131871Y245638D02*
G03X132735Y245971I-0J1287D01*
G01X131871Y245638D02*
X128071D01*
X127099Y246081D02*
G03X128071Y245638I972J844D01*
G01X127099Y246081D02*
G03X126588Y246235I-378J-328D01*
G01X125029Y246364D02*
G03X126588Y246235I955J2061D01*
G01X125029Y246364D02*
G03X124319Y245910I-210J-454D01*
G01Y239059*
G03X124465Y238705I500J-0*
G01X124757Y238413*
G03X124913Y238307I354J354*
G01X121929Y235323D02*
G03X124913Y238307I2087J897D01*
G01X121929Y235323D02*
G03X121823Y235479I-459J-198D01*
G01X120777Y236525*
X120169Y237992D02*
G03X120777Y236525I2075J0D01*
G01X120169Y237992D02*
Y260827D01*
X120777Y262294D02*
G03X120169Y260827I1467J-1467D01*
G01X120777Y262294D02*
X124911Y266428D01*
X126378Y267035D02*
G03X124911Y266428I-0J-2074D01*
G01X126378Y267035D02*
X126620D01*
G03X127025Y267827I-0J500*
G01X126783Y268579D02*
G03X127026Y267827I1288J-0D01*
G01X126783Y268579D02*
Y271579D01*
X127585Y272771D02*
G03X126783Y271579I486J-1192D01*
G01X127585Y272771D02*
G03X127896Y273234I-189J463D01*
G01Y275191*
G03X127585Y275654I-500J0*
G01X127099Y276002D02*
G03X127585Y275654I972J844D01*
G01X127099Y276002D02*
G03X126588Y276157I-378J-327D01*
G01Y280536D02*
G03Y276157I-604J-2190D01*
G01Y280536D02*
G03X127099Y280691I133J482D01*
G01X128071Y281134D02*
G03X127099Y280691I-0J-1288D01*
G01X128071Y281134D02*
X131871D01*
X132735Y280801D02*
G03X131871Y281134I-864J-955D01*
G01X132735Y280801D02*
G03X133407I336J370D01*
G01X134271Y281134D02*
G03X133407Y280801I-0J-1288D01*
G01X134271Y281134D02*
X138071D01*
X139358Y279846D02*
G03X138071Y281134I-1287J0D01*
G01X139358Y279846D02*
Y276846D01*
X138071Y275559D02*
G03X139358Y276846I-0J1287D01*
G01X138071Y275559D02*
X134271D01*
X133407Y275892D02*
G03X134271Y275559I864J954D01*
G01X133407Y275892D02*
G03X132735I-336J-370D01*
G01X132357Y275654D02*
G03X132735Y275892I-486J1192D01*
G01X132357Y275654D02*
G03X132046Y275191I189J-463D01*
G01Y273234*
G03X132357Y272771I500J-0*
G01X132735Y272533D02*
G03X132357Y272771I-864J-954D01*
G01X132735Y272533D02*
G03X133407I336J370D01*
G01X134271Y272866D02*
G03X133407Y272533I-0J-1287D01*
G01X134271Y272866D02*
X138071D01*
X139358Y271579D02*
G03X138071Y272866I-1287J-0D01*
G01X139358Y271579D02*
Y268579D01*
X138557Y267387D02*
G03X139358Y268579I-486J1192D01*
G01X138557Y267387D02*
G03X138246Y266924I189J-463D01*
G01Y266535*
X137638Y265068D02*
G03X138246Y266535I-1467J1467D01*
G01X137638Y265068D02*
X136063Y263494D01*
X134596Y262886D02*
G03X136063Y263494I0J2075D01*
G01X134596Y262886D02*
X127444D01*
G03X127091Y262739I0J-500*
G01X124465Y260114*
G03X124319Y259760I354J-354*
G01Y250940*
G03X125029Y250486I500J-0*
G01X126588Y250615D02*
G03X125029Y250486I-604J-2190D01*
G01X126588Y250615D02*
G03X127099Y250769I133J482D01*
G01X127585Y251117D02*
G03X127099Y250769I486J-1192D01*
G01X127585Y251117D02*
G03X127896Y251580I-189J463D01*
G01Y253538*
G03X127585Y254001I-500J-0*
G01X126783Y255193D02*
G03X127585Y254001I1288J-0D01*
G01X126783Y255193D02*
Y258193D01*
X128071Y259480D02*
G03X126783Y258193I-0J-1287D01*
G01X128071Y259480D02*
X131871D01*
X132735Y259147D02*
G03X131871Y259480I-864J-954D01*
G01X132735Y259147D02*
G03X133407I336J371D01*
G01X134271Y259480D02*
G03X133407Y259147I-0J-1287D01*
G01X134271Y259480D02*
X138071D01*
X139358Y258193D02*
G03X138071Y259480I-1287J-0D01*
G01X139358Y258193D02*
Y255193D01*
X138071Y253905D02*
G03X139358Y255193I-0J1288D01*
G01X138071Y253905D02*
X134271D01*
X133407Y254239D02*
G03X134271Y253905I864J954D01*
G01X133407Y254239D02*
G03X132735I-336J-371D01*
G01X132357Y254001D02*
G03X132735Y254239I-486J1192D01*
G01X132357Y254001D02*
G03X132046Y253538I189J-463D01*
G01Y251580*
G03X132357Y251117I500J0*
G01X132735Y250879D02*
G03X132357Y251117I-864J-954D01*
G01X132735Y250879D02*
G03X133407I336J371D01*
G01X134271Y251213D02*
G03X133407Y250879I-0J-1288D01*
G01X134271Y251213D02*
X138071D01*
X139358Y249925D02*
G03X138071Y251213I-1287J0D01*
G01X139358Y249925D02*
Y246925D01*
X138593Y245748D02*
G03X139358Y246925I-522J1177D01*
G01X138593Y245748D02*
G03X138295Y245291I202J-457D01*
G01Y243980*
G03X138442Y243626I500J-0*
G01X142018Y240050*
X142626Y238583D02*
G03X142018Y240050I-2075J-0D01*
G01X142626Y238583D02*
Y237246D01*
G03X142662Y237061I500J0*
G01X115433Y228067D02*
G03Y233350I1102J2642D01*
G01Y228067D02*
G03X115019Y228054I-193J-461D01*
G01X114935Y228017D02*
G03X115019Y228054I-486J1192D01*
G01X114935Y228017D02*
G03X114624Y227554I189J-463D01*
G01Y225596*
G03X114935Y225133I500J0*
G01X115736Y223941D02*
G03X114935Y225133I-1287J-0D01*
G01X115736Y223941D02*
Y220941D01*
X114449Y219654D02*
G03X115736Y220941I-0J1287D01*
G01X114449Y219654D02*
X110649D01*
X109784Y219987D02*
G03X110649Y219654I865J954D01*
G01X109784Y219987D02*
G03X109113I-335J-371D01*
G01X108249Y219654D02*
G03X109113Y219987I-0J1287D01*
G01X108249Y219654D02*
X108212D01*
G03X107898Y218764I-0J-500*
G01X108292Y214692D02*
G03X107898Y218764I-2190J1843D01*
G01X108292Y214692D02*
G03Y214048I382J-322D01*
G01X108867Y212944D02*
G03X108292Y214048I-2765J-739D01*
G01X108867Y212944D02*
G03X109833I483J130D01*
G01Y211465D02*
G03Y212944I2765J740D01*
G01Y211465D02*
G03X108867I-483J-129D01*
G01X103913Y214048D02*
G03X108867Y211465I2189J-1843D01*
G01X103913Y214048D02*
G03Y214692I-383J322D01*
G01X104355Y218803D02*
G03X103913Y214692I1747J-2268D01*
G01X104355Y218803D02*
G03X104162Y219686I-305J396D01*
G01X103161Y220941D02*
G03X104162Y219686I1288J-0D01*
G01X103161Y220941D02*
Y223941D01*
X104449Y225228D02*
G03X103161Y223941I-0J-1287D01*
G01X104449Y225228D02*
X108249D01*
X109113Y224895D02*
G03X108249Y225228I-864J-954D01*
G01X109113Y224895D02*
G03X109784I336J371D01*
G01X110163Y225133D02*
G03X109785Y224895I486J-1192D01*
G01X110163Y225133D02*
G03X110474Y225596I-189J463D01*
G01Y227554*
G03X110163Y228017I-500J-0*
G01X109784Y228255D02*
G03X110163Y228017I865J954D01*
G01X109784Y228255D02*
G03X109113I-335J-371D01*
G01X108249Y227921D02*
G03X109113Y228255I-0J1288D01*
G01X108249Y227921D02*
X104449D01*
X103161Y229209D02*
G03X104449Y227921I1288J-0D01*
G01X103161Y229209D02*
Y232209D01*
X104449Y233496D02*
G03X103161Y232209I-0J-1287D01*
G01X104449Y233496D02*
X108249D01*
X109113Y233163D02*
G03X108249Y233496I-864J-954D01*
G01X109113Y233163D02*
G03X109784I336J370D01*
G01X110649Y233496D02*
G03X109785Y233163I-0J-1287D01*
G01X110649Y233496D02*
X114449D01*
X115019Y233363D02*
G03X114449Y233496I-570J-1154D01*
G01X115019Y233363D02*
G03X115433Y233350I221J448D01*
G01X185736Y116732D02*
G03X185736I-2862J0D01*
G01X195207Y139540D02*
G03Y143924I1840J2192D01*
G01Y139540D02*
G03X194885Y139657I-322J-383D01*
G01X194682*
G03X194360Y139540I-0J-500*
G01Y143924D02*
G03Y139540I-1840J-2192D01*
G01Y143924D02*
G03X194682Y143807I322J383D01*
G01X194885*
G03X195207Y143924I0J500*
G01X201559Y133095D02*
G03X205134I1787J-1402D01*
G01X201559D02*
G03X201665Y133403I-394J308D01*
G01Y162692*
G03X201026Y163172I-500J0*
G01X198606Y166756D02*
G03X201026Y163172I1788J-1402D01*
G01X198606Y166756D02*
G03X198713Y167065I-393J309D01*
G01Y172708*
G03X197931Y173122I-500J0*
G01X198055Y176788D02*
G03X197931Y173122I-1401J-1788D01*
G01X198055Y176788D02*
G03X198364Y176681I309J393D01*
G01X199016*
X200204Y176189D02*
G03X199016Y176681I-1188J-1189D01*
G01X200204Y176189D02*
X200812Y175581D01*
G03X201665Y175935I353J354*
G01Y183152*
G03X201519Y183505I-500J-0*
G01X200828Y184196*
G03X200475Y184342I-353J-354*
G01X200475D02*
X200135D01*
X200135D02*
G03X199827Y184236I0J-500D01*
G01Y187811D02*
G03Y184236I-1402J-1787D01*
G01Y187811D02*
G03X200135Y187705I308J394D01*
G01X201378*
X202567Y187212D02*
G03X201378Y187705I-1189J-1188D01*
G01X202567Y187212D02*
X204535Y185244D01*
X205028Y184055D02*
G03X204535Y185244I-1682J0D01*
G01X205028Y184055D02*
Y133403D01*
G03X205134Y133095I500J0*
G01X246877Y168238D02*
G03X242493I-2192J1841D01*
G01X246877D02*
G03X246760Y167917I383J-321D01*
G01Y165090*
G03X246959Y164690I500J-0*
G01X247472Y163661D02*
G03X246959Y164690I-1287J0D01*
G01X247472Y163661D02*
Y159861D01*
X247139Y158997D02*
G03X247472Y159861I-954J864D01*
G01X247139Y158997D02*
G03Y158326I371J-336D01*
G01X247472Y157461D02*
G03X247139Y158326I-1287J0D01*
G01X247472Y157461D02*
Y153661D01*
X246185Y152374D02*
G03X247472Y153661I0J1287D01*
G01X246185Y152374D02*
X243185D01*
X241898Y153661D02*
G03X243185Y152374I1287J0D01*
G01X241898Y153661D02*
Y157461D01*
X242231Y158326D02*
G03X241898Y157461I954J-865D01*
G01X242231Y158326D02*
G03Y158997I-371J335D01*
G01X241898Y159861D02*
G03X242231Y158997I1287J0D01*
G01X241898Y159861D02*
Y163661D01*
X242411Y164690D02*
G03X241898Y163661I774J-1029D01*
G01X242411Y164690D02*
G03X242610Y165090I-301J400D01*
G01Y167917*
G03X242493Y168238I-500J-0*
G01X281586Y154034D02*
G03X284004Y154962I1879J-1278D01*
G01X281586Y154034D02*
G03X281173Y154815I-413J281D01*
G01X280450*
G03X280142Y154708I0J-500*
G01Y158284D02*
G03Y154708I-1402J-1788D01*
G01Y158284D02*
G03X280450Y158177I308J393D01*
G01X281183*
G03X281537Y158324I0J500*
G01X281539Y158325*
G03X281685Y158679I-354J354*
G01Y169170*
G03X281312Y169653I-500J-0*
G01X284145Y172123D02*
G03X281312Y169653I-2255J-273D01*
G01X284145Y172123D02*
G03X284288Y171830I496J60D01*
G01X284555Y171563*
X285047Y170374D02*
G03X284555Y171563I-1681J0D01*
G01X285047Y170374D02*
Y157776D01*
X284555Y156587D02*
G03X285047Y157776I-1189J1189D01*
G01X284555Y156587D02*
X283770Y155802D01*
G03X284004Y154962I353J-354*
G01X287508Y266142D02*
G03X287508I-2469J0D01*
G01Y274409D02*
G03X287508I-2469J0D01*
G01X314780Y184031D02*
G03X311204I-1788J1402D01*
G01X314780D02*
G03X314673Y183723I393J-308D01*
G01Y163521*
G03X314780Y163213I500J0*
G01X311481Y160115D02*
G03X314780Y163213I1511J1696D01*
G01X311481Y160115D02*
G03X310664Y159866I-332J-374D01*
G01X309110Y158255D02*
G03X310664Y159866I-645J2178D01*
G01X309110Y158255D02*
G03Y157296I142J-479D01*
G01X310252Y153716D02*
G03X309110Y157296I-1787J1402D01*
G01X310252Y153716D02*
G03X310146Y153408I394J-308D01*
G01Y142913*
X309653Y141725D02*
G03X310146Y142913I-1188J1188D01*
G01X309653Y141725D02*
X308304Y140375D01*
G03X308161Y140081I353J-354*
G01X305633Y142610D02*
G03X308161Y140081I273J-2256D01*
G01X305633Y142610D02*
G03X305926Y142752I-60J496D01*
G01X306637Y143463*
G03X306783Y143817I-354J354*
G01Y153408*
G03X306677Y153716I-500J-0*
G01X307819Y157296D02*
G03X306677Y153716I646J-2178D01*
G01X307819Y157296D02*
G03Y158255I-142J480D01*
G01X306677Y161835D02*
G03X307819Y158255I1788J-1402D01*
G01X306677Y161835D02*
G03X306783Y162143I-394J308D01*
G01Y180199*
G03X306637Y180552I-500J-0*
G01X306517Y180673*
G03X306223Y180816I-354J-354*
G01X308751Y183344D02*
G03X306223Y180816I-2255J-273D01*
G01X308751Y183344D02*
G03X308894Y183050I497J60D01*
G01X309653Y182291*
X310146Y181102D02*
G03X309653Y182291I-1681J0D01*
G01X310146Y181102D02*
Y163286D01*
G03X311069Y163020I500J0*
G01X311204Y163213D02*
G03X311069Y163020I1788J-1402D01*
G01X311204Y163213D02*
G03X311311Y163521I-393J308D01*
G01Y183723*
G03X311204Y184031I-500J-0*
G01X336720Y192913D02*
G03X336720I-2468J0D01*
G01X352862Y109192D02*
X366758D01*
X352690Y110092D02*
X366719D01*
X344938Y110992D02*
X365872D01*
X361081Y108292D02*
X365691D01*
X344368Y111892D02*
X365043D01*
X361881Y107392D02*
X364891D01*
X361917Y106492D02*
X364854D01*
X361917Y105592D02*
X364854D01*
X361917Y104692D02*
X364854D01*
X361917Y103792D02*
X364854D01*
X361917Y102892D02*
X364854D01*
X361917Y101992D02*
X364854D01*
X351811Y112792D02*
X364805D01*
X352269Y113692D02*
X364573D01*
X355311Y114592D02*
X357173D01*
X352862Y108292D02*
X355454D01*
X352862Y107392D02*
X354655D01*
X352862Y106492D02*
X354618D01*
X352862Y105592D02*
X354618D01*
X352862Y104692D02*
X354618D01*
X352744Y103792D02*
X354618D01*
X344994Y102892D02*
X354618D01*
X344402Y101992D02*
X354618D01*
X352603Y114592D02*
X352940D01*
X326614Y112792D02*
X343858D01*
X341856Y113692D02*
X343401D01*
X342425Y114592D02*
X343370D01*
X334504Y111892D02*
X335968D01*
X327072Y113692D02*
X328617D01*
X327102Y114592D02*
X328048D01*
X314515Y111892D02*
X326104D01*
X315854Y101992D02*
X326070D01*
X314673Y110992D02*
X325535D01*
X315854Y102892D02*
X325478D01*
X313927Y112792D02*
X318662D01*
X312849Y113692D02*
X318204D01*
X316925Y114592D02*
X318200D01*
X314491Y110092D02*
X317783D01*
X315854Y103792D02*
X317728D01*
X314280Y109192D02*
X317610D01*
X315018Y108292D02*
X317610D01*
X315818Y107392D02*
X317610D01*
X315854Y106492D02*
X317610D01*
X315854Y105592D02*
X317610D01*
X315854Y104692D02*
X317610D01*
X313299Y114592D02*
X314571D01*
X259358Y105592D02*
X264746D01*
X259358Y104692D02*
X263481D01*
X259358Y103792D02*
X262763D01*
X259227Y101992D02*
X262478D01*
X259358Y102892D02*
X262473D01*
X259358Y106492D02*
X261247D01*
X259139Y107392D02*
X260309D01*
X219004Y226192D02*
X224406D01*
X219004Y227992D02*
X224303D01*
X219004Y227092D02*
X224303D01*
X219022Y228892D02*
X224285D01*
X258177Y291892D02*
X273122D01*
X258177Y290992D02*
X273122D01*
X258177Y290092D02*
X273122D01*
X258177Y289192D02*
X273122D01*
X258177Y288292D02*
X273122D01*
X258177Y292792D02*
X272721D01*
X258177Y294592D02*
X272714D01*
X258421Y295492D02*
X272645D01*
X258177Y293692D02*
X272531D01*
X258177Y287392D02*
X269220D01*
X258177Y283792D02*
X269185D01*
X266753Y282892D02*
X269185D01*
X267444Y281992D02*
X269185D01*
X267626Y281092D02*
X269185D01*
X267436Y280192D02*
X269185D01*
X267035Y279292D02*
X269185D01*
X267035Y278392D02*
X269185D01*
X267035Y277492D02*
X269185D01*
X267035Y276592D02*
X269185D01*
X267035Y275692D02*
X269185D01*
X267035Y274792D02*
X269185D01*
X267035Y273892D02*
X269185D01*
X267035Y272992D02*
X269185D01*
X267035Y272092D02*
X269185D01*
X267035Y271192D02*
X269185D01*
X267035Y270292D02*
X269185D01*
X267035Y269392D02*
X269185D01*
X267035Y268492D02*
X269185D01*
X267035Y267592D02*
X269185D01*
X267035Y266692D02*
X269185D01*
X267035Y265792D02*
X269185D01*
X267035Y264892D02*
X269185D01*
X267035Y263992D02*
X269185D01*
X267035Y263092D02*
X269185D01*
X267035Y262192D02*
X269185D01*
X267035Y261292D02*
X269185D01*
X267035Y260392D02*
X269185D01*
X267035Y259492D02*
X269185D01*
X267035Y258592D02*
X269185D01*
X267035Y257692D02*
X269185D01*
X267035Y256792D02*
X269185D01*
X267035Y255892D02*
X269185D01*
X267035Y254992D02*
X269185D01*
X267035Y254092D02*
X269185D01*
X267035Y253192D02*
X269185D01*
X267035Y252292D02*
X269185D01*
X267035Y251392D02*
X269185D01*
X267035Y250492D02*
X269185D01*
X267035Y249592D02*
X269185D01*
X267035Y248692D02*
X269185D01*
X267035Y247792D02*
X269185D01*
X267035Y246892D02*
X269185D01*
X267035Y245992D02*
X269185D01*
X267035Y245092D02*
X269185D01*
X267035Y244192D02*
X269185D01*
X267035Y243292D02*
X269185D01*
X267035Y242392D02*
X269185D01*
X267035Y241492D02*
X269185D01*
X267035Y240592D02*
X269185D01*
X267035Y239692D02*
X269185D01*
X267150Y238792D02*
X269185D01*
X267572Y237892D02*
X269185D01*
X267589Y236992D02*
X269185D01*
X267211Y236092D02*
X269185D01*
X265883Y235192D02*
X269185D01*
X264673Y234292D02*
X269185D01*
X264673Y233392D02*
X269185D01*
X264673Y232492D02*
X269185D01*
X267536Y231592D02*
X269161D01*
X258177Y284692D02*
X268898D01*
X258177Y286492D02*
X268694D01*
X258177Y285592D02*
X268607D01*
X264673Y231592D02*
X267110D01*
X264858Y230692D02*
X265489D01*
X258177Y282892D02*
X263956D01*
X258177Y279292D02*
X263673D01*
X258177Y278392D02*
X263673D01*
X258177Y277492D02*
X263673D01*
X258177Y276592D02*
X263673D01*
X258177Y275692D02*
X263673D01*
X258177Y274792D02*
X263673D01*
X259002Y273892D02*
X263673D01*
X259743Y272992D02*
X263673D01*
X259948Y272092D02*
X263673D01*
X259782Y271192D02*
X263673D01*
X259358Y270292D02*
X263673D01*
X259358Y269392D02*
X263673D01*
X259358Y268492D02*
X263673D01*
X259358Y267592D02*
X263673D01*
X259358Y266692D02*
X263673D01*
X259358Y265792D02*
X263673D01*
X259358Y264892D02*
X263673D01*
X259358Y263992D02*
X263673D01*
X259358Y263092D02*
X263673D01*
X259358Y262192D02*
X263673D01*
X259358Y261292D02*
X263673D01*
X259642Y260392D02*
X263673D01*
X259936Y259492D02*
X263673D01*
X259851Y258592D02*
X263673D01*
X259329Y257692D02*
X263673D01*
X254831Y256792D02*
X263673D01*
X254831Y255892D02*
X263673D01*
X259623Y254992D02*
X263673D01*
X260078Y254092D02*
X263673D01*
X260118Y253192D02*
X263673D01*
X259770Y252292D02*
X263673D01*
X259555Y251392D02*
X263673D01*
X259555Y250492D02*
X263673D01*
X259555Y249592D02*
X263673D01*
X259555Y248692D02*
X263673D01*
X259595Y247792D02*
X263673D01*
X258177Y280192D02*
X263273D01*
X258177Y281992D02*
X263264D01*
X258177Y281092D02*
X263083D01*
X254831Y254992D02*
X256125D01*
X254831Y257692D02*
X256025D01*
X316757Y263992D02*
X317902D01*
X342150Y241492D02*
X343997D01*
X334649Y242392D02*
X343988D01*
X342972Y240592D02*
X343982D01*
X335499Y241492D02*
X339739D01*
X335891Y240592D02*
X338918D01*
X337404Y238792D02*
X338809D01*
X336504Y239692D02*
X338677D01*
X352075Y255892D02*
X357374D01*
X352075Y254992D02*
X357374D01*
X352075Y254092D02*
X357374D01*
X352074Y253192D02*
X357374D01*
X352075Y252292D02*
X357374D01*
X352057Y251392D02*
X357374D01*
X352075Y250492D02*
X357374D01*
X352031Y249592D02*
X357374D01*
X352075Y248692D02*
X357374D01*
X352052Y247792D02*
X357374D01*
X352075Y246892D02*
X357374D01*
X352073Y245992D02*
X357374D01*
X352075Y245092D02*
X357374D01*
X352075Y244192D02*
X357374D01*
X355094Y243292D02*
X357374D01*
X356330Y242392D02*
X357367D01*
X352184Y256792D02*
X357265D01*
X352077Y243292D02*
X353567D01*
X338058Y155092D02*
X342857D01*
X337852Y154192D02*
X342857D01*
X337852Y153292D02*
X342786D01*
X338293Y155992D02*
X342492D01*
X337852Y152392D02*
X341845D01*
X337852Y148792D02*
X341748D01*
X337852Y151492D02*
X341744D01*
X337852Y150592D02*
X341744D01*
X337852Y149692D02*
X341744D01*
X338282Y156892D02*
X339223D01*
X405224Y294592D02*
X413673D01*
X405224Y293692D02*
X413673D01*
X405224Y292792D02*
X413673D01*
X405224Y291892D02*
X413673D01*
X405224Y290992D02*
X413673D01*
X405224Y290092D02*
X413673D01*
X405224Y289192D02*
X413673D01*
X405224Y288292D02*
X413673D01*
X404948Y287392D02*
X413673D01*
X367429Y286492D02*
X413673D01*
X367429Y285592D02*
X413673D01*
X367429Y284692D02*
X413673D01*
X367429Y283792D02*
X413673D01*
X367429Y282892D02*
X413673D01*
X367429Y281992D02*
X413673D01*
X367429Y281092D02*
X413673D01*
X367429Y280192D02*
X413673D01*
X367429Y279292D02*
X413673D01*
X367429Y278392D02*
X413673D01*
X367429Y277492D02*
X413673D01*
X367429Y276592D02*
X413673D01*
X367429Y275692D02*
X413673D01*
X367429Y274792D02*
X413673D01*
X367429Y273892D02*
X413673D01*
X367429Y272992D02*
X413673D01*
X367429Y272092D02*
X413673D01*
X367429Y271192D02*
X413673D01*
X367429Y196492D02*
X413673D01*
X389949Y195592D02*
X413673D01*
X390596Y194692D02*
X413673D01*
X390840Y193792D02*
X413673D01*
X390788Y192892D02*
X413673D01*
X390423Y191992D02*
X413673D01*
X390000Y191092D02*
X413673D01*
X390583Y190192D02*
X413673D01*
X390837Y189292D02*
X413673D01*
X390794Y188392D02*
X413673D01*
X390440Y187492D02*
X413673D01*
X389576Y186592D02*
X413673D01*
X385735Y185692D02*
X413673D01*
X385929Y184792D02*
X413673D01*
X385832Y183892D02*
X413673D01*
X385407Y182992D02*
X413673D01*
X384364Y182092D02*
X413673D01*
X314673Y181192D02*
X413673D01*
X314673Y180292D02*
X413673D01*
X314673Y179392D02*
X413673D01*
X314673Y178492D02*
X413673D01*
X314673Y177592D02*
X413673D01*
X314673Y176692D02*
X413673D01*
X314673Y175792D02*
X413673D01*
X314673Y174892D02*
X413673D01*
X314673Y173992D02*
X413673D01*
X314673Y173092D02*
X413673D01*
X314673Y172192D02*
X413673D01*
X314673Y171292D02*
X413673D01*
X314673Y170392D02*
X413673D01*
X314673Y169492D02*
X413673D01*
X314673Y168592D02*
X413673D01*
X314673Y167692D02*
X413673D01*
X314673Y166792D02*
X413673D01*
X314673Y165892D02*
X413673D01*
X314673Y164992D02*
X413673D01*
X314673Y164092D02*
X413673D01*
X314796Y163192D02*
X413673D01*
X315212Y162292D02*
X413673D01*
X353409Y161392D02*
X413673D01*
X354276Y160492D02*
X413673D01*
X354319Y159592D02*
X413673D01*
X354319Y158692D02*
X413673D01*
X354319Y157792D02*
X413673D01*
X379231Y156892D02*
X413673D01*
X407431Y155992D02*
X413673D01*
X409273Y155092D02*
X413673D01*
X409883Y154192D02*
X413673D01*
X410127Y153292D02*
X413673D01*
X410094Y152392D02*
X413673D01*
X409775Y151492D02*
X413673D01*
X409875Y150592D02*
X413673D01*
X410146Y149692D02*
X413673D01*
X410146Y148792D02*
X413673D01*
X410146Y147892D02*
X413673D01*
X410146Y146992D02*
X413673D01*
X410135Y146092D02*
X413673D01*
X409578Y145192D02*
X413673D01*
X354133Y144292D02*
X413673D01*
X354319Y143392D02*
X413673D01*
X354319Y142492D02*
X413673D01*
X354319Y141592D02*
X413673D01*
X354319Y140692D02*
X413673D01*
X354013Y139792D02*
X413673D01*
X383234Y138892D02*
X413673D01*
X384331Y137992D02*
X413673D01*
X384705Y137092D02*
X413673D01*
X384716Y136192D02*
X413673D01*
X384368Y135292D02*
X413673D01*
X383359Y134392D02*
X413673D01*
X375328Y133492D02*
X413673D01*
X375652Y132592D02*
X413673D01*
X375670Y131692D02*
X413673D01*
X375388Y130792D02*
X413673D01*
X374703Y129892D02*
X413673D01*
X375038Y128992D02*
X413673D01*
X375543Y128092D02*
X413673D01*
X375697Y127192D02*
X413673D01*
X375560Y126292D02*
X413673D01*
X375082Y125392D02*
X413673D01*
X388050Y124492D02*
X413673D01*
X388570Y123592D02*
X413673D01*
X388685Y122692D02*
X413673D01*
X388458Y121792D02*
X413673D01*
X388363Y120892D02*
X413673D01*
X390889Y119992D02*
X413673D01*
X391367Y119092D02*
X413673D01*
X391423Y118192D02*
X413673D01*
X391095Y117292D02*
X413673D01*
X390011Y116392D02*
X413673D01*
X369673Y115492D02*
X413673D01*
X369595Y114592D02*
X413673D01*
X368614Y113692D02*
X413673D01*
X368827Y112792D02*
X413673D01*
X369719Y111892D02*
X413673D01*
X370109Y110992D02*
X413673D01*
X370120Y110092D02*
X413673D01*
X405110Y109192D02*
X413673D01*
X405224Y108292D02*
X413673D01*
X405224Y107392D02*
X413673D01*
X405224Y106492D02*
X413673D01*
X405224Y105592D02*
X413673D01*
X405224Y104692D02*
X413673D01*
X405224Y103792D02*
X413673D01*
X405224Y102892D02*
X413673D01*
X405224Y101992D02*
X413673D01*
X405468Y295492D02*
X413429D01*
X367429Y197392D02*
X412224D01*
X367429Y270292D02*
X412183D01*
X367429Y198292D02*
X411712D01*
X367429Y269392D02*
X411709D01*
X367429Y268492D02*
X411705D01*
X367429Y267592D02*
X411705D01*
X367429Y266692D02*
X411705D01*
X367429Y265792D02*
X411705D01*
X367429Y264892D02*
X411705D01*
X367429Y263992D02*
X411705D01*
X367429Y263092D02*
X411705D01*
X367429Y262192D02*
X411705D01*
X367429Y261292D02*
X411705D01*
X367429Y260392D02*
X411705D01*
X367862Y259492D02*
X411705D01*
X368019Y258592D02*
X411705D01*
X367803Y257692D02*
X411705D01*
X367429Y256792D02*
X411705D01*
X367429Y255892D02*
X411705D01*
X367429Y254992D02*
X411705D01*
X367429Y254092D02*
X411705D01*
X367429Y253192D02*
X411705D01*
X367429Y252292D02*
X411705D01*
X367429Y251392D02*
X411705D01*
X367429Y250492D02*
X411705D01*
X367429Y249592D02*
X411705D01*
X367429Y248692D02*
X411705D01*
X367429Y247792D02*
X411705D01*
X367429Y246892D02*
X411705D01*
X367429Y245992D02*
X411705D01*
X367429Y245092D02*
X411705D01*
X367429Y244192D02*
X411705D01*
X367429Y243292D02*
X411705D01*
X367429Y242392D02*
X411705D01*
X367429Y241492D02*
X411705D01*
X367429Y240592D02*
X411705D01*
X367429Y239692D02*
X411705D01*
X367429Y238792D02*
X411705D01*
X367429Y237892D02*
X411705D01*
X367429Y236992D02*
X411705D01*
X367429Y236092D02*
X411705D01*
X367429Y235192D02*
X411705D01*
X391713Y234292D02*
X411705D01*
X392594Y233392D02*
X411705D01*
X392956Y232492D02*
X411705D01*
X393004Y231592D02*
X411705D01*
X392757Y230692D02*
X411705D01*
X392105Y229792D02*
X411705D01*
X367429Y228892D02*
X411705D01*
X367429Y227992D02*
X411705D01*
X367429Y227092D02*
X411705D01*
X367429Y226192D02*
X411705D01*
X367429Y225292D02*
X411705D01*
X367429Y224392D02*
X411705D01*
X367429Y223492D02*
X411705D01*
X367429Y222592D02*
X411705D01*
X367429Y221692D02*
X411705D01*
X367429Y220792D02*
X411705D01*
X367429Y219892D02*
X411705D01*
X367429Y218992D02*
X411705D01*
X367429Y218092D02*
X411705D01*
X367429Y217192D02*
X411705D01*
X367429Y216292D02*
X411705D01*
X367429Y215392D02*
X411705D01*
X367429Y214492D02*
X411705D01*
X367429Y213592D02*
X411705D01*
X367429Y212692D02*
X411705D01*
X367429Y211792D02*
X411705D01*
X367429Y210892D02*
X411705D01*
X367429Y209992D02*
X411705D01*
X367429Y209092D02*
X411705D01*
X367429Y208192D02*
X411705D01*
X367429Y207292D02*
X411705D01*
X367429Y206392D02*
X411705D01*
X367429Y205492D02*
X411705D01*
X367429Y204592D02*
X411705D01*
X367429Y203692D02*
X411705D01*
X367429Y202792D02*
X411705D01*
X367429Y201892D02*
X411705D01*
X367429Y200992D02*
X411705D01*
X367429Y200092D02*
X411705D01*
X367429Y199192D02*
X411705D01*
X379928Y155992D02*
X406742D01*
X380201Y155092D02*
X404900D01*
X352658Y145192D02*
X404595D01*
X354319Y151492D02*
X404399D01*
X354319Y150592D02*
X404298D01*
X380175Y154192D02*
X404290D01*
X379022Y152392D02*
X404079D01*
X379840Y153292D02*
X404046D01*
X351905Y146092D02*
X404038D01*
X354319Y149692D02*
X404028D01*
X354315Y148792D02*
X404028D01*
X353841Y147892D02*
X404028D01*
X351111Y146992D02*
X404028D01*
X367429Y234292D02*
X388602D01*
X373672Y116392D02*
X388335D01*
X367429Y229792D02*
X388210D01*
X367429Y233392D02*
X387721D01*
X367429Y230692D02*
X387558D01*
X367429Y232492D02*
X387359D01*
X367429Y231592D02*
X387311D01*
X385663Y186592D02*
X386408D01*
X367429Y195592D02*
X386035D01*
X367238Y287392D02*
X385603D01*
X385003Y191092D02*
X385581D01*
X365630Y191992D02*
X385562D01*
X370120Y109192D02*
X385441D01*
X367429Y194692D02*
X385388D01*
X361145Y294592D02*
X385327D01*
X361327Y293692D02*
X385327D01*
X361137Y292792D02*
X385327D01*
X360736Y291892D02*
X385327D01*
X360736Y290992D02*
X385327D01*
X360736Y290092D02*
X385327D01*
X366358Y289192D02*
X385327D01*
X366784Y288292D02*
X385327D01*
X371317Y108292D02*
X385327D01*
X372117Y107392D02*
X385327D01*
X372154Y106492D02*
X385327D01*
X372154Y105592D02*
X385327D01*
X372154Y104692D02*
X385327D01*
X372154Y103792D02*
X385327D01*
X372154Y102892D02*
X385327D01*
X372154Y101992D02*
X385327D01*
X366530Y192892D02*
X385196D01*
X367278Y193792D02*
X385144D01*
X361213Y295492D02*
X385083D01*
X342429Y120892D02*
X384628D01*
X373858Y124492D02*
X384391D01*
X342592Y121792D02*
X383983D01*
X342704Y123592D02*
X383871D01*
X342819Y122692D02*
X383756D01*
X314673Y182092D02*
X381777D01*
X371029Y138892D02*
X381333D01*
X375218Y134392D02*
X381208D01*
X364668Y191092D02*
X381143D01*
X314946Y186592D02*
X380948D01*
X314673Y182992D02*
X380734D01*
X313951Y187492D02*
X380623D01*
X272028Y190192D02*
X380480D01*
X315249Y185692D02*
X380407D01*
X314703Y183892D02*
X380310D01*
X273828Y188392D02*
X380269D01*
X272928Y189292D02*
X380226D01*
X315172Y184792D02*
X380212D01*
X374494Y152392D02*
X375703D01*
X374703Y156892D02*
X375493D01*
X369673Y116392D02*
X371997D01*
X342183Y124492D02*
X371811D01*
X354218Y152392D02*
X371175D01*
X352064Y119992D02*
X371119D01*
X330985Y129892D02*
X370967D01*
X354290Y156892D02*
X370966D01*
X369673Y117292D02*
X370913D01*
X369121Y119092D02*
X370641D01*
X331637Y128992D02*
X370631D01*
X338993Y125392D02*
X370588D01*
X369852Y118192D02*
X370363D01*
X347077Y153292D02*
X370356D01*
X354319Y133492D02*
X370333D01*
X286329Y130792D02*
X370282D01*
X353571Y155992D02*
X370269D01*
X331799Y128092D02*
X370127D01*
X338093Y126292D02*
X370109D01*
X347006Y154192D02*
X370022D01*
X354319Y132592D02*
X370017D01*
X354133Y131692D02*
X370000D01*
X347006Y155092D02*
X369996D01*
X337144Y127192D02*
X369973D01*
X347006Y138892D02*
X369128D01*
X354319Y134392D02*
X369003D01*
X347006Y137992D02*
X368031D01*
X354319Y135292D02*
X367994D01*
X347006Y137092D02*
X367657D01*
X354012Y136192D02*
X367647D01*
X360736Y284692D02*
X364067D01*
X360736Y283792D02*
X364067D01*
X360736Y282892D02*
X364067D01*
X360736Y281992D02*
X364067D01*
X360736Y281092D02*
X364067D01*
X360736Y280192D02*
X364067D01*
X360736Y279292D02*
X364067D01*
X360736Y278392D02*
X364067D01*
X360736Y277492D02*
X364067D01*
X360736Y276592D02*
X364067D01*
X360736Y275692D02*
X364067D01*
X360736Y274792D02*
X364067D01*
X360736Y273892D02*
X364067D01*
X360890Y272992D02*
X364067D01*
X361284Y272092D02*
X364067D01*
X361279Y271192D02*
X364067D01*
X360874Y270292D02*
X364067D01*
X360736Y269392D02*
X364067D01*
X360736Y268492D02*
X364067D01*
X360736Y267592D02*
X364067D01*
X360736Y266692D02*
X364067D01*
X360736Y265792D02*
X364067D01*
X360736Y264892D02*
X364067D01*
X360736Y263992D02*
X364067D01*
X360736Y263092D02*
X364067D01*
X360736Y262192D02*
X364067D01*
X360736Y261292D02*
X364067D01*
X360736Y260392D02*
X364067D01*
X360736Y256792D02*
X364067D01*
X360736Y255892D02*
X364067D01*
X360736Y254992D02*
X364067D01*
X360736Y254092D02*
X364067D01*
X360736Y253192D02*
X364067D01*
X360736Y252292D02*
X364067D01*
X360736Y251392D02*
X364067D01*
X360736Y250492D02*
X364067D01*
X360736Y249592D02*
X364067D01*
X360736Y248692D02*
X364067D01*
X360736Y247792D02*
X364067D01*
X360736Y246892D02*
X364067D01*
X360736Y245992D02*
X364067D01*
X360736Y245092D02*
X364067D01*
X360736Y244192D02*
X364067D01*
X360736Y243292D02*
X364067D01*
X360736Y242392D02*
X364067D01*
X360736Y241492D02*
X364067D01*
X360736Y240592D02*
X364067D01*
X360736Y239692D02*
X364067D01*
X360736Y238792D02*
X364067D01*
X360736Y237892D02*
X364067D01*
X360736Y236992D02*
X364067D01*
X360736Y236092D02*
X364067D01*
X360736Y235192D02*
X364067D01*
X360736Y234292D02*
X364067D01*
X360736Y233392D02*
X364067D01*
X360736Y232492D02*
X364067D01*
X360736Y231592D02*
X364067D01*
X360736Y230692D02*
X364067D01*
X360736Y229792D02*
X364067D01*
X360736Y228892D02*
X364067D01*
X360736Y227992D02*
X364067D01*
X360736Y227092D02*
X364067D01*
X360736Y226192D02*
X364067D01*
X360736Y225292D02*
X364067D01*
X360760Y224392D02*
X364067D01*
X361229Y223492D02*
X364067D01*
X361314Y222592D02*
X364067D01*
X361019Y221692D02*
X364067D01*
X360050Y220792D02*
X364067D01*
X352058Y219892D02*
X364067D01*
X352075Y218992D02*
X364067D01*
X352031Y218092D02*
X364067D01*
X352075Y217192D02*
X364067D01*
X352052Y216292D02*
X364067D01*
X352075Y215392D02*
X364067D01*
X352073Y214492D02*
X364067D01*
X352075Y213592D02*
X364067D01*
X352075Y212692D02*
X364067D01*
X352075Y211792D02*
X364067D01*
X352212Y210892D02*
X364067D01*
X358647Y209992D02*
X364067D01*
X358768Y209092D02*
X364067D01*
X358768Y208192D02*
X364067D01*
X358768Y207292D02*
X364067D01*
X358768Y206392D02*
X364067D01*
X358768Y205492D02*
X364067D01*
X358768Y204592D02*
X364067D01*
X358768Y203692D02*
X364067D01*
X358768Y202792D02*
X364067D01*
X358768Y201892D02*
X364067D01*
X358768Y200992D02*
X364067D01*
X358768Y200092D02*
X364067D01*
X358768Y199192D02*
X364067D01*
X358545Y198292D02*
X364067D01*
X325172Y197392D02*
X364067D01*
X325131Y196492D02*
X364067D01*
X324296Y195592D02*
X364067D01*
X360736Y285592D02*
X363889D01*
X362921Y119092D02*
X363851D01*
X360736Y257692D02*
X363693D01*
X360736Y259492D02*
X363634D01*
X360112Y194692D02*
X363575D01*
X360736Y258592D02*
X363477D01*
X360736Y289192D02*
X362776D01*
X360736Y286492D02*
X362706D01*
X360736Y288292D02*
X362350D01*
X360736Y287392D02*
X362331D01*
X335963Y194692D02*
X358786D01*
X352075Y220792D02*
X358060D01*
X335919Y191092D02*
X357682D01*
X352272Y119092D02*
X357651D01*
X336559Y193792D02*
X357567D01*
X276484Y291892D02*
X357374D01*
X276484Y290992D02*
X357374D01*
X276484Y290092D02*
X357374D01*
X276484Y289192D02*
X357374D01*
X276484Y288292D02*
X357374D01*
X276484Y287392D02*
X357374D01*
X276484Y286492D02*
X357374D01*
X276484Y285592D02*
X357374D01*
X276484Y284692D02*
X357374D01*
X276484Y283792D02*
X357374D01*
X276484Y282892D02*
X357374D01*
X276484Y281992D02*
X357374D01*
X276506Y281092D02*
X357374D01*
X276975Y280192D02*
X357374D01*
X277063Y279292D02*
X357374D01*
X276771Y278392D02*
X357374D01*
X275812Y277492D02*
X357374D01*
X286192Y276592D02*
X357374D01*
X324557Y275692D02*
X357374D01*
X325569Y274792D02*
X357374D01*
X325878Y273892D02*
X357374D01*
X356307Y225292D02*
X357371D01*
X354989Y224392D02*
X357350D01*
X336542Y191992D02*
X357239D01*
X325805Y272992D02*
X357220D01*
X336720Y192892D02*
X357208D01*
X352074Y221692D02*
X357092D01*
X272547Y270292D02*
X357000D01*
X276885Y292792D02*
X356973D01*
X276893Y294592D02*
X356966D01*
X276961Y295492D02*
X356897D01*
X352075Y223492D02*
X356881D01*
X272547Y271192D02*
X356831D01*
X325302Y272092D02*
X356826D01*
X352075Y222592D02*
X356796D01*
X277075Y293692D02*
X356783D01*
X352075Y224392D02*
X353673D01*
X347209Y161392D02*
X348854D01*
X347371Y155992D02*
X348692D01*
X347935Y136192D02*
X348128D01*
X347938Y139792D02*
X348125D01*
X325473Y198292D02*
X347360D01*
X272547Y269392D02*
X347339D01*
X319658Y268492D02*
X347138D01*
X341872Y267592D02*
X347138D01*
X342772Y266692D02*
X347138D01*
X343587Y265792D02*
X347138D01*
X343807Y264892D02*
X347138D01*
X343807Y263992D02*
X347138D01*
X343807Y263092D02*
X347138D01*
X343807Y262192D02*
X347138D01*
X343807Y261292D02*
X347138D01*
X343807Y260392D02*
X347138D01*
X343807Y259492D02*
X347138D01*
X345907Y200992D02*
X347138D01*
X344186Y200092D02*
X347138D01*
X326373Y199192D02*
X347138D01*
X344179Y258592D02*
X347051D01*
X333783Y200092D02*
X344003D01*
X342429Y119992D02*
X343605D01*
X307644Y138892D02*
X342857D01*
X286327Y137992D02*
X342857D01*
X286327Y137092D02*
X342857D01*
X315225Y161392D02*
X342654D01*
X286327Y136192D02*
X342051D01*
X308107Y139792D02*
X342050D01*
X286327Y131692D02*
X341930D01*
X286327Y135292D02*
X341744D01*
X286327Y134392D02*
X341744D01*
X286327Y133492D02*
X341744D01*
X286327Y132592D02*
X341744D01*
X314842Y160492D02*
X339289D01*
X313480Y159592D02*
X338659D01*
X337542Y157792D02*
X338513D01*
X309924Y158692D02*
X338477D01*
X310146Y144292D02*
X336881D01*
X310146Y145192D02*
X336436D01*
X308621Y140692D02*
X336033D01*
X310146Y143392D02*
X335909D01*
X309521Y141592D02*
X335587D01*
X310092Y142492D02*
X335553D01*
X310146Y146092D02*
X335536D01*
X330039Y221692D02*
X335021D01*
X331090Y220792D02*
X334874D01*
X310146Y146992D02*
X334716D01*
X308752Y157792D02*
X334506D01*
X310539Y154192D02*
X334490D01*
X310146Y153292D02*
X334490D01*
X310146Y152392D02*
X334490D01*
X310146Y151492D02*
X334490D01*
X310146Y150592D02*
X334490D01*
X310146Y149692D02*
X334490D01*
X310146Y148792D02*
X334490D01*
X310146Y147892D02*
X334490D01*
X316758Y222592D02*
X334196D01*
X269005Y224392D02*
X334013D01*
X310736Y155092D02*
X333989D01*
X269004Y223492D02*
X333953D01*
X309883Y156892D02*
X333894D01*
X310561Y155992D02*
X333755D01*
X271128Y191092D02*
X332585D01*
X270087Y194692D02*
X332541D01*
X270228Y191992D02*
X331962D01*
X270087Y193792D02*
X331945D01*
X270087Y192892D02*
X331784D01*
X272590Y225292D02*
X331341D01*
X325449Y227992D02*
X330846D01*
X316378Y226192D02*
X330739D01*
X324152Y227092D02*
X330606D01*
X323052Y125392D02*
X329120D01*
X326349Y228892D02*
X328278D01*
X322943Y126292D02*
X328219D01*
X322442Y129892D02*
X328070D01*
X323400Y127192D02*
X327467D01*
X323280Y128992D02*
X327418D01*
X323527Y128092D02*
X327257D01*
X300106Y250492D02*
X324654D01*
X322384Y251392D02*
X324380D01*
X316941Y235192D02*
X324303D01*
X316054Y234292D02*
X324303D01*
X272547Y233392D02*
X324303D01*
X272547Y232492D02*
X324303D01*
X323116Y236092D02*
X324303D01*
X272547Y231592D02*
X324254D01*
X316570Y218092D02*
X323974D01*
X270087Y202792D02*
X323832D01*
X270087Y201892D02*
X323804D01*
X316838Y230692D02*
X323394D01*
X270087Y217192D02*
X323279D01*
X305659Y275692D02*
X322687D01*
X229634Y120892D02*
X322398D01*
X270087Y216292D02*
X322379D01*
X316823Y243292D02*
X321941D01*
X300636Y242392D02*
X321941D01*
X300198Y241492D02*
X321941D01*
X297784Y240592D02*
X321941D01*
X316134Y239692D02*
X321904D01*
X229634Y121792D02*
X321893D01*
X300106Y249592D02*
X321821D01*
X321208Y244192D02*
X321674D01*
X270087Y215392D02*
X321479D01*
X316978Y238792D02*
X321055D01*
X229849Y122692D02*
X320993D01*
X316741Y251392D02*
X320923D01*
X300106Y248692D02*
X320921D01*
X316648Y214492D02*
X320579D01*
X316702Y209992D02*
X320410D01*
X230302Y123592D02*
X320093D01*
X286787Y129892D02*
X320077D01*
X316420Y247792D02*
X320021D01*
X270087Y195592D02*
X319873D01*
X270087Y209092D02*
X319770D01*
X230420Y124492D02*
X319608D01*
X230247Y125392D02*
X319579D01*
X229715Y126292D02*
X319576D01*
X286913Y128992D02*
X319240D01*
X270087Y203692D02*
X319156D01*
X270087Y200992D02*
X319135D01*
X285825Y127192D02*
X319119D01*
X286665Y128092D02*
X318992D01*
X229634Y119992D02*
X318408D01*
X312822Y119092D02*
X318201D01*
X317302Y118192D02*
X318093D01*
X285793Y268492D02*
X317350D01*
X270087Y196492D02*
X316917D01*
X287168Y264892D02*
X316677D01*
X270087Y200092D02*
X316567D01*
X287037Y267592D02*
X316493D01*
X270087Y208192D02*
X316461D01*
X287483Y265792D02*
X316357D01*
X287446Y266692D02*
X316238D01*
X270087Y204592D02*
X316217D01*
X270087Y197392D02*
X316087D01*
X300423Y256792D02*
X316041D01*
X270087Y199192D02*
X315972D01*
X300580Y258592D02*
X315911D01*
X300690Y257692D02*
X315846D01*
X270087Y198292D02*
X315842D01*
X270087Y207292D02*
X315673D01*
X270087Y205492D02*
X315593D01*
X270087Y206392D02*
X315447D01*
X310575Y159592D02*
X312504D01*
X274728Y187492D02*
X312033D01*
X309854Y234292D02*
X311406D01*
X309934Y239692D02*
X311326D01*
X308952Y182992D02*
X311311D01*
X309823Y182092D02*
X311311D01*
X310143Y181192D02*
X311311D01*
X310146Y180292D02*
X311311D01*
X310146Y179392D02*
X311311D01*
X310146Y178492D02*
X311311D01*
X310146Y177592D02*
X311311D01*
X310146Y176692D02*
X311311D01*
X310146Y175792D02*
X311311D01*
X310146Y174892D02*
X311311D01*
X310146Y173992D02*
X311311D01*
X310146Y173092D02*
X311311D01*
X310146Y172192D02*
X311311D01*
X310146Y171292D02*
X311311D01*
X310146Y170392D02*
X311311D01*
X310146Y169492D02*
X311311D01*
X310146Y168592D02*
X311311D01*
X310146Y167692D02*
X311311D01*
X310146Y166792D02*
X311311D01*
X310146Y165892D02*
X311311D01*
X310146Y164992D02*
X311311D01*
X310146Y164092D02*
X311311D01*
X308614Y183892D02*
X311281D01*
X310155Y163192D02*
X311189D01*
X310178Y226192D02*
X311082D01*
X310220Y247792D02*
X311040D01*
X275628Y186592D02*
X311039D01*
X310401Y218092D02*
X310859D01*
X307978Y184792D02*
X310813D01*
X310476Y255892D02*
X310784D01*
X276528Y185692D02*
X310735D01*
X285047Y157792D02*
X308177D01*
X306622Y119092D02*
X307552D01*
X284797Y156892D02*
X307046D01*
X285047Y158692D02*
X307005D01*
X282583Y179392D02*
X306783D01*
X282337Y178492D02*
X306783D01*
X281505Y177592D02*
X306783D01*
X262520Y176692D02*
X306783D01*
X261332Y175792D02*
X306783D01*
X259161Y174892D02*
X306783D01*
X282646Y173992D02*
X306783D01*
X283792Y173092D02*
X306783D01*
X284136Y172192D02*
X306783D01*
X284774Y171292D02*
X306783D01*
X285047Y170392D02*
X306783D01*
X285047Y169492D02*
X306783D01*
X285047Y168592D02*
X306783D01*
X285047Y167692D02*
X306783D01*
X285047Y166792D02*
X306783D01*
X285047Y165892D02*
X306783D01*
X285047Y164992D02*
X306783D01*
X285047Y164092D02*
X306783D01*
X285047Y163192D02*
X306783D01*
X285047Y162292D02*
X306783D01*
X285672Y153292D02*
X306783D01*
X285707Y152392D02*
X306783D01*
X285352Y151492D02*
X306783D01*
X284157Y150592D02*
X306783D01*
X280026Y149692D02*
X306783D01*
X280027Y148792D02*
X306783D01*
X283257Y147892D02*
X306783D01*
X283704Y146992D02*
X306783D01*
X284238Y146092D02*
X306783D01*
X285138Y145192D02*
X306783D01*
X286008Y144292D02*
X306783D01*
X282454Y180292D02*
X306775D01*
X286325Y143392D02*
X306566D01*
X285047Y161392D02*
X306405D01*
X285224Y154192D02*
X306390D01*
X283960Y155992D02*
X306368D01*
X285047Y159592D02*
X306354D01*
X285047Y160492D02*
X306194D01*
X283772Y155092D02*
X306193D01*
X281861Y181192D02*
X305219D01*
X272547Y234292D02*
X305206D01*
X286327Y142492D02*
X305138D01*
X297499Y239692D02*
X305126D01*
X277428Y184792D02*
X305014D01*
X273063Y226192D02*
X304882D01*
X300106Y247792D02*
X304840D01*
X270087Y218092D02*
X304690D01*
X300106Y255892D02*
X304662D01*
X300019Y259492D02*
X304636D01*
X270087Y214492D02*
X304612D01*
X270087Y209992D02*
X304558D01*
X286253Y263992D02*
X304538D01*
X300106Y251392D02*
X304519D01*
X269155Y222592D02*
X304502D01*
X280128Y182092D02*
X304446D01*
X300665Y243292D02*
X304437D01*
X272547Y230692D02*
X304425D01*
X272547Y235192D02*
X304382D01*
X278328Y183892D02*
X304378D01*
X297091Y238792D02*
X304374D01*
X273115Y227092D02*
X304351D01*
X300106Y246892D02*
X304348D01*
X272547Y263092D02*
X304342D01*
X272547Y262192D02*
X304342D01*
X272547Y261292D02*
X304342D01*
X272547Y260392D02*
X304342D01*
X300106Y254992D02*
X304342D01*
X300106Y254092D02*
X304342D01*
X300106Y253192D02*
X304342D01*
X300106Y252292D02*
X304342D01*
X300106Y245992D02*
X304342D01*
X300106Y245092D02*
X304342D01*
X300303Y244192D02*
X304342D01*
X295448Y237892D02*
X304342D01*
X272547Y236992D02*
X304342D01*
X272547Y236092D02*
X304342D01*
X272547Y229792D02*
X304342D01*
X272547Y228892D02*
X304342D01*
X272782Y227992D02*
X304342D01*
X269921Y221692D02*
X304342D01*
X270087Y220792D02*
X304342D01*
X270087Y219892D02*
X304342D01*
X270087Y218992D02*
X304342D01*
X270087Y213592D02*
X304342D01*
X270087Y212692D02*
X304342D01*
X270087Y211792D02*
X304342D01*
X270087Y210892D02*
X304342D01*
X279228Y182992D02*
X304226D01*
X286327Y138892D02*
X304167D01*
X286327Y141592D02*
X304001D01*
X287148Y275692D02*
X303789D01*
X286327Y139792D02*
X303704D01*
X286327Y140692D02*
X303659D01*
X285891Y272092D02*
X303045D01*
X287478Y274792D02*
X302777D01*
X287061Y272992D02*
X302542D01*
X287453Y273892D02*
X302469D01*
X287705Y113692D02*
X301745D01*
X280028Y112792D02*
X301409D01*
X287394Y119092D02*
X301352D01*
X288882Y114592D02*
X300878D01*
X288795Y118192D02*
X300809D01*
X289313Y117292D02*
X300799D01*
X289476Y116392D02*
X300799D01*
X289348Y115492D02*
X300799D01*
X280028Y111892D02*
X300647D01*
X280028Y110992D02*
X300484D01*
X280028Y110092D02*
X300484D01*
X280026Y109192D02*
X300484D01*
X279598Y108292D02*
X299155D01*
X279664Y107392D02*
X298356D01*
X280028Y106492D02*
X298319D01*
X280028Y105592D02*
X298319D01*
X280028Y104692D02*
X298319D01*
X280028Y103792D02*
X298319D01*
X280028Y102892D02*
X298319D01*
X279896Y101992D02*
X298319D01*
X272547Y259492D02*
X296831D01*
X272547Y255892D02*
X296744D01*
X272547Y254992D02*
X296744D01*
X272547Y254092D02*
X296744D01*
X272547Y253192D02*
X296744D01*
X272547Y252292D02*
X296744D01*
X272547Y256792D02*
X296428D01*
X272547Y258592D02*
X296270D01*
X272547Y257692D02*
X296161D01*
X272547Y237892D02*
X295103D01*
X272547Y251392D02*
X293872D01*
X272547Y247792D02*
X293594D01*
X272547Y246892D02*
X293594D01*
X272547Y245992D02*
X293594D01*
X272547Y245092D02*
X293594D01*
X272547Y244192D02*
X293594D01*
X272547Y243292D02*
X293594D01*
X272547Y242392D02*
X293594D01*
X272547Y238792D02*
X293460D01*
X272547Y241492D02*
X293438D01*
X272547Y248692D02*
X293196D01*
X272547Y250492D02*
X293184D01*
X272547Y239692D02*
X293052D01*
X272547Y240592D02*
X293046D01*
X272547Y249592D02*
X293004D01*
X229634Y119092D02*
X285834D01*
X279925Y113692D02*
X285523D01*
X230021Y118192D02*
X284433D01*
X267960Y114592D02*
X284346D01*
X272547Y268492D02*
X284286D01*
X272547Y272092D02*
X284188D01*
X230366Y117292D02*
X283916D01*
X272547Y276592D02*
X283887D01*
X267259Y115492D02*
X283880D01*
X272547Y263992D02*
X283825D01*
X230401Y116392D02*
X283752D01*
X228697Y127192D02*
X283466D01*
X272547Y267592D02*
X283042D01*
X272547Y272992D02*
X283018D01*
X238295Y141592D02*
X282965D01*
X238295Y140692D02*
X282965D01*
X238295Y139792D02*
X282965D01*
X238294Y138892D02*
X282965D01*
X238047Y137992D02*
X282965D01*
X237271Y137092D02*
X282965D01*
X236371Y136192D02*
X282965D01*
X235471Y135292D02*
X282965D01*
X234571Y134392D02*
X282965D01*
X233671Y133492D02*
X282965D01*
X232771Y132592D02*
X282965D01*
X231871Y131692D02*
X282965D01*
X230971Y130792D02*
X282962D01*
X238295Y142492D02*
X282957D01*
X272547Y275692D02*
X282930D01*
X272547Y264892D02*
X282910D01*
X279802Y150592D02*
X282772D01*
X272547Y266692D02*
X282633D01*
X229363Y128092D02*
X282627D01*
X272547Y273892D02*
X282626D01*
X272547Y274792D02*
X282601D01*
X272547Y265792D02*
X282596D01*
X230390Y129892D02*
X282504D01*
X230097Y128992D02*
X282378D01*
X238295Y143392D02*
X282183D01*
X259161Y168592D02*
X281685D01*
X259161Y167692D02*
X281685D01*
X259161Y166792D02*
X281685D01*
X259161Y165892D02*
X281685D01*
X259161Y164992D02*
X281685D01*
X259161Y164092D02*
X281685D01*
X259161Y163192D02*
X281685D01*
X259161Y162292D02*
X281685D01*
X259161Y161392D02*
X281685D01*
X259161Y160492D02*
X281685D01*
X259161Y159592D02*
X281685D01*
X279320Y158692D02*
X281685D01*
X259161Y154192D02*
X281658D01*
X279022Y151492D02*
X281577D01*
X259161Y169492D02*
X281567D01*
X259161Y153292D02*
X281257D01*
X259161Y152392D02*
X281222D01*
X259161Y173992D02*
X281133D01*
X238295Y144292D02*
X280806D01*
X259161Y170392D02*
X280148D01*
X259161Y173092D02*
X279988D01*
X259161Y171292D02*
X279688D01*
X259161Y172192D02*
X279644D01*
X246369Y145192D02*
X279609D01*
X247670Y146992D02*
X279283D01*
X247291Y146092D02*
X279254D01*
X262873Y177592D02*
X279125D01*
X265136Y178492D02*
X278293D01*
X259161Y158692D02*
X278160D01*
X265855Y179392D02*
X278023D01*
X266139Y180292D02*
X277173D01*
X259161Y155092D02*
X276954D01*
X259161Y157792D02*
X276875D01*
X259161Y155992D02*
X276525D01*
X259161Y156892D02*
X276503D01*
X259782Y151492D02*
X276490D01*
X266884Y181192D02*
X276273D01*
X247733Y147892D02*
X276224D01*
X267035Y182092D02*
X275373D01*
X267035Y182992D02*
X274473D01*
X272559Y277492D02*
X273794D01*
X267035Y183892D02*
X273573D01*
X267035Y184792D02*
X272673D01*
X270343Y108292D02*
X271780D01*
X267035Y185692D02*
X271773D01*
X270330Y107392D02*
X271714D01*
X268230Y101992D02*
X271482D01*
X268240Y113692D02*
X271453D01*
X269960Y109192D02*
X271352D01*
X268226Y112792D02*
X271350D01*
X267912Y111892D02*
X271350D01*
X267150Y110992D02*
X271350D01*
X268599Y110092D02*
X271350D01*
X269913Y106492D02*
X271350D01*
X267093Y105592D02*
X271350D01*
X267228Y104692D02*
X271350D01*
X267946Y103792D02*
X271350D01*
X268236Y102892D02*
X271350D01*
X267035Y186592D02*
X270873D01*
X267035Y187492D02*
X269973D01*
X267035Y188392D02*
X269073D01*
X267040Y189292D02*
X268173D01*
X267202Y110092D02*
X267621D01*
X262364D02*
X264755D01*
X261464Y110992D02*
X263559D01*
X230139Y115492D02*
X263450D01*
X260564Y111892D02*
X262796D01*
X229460Y114592D02*
X262749D01*
X259518Y112792D02*
X262483D01*
X259256Y113692D02*
X262469D01*
X259418Y175792D02*
X259928D01*
X247501Y148792D02*
X257775D01*
X246875Y149692D02*
X256650D01*
X254683Y225292D02*
X256193D01*
X245339Y224392D02*
X256193D01*
X245382Y223492D02*
X256193D01*
X245382Y222592D02*
X256193D01*
X245382Y221692D02*
X256193D01*
X245622Y220792D02*
X256193D01*
X246446Y219892D02*
X256193D01*
X255313Y226192D02*
X256072D01*
X255281Y218992D02*
X256049D01*
X242232Y270292D02*
X255996D01*
X242232Y269392D02*
X255996D01*
X238296Y150592D02*
X255906D01*
X237902Y185692D02*
X255799D01*
X252471Y184792D02*
X255799D01*
X252972Y183892D02*
X255799D01*
X253440Y182992D02*
X255799D01*
X254340Y182092D02*
X255799D01*
X247131Y168592D02*
X255799D01*
X246760Y167692D02*
X255799D01*
X246760Y166792D02*
X255799D01*
X246760Y165892D02*
X255799D01*
X246769Y164992D02*
X255799D01*
X247398Y164092D02*
X255799D01*
X247472Y163192D02*
X255799D01*
X247472Y162292D02*
X255799D01*
X247472Y161392D02*
X255799D01*
X247472Y160492D02*
X255799D01*
X247444Y159592D02*
X255799D01*
X247011Y158692D02*
X255799D01*
X247429Y157792D02*
X255799D01*
X247472Y156892D02*
X255799D01*
X247472Y155992D02*
X255799D01*
X247472Y155092D02*
X255799D01*
X247472Y154192D02*
X255799D01*
X247418Y153292D02*
X255799D01*
X246402Y152392D02*
X255799D01*
X238295Y151492D02*
X255799D01*
X255190Y181192D02*
X255408D01*
X242232Y268492D02*
X254396D01*
X242232Y238792D02*
X254028D01*
X242232Y237892D02*
X254028D01*
X242022Y236992D02*
X254028D01*
X240298Y236092D02*
X254028D01*
X240264Y235192D02*
X254028D01*
X240264Y234292D02*
X254028D01*
X240264Y233392D02*
X254028D01*
X240264Y232492D02*
X254028D01*
X240264Y231592D02*
X254028D01*
X240259Y230692D02*
X254028D01*
X252365Y239692D02*
X254025D01*
X239905Y229792D02*
X253596D01*
X246703Y218992D02*
X253380D01*
X237902Y186592D02*
X253236D01*
X242232Y267592D02*
X253224D01*
X242232Y266692D02*
X252874D01*
X248925Y214492D02*
X252650D01*
X248925Y213592D02*
X252650D01*
X248925Y212692D02*
X252650D01*
X248925Y211792D02*
X252650D01*
X248925Y210892D02*
X252650D01*
X248925Y209992D02*
X252650D01*
X248925Y209092D02*
X252650D01*
X248925Y208192D02*
X252650D01*
X248925Y207292D02*
X252650D01*
X248925Y206392D02*
X252650D01*
X248925Y205492D02*
X252650D01*
X248925Y204592D02*
X252650D01*
X248925Y203692D02*
X252650D01*
X248748Y202792D02*
X252650D01*
X247971Y201892D02*
X252650D01*
X247071Y200992D02*
X252650D01*
X246488Y200092D02*
X252650D01*
X246188Y199192D02*
X252650D01*
X246095Y192892D02*
X252650D01*
X238477Y191992D02*
X252650D01*
X238400Y191092D02*
X252650D01*
X246298Y198292D02*
X252649D01*
X237932Y190192D02*
X252639D01*
X248925Y215392D02*
X252619D01*
X247621Y218092D02*
X252379D01*
X237902Y187492D02*
X252338D01*
X241919Y265792D02*
X252194D01*
X237902Y189292D02*
X252173D01*
X248913Y216292D02*
X252150D01*
X248515Y217192D02*
X252074D01*
X237902Y188392D02*
X252067D01*
X241181Y228892D02*
X251942D01*
X237902Y179392D02*
X251665D01*
X237902Y178492D02*
X251665D01*
X237902Y177592D02*
X251665D01*
X237902Y176692D02*
X251665D01*
X238265Y175792D02*
X251665D01*
X238490Y174892D02*
X251665D01*
X238343Y173992D02*
X251665D01*
X237970Y173092D02*
X251665D01*
X244802Y225292D02*
X251616D01*
X242232Y239692D02*
X251572D01*
X190920Y264892D02*
X251552D01*
X247487Y169492D02*
X251537D01*
X246615Y172192D02*
X251502D01*
X190462Y263992D02*
X251468D01*
X190748Y263092D02*
X251468D01*
X191026Y262192D02*
X251468D01*
X191004Y261292D02*
X251468D01*
X190675Y260392D02*
X251468D01*
X189867Y259492D02*
X251468D01*
X172370Y258592D02*
X251468D01*
X172991Y257692D02*
X251468D01*
X173136Y256792D02*
X251468D01*
X172907Y255892D02*
X251468D01*
X172115Y254992D02*
X251468D01*
X167823Y254092D02*
X251468D01*
X167823Y253192D02*
X251468D01*
X167823Y252292D02*
X251468D01*
X167823Y251392D02*
X251468D01*
X167823Y250492D02*
X251468D01*
X167823Y249592D02*
X251468D01*
X174007Y248692D02*
X251468D01*
X174587Y247792D02*
X251468D01*
X174707Y246892D02*
X251468D01*
X174453Y245992D02*
X251468D01*
X229155Y245092D02*
X251468D01*
X237902Y180292D02*
X251385D01*
X230011Y244192D02*
X251351D01*
X247530Y170392D02*
X251125D01*
X242102Y227992D02*
X251122D01*
X247277Y171292D02*
X251115D01*
X224480Y108292D02*
X251110D01*
X224546Y107392D02*
X251044D01*
X243902Y226192D02*
X251015D01*
X243002Y227092D02*
X250881D01*
X224778Y101992D02*
X250812D01*
X224807Y113692D02*
X250784D01*
X224908Y109192D02*
X250682D01*
X224909Y112792D02*
X250681D01*
X224909Y111892D02*
X250681D01*
X224909Y110992D02*
X250681D01*
X224909Y110092D02*
X250681D01*
X224909Y106492D02*
X250681D01*
X224909Y105592D02*
X250681D01*
X224909Y104692D02*
X250681D01*
X224909Y103792D02*
X250681D01*
X224909Y102892D02*
X250681D01*
X242141Y243292D02*
X250151D01*
X242232Y240592D02*
X250132D01*
X237902Y181192D02*
X249864D01*
X242232Y242392D02*
X249745D01*
X242232Y241492D02*
X249739D01*
X237902Y184792D02*
X249103D01*
X237902Y182092D02*
X248843D01*
X237902Y183892D02*
X248603D01*
X237902Y182992D02*
X248532D01*
X241842Y145192D02*
X243395D01*
X238295Y152392D02*
X242968D01*
X242365Y149692D02*
X242871D01*
X238644Y172192D02*
X242755D01*
X238626Y167692D02*
X242610D01*
X239008Y166792D02*
X242610D01*
X239072Y165892D02*
X242610D01*
X238842Y164992D02*
X242601D01*
X238295Y158692D02*
X242359D01*
X238243Y168592D02*
X242239D01*
X239014Y171292D02*
X242093D01*
X238308Y164092D02*
X241972D01*
X238295Y153292D02*
X241952D01*
X238295Y157792D02*
X241941D01*
X238295Y159592D02*
X241926D01*
X238295Y163192D02*
X241898D01*
X238295Y162292D02*
X241898D01*
X238295Y161392D02*
X241898D01*
X238295Y160492D02*
X241898D01*
X238295Y156892D02*
X241898D01*
X238295Y155992D02*
X241898D01*
X238295Y155092D02*
X241898D01*
X238295Y154192D02*
X241898D01*
X238830Y169492D02*
X241884D01*
X239069Y170392D02*
X241840D01*
X238174Y192892D02*
X241307D01*
X191051Y265792D02*
X234892D01*
X230363Y243292D02*
X234671D01*
X139358Y270292D02*
X234579D01*
X139358Y269392D02*
X234579D01*
X189002Y268492D02*
X234579D01*
X190378Y267592D02*
X234579D01*
X190891Y266692D02*
X234579D01*
X230403Y242392D02*
X234579D01*
X230146Y241492D02*
X234579D01*
X229477Y240592D02*
X234579D01*
X215855Y239692D02*
X234579D01*
X215228Y238792D02*
X234579D01*
X187902Y189292D02*
X234539D01*
X187902Y188392D02*
X234539D01*
X202196Y187492D02*
X234539D01*
X203187Y186592D02*
X234539D01*
X204087Y185692D02*
X234539D01*
X204857Y184792D02*
X234539D01*
X205028Y183892D02*
X234539D01*
X205028Y182992D02*
X234539D01*
X205028Y182092D02*
X234539D01*
X205028Y181192D02*
X234539D01*
X205028Y180292D02*
X234539D01*
X205028Y179392D02*
X234539D01*
X205028Y178492D02*
X234539D01*
X205028Y177592D02*
X234539D01*
X205028Y176692D02*
X234539D01*
X187902Y190192D02*
X234509D01*
X205028Y173092D02*
X234471D01*
X205028Y168592D02*
X234198D01*
X205028Y175792D02*
X234176D01*
X205028Y163192D02*
X234146D01*
X205028Y162292D02*
X234146D01*
X205028Y161392D02*
X234146D01*
X205028Y160492D02*
X234146D01*
X205028Y159592D02*
X234146D01*
X205028Y158692D02*
X234146D01*
X205028Y157792D02*
X234146D01*
X205028Y156892D02*
X234146D01*
X205028Y155992D02*
X234146D01*
X205028Y155092D02*
X234146D01*
X205028Y154192D02*
X234146D01*
X205028Y153292D02*
X234146D01*
X205028Y152392D02*
X234146D01*
X205028Y151492D02*
X234146D01*
X205028Y150592D02*
X234146D01*
X205028Y149692D02*
X234146D01*
X205028Y148792D02*
X234146D01*
X205028Y147892D02*
X234146D01*
X205028Y146992D02*
X234146D01*
X205028Y146092D02*
X234146D01*
X205028Y145192D02*
X234146D01*
X205028Y144292D02*
X234146D01*
X205028Y143392D02*
X234146D01*
X205028Y142492D02*
X234146D01*
X205028Y141592D02*
X234146D01*
X205028Y140692D02*
X234146D01*
X205028Y164092D02*
X234133D01*
X205028Y173992D02*
X234098D01*
X205028Y139792D02*
X234078D01*
X188211Y191092D02*
X234041D01*
X188282Y191992D02*
X233964D01*
X205028Y174892D02*
X233951D01*
X205028Y167692D02*
X233815D01*
X205028Y172192D02*
X233797D01*
X205028Y169492D02*
X233611D01*
X205028Y164992D02*
X233599D01*
X205028Y166792D02*
X233433D01*
X205028Y171292D02*
X233427D01*
X205028Y170392D02*
X233372D01*
X205028Y165892D02*
X233369D01*
X205028Y138892D02*
X233202D01*
X229559Y192892D02*
X233039D01*
X205028Y137992D02*
X232302D01*
X205028Y137092D02*
X231402D01*
X205028Y136192D02*
X230502D01*
X205028Y135292D02*
X229602D01*
X205028Y134392D02*
X228702D01*
X205028Y133492D02*
X227802D01*
X187902Y127192D02*
X226421D01*
X204100Y205492D02*
X226062D01*
X224234Y245092D02*
X225963D01*
X205432Y132592D02*
X225825D01*
X187902Y128092D02*
X225756D01*
X212841Y114592D02*
X225658D01*
X224583Y240592D02*
X225613D01*
X184143Y121792D02*
X225484D01*
X179756Y120892D02*
X225484D01*
X179756Y119992D02*
X225484D01*
X184493Y119092D02*
X225484D01*
X204525Y206392D02*
X225443D01*
X187845Y126292D02*
X225403D01*
X185155Y122692D02*
X225269D01*
X185336Y118192D02*
X225097D01*
X205618Y131692D02*
X225050D01*
X187902Y128992D02*
X225021D01*
X212141Y115492D02*
X224979D01*
X204625Y207292D02*
X224969D01*
X220792Y220792D02*
X224948D01*
X204432Y208192D02*
X224916D01*
X187377Y125392D02*
X224871D01*
X221228Y214492D02*
X224835D01*
X185582Y123592D02*
X224816D01*
X204756Y192892D02*
X224771D01*
X185681Y117292D02*
X224752D01*
X205432Y130792D02*
X224737D01*
X204732Y129892D02*
X224728D01*
X185716Y116392D02*
X224717D01*
X186482Y124492D02*
X224698D01*
X204849Y199192D02*
X224678D01*
X204891Y204592D02*
X224636D01*
X204959Y198292D02*
X224568D01*
X221594Y209092D02*
X224469D01*
X221629Y215392D02*
X224434D01*
X221643Y219892D02*
X224420D01*
X221665Y213592D02*
X224398D01*
X205149Y193792D02*
X224378D01*
X221685Y218992D02*
X224378D01*
X221685Y218092D02*
X224378D01*
X221685Y217192D02*
X224378D01*
X221685Y216292D02*
X224378D01*
X221685Y212692D02*
X224378D01*
X221685Y211792D02*
X224378D01*
X221685Y210892D02*
X224378D01*
X221685Y209992D02*
X224378D01*
X205150Y203692D02*
X224378D01*
X205150Y202792D02*
X224378D01*
X205150Y201892D02*
X224378D01*
X205150Y200992D02*
X224378D01*
X205150Y200092D02*
X224378D01*
X205150Y197392D02*
X224378D01*
X205150Y196492D02*
X224378D01*
X205150Y195592D02*
X224378D01*
X205150Y194692D02*
X224378D01*
X213997Y221692D02*
X224355D01*
X173598Y245092D02*
X221042D01*
X216795Y240592D02*
X220692D01*
X214793Y222592D02*
X217156D01*
X213142Y220792D02*
X217003D01*
X211714Y108292D02*
X216661D01*
X211475Y107392D02*
X216596D01*
X212960Y214492D02*
X216567D01*
X213112Y101992D02*
X216363D01*
X213122Y113692D02*
X216335D01*
X215063Y223492D02*
X216256D01*
X211611Y109192D02*
X216234D01*
X213108Y112792D02*
X216232D01*
X212794Y111892D02*
X216232D01*
X212032Y110992D02*
X216232D01*
X211178Y110092D02*
X216232D01*
X210737Y106492D02*
X216232D01*
X210226Y105592D02*
X216232D01*
X212110Y104692D02*
X216232D01*
X212828Y103792D02*
X216232D01*
X213118Y102892D02*
X216232D01*
X213327Y209092D02*
X216201D01*
X213385Y215392D02*
X216142D01*
X213397Y213592D02*
X216130D01*
X213417Y212692D02*
X216110D01*
X213417Y211792D02*
X216110D01*
X213417Y210892D02*
X216110D01*
X213417Y209992D02*
X216110D01*
X213427Y219892D02*
X216100D01*
X174802Y244192D02*
X214487D01*
X176423Y243292D02*
X213586D01*
X176830Y242392D02*
X212686D01*
X176836Y241492D02*
X211786D01*
X176443Y240592D02*
X211090D01*
X175003Y239692D02*
X210917D01*
X173532Y238792D02*
X210915D01*
X204579Y220792D02*
X208512D01*
X185454Y115492D02*
X208331D01*
X207770Y221692D02*
X208329D01*
X204693Y214492D02*
X208300D01*
X204240Y110992D02*
X208204D01*
X205059Y209092D02*
X207933D01*
X205094Y215392D02*
X207898D01*
X205108Y219892D02*
X207884D01*
X205130Y213592D02*
X207862D01*
X205150Y218992D02*
X207842D01*
X205150Y218092D02*
X207842D01*
X205150Y217192D02*
X207842D01*
X205150Y216292D02*
X207842D01*
X205150Y212692D02*
X207842D01*
X205150Y211792D02*
X207842D01*
X205150Y210892D02*
X207842D01*
X205150Y209992D02*
X207842D01*
X204240Y111892D02*
X207678D01*
X184775Y114592D02*
X207631D01*
X204240Y110092D02*
X207396D01*
X204240Y112792D02*
X207365D01*
X204138Y113692D02*
X207351D01*
X204239Y109192D02*
X206893D01*
X203811Y108292D02*
X206146D01*
X203877Y107392D02*
X205246D01*
X187902Y129892D02*
X201961D01*
X187902Y182992D02*
X201665D01*
X187902Y182092D02*
X201665D01*
X187902Y181192D02*
X201665D01*
X187902Y180292D02*
X201665D01*
X187902Y179392D02*
X201665D01*
X187902Y178492D02*
X201665D01*
X187902Y177592D02*
X201665D01*
X198258Y176692D02*
X201665D01*
X187902Y162292D02*
X201665D01*
X187902Y161392D02*
X201665D01*
X187902Y160492D02*
X201665D01*
X187902Y159592D02*
X201665D01*
X187902Y158692D02*
X201665D01*
X187902Y157792D02*
X201665D01*
X191633Y156892D02*
X201665D01*
X192330Y155992D02*
X201665D01*
X192602Y155092D02*
X201665D01*
X192576Y154192D02*
X201665D01*
X192361Y153292D02*
X201665D01*
X195734Y152392D02*
X201665D01*
X196450Y151492D02*
X201665D01*
X196732Y150592D02*
X201665D01*
X196715Y149692D02*
X201665D01*
X196392Y148792D02*
X201665D01*
X195595Y147892D02*
X201665D01*
X187902Y146992D02*
X201665D01*
X187902Y146092D02*
X201665D01*
X187902Y145192D02*
X201665D01*
X198327Y144292D02*
X201665D01*
X199379Y143392D02*
X201665D01*
X199807Y142492D02*
X201665D01*
X199906Y141592D02*
X201665D01*
X199714Y140692D02*
X201665D01*
X199152Y139792D02*
X201665D01*
X197404Y138892D02*
X201665D01*
X187902Y137992D02*
X201665D01*
X187902Y137092D02*
X201665D01*
X187902Y136192D02*
X201665D01*
X187902Y135292D02*
X201665D01*
X187902Y134392D02*
X201665D01*
X187902Y133492D02*
X201665D01*
X200601Y175792D02*
X201645D01*
X187902Y130792D02*
X201261D01*
X187902Y132592D02*
X201260D01*
X199212Y183892D02*
X201132D01*
X187902Y131692D02*
X201075D01*
X196488Y192892D02*
X199968D01*
X187902Y163192D02*
X199696D01*
X187902Y172192D02*
X198713D01*
X187902Y171292D02*
X198713D01*
X187902Y170392D02*
X198713D01*
X187902Y169492D02*
X198713D01*
X187902Y168592D02*
X198713D01*
X187902Y167692D02*
X198713D01*
X187902Y166792D02*
X198632D01*
X197887Y173092D02*
X198533D01*
X187902Y164092D02*
X198505D01*
X187902Y165892D02*
X198187D01*
X187902Y164992D02*
X198151D01*
X187902Y183892D02*
X197639D01*
X189885Y237892D02*
X197437D01*
X190162Y229792D02*
X197320D01*
X190191Y228892D02*
X197231D01*
X190627Y236992D02*
X197138D01*
X190658Y236092D02*
X197138D01*
X190658Y235192D02*
X197138D01*
X190658Y234292D02*
X197138D01*
X190658Y233392D02*
X197138D01*
X190658Y232492D02*
X197138D01*
X190658Y231592D02*
X197138D01*
X190652Y230692D02*
X197138D01*
X187902Y187492D02*
X196692D01*
X192877Y138892D02*
X196690D01*
X187902Y184792D02*
X196516D01*
X187902Y186592D02*
X196226D01*
X187902Y185692D02*
X196178D01*
X193800Y144292D02*
X195767D01*
X169428Y107392D02*
X195766D01*
X169660Y101992D02*
X195694D01*
X169689Y113692D02*
X195665D01*
X169791Y106492D02*
X195563D01*
X169791Y105592D02*
X195563D01*
X169791Y104692D02*
X195563D01*
X169791Y103792D02*
X195563D01*
X169791Y102892D02*
X195563D01*
X187902Y173092D02*
X195420D01*
X169791Y112792D02*
X195268D01*
X187902Y176692D02*
X195138D01*
X187902Y173992D02*
X194618D01*
X187902Y175792D02*
X194525D01*
X187902Y174892D02*
X194384D01*
X169791Y111892D02*
X193371D01*
X169362Y108292D02*
X193233D01*
X169791Y110992D02*
X192623D01*
X169790Y109192D02*
X192577D01*
X169791Y110092D02*
X192414D01*
X191461Y147892D02*
X192200D01*
X187902Y138892D02*
X192163D01*
X188235Y192892D02*
X191701D01*
X187902Y144292D02*
X191240D01*
X187902Y139792D02*
X190415D01*
X187902Y143392D02*
X190188D01*
X187902Y140692D02*
X189853D01*
X187902Y142492D02*
X189760D01*
X187902Y141592D02*
X189661D01*
X176287Y228892D02*
X187524D01*
X139355Y268492D02*
X187376D01*
X176287Y227992D02*
X186639D01*
X151173Y259492D02*
X186511D01*
X138898Y267592D02*
X186000D01*
X136562Y263992D02*
X185916D01*
X176287Y227092D02*
X185739D01*
X151282Y260392D02*
X185703D01*
X135499Y263092D02*
X185630D01*
X138246Y266692D02*
X185487D01*
X137462Y264892D02*
X185458D01*
X151050Y261292D02*
X185374D01*
X150325Y262192D02*
X185352D01*
X138108Y265792D02*
X185327D01*
X176287Y226192D02*
X184839D01*
X176287Y225292D02*
X184218D01*
X176287Y224392D02*
X184146D01*
X176287Y223492D02*
X184146D01*
X176287Y222592D02*
X184146D01*
X176287Y221692D02*
X184146D01*
X176287Y220792D02*
X183906D01*
X176287Y190192D02*
X183752D01*
X176287Y189292D02*
X183752D01*
X176287Y188392D02*
X183752D01*
X176287Y187492D02*
X183752D01*
X176287Y186592D02*
X183752D01*
X176287Y185692D02*
X183752D01*
X176287Y184792D02*
X183752D01*
X176287Y183892D02*
X183752D01*
X176287Y182992D02*
X183752D01*
X176287Y182092D02*
X183752D01*
X176287Y181192D02*
X183752D01*
X176287Y180292D02*
X183752D01*
X176287Y179392D02*
X183752D01*
X176287Y178492D02*
X183752D01*
X176287Y177592D02*
X183752D01*
X176287Y176692D02*
X183752D01*
X176094Y175792D02*
X183752D01*
X175301Y174892D02*
X183752D01*
X174401Y173992D02*
X183752D01*
X178923Y173092D02*
X183752D01*
X179372Y172192D02*
X183752D01*
X179408Y171292D02*
X183752D01*
X179055Y170392D02*
X183752D01*
X177865Y169492D02*
X183752D01*
X177272Y168592D02*
X183752D01*
X177272Y167692D02*
X183752D01*
X177272Y166792D02*
X183752D01*
X177272Y165892D02*
X183752D01*
X177272Y164992D02*
X183752D01*
X177321Y164092D02*
X183752D01*
X177783Y163192D02*
X183752D01*
X177842Y162292D02*
X183752D01*
X177516Y161392D02*
X183752D01*
X176442Y160492D02*
X183752D01*
X170382Y159592D02*
X183752D01*
X170382Y158692D02*
X183752D01*
X170382Y157792D02*
X183752D01*
X170382Y156892D02*
X183752D01*
X170382Y155992D02*
X183752D01*
X170382Y155092D02*
X183752D01*
X170382Y154192D02*
X183752D01*
X170382Y153292D02*
X183752D01*
X170382Y152392D02*
X183752D01*
X170382Y151492D02*
X183752D01*
X170382Y150592D02*
X183752D01*
X170382Y149692D02*
X183752D01*
X170382Y148792D02*
X183752D01*
X170382Y147892D02*
X183752D01*
X170382Y146992D02*
X183752D01*
X170382Y146092D02*
X183752D01*
X170382Y145192D02*
X183752D01*
X170382Y144292D02*
X183752D01*
X170382Y143392D02*
X183752D01*
X170382Y142492D02*
X183752D01*
X170382Y141592D02*
X183752D01*
X170382Y140692D02*
X183752D01*
X170382Y139792D02*
X183752D01*
X170382Y138892D02*
X183752D01*
X170382Y137992D02*
X183752D01*
X170382Y137092D02*
X183752D01*
X170382Y136192D02*
X183752D01*
X170382Y135292D02*
X183752D01*
X170382Y134392D02*
X183752D01*
X170382Y133492D02*
X183752D01*
X170382Y132592D02*
X183752D01*
X170382Y131692D02*
X183752D01*
X170461Y130792D02*
X183752D01*
X179662Y129892D02*
X183752D01*
X179756Y128992D02*
X183752D01*
X179756Y128092D02*
X183752D01*
X176287Y191092D02*
X183443D01*
X176287Y192892D02*
X183419D01*
X176287Y191992D02*
X183372D01*
X176287Y199192D02*
X183340D01*
X179756Y127192D02*
X183313D01*
X176287Y198292D02*
X183230D01*
X176287Y219892D02*
X183081D01*
X176287Y193792D02*
X183040D01*
X176287Y200092D02*
X183039D01*
X176287Y197392D02*
X183039D01*
X176287Y196492D02*
X183039D01*
X176287Y195592D02*
X183039D01*
X176287Y194692D02*
X183039D01*
X176287Y200992D02*
X182457D01*
X176287Y218992D02*
X182430D01*
X173600Y237892D02*
X182162D01*
X179756Y126292D02*
X182117D01*
X179756Y121792D02*
X181998D01*
X176287Y229792D02*
X181885D01*
X176287Y201892D02*
X181557D01*
X176287Y218092D02*
X181513D01*
X176258Y236992D02*
X181421D01*
X176287Y230692D02*
X181395D01*
X176780Y236092D02*
X181390D01*
X176865Y235192D02*
X181390D01*
X176571Y234292D02*
X181390D01*
X176287Y233392D02*
X181390D01*
X176287Y232492D02*
X181390D01*
X176287Y231592D02*
X181390D01*
X179716Y119092D02*
X181255D01*
X179737Y125392D02*
X181022D01*
X179756Y122692D02*
X180987D01*
X157791Y114592D02*
X180973D01*
X176287Y202792D02*
X180779D01*
X176287Y217192D02*
X180758D01*
X179300Y124492D02*
X180649D01*
X176287Y216292D02*
X180602D01*
X176287Y215392D02*
X180602D01*
X176287Y214492D02*
X180602D01*
X176287Y213592D02*
X180602D01*
X176287Y212692D02*
X180602D01*
X176287Y211792D02*
X180602D01*
X176287Y210892D02*
X180602D01*
X176287Y209992D02*
X180602D01*
X176287Y209092D02*
X180602D01*
X176287Y208192D02*
X180602D01*
X176287Y207292D02*
X180602D01*
X176287Y206392D02*
X180602D01*
X176287Y205492D02*
X180602D01*
X176287Y204592D02*
X180602D01*
X176287Y203692D02*
X180602D01*
X179736Y123592D02*
X180471D01*
X178888Y118192D02*
X180412D01*
X159994Y115492D02*
X180294D01*
X161705Y117292D02*
X180067D01*
X160896Y116392D02*
X180032D01*
X173501Y173092D02*
X175407D01*
X170621Y118192D02*
X175049D01*
X172601Y172192D02*
X174959D01*
X170382Y160492D02*
X174739D01*
X171032Y124492D02*
X174637D01*
X171701Y171292D02*
X174427D01*
X170972Y244192D02*
X174411D01*
X171394Y129892D02*
X174275D01*
X171430Y123592D02*
X174239D01*
X171449Y119092D02*
X174221D01*
X173874Y239692D02*
X174209D01*
X171470Y125392D02*
X174200D01*
X171488Y128992D02*
X174181D01*
X171488Y128092D02*
X174181D01*
X171488Y127192D02*
X174181D01*
X171488Y126292D02*
X174181D01*
X170801Y170392D02*
X173939D01*
X170382Y169492D02*
X173909D01*
X170382Y168592D02*
X173909D01*
X170382Y167692D02*
X173909D01*
X170382Y166792D02*
X173909D01*
X170382Y165892D02*
X173909D01*
X170382Y164992D02*
X173909D01*
X170382Y164092D02*
X173860D01*
X170382Y161392D02*
X173665D01*
X170382Y163192D02*
X173398D01*
X170382Y162292D02*
X173340D01*
X170972Y182992D02*
X172925D01*
X170972Y182092D02*
X172925D01*
X171387Y181192D02*
X172925D01*
X171563Y180292D02*
X172925D01*
X171367Y179392D02*
X172925D01*
X170647Y178492D02*
X172925D01*
X101287Y177592D02*
X172925D01*
X101287Y176692D02*
X172346D01*
X170972Y243292D02*
X172245D01*
X126442Y175792D02*
X171446D01*
X126484Y174892D02*
X170546D01*
X167823Y248692D02*
X170520D01*
X126484Y173992D02*
X169646D01*
X168000Y254992D02*
X169617D01*
X150660Y258592D02*
X169301D01*
X167823Y247792D02*
X169234D01*
X126484Y173092D02*
X168746D01*
X101287Y178492D02*
X167935D01*
X126484Y172192D02*
X167846D01*
X157795Y179392D02*
X167215D01*
X126484Y171292D02*
X167139D01*
X162905Y180292D02*
X167020D01*
X126484Y170392D02*
X167020D01*
X126484Y169492D02*
X167020D01*
X126484Y168592D02*
X167020D01*
X126484Y167692D02*
X167020D01*
X126484Y166792D02*
X167020D01*
X126484Y165892D02*
X167020D01*
X126484Y164992D02*
X167020D01*
X126484Y164092D02*
X167020D01*
X126484Y163192D02*
X167020D01*
X126484Y162292D02*
X167020D01*
X126484Y161392D02*
X167020D01*
X126484Y160492D02*
X167020D01*
X126484Y159592D02*
X167020D01*
X126484Y158692D02*
X167020D01*
X126484Y157792D02*
X167020D01*
X126484Y156892D02*
X167020D01*
X126484Y155992D02*
X167020D01*
X126484Y155092D02*
X167020D01*
X126484Y154192D02*
X167020D01*
X126484Y153292D02*
X167020D01*
X126484Y152392D02*
X167020D01*
X126484Y151492D02*
X167020D01*
X126484Y150592D02*
X167020D01*
X126484Y149692D02*
X167020D01*
X126484Y148792D02*
X167020D01*
X126484Y147892D02*
X167020D01*
X126484Y146992D02*
X167020D01*
X126484Y146092D02*
X167020D01*
X126484Y145192D02*
X167020D01*
X126484Y144292D02*
X167020D01*
X126484Y143392D02*
X167020D01*
X126484Y142492D02*
X167020D01*
X101607Y141592D02*
X167020D01*
X101287Y140692D02*
X167020D01*
X101287Y139792D02*
X167020D01*
X101287Y138892D02*
X167020D01*
X101287Y137992D02*
X167020D01*
X101287Y137092D02*
X167020D01*
X101287Y136192D02*
X167020D01*
X101287Y135292D02*
X167020D01*
X101287Y134392D02*
X167020D01*
X162287Y133492D02*
X167020D01*
X162880Y132592D02*
X167020D01*
X163092Y131692D02*
X167020D01*
X163011Y130792D02*
X166941D01*
X162164Y118192D02*
X166781D01*
X162568Y124492D02*
X166369D01*
X162930Y129892D02*
X166007D01*
X162965Y123592D02*
X165972D01*
X162984Y119092D02*
X165953D01*
X139358Y257692D02*
X165945D01*
X163005Y125392D02*
X165932D01*
X163024Y128992D02*
X165913D01*
X163024Y128092D02*
X165913D01*
X163024Y127192D02*
X165913D01*
X163024Y126292D02*
X165913D01*
X163804Y181192D02*
X165218D01*
X139358Y256792D02*
X165045D01*
X139358Y255892D02*
X164504D01*
X139343Y254992D02*
X164461D01*
X138739Y254092D02*
X164461D01*
X132046Y253192D02*
X164461D01*
X132046Y252292D02*
X164461D01*
X132082Y251392D02*
X164461D01*
X139227Y250492D02*
X164461D01*
X139358Y249592D02*
X164461D01*
X139358Y248692D02*
X164461D01*
X139358Y247792D02*
X164461D01*
X139358Y246892D02*
X164461D01*
X138958Y245992D02*
X164461D01*
X138295Y245092D02*
X164461D01*
X138295Y244192D02*
X164461D01*
X138776Y243292D02*
X164461D01*
X139676Y242392D02*
X164461D01*
X140576Y241492D02*
X164461D01*
X141476Y240592D02*
X164461D01*
X142304Y239692D02*
X164461D01*
X142615Y238792D02*
X164461D01*
X142626Y237892D02*
X164461D01*
X142688Y236992D02*
X164461D01*
X142819Y236092D02*
X164461D01*
X142577Y235192D02*
X164461D01*
X141752Y234292D02*
X164461D01*
X117530Y233392D02*
X164461D01*
X118774Y232492D02*
X164461D01*
X119258Y231592D02*
X164461D01*
X119398Y230692D02*
X164461D01*
X148841Y229792D02*
X164461D01*
X150264Y228892D02*
X164461D01*
X150655Y227992D02*
X164461D01*
X150648Y227092D02*
X164461D01*
X150240Y226192D02*
X164461D01*
X148576Y225292D02*
X164461D01*
X135431Y224392D02*
X164461D01*
X134531Y223492D02*
X164461D01*
X133631Y222592D02*
X164461D01*
X132731Y221692D02*
X164461D01*
X131831Y220792D02*
X164461D01*
X131602Y219892D02*
X164461D01*
X131604Y218992D02*
X164461D01*
X132059Y218092D02*
X164461D01*
X132189Y217192D02*
X164461D01*
X131946Y216292D02*
X164461D01*
X131119Y215392D02*
X164461D01*
X114319Y214492D02*
X164461D01*
X115102Y213592D02*
X164461D01*
X115419Y212692D02*
X164461D01*
X115431Y211792D02*
X164461D01*
X115142Y210892D02*
X164461D01*
X114414Y209992D02*
X164461D01*
X101287Y209092D02*
X164461D01*
X101287Y208192D02*
X164461D01*
X101287Y207292D02*
X164461D01*
X101287Y206392D02*
X164461D01*
X101287Y205492D02*
X164461D01*
X101287Y204592D02*
X164461D01*
X157779Y203692D02*
X164461D01*
X158416Y202792D02*
X164461D01*
X158570Y201892D02*
X164461D01*
X158350Y200992D02*
X164461D01*
X157980Y200092D02*
X164461D01*
X157980Y199192D02*
X164461D01*
X157980Y198292D02*
X164461D01*
X163291Y197392D02*
X164460D01*
X155779Y108292D02*
X161543D01*
X155768Y107392D02*
X161477D01*
X157994Y101992D02*
X161245D01*
X158004Y113692D02*
X161217D01*
X155433Y109192D02*
X161116D01*
X157990Y112792D02*
X161114D01*
X157676Y111892D02*
X161114D01*
X156913Y110992D02*
X161114D01*
X155058Y110092D02*
X161114D01*
X155392Y106492D02*
X161114D01*
X155091Y105592D02*
X161114D01*
X156991Y104692D02*
X161114D01*
X157710Y103792D02*
X161114D01*
X158000Y102892D02*
X161114D01*
X158422Y180292D02*
X160717D01*
X157980Y197392D02*
X160331D01*
X157980Y193792D02*
X160130D01*
X157980Y192892D02*
X160130D01*
X157980Y191992D02*
X160130D01*
X157980Y191092D02*
X160130D01*
X157980Y190192D02*
X160130D01*
X157980Y189292D02*
X160130D01*
X157980Y188392D02*
X160130D01*
X157980Y187492D02*
X160130D01*
X157980Y186592D02*
X160130D01*
X157980Y185692D02*
X160130D01*
X157980Y184792D02*
X160130D01*
X157980Y183892D02*
X160120D01*
X158569Y181192D02*
X159819D01*
X139358Y271192D02*
X159812D01*
X157980Y194692D02*
X159760D01*
X129634Y294592D02*
X159736D01*
X129634Y293692D02*
X159736D01*
X129634Y292792D02*
X159736D01*
X129634Y291892D02*
X159736D01*
X129634Y290992D02*
X159736D01*
X129634Y290092D02*
X159736D01*
X129634Y289192D02*
X159736D01*
X129634Y288292D02*
X159736D01*
X129358Y287392D02*
X159736D01*
X101287Y286492D02*
X159736D01*
X101287Y285592D02*
X159736D01*
X101287Y284692D02*
X159736D01*
X101287Y283792D02*
X159736D01*
X101287Y282892D02*
X159736D01*
X101287Y281992D02*
X159736D01*
X138395Y281092D02*
X159736D01*
X139311Y280192D02*
X159736D01*
X139358Y279292D02*
X159736D01*
X139358Y278392D02*
X159736D01*
X139358Y277492D02*
X159736D01*
X139333Y276592D02*
X159736D01*
X138641Y275692D02*
X159736D01*
X132046Y274792D02*
X159736D01*
X132046Y273892D02*
X159736D01*
X132108Y272992D02*
X159736D01*
X139251Y272092D02*
X159736D01*
X157980Y196492D02*
X159694D01*
X157980Y182992D02*
X159653D01*
X158344Y182092D02*
X159547D01*
X157980Y195592D02*
X159541D01*
X129878Y295492D02*
X159492D01*
X101287Y133492D02*
X158185D01*
X101287Y124492D02*
X157905D01*
X101287Y132592D02*
X157592D01*
X101287Y129892D02*
X157543D01*
X101287Y123592D02*
X157507D01*
X101287Y119092D02*
X157488D01*
X101287Y125392D02*
X157467D01*
X101287Y130792D02*
X157462D01*
X101287Y128992D02*
X157449D01*
X101287Y128092D02*
X157449D01*
X101287Y127192D02*
X157449D01*
X101287Y126292D02*
X157449D01*
X101287Y122692D02*
X157449D01*
X101287Y121792D02*
X157449D01*
X101287Y120892D02*
X157449D01*
X101287Y119992D02*
X157449D01*
X101287Y131692D02*
X157381D01*
X101287Y203692D02*
X154820D01*
X101287Y179392D02*
X154804D01*
X101287Y185692D02*
X154618D01*
X101287Y184792D02*
X154618D01*
X101287Y183892D02*
X154618D01*
X101287Y182992D02*
X154618D01*
X101287Y182092D02*
X154255D01*
X152782Y202792D02*
X154182D01*
X101287Y180292D02*
X154177D01*
X101287Y181192D02*
X154029D01*
X101287Y186592D02*
X152448D01*
X101287Y197392D02*
X151862D01*
X101287Y196492D02*
X151862D01*
X101287Y195592D02*
X151862D01*
X101287Y194692D02*
X151862D01*
X101287Y193792D02*
X151862D01*
X101287Y192892D02*
X151862D01*
X101287Y191992D02*
X151862D01*
X101287Y191092D02*
X151862D01*
X101287Y190192D02*
X151852D01*
X101287Y198292D02*
X151692D01*
X101287Y187492D02*
X151550D01*
X101287Y189292D02*
X151385D01*
X101287Y188392D02*
X151280D01*
X101287Y199192D02*
X150083D01*
X101287Y202792D02*
X149580D01*
X101287Y200092D02*
X149187D01*
X101287Y201892D02*
X149024D01*
X101287Y200992D02*
X148917D01*
X119247Y229792D02*
X148010D01*
X126544Y262192D02*
X147313D01*
X139295Y258592D02*
X146977D01*
X125644Y261292D02*
X146588D01*
X118748Y228892D02*
X146586D01*
X124319Y259492D02*
X146465D01*
X124744Y260392D02*
X146355D01*
X101287Y118192D02*
X145919D01*
X101287Y117292D02*
X144935D01*
X101287Y116392D02*
X144035D01*
X101287Y115492D02*
X143268D01*
X101287Y114592D02*
X142933D01*
X129634Y108292D02*
X140874D01*
X129634Y107392D02*
X140808D01*
X129634Y101992D02*
X140576D01*
X101287Y113692D02*
X140547D01*
X129519Y109192D02*
X140446D01*
X101287Y112792D02*
X140445D01*
X101287Y111892D02*
X140445D01*
X101287Y110992D02*
X140445D01*
X101287Y110092D02*
X140445D01*
X129634Y106492D02*
X140445D01*
X129634Y105592D02*
X140445D01*
X129634Y104692D02*
X140445D01*
X129634Y103792D02*
X140445D01*
X129634Y102892D02*
X140445D01*
X125217Y234292D02*
X139350D01*
X126041Y235192D02*
X138525D01*
X126152Y236992D02*
X138415D01*
X125554Y237892D02*
X138307D01*
X126284Y236092D02*
X138283D01*
X124396Y238792D02*
X137407D01*
X124319Y239692D02*
X136507D01*
X124319Y240592D02*
X135607D01*
X124319Y241492D02*
X134709D01*
X117438Y227992D02*
X134277D01*
X124319Y242392D02*
X134212D01*
X124319Y245092D02*
X134146D01*
X124319Y244192D02*
X134146D01*
X124319Y243292D02*
X134146D01*
X132195Y281092D02*
X133947D01*
X132441Y275692D02*
X133700D01*
X132539Y254092D02*
X133603D01*
X132760Y245992D02*
X133381D01*
X114624Y227092D02*
X133376D01*
X114624Y226192D02*
X132476D01*
X114726Y225292D02*
X131576D01*
X115654Y224392D02*
X130676D01*
X115736Y223492D02*
X129776D01*
X115736Y222592D02*
X128876D01*
X108726Y215392D02*
X128724D01*
X115736Y221692D02*
X128297D01*
X115728Y220792D02*
X128240D01*
X115196Y219892D02*
X128240D01*
X107739Y218992D02*
X128238D01*
X108954Y216292D02*
X127897D01*
X101287Y274792D02*
X127896D01*
X101287Y273892D02*
X127896D01*
X124319Y253192D02*
X127896D01*
X124319Y252292D02*
X127896D01*
X124319Y251392D02*
X127859D01*
X101287Y272992D02*
X127834D01*
X108504Y218092D02*
X127784D01*
X101287Y281092D02*
X127747D01*
X108888Y217192D02*
X127653D01*
X101287Y275692D02*
X127500D01*
X124319Y254092D02*
X127403D01*
X124326Y245992D02*
X127184D01*
X101287Y267592D02*
X127116D01*
X101287Y272092D02*
X126890D01*
X124319Y258592D02*
X126847D01*
X124319Y254992D02*
X126799D01*
X101287Y268492D02*
X126786D01*
X101287Y271192D02*
X126783D01*
X101287Y270292D02*
X126783D01*
X101287Y269392D02*
X126783D01*
X124319Y257692D02*
X126783D01*
X124319Y256792D02*
X126783D01*
X124319Y255892D02*
X126783D01*
X101287Y266692D02*
X125235D01*
X124596Y250492D02*
X125042D01*
X101287Y280192D02*
X124660D01*
X101287Y276592D02*
X124541D01*
X101287Y265792D02*
X124275D01*
X101287Y279292D02*
X123919D01*
X101287Y277492D02*
X123879D01*
X101287Y278392D02*
X123713D01*
X101287Y264892D02*
X123375D01*
X101287Y234292D02*
X122814D01*
X101287Y263992D02*
X122475D01*
X101287Y235192D02*
X121990D01*
X101287Y263092D02*
X121575D01*
X101287Y236092D02*
X121210D01*
X101287Y262192D02*
X120682D01*
X101287Y236992D02*
X120426D01*
X101287Y261292D02*
X120222D01*
X101287Y237892D02*
X120172D01*
X101287Y260392D02*
X120169D01*
X101287Y259492D02*
X120169D01*
X101287Y258592D02*
X120169D01*
X101287Y257692D02*
X120169D01*
X101287Y256792D02*
X120169D01*
X101287Y255892D02*
X120169D01*
X101287Y254992D02*
X120169D01*
X101287Y254092D02*
X120169D01*
X101287Y253192D02*
X120169D01*
X101287Y252292D02*
X120169D01*
X101287Y251392D02*
X120169D01*
X101287Y250492D02*
X120169D01*
X101287Y249592D02*
X120169D01*
X101287Y248692D02*
X120169D01*
X101287Y247792D02*
X120169D01*
X101287Y246892D02*
X120169D01*
X101287Y245992D02*
X120169D01*
X101287Y245092D02*
X120169D01*
X101287Y244192D02*
X120169D01*
X101287Y243292D02*
X120169D01*
X101287Y242392D02*
X120169D01*
X101287Y241492D02*
X120169D01*
X101287Y240592D02*
X120169D01*
X101287Y239692D02*
X120169D01*
X101287Y238792D02*
X120169D01*
X114884Y227992D02*
X115633D01*
X114955Y233392D02*
X115540D01*
X108190Y214492D02*
X110878D01*
X107918Y209992D02*
X110782D01*
X101287Y227092D02*
X110474D01*
X101287Y226192D02*
X110474D01*
X101287Y225292D02*
X110371D01*
X108671Y227992D02*
X110214D01*
X108755Y233392D02*
X110143D01*
X108606Y213592D02*
X110095D01*
X108646Y210892D02*
X110055D01*
X101287Y287392D02*
X110012D01*
X108996Y219892D02*
X109902D01*
X101287Y109192D02*
X109851D01*
X101287Y294592D02*
X109736D01*
X101287Y293692D02*
X109736D01*
X101287Y292792D02*
X109736D01*
X101287Y291892D02*
X109736D01*
X101287Y290992D02*
X109736D01*
X101287Y290092D02*
X109736D01*
X101287Y289192D02*
X109736D01*
X101287Y288292D02*
X109736D01*
X101287Y108292D02*
X109736D01*
X101287Y107392D02*
X109736D01*
X101287Y106492D02*
X109736D01*
X101287Y105592D02*
X109736D01*
X101287Y104692D02*
X109736D01*
X101287Y103792D02*
X109736D01*
X101287Y102892D02*
X109736D01*
X101287Y101992D02*
X109736D01*
X109027Y212692D02*
X109674D01*
X109146Y211792D02*
X109554D01*
X101531Y295492D02*
X109492D01*
X101287Y218992D02*
X104506D01*
X101287Y209992D02*
X104286D01*
X101287Y227992D02*
X104027D01*
X101287Y214492D02*
X104015D01*
X101287Y233392D02*
X103943D01*
X101287Y219892D02*
X103702D01*
X101287Y218092D02*
X103701D01*
X101287Y213592D02*
X103599D01*
X101287Y210892D02*
X103559D01*
X101287Y215392D02*
X103478D01*
X101287Y217192D02*
X103317D01*
X101287Y212692D02*
X103282D01*
X101287Y211792D02*
X103270D01*
X101287Y216292D02*
X103250D01*
X101287Y224392D02*
X103243D01*
X101287Y228892D02*
X103201D01*
X101287Y232492D02*
X103193D01*
X101287Y220792D02*
X103170D01*
X101287Y231592D02*
X103161D01*
X101287Y230692D02*
X103161D01*
X101287Y229792D02*
X103161D01*
X101287Y223492D02*
X103161D01*
X101287Y222592D02*
X103161D01*
X101287Y221692D02*
X103161D01*
G54D52*
X348031Y211220D03*
Y213189D03*
Y215157D03*
Y217126D03*
Y219094D03*
Y221063D03*
Y223031D03*
Y225000D03*
Y226969D03*
Y228937D03*
Y230906D03*
Y232874D03*
Y234843D03*
Y236811D03*
Y238780D03*
Y240748D03*
Y242717D03*
Y244685D03*
Y246654D03*
Y248622D03*
Y250591D03*
Y252559D03*
Y254528D03*
Y256496D03*
G54D53*
X352953Y263484D03*
Y204232D03*
G54D54*
X200000Y233760D03*
X204331D03*
X208661D03*
X212992D03*
X217323D03*
X221654D03*
X225984D03*
X230315D03*
G54D55*
X238406Y269390D03*
G54D56*
Y240256D03*
G54D57*
X237992Y292224D03*
X184843D03*
G54D58*
X235827Y233760D03*
G54D59*
X186024D03*
G54D104*
X250000Y104528D03*
X182874Y116732D03*
X227559D03*
X286614Y116339D03*
X322638Y111614D03*
X347835Y111811D03*
X227559Y124409D03*
X372835Y127165D03*
X160236Y131496D03*
X227559Y130315D03*
X372835Y132087D03*
X192520Y141732D03*
X197047D03*
X240354Y147638D03*
X244882D03*
X189764Y150197D03*
Y154724D03*
X193898Y150197D03*
X372835Y154724D03*
X377362D03*
X236220Y166142D03*
Y170669D03*
X244685Y170079D03*
X383071Y188976D03*
Y184646D03*
X387992Y188976D03*
Y193504D03*
X106102Y216535D03*
X112598Y212205D03*
X106102D03*
X116535Y230709D03*
X390157Y231890D03*
X222638Y242717D03*
X227559D03*
X173819Y266929D03*
X188189Y261811D03*
Y265748D03*
G54D109*
X312205Y103937D03*
X301969D03*
X368504D03*
X358268D03*
G74*
X0Y0D02*
M02*
