*
*
G04 PADS 9.5 Build Number: 522968 generated Gerber (RS-274-X) file*
G04 PC Version=2.1*
*
%IN "MiniVario_Full_Alt.pcb"*%
*
%MOIN*%
*
%FSLAX35Y35*%
*
*
*
*
G04 PC Standard Apertures*
*
*
G04 Thermal Relief Aperture macro.*
%AMTER*
1,1,$1,0,0*
1,0,$1-$2,0,0*
21,0,$3,$4,0,0,45*
21,0,$3,$4,0,0,135*
%
*
*
G04 Annular Aperture macro.*
%AMANN*
1,1,$1,0,0*
1,0,$2,0,0*
%
*
*
G04 Odd Aperture macro.*
%AMODD*
1,1,$1,0,0*
1,0,$1-0.005,0,0*
%
*
*
G04 PC Custom Aperture Macros*
*
*
*
*
*
*
G04 PC Aperture Table*
*
%ADD010C,0.001*%
%ADD051C,0.01*%
*
*
*
*
G04 PC Circuitry*
G04 Layer Name MiniVario_Full_Alt.pcb - circuitry*
%LPD*%
*
*
G04 PC Custom Flashes*
G04 Layer Name MiniVario_Full_Alt.pcb - flashes*
%LPD*%
*
*
G04 PC Circuitry*
G04 Layer Name MiniVario_Full_Alt.pcb - circuitry*
%LPD*%
*
G54D10*
G54D51*
G01X403087Y144031D02*
X411087D01*
X403087Y152031*
X411087*
X403087Y144031*
Y148953D02*
X411087D01*
X403087Y156953*
X411087*
X403087Y148953*
X206236Y109287D02*
X214236Y117287D01*
X206236D02*
X214236Y109287D01*
X206236Y98461D02*
X214236Y106461D01*
X206236D02*
X214236Y98461D01*
X151118Y109287D02*
X159118Y117287D01*
X151118D02*
X159118Y109287D01*
X151118Y98461D02*
X159118Y106461D01*
X151118D02*
X159118Y98461D01*
X261354Y109287D02*
X269354Y117287D01*
X261354D02*
X269354Y109287D01*
X261354Y98461D02*
X269354Y106461D01*
X261354D02*
X269354Y98461D01*
X127496Y99937D02*
X135496D01*
Y107937*
X127496*
Y99937*
X131496Y103937D02*
Y107937D01*
X127496Y103874D02*
X135496D01*
Y111874*
X127496*
Y103874*
X131496Y107874D02*
Y111874D01*
X131433Y103874D02*
X139433D01*
Y111874*
X131433*
Y103874*
X135433Y107874D02*
Y111874D01*
X131433Y99937D02*
X139433D01*
Y107937*
X131433*
Y99937*
X135433Y103937D02*
Y107937D01*
X149346Y107874D02*
X157346D01*
X153346Y103874D02*
Y111874D01*
X205252Y108465D02*
X213252D01*
X209252Y104465D02*
Y112465D01*
X250000Y100528D02*
X254000Y104528D01*
X250000Y108528*
X246000Y104528*
X250000Y100528*
Y104528D02*
Y108528D01*
X264110Y103874D02*
X272110D01*
Y111874*
X264110*
Y103874*
X268110Y107874D02*
Y111874D01*
X403087Y99937D02*
X411087D01*
Y107937*
X403087*
Y99937*
X407087Y103937D02*
Y107937D01*
X407024Y99937D02*
X415024D01*
Y107937*
X407024*
Y99937*
X411024Y103937D02*
Y107937D01*
X403087Y103874D02*
X411087D01*
Y111874*
X403087*
Y103874*
X407087Y107874D02*
Y111874D01*
X407024Y103874D02*
X415024D01*
Y111874*
X407024*
Y103874*
X411024Y107874D02*
Y111874D01*
X115685Y115685D02*
X123685D01*
Y123685*
X115685*
Y115685*
X119685Y119685D02*
Y123685D01*
X111748Y115685D02*
X119748D01*
Y123685*
X111748*
Y115685*
X115748Y119685D02*
Y123685D01*
X119622Y107811D02*
X127622D01*
Y115811*
X119622*
Y107811*
X123622Y111811D02*
Y115811D01*
X115685Y107811D02*
X123685D01*
Y115811*
X115685*
Y107811*
X119685Y111811D02*
Y115811D01*
X111748Y107811D02*
X119748D01*
Y115811*
X111748*
Y107811*
X115748Y111811D02*
Y115811D01*
X115685Y111748D02*
X123685D01*
Y119748*
X115685*
Y111748*
X119685Y115748D02*
Y119748D01*
X111748Y111748D02*
X119748D01*
Y119748*
X111748*
Y111748*
X115748Y115748D02*
Y119748D01*
X127496Y107811D02*
X135496D01*
Y115811*
X127496*
Y107811*
X131496Y111811D02*
Y115811D01*
X123559Y107811D02*
X131559D01*
Y115811*
X123559*
Y107811*
X127559Y111811D02*
Y115811D01*
X131433Y107811D02*
X139433D01*
Y115811*
X131433*
Y107811*
X135433Y111811D02*
Y115811D01*
X182874Y112732D02*
X186874Y116732D01*
X182874Y120732*
X178874Y116732*
X182874Y112732*
Y116732D02*
Y120732D01*
X194425Y115685D02*
X202425D01*
Y123685*
X194425*
Y115685*
X198425Y119685D02*
Y123685D01*
X198362Y115685D02*
X206362D01*
Y123685*
X198362*
Y115685*
X202362Y119685D02*
Y123685D01*
X190685Y106039D02*
X198685D01*
Y114039*
X190685*
Y106039*
X194685Y110039D02*
Y114039D01*
X202299Y115685D02*
X210299D01*
Y123685*
X202299*
Y115685*
X206299Y119685D02*
Y123685D01*
X206236Y115685D02*
X214236D01*
Y123685*
X206236*
Y115685*
X210236Y119685D02*
Y123685D01*
X210173Y115685D02*
X218173D01*
Y123685*
X210173*
Y115685*
X214173Y119685D02*
Y123685D01*
X214110Y115685D02*
X222110D01*
Y123685*
X214110*
Y115685*
X218110Y119685D02*
Y123685D01*
X218047Y115685D02*
X226047D01*
Y123685*
X218047*
Y115685*
X222047Y119685D02*
Y123685D01*
X227559Y112732D02*
X231559Y116732D01*
X227559Y120732*
X223559Y116732*
X227559Y112732*
Y116732D02*
Y120732D01*
X286614Y112339D02*
X290614Y116339D01*
X286614Y120339*
X282614Y116339*
X286614Y112339*
Y116339D02*
Y120339D01*
X308205Y111024D02*
X316205D01*
X312205Y107024D02*
Y115024D01*
X322638Y107614D02*
X326638Y111614D01*
X322638Y115614*
X318638Y111614*
X322638Y107614*
Y111614D02*
Y115614D01*
X311748Y112535D02*
X319748D01*
Y120535*
X311748*
Y112535*
X315748Y116535D02*
Y120535D01*
X347835Y107811D02*
X351835Y111811D01*
X347835Y115811*
X343835Y111811*
X347835Y107811*
Y111811D02*
Y115811D01*
X350134Y112535D02*
X358134D01*
Y120535*
X350134*
Y112535*
X354134Y116535D02*
Y120535D01*
X368835Y114504D02*
X376835D01*
Y122504*
X368835*
Y114504*
X372835Y118504D02*
Y122504D01*
X385173Y114504D02*
X393173D01*
Y122504*
X385173*
Y114504*
X389173Y118504D02*
Y122504D01*
X179071Y124016D02*
X187071D01*
X183071Y120016D02*
Y128016D01*
X194425Y119622D02*
X202425D01*
Y127622*
X194425*
Y119622*
X198425Y123622D02*
Y127622D01*
X198362Y119622D02*
X206362D01*
Y127622*
X198362*
Y119622*
X202362Y123622D02*
Y127622D01*
X202299Y119622D02*
X210299D01*
Y127622*
X202299*
Y119622*
X206299Y123622D02*
Y127622D01*
X206236Y119622D02*
X214236D01*
Y127622*
X206236*
Y119622*
X210236Y123622D02*
Y127622D01*
X218047Y119622D02*
X226047D01*
Y127622*
X218047*
Y119622*
X222047Y123622D02*
Y127622D01*
X210173Y119622D02*
X218173D01*
Y127622*
X210173*
Y119622*
X214173Y123622D02*
Y127622D01*
X214110Y119622D02*
X222110D01*
Y127622*
X214110*
Y119622*
X218110Y123622D02*
Y127622D01*
X227559Y120409D02*
X231559Y124409D01*
X227559Y128409*
X223559Y124409*
X227559Y120409*
Y124409D02*
Y128409D01*
X280646Y125134D02*
X288646D01*
Y133134*
X280646*
Y125134*
X284646Y129134D02*
Y133134D01*
X317260Y123953D02*
X325260D01*
Y131953*
X317260*
Y123953*
X321260Y127953D02*
Y131953D01*
X325528Y124150D02*
X333528D01*
Y132150*
X325528*
Y124150*
X329528Y128150D02*
Y132150D01*
X336354Y122835D02*
X344354D01*
X340354Y118835D02*
Y126835D01*
X372835Y123165D02*
X376835Y127165D01*
X372835Y131165*
X368835Y127165*
X372835Y123165*
Y127165D02*
Y131165D01*
X382220Y122835D02*
X390220D01*
X386220Y118835D02*
Y126835D01*
X405843Y122441D02*
X413843D01*
X409843Y118441D02*
Y126441D01*
X105449Y131236D02*
X113449D01*
Y139236*
X105449*
Y131236*
X109449Y135236D02*
Y139236D01*
X109386Y131236D02*
X117386D01*
Y139236*
X109386*
Y131236*
X113386Y135236D02*
Y139236D01*
X116866Y131039D02*
X124866D01*
Y139039*
X116866*
Y131039*
X120866Y135039D02*
Y139039D01*
X126512Y129465D02*
X134512D01*
Y137465*
X126512*
Y129465*
X130512Y133465D02*
Y137465D01*
X123362Y129465D02*
X131362D01*
Y137465*
X123362*
Y129465*
X127362Y133465D02*
Y137465D01*
X137535Y131039D02*
X145535D01*
Y139039*
X137535*
Y131039*
X141535Y135039D02*
Y139039D01*
X134189Y131039D02*
X142189D01*
Y139039*
X134189*
Y131039*
X138189Y135039D02*
Y139039D01*
X140488Y131039D02*
X148488D01*
Y139039*
X140488*
Y131039*
X144488Y135039D02*
Y139039D01*
X160236Y127496D02*
X164236Y131496D01*
X160236Y135496*
X156236Y131496*
X160236Y127496*
Y131496D02*
Y135496D01*
X199346Y127693D02*
X207346D01*
Y135693*
X199346*
Y127693*
X203346Y131693D02*
Y135693D01*
X227559Y126315D02*
X231559Y130315D01*
X227559Y134315*
X223559Y130315*
X227559Y126315*
Y130315D02*
Y134315D01*
X351512Y129858D02*
X359512D01*
Y137858*
X351512*
Y129858*
X355512Y133858D02*
Y137858D01*
X372835Y128087D02*
X376835Y132087D01*
X372835Y136087*
X368835Y132087*
X372835Y128087*
Y132087D02*
Y136087D01*
X366079Y136614D02*
X374079D01*
X370079Y132614D02*
Y140614D01*
X378283Y136614D02*
X386283D01*
X382283Y132614D02*
Y140614D01*
X402299Y132614D02*
X410299D01*
Y140614*
X402299*
Y132614*
X406299Y136614D02*
Y140614D01*
X192520Y137732D02*
X196520Y141732D01*
X192520Y145732*
X188520Y141732*
X192520Y137732*
Y141732D02*
Y145732D01*
X197047Y137732D02*
X201047Y141732D01*
X197047Y145732*
X193047Y141732*
X197047Y137732*
Y141732D02*
Y145732D01*
X240354Y143638D02*
X244354Y147638D01*
X240354Y151638*
X236354Y147638*
X240354Y143638*
Y147638D02*
Y151638D01*
X244882Y143638D02*
X248882Y147638D01*
X244882Y151638*
X240882Y147638*
X244882Y143638*
Y147638D02*
Y151638D01*
X273756Y145606D02*
X281756D01*
Y153606*
X273756*
Y145606*
X277756Y149606D02*
Y153606D01*
X277496Y142457D02*
X285496D01*
Y150457*
X277496*
Y142457*
X281496Y146457D02*
Y150457D01*
X301906Y136354D02*
X309906D01*
Y144354*
X301906*
Y136354*
X305906Y140354D02*
Y144354D01*
X333795Y138126D02*
X341795D01*
Y146126*
X333795*
Y138126*
X337795Y142126D02*
Y146126D01*
X384583Y142457D02*
X392583D01*
Y150457*
X384583*
Y142457*
X388583Y146457D02*
Y150457D01*
X127496Y155055D02*
X135496D01*
Y163055*
X127496*
Y155055*
X131496Y159055D02*
Y163055D01*
X127496Y147181D02*
X135496D01*
Y155181*
X127496*
Y147181*
X131496Y151181D02*
Y155181D01*
X131433Y155055D02*
X139433D01*
Y163055*
X131433*
Y155055*
X135433Y159055D02*
Y163055D01*
X135370Y155055D02*
X143370D01*
Y163055*
X135370*
Y155055*
X139370Y159055D02*
Y163055D01*
X139307Y155055D02*
X147307D01*
Y163055*
X139307*
Y155055*
X143307Y159055D02*
Y163055D01*
X139307Y147181D02*
X147307D01*
Y155181*
X139307*
Y147181*
X143307Y151181D02*
Y155181D01*
X135370Y147181D02*
X143370D01*
Y155181*
X135370*
Y147181*
X139370Y151181D02*
Y155181D01*
X131433Y147181D02*
X139433D01*
Y155181*
X131433*
Y147181*
X135433Y151181D02*
Y155181D01*
X189764Y146197D02*
X193764Y150197D01*
X189764Y154197*
X185764Y150197*
X189764Y146197*
Y150197D02*
Y154197D01*
Y150724D02*
X193764Y154724D01*
X189764Y158724*
X185764Y154724*
X189764Y150724*
Y154724D02*
Y158724D01*
X193898Y146197D02*
X197898Y150197D01*
X193898Y154197*
X189898Y150197*
X193898Y146197*
Y150197D02*
Y154197D01*
X274740Y152496D02*
X282740D01*
Y160496*
X274740*
Y152496*
X278740Y156496D02*
Y160496D01*
X279465Y148756D02*
X287465D01*
Y156756*
X279465*
Y148756*
X283465Y152756D02*
Y156756D01*
X304465Y151118D02*
X312465D01*
Y159118*
X304465*
Y151118*
X308465Y155118D02*
Y159118D01*
X332024Y152102D02*
X340024D01*
Y160102*
X332024*
Y152102*
X336024Y156102D02*
Y160102D01*
X336945Y158661D02*
X344945D01*
X340945Y154661D02*
Y162661D01*
X372835Y150724D02*
X376835Y154724D01*
X372835Y158724*
X368835Y154724*
X372835Y150724*
Y154724D02*
Y158724D01*
X377362Y150724D02*
X381362Y154724D01*
X377362Y158724*
X373362Y154724*
X377362Y150724*
Y154724D02*
Y158724D01*
X384583Y151118D02*
X392583D01*
Y159118*
X384583*
Y151118*
X388583Y155118D02*
Y159118D01*
X127496Y162929D02*
X135496D01*
Y170929*
X127496*
Y162929*
X131496Y166929D02*
Y170929D01*
X131433Y162929D02*
X139433D01*
Y170929*
X131433*
Y162929*
X135433Y166929D02*
Y170929D01*
X171591Y158598D02*
X179591D01*
Y166598*
X171591*
Y158598*
X175591Y162598D02*
Y166598D01*
X196394Y161354D02*
X204394D01*
Y169354*
X196394*
Y161354*
X200394Y165354D02*
Y169354D01*
X236220Y162142D02*
X240220Y166142D01*
X236220Y170142*
X232220Y166142*
X236220Y162142*
Y166142D02*
Y170142D01*
X304465Y156433D02*
X312465D01*
Y164433*
X304465*
Y156433*
X308465Y160433D02*
Y164433D01*
X308992Y157811D02*
X316992D01*
Y165811*
X308992*
Y157811*
X312992Y161811D02*
Y165811D01*
X403480Y168898D02*
X411480D01*
X407480Y164898D02*
Y172898D01*
X173165Y167654D02*
X181165D01*
Y175654*
X173165*
Y167654*
X177165Y171654D02*
Y175654D01*
X192654Y171000D02*
X200654D01*
Y179000*
X192654*
Y171000*
X196654Y175000D02*
Y179000D01*
X236220Y166669D02*
X240220Y170669D01*
X236220Y174669*
X232220Y170669*
X236220Y166669*
Y170669D02*
Y174669D01*
X232220Y170803D02*
X240220D01*
Y178803*
X232220*
Y170803*
X236220Y174803D02*
Y178803D01*
X249346Y166866D02*
X257346D01*
Y174866*
X249346*
Y166866*
X253346Y170866D02*
Y174866D01*
X244685Y166079D02*
X248685Y170079D01*
X244685Y174079*
X240685Y170079*
X244685Y166079*
Y170079D02*
Y174079D01*
X256630Y173953D02*
X264630D01*
Y181953*
X256630*
Y173953*
X260630Y177953D02*
Y181953D01*
X277890Y167850D02*
X285890D01*
Y175850*
X277890*
Y167850*
X281890Y171850D02*
Y175850D01*
X276315Y175528D02*
X284315D01*
Y183528*
X276315*
Y175528*
X280315Y179528D02*
Y183528D01*
X403480Y177165D02*
X411480D01*
X407480Y173165D02*
Y181165D01*
X108795Y178677D02*
X116795D01*
Y186677*
X108795*
Y178677*
X112795Y182677D02*
Y186677D01*
X104858Y178677D02*
X112858D01*
Y186677*
X104858*
Y178677*
X108858Y182677D02*
Y186677D01*
X111748Y178677D02*
X119748D01*
Y186677*
X111748*
Y178677*
X115748Y182677D02*
Y186677D01*
X121591Y178677D02*
X129591D01*
Y186677*
X121591*
Y178677*
X125591Y182677D02*
Y186677D01*
X138323Y178677D02*
X146323D01*
Y186677*
X138323*
Y178677*
X142323Y182677D02*
Y186677D01*
X149543Y184583D02*
X157543D01*
Y192583*
X149543*
Y184583*
X153543Y188583D02*
Y192583D01*
X152299Y177102D02*
X160299D01*
Y185102*
X152299*
Y177102*
X156299Y181102D02*
Y185102D01*
X157811Y178283D02*
X165811D01*
Y186283*
X157811*
Y178283*
X161811Y182283D02*
Y186283D01*
X167654Y182024D02*
X175654D01*
Y190024*
X167654*
Y182024*
X171654Y186024D02*
Y190024D01*
X165291Y176315D02*
X173291D01*
Y184315*
X165291*
Y176315*
X169291Y180315D02*
Y184315D01*
X162142Y179268D02*
X170142D01*
Y187268*
X162142*
Y179268*
X166142Y183268D02*
Y187268D01*
X194425Y182024D02*
X202425D01*
Y190024*
X194425*
Y182024*
X198425Y186024D02*
Y190024D01*
X246787Y179268D02*
X254787D01*
Y187268*
X246787*
Y179268*
X250787Y183268D02*
Y187268D01*
X250331Y184583D02*
X258331D01*
Y192583*
X250331*
Y184583*
X254331Y188583D02*
Y192583D01*
X259780Y176315D02*
X267780D01*
Y184315*
X259780*
Y176315*
X263780Y180315D02*
Y184315D01*
X302496Y179071D02*
X310496D01*
Y187071*
X302496*
Y179071*
X306496Y183071D02*
Y187071D01*
X308992Y181433D02*
X316992D01*
Y189433*
X308992*
Y181433*
X312992Y185433D02*
Y189433D01*
X328283Y182614D02*
X336283D01*
Y190614*
X328283*
Y182614*
X332283Y186614D02*
Y190614D01*
X324346Y182614D02*
X332346D01*
Y190614*
X324346*
Y182614*
X328346Y186614D02*
Y190614D01*
X332220Y178677D02*
X340220D01*
Y186677*
X332220*
Y178677*
X336220Y182677D02*
Y186677D01*
X336157Y178677D02*
X344157D01*
Y186677*
X336157*
Y178677*
X340157Y182677D02*
Y186677D01*
X336157Y182614D02*
X344157D01*
Y190614*
X336157*
Y182614*
X340157Y186614D02*
Y190614D01*
X332220Y182614D02*
X340220D01*
Y190614*
X332220*
Y182614*
X336220Y186614D02*
Y190614D01*
X340094Y178677D02*
X348094D01*
Y186677*
X340094*
Y178677*
X344094Y182677D02*
Y186677D01*
X340094Y182614D02*
X348094D01*
Y190614*
X340094*
Y182614*
X344094Y186614D02*
Y190614D01*
X383071Y184976D02*
X387071Y188976D01*
X383071Y192976*
X379071Y188976*
X383071Y184976*
Y188976D02*
Y192976D01*
Y180646D02*
X387071Y184646D01*
X383071Y188646*
X379071Y184646*
X383071Y180646*
Y184646D02*
Y188646D01*
X387992Y184976D02*
X391992Y188976D01*
X387992Y192976*
X383992Y188976*
X387992Y184976*
Y188976D02*
Y192976D01*
X403480Y185433D02*
X411480D01*
X407480Y181433D02*
Y189433D01*
X157811Y191669D02*
X165811D01*
Y199669*
X157811*
Y191669*
X161811Y195669D02*
Y199669D01*
X181827Y191732D02*
X189827D01*
X185827Y187732D02*
Y195732D01*
X232220Y187732D02*
X240220D01*
Y195732*
X232220*
Y187732*
X236220Y191732D02*
Y195732D01*
X246787Y195669D02*
X254787D01*
X250787Y191669D02*
Y199669D01*
X314110Y194425D02*
X322110D01*
Y202425*
X314110*
Y194425*
X318110Y198425D02*
Y202425D01*
X330252Y192913D02*
X338252D01*
X334252Y188913D02*
Y196913D01*
X355449Y188520D02*
X363449D01*
Y196520*
X355449*
Y188520*
X359449Y192520D02*
Y196520D01*
X387992Y189504D02*
X391992Y193504D01*
X387992Y197504*
X383992Y193504*
X387992Y189504*
Y193504D02*
Y197504D01*
X403480Y198031D02*
X411480D01*
X407480Y194031D02*
Y202031D01*
X147181Y197181D02*
X155181D01*
Y205181*
X147181*
Y197181*
X151181Y201181D02*
Y205181D01*
X152299Y197969D02*
X160299D01*
Y205969*
X152299*
Y197969*
X156299Y201969D02*
Y205969D01*
X183992Y202693D02*
X191992D01*
Y210693*
X183992*
Y202693*
X187992Y206693D02*
Y210693D01*
X190094Y202693D02*
X198094D01*
Y210693*
X190094*
Y202693*
X194094Y206693D02*
Y210693D01*
X198362Y203087D02*
X206362D01*
Y211087*
X198362*
Y203087*
X202362Y207087D02*
Y211087D01*
X223165Y203874D02*
X231165D01*
Y211874*
X223165*
Y203874*
X227165Y207874D02*
Y211874D01*
X239701Y203087D02*
X247701D01*
Y211087*
X239701*
Y203087*
X243701Y207087D02*
Y211087D01*
X231433Y204661D02*
X239433D01*
Y212661*
X231433*
Y204661*
X235433Y208661D02*
Y212661D01*
X258992Y196787D02*
X266992D01*
Y204787*
X258992*
Y196787*
X262992Y200787D02*
Y204787D01*
X253874Y204268D02*
X261874D01*
Y212268*
X253874*
Y204268*
X257874Y208268D02*
Y212268D01*
X253480Y197969D02*
X261480D01*
Y205969*
X253480*
Y197969*
X257480Y201969D02*
Y205969D01*
X313717Y202299D02*
X321717D01*
Y210299*
X313717*
Y202299*
X317717Y206299D02*
Y210299D01*
X340094Y198362D02*
X348094D01*
Y206362*
X340094*
Y198362*
X344094Y202362D02*
Y206362D01*
X403480Y206299D02*
X411480D01*
X407480Y202299D02*
Y210299D01*
X106102Y212535D02*
X110102Y216535D01*
X106102Y220535*
X102102Y216535*
X106102Y212535*
Y216535D02*
Y220535D01*
X112598Y208205D02*
X116598Y212205D01*
X112598Y216205*
X108598Y212205*
X112598Y208205*
Y212205D02*
Y216205D01*
X106102Y208205D02*
X110102Y212205D01*
X106102Y216205*
X102102Y212205*
X106102Y208205*
Y212205D02*
Y216205D01*
X125921Y213323D02*
X133921D01*
Y221323*
X125921*
Y213323*
X129921Y217323D02*
Y221323D01*
X250331Y212929D02*
X258331D01*
Y220929*
X250331*
Y212929*
X254331Y216929D02*
Y220929D01*
X256630Y208008D02*
X264630D01*
Y216008*
X256630*
Y208008*
X260630Y212008D02*
Y216008D01*
X261354Y209386D02*
X269354D01*
Y217386*
X261354*
Y209386*
X265354Y213386D02*
Y217386D01*
X371591Y210173D02*
X379591D01*
Y218173*
X371591*
Y210173*
X375591Y214173D02*
Y218173D01*
X375528Y210173D02*
X383528D01*
Y218173*
X375528*
Y210173*
X379528Y214173D02*
Y218173D01*
X379465Y210173D02*
X387465D01*
Y218173*
X379465*
Y210173*
X383465Y214173D02*
Y218173D01*
X379465Y214110D02*
X387465D01*
Y222110*
X379465*
Y214110*
X383465Y218110D02*
Y222110D01*
X375528Y214110D02*
X383528D01*
Y222110*
X375528*
Y214110*
X379528Y218110D02*
Y222110D01*
X371591Y214110D02*
X379591D01*
Y222110*
X371591*
Y214110*
X375591Y218110D02*
Y222110D01*
X383402Y210173D02*
X391402D01*
Y218173*
X383402*
Y210173*
X387402Y214173D02*
Y218173D01*
X387339Y210173D02*
X395339D01*
Y218173*
X387339*
Y210173*
X391339Y214173D02*
Y218173D01*
X383402Y214110D02*
X391402D01*
Y222110*
X383402*
Y214110*
X387402Y218110D02*
Y222110D01*
X387339Y214110D02*
X395339D01*
Y222110*
X387339*
Y214110*
X391339Y218110D02*
Y222110D01*
X144425Y223559D02*
X152425D01*
Y231559*
X144425*
Y223559*
X148425Y227559D02*
Y231559D01*
X249150Y222969D02*
X257150D01*
Y230969*
X249150*
Y222969*
X253150Y226969D02*
Y230969D01*
X256433Y218047D02*
X264433D01*
Y226047*
X256433*
Y218047*
X260433Y222047D02*
Y226047D01*
X266866Y222772D02*
X274866D01*
Y230772*
X266866*
Y222772*
X270866Y226772D02*
Y230772D01*
X263323Y225331D02*
X271323D01*
Y233331*
X263323*
Y225331*
X267323Y229331D02*
Y233331D01*
X328874Y222969D02*
X336874D01*
Y230969*
X328874*
Y222969*
X332874Y226969D02*
Y230969D01*
X338126Y219425D02*
X346126D01*
Y227425*
X338126*
Y219425*
X342126Y223425D02*
Y227425D01*
X332220Y219622D02*
X340220D01*
Y227622*
X332220*
Y219622*
X336220Y223622D02*
Y227622D01*
X355055Y218835D02*
X363055D01*
Y226835*
X355055*
Y218835*
X359055Y222835D02*
Y226835D01*
X350331Y226772D02*
X358331D01*
X354331Y222772D02*
Y230772D01*
X116535Y226709D02*
X120535Y230709D01*
X116535Y234709*
X112535Y230709*
X116535Y226709*
Y230709D02*
Y234709D01*
X120016Y232220D02*
X128016D01*
Y240220*
X120016*
Y232220*
X124016Y236220D02*
Y240220D01*
X136551Y232220D02*
X144551D01*
Y240220*
X136551*
Y232220*
X140551Y236220D02*
Y240220D01*
X170606Y231433D02*
X178606D01*
Y239433*
X170606*
Y231433*
X174606Y235433D02*
Y239433D01*
X261354Y233402D02*
X269354D01*
Y241402*
X261354*
Y233402*
X265354Y237402D02*
Y241402D01*
X329661Y231827D02*
X337661D01*
Y239827*
X329661*
Y231827*
X333661Y235827D02*
Y239827D01*
X325331Y226906D02*
X333331D01*
Y234906*
X325331*
Y226906*
X329331Y230906D02*
Y234906D01*
X336945Y235567D02*
X344945D01*
Y243567*
X336945*
Y235567*
X340945Y239567D02*
Y243567D01*
X390157Y227890D02*
X394157Y231890D01*
X390157Y235890*
X386157Y231890*
X390157Y227890*
Y231890D02*
Y235890D01*
X403480Y235433D02*
X411480D01*
X407480Y231433D02*
Y239433D01*
X99937Y245606D02*
X107937D01*
Y253606*
X99937*
Y245606*
X103937Y249606D02*
Y253606D01*
X103874Y245606D02*
X111874D01*
Y253606*
X103874*
Y245606*
X107874Y249606D02*
Y253606D01*
X107811Y245606D02*
X115811D01*
Y253606*
X107811*
Y245606*
X111811Y249606D02*
Y253606D01*
X107811Y241669D02*
X115811D01*
Y249669*
X107811*
Y241669*
X111811Y245669D02*
Y249669D01*
X103874Y241669D02*
X111874D01*
Y249669*
X103874*
Y241669*
X107874Y245669D02*
Y249669D01*
X99937Y241669D02*
X107937D01*
Y249669*
X99937*
Y241669*
X103937Y245669D02*
Y249669D01*
X121984Y244425D02*
X129984D01*
Y252425*
X121984*
Y244425*
X125984Y248425D02*
Y252425D01*
X168441Y243047D02*
X176441D01*
Y251047*
X168441*
Y243047*
X172441Y247047D02*
Y251047D01*
X170606Y237929D02*
X178606D01*
Y245929*
X170606*
Y237929*
X174606Y241929D02*
Y245929D01*
X222638Y238717D02*
X226638Y242717D01*
X222638Y246717*
X218638Y242717*
X222638Y238717*
Y242717D02*
Y246717D01*
X227559Y238717D02*
X231559Y242717D01*
X227559Y246717*
X223559Y242717*
X227559Y238717*
Y242717D02*
Y246717D01*
X247969Y237929D02*
X255969D01*
Y245929*
X247969*
Y237929*
X251969Y241929D02*
Y245929D01*
X257220Y241472D02*
X265220D01*
Y249472*
X257220*
Y241472*
X261220Y245472D02*
Y249472D01*
X256433Y237339D02*
X264433D01*
Y245339*
X256433*
Y237339*
X260433Y241339D02*
Y245339D01*
X251709Y245606D02*
X259709D01*
Y253606*
X251709*
Y245606*
X255709Y249606D02*
Y253606D01*
X294425Y238913D02*
X302425D01*
Y246913*
X294425*
Y238913*
X298425Y242913D02*
Y246913D01*
X291276Y245606D02*
X299276D01*
Y253606*
X291276*
Y245606*
X295276Y249606D02*
Y253606D01*
X291276Y236157D02*
X299276D01*
Y244157*
X291276*
Y236157*
X295276Y240157D02*
Y244157D01*
X329661Y236157D02*
X337661D01*
Y244157*
X329661*
Y236157*
X333661Y240157D02*
Y244157D01*
X338913Y241929D02*
X346913D01*
X342913Y237929D02*
Y245929D01*
X350331Y240945D02*
X358331D01*
X354331Y236945D02*
Y244945D01*
X403480Y243701D02*
X411480D01*
X407480Y239701D02*
Y247701D01*
X107811Y249543D02*
X115811D01*
Y257543*
X107811*
Y249543*
X111811Y253543D02*
Y257543D01*
X99937Y249543D02*
X107937D01*
Y257543*
X99937*
Y249543*
X103937Y253543D02*
Y257543D01*
X166866Y252890D02*
X174866D01*
Y260890*
X166866*
Y252890*
X170866Y256890D02*
Y260890D01*
X206236Y253480D02*
X214236D01*
Y261480*
X206236*
Y253480*
X210236Y257480D02*
Y261480D01*
X202299Y253480D02*
X210299D01*
Y261480*
X202299*
Y253480*
X206299Y257480D02*
Y261480D01*
X218047Y253480D02*
X226047D01*
Y261480*
X218047*
Y253480*
X222047Y257480D02*
Y261480D01*
X214110Y253480D02*
X222110D01*
Y261480*
X214110*
Y253480*
X218110Y257480D02*
Y261480D01*
X210173Y253480D02*
X218173D01*
Y261480*
X210173*
Y253480*
X214173Y257480D02*
Y261480D01*
X253874Y249543D02*
X261874D01*
Y257543*
X253874*
Y249543*
X257874Y253543D02*
Y257543D01*
X253677Y255252D02*
X261677D01*
Y263252*
X253677*
Y255252*
X257677Y259252D02*
Y263252D01*
X294425Y253874D02*
X302425D01*
Y261874*
X294425*
Y253874*
X298425Y257874D02*
Y261874D01*
X314110Y253874D02*
X322110D01*
Y261874*
X314110*
Y253874*
X318110Y257874D02*
Y261874D01*
X317654Y249543D02*
X325654D01*
Y257543*
X317654*
Y249543*
X321654Y253543D02*
Y257543D01*
X326315Y250724D02*
X334315D01*
Y258724*
X326315*
Y250724*
X330315Y254724D02*
Y258724D01*
X361748Y254661D02*
X369748D01*
Y262661*
X361748*
Y254661*
X365748Y258661D02*
Y262661D01*
X371591Y249543D02*
X379591D01*
Y257543*
X371591*
Y249543*
X375591Y253543D02*
Y257543D01*
X375528Y249543D02*
X383528D01*
Y257543*
X375528*
Y249543*
X379528Y253543D02*
Y257543D01*
X379465Y249543D02*
X387465D01*
Y257543*
X379465*
Y249543*
X383465Y253543D02*
Y257543D01*
X379465Y253480D02*
X387465D01*
Y261480*
X379465*
Y253480*
X383465Y257480D02*
Y261480D01*
X375528Y253480D02*
X383528D01*
Y261480*
X375528*
Y253480*
X379528Y257480D02*
Y261480D01*
X371591Y253480D02*
X379591D01*
Y261480*
X371591*
Y253480*
X375591Y257480D02*
Y261480D01*
X383402Y249543D02*
X391402D01*
Y257543*
X383402*
Y249543*
X387402Y253543D02*
Y257543D01*
X387339Y249543D02*
X395339D01*
Y257543*
X387339*
Y249543*
X391339Y253543D02*
Y257543D01*
X387339Y253480D02*
X395339D01*
Y261480*
X387339*
Y253480*
X391339Y257480D02*
Y261480D01*
X383402Y253480D02*
X391402D01*
Y261480*
X383402*
Y253480*
X387402Y257480D02*
Y261480D01*
X144819Y260236D02*
X152819D01*
X148819Y256236D02*
Y264236D01*
X173819Y262929D02*
X177819Y266929D01*
X173819Y270929*
X169819Y266929*
X173819Y262929*
Y266929D02*
Y270929D01*
X188189Y257811D02*
X192189Y261811D01*
X188189Y265811*
X184189Y261811*
X188189Y257811*
Y261811D02*
Y265811D01*
Y261748D02*
X192189Y265748D01*
X188189Y269748*
X184189Y265748*
X188189Y261748*
Y265748D02*
Y269748D01*
X202299Y261354D02*
X210299D01*
Y269354*
X202299*
Y261354*
X206299Y265354D02*
Y269354D01*
X206236Y261354D02*
X214236D01*
Y269354*
X206236*
Y261354*
X210236Y265354D02*
Y269354D01*
X218047Y261354D02*
X226047D01*
Y269354*
X218047*
Y261354*
X222047Y265354D02*
Y269354D01*
X214110Y261354D02*
X222110D01*
Y269354*
X214110*
Y261354*
X218110Y265354D02*
Y269354D01*
X210173Y261354D02*
X218173D01*
Y269354*
X210173*
Y261354*
X214173Y265354D02*
Y269354D01*
X251118Y262339D02*
X259118D01*
Y270339*
X251118*
Y262339*
X255118Y266339D02*
Y270339D01*
X281039Y266142D02*
X289039D01*
X285039Y262142D02*
Y270142D01*
X314504Y262535D02*
X322504D01*
Y270535*
X314504*
Y262535*
X318504Y266535D02*
Y270535D01*
X326315Y257811D02*
X334315D01*
Y265811*
X326315*
Y257811*
X330315Y261811D02*
Y265811D01*
X403480Y267323D02*
X411480D01*
X407480Y263323D02*
Y271323D01*
X107811Y273165D02*
X115811D01*
Y281165*
X107811*
Y273165*
X111811Y277165D02*
Y281165D01*
X99937Y273165D02*
X107937D01*
Y281165*
X99937*
Y273165*
X103937Y277165D02*
Y281165D01*
X121984Y274346D02*
X129984D01*
Y282346*
X121984*
Y274346*
X125984Y278346D02*
Y282346D01*
X253677Y268047D02*
X261677D01*
Y276047*
X253677*
Y268047*
X257677Y272047D02*
Y276047D01*
X270803Y275528D02*
X278803D01*
Y283528*
X270803*
Y275528*
X274803Y279528D02*
Y283528D01*
X281039Y274409D02*
X289039D01*
X285039Y270409D02*
Y278409D01*
X300724Y269622D02*
X308724D01*
Y277622*
X300724*
Y269622*
X304724Y273622D02*
Y277622D01*
X319622Y269622D02*
X327622D01*
Y277622*
X319622*
Y269622*
X323622Y273622D02*
Y277622D01*
X355055Y267654D02*
X363055D01*
Y275654*
X355055*
Y267654*
X359055Y271654D02*
Y275654D01*
X403480Y275591D02*
X411480D01*
X407480Y271591D02*
Y279591D01*
X99937Y277102D02*
X107937D01*
Y285102*
X99937*
Y277102*
X103937Y281102D02*
Y285102D01*
X103874Y277102D02*
X111874D01*
Y285102*
X103874*
Y277102*
X107874Y281102D02*
Y285102D01*
X107811Y281039D02*
X115811D01*
Y289039*
X107811*
Y281039*
X111811Y285039D02*
Y289039D01*
X103874Y281039D02*
X111874D01*
Y289039*
X103874*
Y281039*
X107874Y285039D02*
Y289039D01*
X99937Y281039D02*
X107937D01*
Y289039*
X99937*
Y281039*
X103937Y285039D02*
Y289039D01*
X107811Y277102D02*
X115811D01*
Y285102*
X107811*
Y277102*
X111811Y281102D02*
Y285102D01*
X139307Y284976D02*
X147307D01*
Y292976*
X139307*
Y284976*
X143307Y288976D02*
Y292976D01*
X143244Y284976D02*
X151244D01*
Y292976*
X143244*
Y284976*
X147244Y288976D02*
Y292976D01*
X147181Y284976D02*
X155181D01*
Y292976*
X147181*
Y284976*
X151181Y288976D02*
Y292976D01*
X151118Y284976D02*
X159118D01*
Y292976*
X151118*
Y284976*
X155118Y288976D02*
Y292976D01*
X257417Y284976D02*
X265417D01*
Y292976*
X257417*
Y284976*
X261417Y288976D02*
Y292976D01*
X261354Y284976D02*
X269354D01*
Y292976*
X261354*
Y284976*
X265354Y288976D02*
Y292976D01*
X266866Y281827D02*
X274866D01*
Y289827*
X266866*
Y281827*
X270866Y285827D02*
Y289827D01*
X261354Y277102D02*
X269354D01*
Y285102*
X261354*
Y277102*
X265354Y281102D02*
Y285102D01*
X277102Y277102D02*
X285102D01*
Y285102*
X277102*
Y277102*
X281102Y281102D02*
Y285102D01*
X277102Y281039D02*
X285102D01*
Y289039*
X277102*
Y281039*
X281102Y285039D02*
Y289039D01*
X288913Y277102D02*
X296913D01*
Y285102*
X288913*
Y277102*
X292913Y281102D02*
Y285102D01*
X288913Y281039D02*
X296913D01*
Y289039*
X288913*
Y281039*
X292913Y285039D02*
Y289039D01*
X281039Y277102D02*
X289039D01*
Y285102*
X281039*
Y277102*
X285039Y281102D02*
Y285102D01*
X284976Y277102D02*
X292976D01*
Y285102*
X284976*
Y277102*
X288976Y281102D02*
Y285102D01*
X284976Y281039D02*
X292976D01*
Y289039*
X284976*
Y281039*
X288976Y285039D02*
Y289039D01*
X281039Y281039D02*
X289039D01*
Y289039*
X281039*
Y281039*
X285039Y285039D02*
Y289039D01*
X360567Y283795D02*
X368567D01*
Y291795*
X360567*
Y283795*
X364567Y287795D02*
Y291795D01*
X139307Y288913D02*
X147307D01*
Y296913*
X139307*
Y288913*
X143307Y292913D02*
Y296913D01*
X147181Y288913D02*
X155181D01*
Y296913*
X147181*
Y288913*
X151181Y292913D02*
Y296913D01*
X143244Y288913D02*
X151244D01*
Y296913*
X143244*
Y288913*
X147244Y292913D02*
Y296913D01*
X151118Y288913D02*
X159118D01*
Y296913*
X151118*
Y288913*
X155118Y292913D02*
Y296913D01*
X257417Y288913D02*
X265417D01*
Y296913*
X257417*
Y288913*
X261417Y292913D02*
Y296913D01*
X265291Y288913D02*
X273291D01*
Y296913*
X265291*
Y288913*
X269291Y292913D02*
Y296913D01*
X261354Y288913D02*
X269354D01*
Y296913*
X261354*
Y288913*
X265354Y292913D02*
Y296913D01*
X270803Y289701D02*
X278803D01*
Y297701*
X270803*
Y289701*
X274803Y293701D02*
Y297701D01*
X355055Y289701D02*
X363055D01*
Y297701*
X355055*
Y289701*
X359055Y293701D02*
Y297701D01*
X100000Y100000D02*
Y296850D01*
X111024*
Y288189*
X128346*
Y296850*
X386614*
Y288189*
X403937*
Y296850*
X414961*
Y269291*
X412992*
Y198425*
X414961*
Y100000*
X403937*
Y108661*
X386614*
Y100000*
X128346*
Y108661*
X111024*
Y100000*
X100000*
X493701Y244000D02*
X751701D01*
X493701Y220000D02*
X751701D01*
X493701Y196000D02*
X751701D01*
X493701Y172000D02*
X751701D01*
X493701Y148000D02*
X751701D01*
X493701Y124000D02*
X751701D01*
X493701Y100000D02*
X751701D01*
X493701Y244000D02*
Y100000D01*
X577701Y244000D02*
Y100000D01*
X613701Y244000D02*
Y100000D01*
X649701Y244000D02*
Y100000D01*
X703701Y244000D02*
Y100000D01*
X751701Y244000D02*
Y100000D01*
X529201Y232750D02*
X528655Y233500D01*
X527837Y233875*
X526746*
X525928Y233500*
X525383Y232750*
Y232000*
X525655Y231250*
X525928Y230875*
X526474Y230500*
X528110Y229750*
X528655Y229375*
X528928Y229000*
X529201Y228250*
Y227125*
X528655Y226375*
X527837Y226000*
X526746*
X525928Y226375*
X525383Y227125*
X531655Y233875D02*
Y226000D01*
X537928Y233875D02*
X534110Y226000D01*
Y233875D02*
X537928D01*
X534110Y226000D02*
X537928D01*
X540383Y233875D02*
Y226000D01*
Y233875D02*
X543928D01*
X540383Y230125D02*
X542564D01*
X540383Y226000D02*
X543928D01*
X587564Y233875D02*
X587019Y233500D01*
X586474Y232750*
X586201Y232000*
X585928Y230875*
Y229000*
X586201Y227875*
X586474Y227125*
X587019Y226375*
X587564Y226000*
X588655*
X589201Y226375*
X589746Y227125*
X590019Y227875*
X590292Y229000*
Y230875*
X590019Y232000*
X589746Y232750*
X589201Y233500*
X588655Y233875*
X587564*
X588383Y227500D02*
X590019Y225250D01*
X594655Y233875D02*
Y226000D01*
X592746Y233875D02*
X596564D01*
X599019D02*
X601201Y230125D01*
Y226000*
X603383Y233875D02*
X601201Y230125D01*
X625746Y232750D02*
X625201Y233500D01*
X624383Y233875*
X623292*
X622474Y233500*
X621928Y232750*
Y232000*
X622201Y231250*
X622474Y230875*
X623019Y230500*
X624655Y229750*
X625201Y229375*
X625474Y229000*
X625746Y228250*
Y227125*
X625201Y226375*
X624383Y226000*
X623292*
X622474Y226375*
X621928Y227125*
X628201Y233875D02*
X630383Y230125D01*
Y226000*
X632564Y233875D02*
X630383Y230125D01*
X635019Y233875D02*
Y226000D01*
Y233875D02*
X637201Y226000D01*
X639383Y233875D02*
X637201Y226000D01*
X639383Y233875D02*
Y226000D01*
X661201Y233875D02*
Y226000D01*
Y233875D02*
X663655D01*
X664474Y233500*
X664746Y233125*
X665019Y232375*
Y231250*
X664746Y230500*
X664474Y230125*
X663655Y229750*
X661201*
X667474Y233875D02*
Y226000D01*
X670746*
X675383Y233875D02*
X673201Y226000D01*
X675383Y233875D02*
X677564Y226000D01*
X674019Y228625D02*
X676746D01*
X681928Y233875D02*
Y226000D01*
X680019Y233875D02*
X683837D01*
X686292D02*
Y226000D01*
Y233875D02*
X689837D01*
X686292Y230125D02*
X688474D01*
X686292Y226000D02*
X689837D01*
X692292Y233875D02*
Y226000D01*
Y233875D02*
X694201D01*
X695019Y233500*
X695564Y232750*
X695837Y232000*
X696110Y230875*
Y229000*
X695837Y227875*
X695564Y227125*
X695019Y226375*
X694201Y226000*
X692292*
X720383Y233875D02*
Y226000D01*
X718474Y233875D02*
X722292D01*
X726383D02*
X725837Y233500D01*
X725292Y232750*
X725019Y232000*
X724746Y230875*
Y229000*
X725019Y227875*
X725292Y227125*
X725837Y226375*
X726383Y226000*
X727474*
X728019Y226375*
X728564Y227125*
X728837Y227875*
X729110Y229000*
Y230875*
X728837Y232000*
X728564Y232750*
X728019Y233500*
X727474Y233875*
X726383*
X731564D02*
Y226000D01*
X734837*
X501337Y209875D02*
X500519Y209500D01*
X499974Y208375*
X499701Y206500*
Y205375*
X499974Y203500*
X500519Y202375*
X501337Y202000*
X501883*
X502701Y202375*
X503246Y203500*
X503519Y205375*
Y206500*
X503246Y208375*
X502701Y209500*
X501883Y209875*
X501337*
X506246Y202750D02*
X505974Y202375D01*
X506246Y202000*
X506519Y202375*
X506246Y202750*
X509519Y209875D02*
X512519D01*
X510883Y206875*
X511701*
X512246Y206500*
X512519Y206125*
X512792Y205000*
Y204250*
X512519Y203125*
X511974Y202375*
X511155Y202000*
X510337*
X509519Y202375*
X509246Y202750*
X508974Y203500*
X589883Y208000D02*
Y208375D01*
X590155Y209125*
X590428Y209500*
X590974Y209875*
X592064*
X592610Y209500*
X592883Y209125*
X593155Y208375*
Y207625*
X592883Y206875*
X592337Y205750*
X589610Y202000*
X593428*
X597246Y209875D02*
X596428Y209500D01*
X596155Y208750*
Y208000*
X596428Y207250*
X596974Y206875*
X598064Y206500*
X598883Y206125*
X599428Y205375*
X599701Y204625*
Y203500*
X599428Y202750*
X599155Y202375*
X598337Y202000*
X597246*
X596428Y202375*
X596155Y202750*
X595883Y203500*
Y204625*
X596155Y205375*
X596701Y206125*
X597519Y206500*
X598610Y206875*
X599155Y207250*
X599428Y208000*
Y208750*
X599155Y209500*
X598337Y209875*
X597246*
X625701Y208000D02*
X637701D01*
X631701Y202000D02*
Y214000D01*
X658337Y209875D02*
X660519Y206125D01*
Y202000*
X662701Y209875D02*
X660519Y206125D01*
X665155Y209875D02*
Y202000D01*
Y209875D02*
X668701D01*
X665155Y206125D02*
X667337D01*
X665155Y202000D02*
X668701D01*
X674974Y208750D02*
X674428Y209500D01*
X673610Y209875*
X672519*
X671701Y209500*
X671155Y208750*
Y208000*
X671428Y207250*
X671701Y206875*
X672246Y206500*
X673883Y205750*
X674428Y205375*
X674701Y205000*
X674974Y204250*
Y203125*
X674428Y202375*
X673610Y202000*
X672519*
X671701Y202375*
X671155Y203125*
X711519Y208750D02*
Y202000D01*
X709064Y205375D02*
X713974D01*
X721337Y211375D02*
X716428Y199375D01*
X723792Y205375D02*
X728701D01*
X732792Y209875D02*
X731974Y209500D01*
X731428Y208375*
X731155Y206500*
Y205375*
X731428Y203500*
X731974Y202375*
X732792Y202000*
X733337*
X734155Y202375*
X734701Y203500*
X734974Y205375*
Y206500*
X734701Y208375*
X734155Y209500*
X733337Y209875*
X732792*
X737701Y202750D02*
X737428Y202375D01*
X737701Y202000*
X737974Y202375*
X737701Y202750*
X742064Y209875D02*
X741246Y209500D01*
X740701Y208375*
X740428Y206500*
Y205375*
X740701Y203500*
X741246Y202375*
X742064Y202000*
X742610*
X743428Y202375*
X743974Y203500*
X744246Y205375*
Y206500*
X743974Y208375*
X743428Y209500*
X742610Y209875*
X742064*
X501337Y185875D02*
X500519Y185500D01*
X499974Y184375*
X499701Y182500*
Y181375*
X499974Y179500*
X500519Y178375*
X501337Y178000*
X501883*
X502701Y178375*
X503246Y179500*
X503519Y181375*
Y182500*
X503246Y184375*
X502701Y185500*
X501883Y185875*
X501337*
X506246Y178750D02*
X505974Y178375D01*
X506246Y178000*
X506519Y178375*
X506246Y178750*
X512792Y185875D02*
X510064Y178000D01*
X508974Y185875D02*
X512792D01*
X518792D02*
X516064D01*
X515792Y182500*
X516064Y182875*
X516883Y183250*
X517701*
X518519Y182875*
X519064Y182125*
X519337Y181000*
X519064Y180250*
X518792Y179125*
X518246Y178375*
X517428Y178000*
X516610*
X515792Y178375*
X515519Y178750*
X515246Y179500*
X596155Y184750D02*
X595883Y185500D01*
X595064Y185875*
X594519*
X593701Y185500*
X593155Y184375*
X592883Y182500*
Y180625*
X593155Y179125*
X593701Y178375*
X594519Y178000*
X594792*
X595610Y178375*
X596155Y179125*
X596428Y180250*
Y180625*
X596155Y181750*
X595610Y182500*
X594792Y182875*
X594519*
X593701Y182500*
X593155Y181750*
X592883Y180625*
X625701Y178000D02*
X637701Y190000D01*
X625701D02*
X637701Y178000D01*
X658337Y185875D02*
X660519Y182125D01*
Y178000*
X662701Y185875D02*
X660519Y182125D01*
X665155Y185875D02*
Y178000D01*
Y185875D02*
X668701D01*
X665155Y182125D02*
X667337D01*
X665155Y178000D02*
X668701D01*
X674974Y184750D02*
X674428Y185500D01*
X673610Y185875*
X672519*
X671701Y185500*
X671155Y184750*
Y184000*
X671428Y183250*
X671701Y182875*
X672246Y182500*
X673883Y181750*
X674428Y181375*
X674701Y181000*
X674974Y180250*
Y179125*
X674428Y178375*
X673610Y178000*
X672519*
X671701Y178375*
X671155Y179125*
X711519Y184750D02*
Y178000D01*
X709064Y181375D02*
X713974D01*
X721337Y187375D02*
X716428Y175375D01*
X723792Y181375D02*
X728701D01*
X732792Y185875D02*
X731974Y185500D01*
X731428Y184375*
X731155Y182500*
Y181375*
X731428Y179500*
X731974Y178375*
X732792Y178000*
X733337*
X734155Y178375*
X734701Y179500*
X734974Y181375*
Y182500*
X734701Y184375*
X734155Y185500*
X733337Y185875*
X732792*
X737701Y178750D02*
X737428Y178375D01*
X737701Y178000*
X737974Y178375*
X737701Y178750*
X742064Y185875D02*
X741246Y185500D01*
X740701Y184375*
X740428Y182500*
Y181375*
X740701Y179500*
X741246Y178375*
X742064Y178000*
X742610*
X743428Y178375*
X743974Y179500*
X744246Y181375*
Y182500*
X743974Y184375*
X743428Y185500*
X742610Y185875*
X742064*
X501337Y161875D02*
X500519Y161500D01*
X499974Y160375*
X499701Y158500*
Y157375*
X499974Y155500*
X500519Y154375*
X501337Y154000*
X501883*
X502701Y154375*
X503246Y155500*
X503519Y157375*
Y158500*
X503246Y160375*
X502701Y161500*
X501883Y161875*
X501337*
X506246Y154750D02*
X505974Y154375D01*
X506246Y154000*
X506519Y154375*
X506246Y154750*
X509246Y160000D02*
Y160375D01*
X509519Y161125*
X509792Y161500*
X510337Y161875*
X511428*
X511974Y161500*
X512246Y161125*
X512519Y160375*
Y159625*
X512246Y158875*
X511701Y157750*
X508974Y154000*
X512792*
X586474Y160000D02*
Y160375D01*
X586746Y161125*
X587019Y161500*
X587564Y161875*
X588655*
X589201Y161500*
X589474Y161125*
X589746Y160375*
Y159625*
X589474Y158875*
X588928Y157750*
X586201Y154000*
X590019*
X595201Y161875D02*
X592474Y156625D01*
X596564*
X595201Y161875D02*
Y154000D01*
X602564Y161875D02*
X599837D01*
X599564Y158500*
X599837Y158875*
X600655Y159250*
X601474*
X602292Y158875*
X602837Y158125*
X603110Y157000*
X602837Y156250*
X602564Y155125*
X602019Y154375*
X601201Y154000*
X600383*
X599564Y154375*
X599292Y154750*
X599019Y155500*
X625701Y154000D02*
X637701D01*
Y166000*
X625701*
Y154000*
X631701Y160000D02*
Y166000D01*
X658337Y161875D02*
X660519Y158125D01*
Y154000*
X662701Y161875D02*
X660519Y158125D01*
X665155Y161875D02*
Y154000D01*
Y161875D02*
X668701D01*
X665155Y158125D02*
X667337D01*
X665155Y154000D02*
X668701D01*
X674974Y160750D02*
X674428Y161500D01*
X673610Y161875*
X672519*
X671701Y161500*
X671155Y160750*
Y160000*
X671428Y159250*
X671701Y158875*
X672246Y158500*
X673883Y157750*
X674428Y157375*
X674701Y157000*
X674974Y156250*
Y155125*
X674428Y154375*
X673610Y154000*
X672519*
X671701Y154375*
X671155Y155125*
X711519Y160750D02*
Y154000D01*
X709064Y157375D02*
X713974D01*
X721337Y163375D02*
X716428Y151375D01*
X723792Y157375D02*
X728701D01*
X732792Y161875D02*
X731974Y161500D01*
X731428Y160375*
X731155Y158500*
Y157375*
X731428Y155500*
X731974Y154375*
X732792Y154000*
X733337*
X734155Y154375*
X734701Y155500*
X734974Y157375*
Y158500*
X734701Y160375*
X734155Y161500*
X733337Y161875*
X732792*
X737701Y154750D02*
X737428Y154375D01*
X737701Y154000*
X737974Y154375*
X737701Y154750*
X742064Y161875D02*
X741246Y161500D01*
X740701Y160375*
X740428Y158500*
Y157375*
X740701Y155500*
X741246Y154375*
X742064Y154000*
X742610*
X743428Y154375*
X743974Y155500*
X744246Y157375*
Y158500*
X743974Y160375*
X743428Y161500*
X742610Y161875*
X742064*
X501337Y137875D02*
X500519Y137500D01*
X499974Y136375*
X499701Y134500*
Y133375*
X499974Y131500*
X500519Y130375*
X501337Y130000*
X501883*
X502701Y130375*
X503246Y131500*
X503519Y133375*
Y134500*
X503246Y136375*
X502701Y137500*
X501883Y137875*
X501337*
X506246Y130750D02*
X505974Y130375D01*
X506246Y130000*
X506519Y130375*
X506246Y130750*
X511701Y137875D02*
X508974Y132625D01*
X513064*
X511701Y137875D02*
Y130000D01*
X590155Y137875D02*
X593155D01*
X591519Y134875*
X592337*
X592883Y134500*
X593155Y134125*
X593428Y133000*
Y132250*
X593155Y131125*
X592610Y130375*
X591792Y130000*
X590974*
X590155Y130375*
X589883Y130750*
X589610Y131500*
X599701Y137875D02*
X596974Y130000D01*
X595883Y137875D02*
X599701D01*
X631701Y130000D02*
X637701Y136000D01*
X631701Y142000*
X625701Y136000*
X631701Y130000*
Y136000D02*
Y142000D01*
X658337Y137875D02*
X660519Y134125D01*
Y130000*
X662701Y137875D02*
X660519Y134125D01*
X665155Y137875D02*
Y130000D01*
Y137875D02*
X668701D01*
X665155Y134125D02*
X667337D01*
X665155Y130000D02*
X668701D01*
X674974Y136750D02*
X674428Y137500D01*
X673610Y137875*
X672519*
X671701Y137500*
X671155Y136750*
Y136000*
X671428Y135250*
X671701Y134875*
X672246Y134500*
X673883Y133750*
X674428Y133375*
X674701Y133000*
X674974Y132250*
Y131125*
X674428Y130375*
X673610Y130000*
X672519*
X671701Y130375*
X671155Y131125*
X711519Y136750D02*
Y130000D01*
X709064Y133375D02*
X713974D01*
X721337Y139375D02*
X716428Y127375D01*
X723792Y133375D02*
X728701D01*
X732792Y137875D02*
X731974Y137500D01*
X731428Y136375*
X731155Y134500*
Y133375*
X731428Y131500*
X731974Y130375*
X732792Y130000*
X733337*
X734155Y130375*
X734701Y131500*
X734974Y133375*
Y134500*
X734701Y136375*
X734155Y137500*
X733337Y137875*
X732792*
X737701Y130750D02*
X737428Y130375D01*
X737701Y130000*
X737974Y130375*
X737701Y130750*
X742064Y137875D02*
X741246Y137500D01*
X740701Y136375*
X740428Y134500*
Y133375*
X740701Y131500*
X741246Y130375*
X742064Y130000*
X742610*
X743428Y130375*
X743974Y131500*
X744246Y133375*
Y134500*
X743974Y136375*
X743428Y137500*
X742610Y137875*
X742064*
X501337Y113875D02*
X500519Y113500D01*
X499974Y112375*
X499701Y110500*
Y109375*
X499974Y107500*
X500519Y106375*
X501337Y106000*
X501883*
X502701Y106375*
X503246Y107500*
X503519Y109375*
Y110500*
X503246Y112375*
X502701Y113500*
X501883Y113875*
X501337*
X506246Y106750D02*
X505974Y106375D01*
X506246Y106000*
X506519Y106375*
X506246Y106750*
X512519Y113875D02*
X509792D01*
X509519Y110500*
X509792Y110875*
X510610Y111250*
X511428*
X512246Y110875*
X512792Y110125*
X513064Y109000*
X512792Y108250*
X512519Y107125*
X511974Y106375*
X511155Y106000*
X510337*
X509519Y106375*
X509246Y106750*
X508974Y107500*
X593019Y112000D02*
Y112375D01*
X593292Y113125*
X593564Y113500*
X594110Y113875*
X595201*
X595746Y113500*
X596019Y113125*
X596292Y112375*
Y111625*
X596019Y110875*
X595474Y109750*
X592746Y106000*
X596564*
X625701D02*
X637701D01*
X625701Y118000*
X637701*
X625701Y106000*
X658337Y113875D02*
X660519Y110125D01*
Y106000*
X662701Y113875D02*
X660519Y110125D01*
X665155Y113875D02*
Y106000D01*
Y113875D02*
X668701D01*
X665155Y110125D02*
X667337D01*
X665155Y106000D02*
X668701D01*
X674974Y112750D02*
X674428Y113500D01*
X673610Y113875*
X672519*
X671701Y113500*
X671155Y112750*
Y112000*
X671428Y111250*
X671701Y110875*
X672246Y110500*
X673883Y109750*
X674428Y109375*
X674701Y109000*
X674974Y108250*
Y107125*
X674428Y106375*
X673610Y106000*
X672519*
X671701Y106375*
X671155Y107125*
X711519Y112750D02*
Y106000D01*
X709064Y109375D02*
X713974D01*
X721337Y115375D02*
X716428Y103375D01*
X723792Y109375D02*
X728701D01*
X732792Y113875D02*
X731974Y113500D01*
X731428Y112375*
X731155Y110500*
Y109375*
X731428Y107500*
X731974Y106375*
X732792Y106000*
X733337*
X734155Y106375*
X734701Y107500*
X734974Y109375*
Y110500*
X734701Y112375*
X734155Y113500*
X733337Y113875*
X732792*
X737701Y106750D02*
X737428Y106375D01*
X737701Y106000*
X737974Y106375*
X737701Y106750*
X742064Y113875D02*
X741246Y113500D01*
X740701Y112375*
X740428Y110500*
Y109375*
X740701Y107500*
X741246Y106375*
X742064Y106000*
X742610*
X743428Y106375*
X743974Y107500*
X744246Y109375*
Y110500*
X743974Y112375*
X743428Y113500*
X742610Y113875*
X742064*
X0Y0D02*
M02*
