%
T1C.00787F0S0
X012362Y011181
X011969Y011181
X011575Y011181
X012756Y011181
X011969Y011575
X011575Y011575
X011969Y011969
X011575Y011969
X012736Y013346
X012087Y013504
X011339Y013524
X010945Y013524
X01128Y018268
X010886Y018268
X011575Y018268
X012559Y018268
X012402Y023622
X011181Y024567
X010787Y024567
X010394Y024567
X012598Y024843
X010787Y024961
X011181Y024961
X010394Y024961
X011181Y025354
X010394Y025354
X011181Y027717
X010394Y027717
X012598Y027835
X010394Y02811
X010787Y02811
X011181Y02811
X010787Y028504
X010394Y028504
X011181Y028504
X014331Y029291
X015118Y029291
X014724Y029291
X014331Y028898
X014724Y028898
X015118Y028898
X014055Y023622
X014843Y022756
X012992Y021732
X015118Y020118
X015354Y018858
X014232Y018268
X01315Y016693
X013543Y016693
X014331Y015906
X013937Y015906
X013543Y015906
X01315Y015906
X013543Y015118
X014331Y015118
X013937Y015118
X01315Y015118
X014449Y013504
X014154Y013504
X013819Y013504
X013051Y013346
X01315Y011181
X013543Y011181
X01315Y010787
X013543Y010787
X013543Y010394
X01315Y010394
X017559Y01626
X017717Y017165
X016929Y018031
X01563Y01811
X016181Y018228
X016614Y018327
X017165Y018602
X016181Y019567
X01563Y020197
X017461Y023543
X017461Y024193
X017244Y024705
X017087Y025689
X015512Y028898
X015512Y029291
X020236Y020709
X018799Y020669
X019409Y020669
X019843Y018602
X019665Y0175
X020039Y016535
X020335Y013169
X019843Y012362
X020236Y012362
X019843Y011969
X020236Y011969
X019469Y011004
X02063Y011969
X021024Y011969
X021417Y011969
X021811Y011969
X022205Y011969
X022205Y012362
X021417Y012362
X021811Y012362
X02063Y012362
X021024Y012362
X022717Y020787
X021811Y025748
X021417Y025748
X022205Y025748
X021024Y025748
X02063Y025748
X021811Y026535
X021417Y026535
X02063Y026535
X021024Y026535
X022205Y026535
X025197Y024193
X025315Y022697
X023543Y020866
X02437Y020709
X023622Y019173
X025079Y018327
X023622Y01748
X025335Y017087
X026811Y010787
X027776Y014961
X027874Y01565
X026063Y017795
X026378Y018031
X025433Y018858
X026299Y020079
X025748Y020197
X025787Y020827
X026063Y021201
X026535Y021339
X025433Y021693
X026043Y022205
X027087Y022677
X026732Y022933
X026535Y02374
X026043Y024134
X026122Y024547
X025571Y024961
X025787Y025354
X025768Y025925
X025512Y026634
X025768Y027205
X02748Y027953
X026535Y02811
X027087Y028583
X026535Y028898
X026142Y028898
X026142Y029291
X026929Y029291
X026535Y029291
X02748Y02937
X02811Y028504
X029291Y028504
X028898Y028504
X028504Y028504
X02811Y02811
X029291Y02811
X028504Y02811
X028898Y02811
X029843Y025787
X029528Y024961
X029843Y024291
X029528Y024016
X028031Y017953
X028189Y017185
X028346Y015276
X02815Y014646
X028465Y012913
X031575Y011654
X032126Y012795
X030591Y014035
X030846Y015512
X030846Y016043
X031299Y016181
X03065Y018307
X031299Y018543
X032835Y018661
X031811Y019843
X031772Y02063
X032165Y025354
X031811Y025787
X03185Y026654
X032362Y027362
X030472Y027362
X033031Y026181
X033031Y025472
X033366Y024016
X034094Y023957
X033366Y023583
X032933Y023091
X033287Y022697
X033622Y022362
X034213Y022343
X034409Y020236
X034016Y018661
X033228Y018661
X033622Y018661
X034409Y018661
X034409Y018268
X033622Y018268
X034016Y018268
X033602Y01561
X03378Y014213
X032953Y012815
X035413Y011654
X037283Y01185
X035551Y013386
X035945Y019252
X037559Y021417
X037559Y021811
X035906Y022283
X037559Y025354
X037559Y025748
X036575Y025866
X035906Y027165
X036457Y02878
X035906Y02937
X037953Y025748
X039134Y025748
X03874Y025748
X038346Y025748
X037953Y025354
X038346Y025354
X03874Y025354
X039134Y025354
X03874Y021811
X038346Y021811
X037953Y021811
X039134Y021811
X03874Y021417
X039134Y021417
X038346Y021417
X037953Y021417
X038858Y015512
X038858Y014646
X038917Y01185
X041102Y010394
X040709Y010394
X040709Y010787
X041102Y010787
X04063Y013661
T2C.01181F095S3
X015335Y010787
X018307Y012402
X018583Y019173
X014882Y026024
X028504Y027441
X028504Y026614
X025079Y019567
X020925Y010846
X03122Y011102
X034035Y012283
X034094Y015866
X033425Y019291
X034291Y024193
X035433Y024094
X035433Y022677
X037008Y013661
X038228Y013661
X038622Y012283
X040984Y012244
X040748Y01689
X040748Y017717
X040748Y018543
X040748Y019803
X040748Y02063
X040748Y023543
X040748Y02437
X040748Y026732
X040748Y027559
T3C.01575F095S3
X01126Y02122
X01061Y02122
X01061Y021654
X011654Y023071
X017382Y026693
X018819Y026575
X018819Y026181
X018976Y015472
X018976Y01502
X01939Y01502
X019705Y014173
X019252Y014173
X016024Y01315
X018287Y011673
X025Y010453
X022756Y011673
X022756Y012441
X022756Y013031
X024488Y014764
X024035Y014764
X023622Y016614
X024469Y017008
X023622Y017067
X022756Y024272
X022264Y024272
X028661Y011634
X034783Y011181
X032264Y011161
X037283Y012717
X037283Y013209
X037736Y015472
X037283Y015472
X038307Y018465
X038307Y018898
X038799Y018898
X038799Y01935
X039016Y023189
T4C.01969F095S3
X040709Y014803
X040709Y015295
T5C.02953F197S55
X015512Y010246
X015512Y011329
X021024Y011329
X026535Y011329
X021024Y010246
X026535Y010246
M30
