*
*
G04 PADS 9.5 Build Number: 522968 generated Gerber (RS-274-X) file*
G04 PC Version=2.1*
*
%IN "MiniVario_Full_Alt.pcb"*%
*
%MOIN*%
*
%FSLAX35Y35*%
*
*
*
*
G04 PC Standard Apertures*
*
*
G04 Thermal Relief Aperture macro.*
%AMTER*
1,1,$1,0,0*
1,0,$1-$2,0,0*
21,0,$3,$4,0,0,45*
21,0,$3,$4,0,0,135*
%
*
*
G04 Annular Aperture macro.*
%AMANN*
1,1,$1,0,0*
1,0,$2,0,0*
%
*
*
G04 Odd Aperture macro.*
%AMODD*
1,1,$1,0,0*
1,0,$1-0.005,0,0*
%
*
*
G04 PC Custom Aperture Macros*
*
*
*
*
*
*
G04 PC Aperture Table*
*
%ADD010C,0.001*%
%ADD021R,0.03543X0.03543*%
%ADD031C,0.02953*%
%ADD049C,0.02362*%
%ADD050C,0.01969*%
%ADD104C,0.0315*%
%ADD105TER,0.03543X0.00886X0.00591X0.03758*%
%ADD106TER,0.01969X0.00492X0.00328X0.02088*%
%ADD107TER,0.0315X0.00787X0.00525X0.0334*%
%ADD108TER,0.02362X0.00591X0.00394X0.02505*%
*
*
*
*
G04 PC Circuitry*
G04 Layer Name MiniVario_Full_Alt.pcb - circuitry*
%LPD*%
*
*
G04 PC Custom Flashes*
G04 Layer Name MiniVario_Full_Alt.pcb - flashes*
%LPD*%
*
*
G04 PC Circuitry*
G04 Layer Name MiniVario_Full_Alt.pcb - circuitry*
%LPD*%
*
G54D10*
G54D21*
G01X407087Y148031D03*
G54D31*
X210236Y113287D03*
Y102461D03*
X155118Y113287D03*
Y102461D03*
X265354Y113287D03*
Y102461D03*
G54D49*
X153346Y107874D03*
X209252Y108465D03*
X312205Y111024D03*
X183071Y124016D03*
X340354Y122835D03*
X386220D03*
X370079Y136614D03*
X382283D03*
X340945Y158661D03*
X185827Y191732D03*
X250787Y195669D03*
X334252Y192913D03*
X354331Y226772D03*
Y240945D03*
X148819Y260236D03*
X285039Y266142D03*
Y274409D03*
G54D50*
X268110Y107874D03*
X194685Y110039D03*
X315748Y116535D03*
X354134D03*
X372835Y118504D03*
X389173D03*
X284646Y129134D03*
X321260Y127953D03*
X329528Y128150D03*
X203346Y131693D03*
X277756Y149606D03*
X281496Y146457D03*
X305906Y140354D03*
X337795Y142126D03*
X278740Y156496D03*
X283465Y152756D03*
X308465Y155118D03*
X336024Y156102D03*
X175591Y162598D03*
X200394Y165354D03*
X308465Y160433D03*
X312992Y161811D03*
X177165Y171654D03*
X196654Y175000D03*
X236220Y174803D03*
X253346Y170866D03*
X260630Y177953D03*
X281890Y171850D03*
X280315Y179528D03*
X153543Y188583D03*
X156299Y181102D03*
X161811Y182283D03*
X171654Y186024D03*
X169291Y180315D03*
X166142Y183268D03*
X198425Y186024D03*
X250787Y183268D03*
X254331Y188583D03*
X263780Y180315D03*
X306496Y183071D03*
X312992Y185433D03*
X161811Y195669D03*
X236220Y191732D03*
X318110Y198425D03*
X359449Y192520D03*
X151181Y201181D03*
X156299Y201969D03*
X187992Y206693D03*
X194094D03*
X202362Y207087D03*
X227165Y207874D03*
X243701Y207087D03*
X235433Y208661D03*
X262992Y200787D03*
X257874Y208268D03*
X257480Y201969D03*
X317717Y206299D03*
X344094Y202362D03*
X129921Y217323D03*
X254331Y216929D03*
X260630Y212008D03*
X265354Y213386D03*
X148425Y227559D03*
X253150Y226969D03*
X260433Y222047D03*
X270866Y226772D03*
X267323Y229331D03*
X332874Y226969D03*
X342126Y223425D03*
X336220Y223622D03*
X359055Y222835D03*
X124016Y236220D03*
X140551D03*
X174606Y235433D03*
X265354Y237402D03*
X333661Y235827D03*
X329331Y230906D03*
X340945Y239567D03*
X125984Y248425D03*
X172441Y247047D03*
X174606Y241929D03*
X251969D03*
X261220Y245472D03*
X260433Y241339D03*
X255709Y249606D03*
X298425Y242913D03*
X295276Y249606D03*
Y240157D03*
X333661D03*
X170866Y256890D03*
X257874Y253543D03*
X257677Y259252D03*
X298425Y257874D03*
X318110D03*
X321654Y253543D03*
X330315Y254724D03*
X365748Y258661D03*
X255118Y266339D03*
X318504Y266535D03*
X330315Y261811D03*
X125984Y278346D03*
X257677Y272047D03*
X274803Y279528D03*
X304724Y273622D03*
X323622D03*
X359055Y271654D03*
X270866Y285827D03*
X265354Y281102D03*
X364567Y287795D03*
X274803Y293701D03*
X359055D03*
G54D104*
X182874Y116732D03*
X227559D03*
X286614Y116339D03*
X227559Y124409D03*
X372835Y127165D03*
X160236Y131496D03*
X227559Y130315D03*
X372835Y132087D03*
X192520Y141732D03*
X197047D03*
X240354Y147638D03*
X244882D03*
X189764Y150197D03*
Y154724D03*
X193898Y150197D03*
X372835Y154724D03*
X377362D03*
X236220Y166142D03*
Y170669D03*
X244685Y170079D03*
X383071Y188976D03*
Y184646D03*
X387992Y188976D03*
Y193504D03*
X106102Y216535D03*
X112598Y212205D03*
X106102D03*
X116535Y230709D03*
X390157Y231890D03*
X222638Y242717D03*
X227559D03*
X188189Y261811D03*
Y265748D03*
G54D105*
X407087Y152953D03*
G54D106*
X131496Y103937D03*
Y107874D03*
X135433D03*
Y103937D03*
X407087D03*
X411024D03*
X407087Y107874D03*
X411024D03*
X119685Y119685D03*
X115748D03*
X123622Y111811D03*
X119685D03*
X115748D03*
X119685Y115748D03*
X115748D03*
X131496Y111811D03*
X127559D03*
X135433D03*
X198425Y119685D03*
X202362D03*
X206299D03*
X210236D03*
X214173D03*
X218110D03*
X222047D03*
X198425Y123622D03*
X202362D03*
X206299D03*
X210236D03*
X222047D03*
X214173D03*
X218110D03*
X109449Y135236D03*
X113386D03*
X120866Y135039D03*
X130512Y133465D03*
X127362D03*
X141535Y135039D03*
X138189D03*
X144488D03*
X355512Y133858D03*
X406299Y136614D03*
X388583Y146457D03*
X131496Y159055D03*
Y151181D03*
X135433Y159055D03*
X139370D03*
X143307D03*
Y151181D03*
X139370D03*
X135433D03*
X388583Y155118D03*
X131496Y166929D03*
X135433D03*
X112795Y182677D03*
X108858D03*
X115748D03*
X125591D03*
X142323D03*
X332283Y186614D03*
X328346D03*
X336220Y182677D03*
X340157D03*
Y186614D03*
X336220D03*
X344094Y182677D03*
Y186614D03*
X375591Y214173D03*
X379528D03*
X383465D03*
Y218110D03*
X379528D03*
X375591D03*
X387402Y214173D03*
X391339D03*
X387402Y218110D03*
X391339D03*
X103937Y249606D03*
X107874D03*
X111811D03*
Y245669D03*
X107874D03*
X103937D03*
X111811Y253543D03*
X103937D03*
X210236Y257480D03*
X206299D03*
X222047D03*
X218110D03*
X214173D03*
X375591Y253543D03*
X379528D03*
X383465D03*
Y257480D03*
X379528D03*
X375591D03*
X387402Y253543D03*
X391339D03*
Y257480D03*
X387402D03*
X206299Y265354D03*
X210236D03*
X222047D03*
X218110D03*
X214173D03*
X111811Y277165D03*
X103937D03*
Y281102D03*
X107874D03*
X111811Y285039D03*
X107874D03*
X103937D03*
X111811Y281102D03*
X143307Y288976D03*
X147244D03*
X151181D03*
X155118D03*
X261417D03*
X265354D03*
X281102Y281102D03*
Y285039D03*
X292913Y281102D03*
Y285039D03*
X285039Y281102D03*
X288976D03*
Y285039D03*
X285039D03*
X143307Y292913D03*
X151181D03*
X147244D03*
X155118D03*
X261417D03*
X269291D03*
X265354D03*
G54D107*
X250000Y104528D03*
X322638Y111614D03*
X347835Y111811D03*
X173819Y266929D03*
G54D108*
X409843Y122441D03*
X407480Y168898D03*
Y177165D03*
Y185433D03*
Y198031D03*
Y206299D03*
Y235433D03*
X342913Y241929D03*
X407480Y243701D03*
Y267323D03*
Y275591D03*
X0Y0D02*
M02*
