*
*
G04 PADS 9.5 Build Number: 522968 generated Gerber (RS-274-X) file*
G04 PC Version=2.1*
*
%IN "MiniVario_Full_Alt.pcb"*%
*
%MOIN*%
*
%FSLAX35Y35*%
*
*
*
*
G04 PC Standard Apertures*
*
*
G04 Thermal Relief Aperture macro.*
%AMTER*
1,1,$1,0,0*
1,0,$1-$2,0,0*
21,0,$3,$4,0,0,45*
21,0,$3,$4,0,0,135*
%
*
*
G04 Annular Aperture macro.*
%AMANN*
1,1,$1,0,0*
1,0,$2,0,0*
%
*
*
G04 Odd Aperture macro.*
%AMODD*
1,1,$1,0,0*
1,0,$1-0.005,0,0*
%
*
*
G04 PC Custom Aperture Macros*
*
*
*
*
*
*
G04 PC Aperture Table*
*
%ADD010C,0.001*%
%ADD063R,0.08874X0.04543*%
%ADD064R,0.04543X0.08874*%
%ADD065R,0.20685X0.20685*%
%ADD066R,0.04X0.048*%
%ADD067R,0.048X0.04*%
%ADD068R,0.11236X0.1163*%
%ADD069O,0.05724X0.02969*%
%ADD070R,0.04543X0.04543*%
%ADD071C,0.04543*%
%ADD072R,0.04268X0.0348*%
%ADD073R,0.046X0.046*%
%ADD074R,0.046X0.06*%
%ADD075R,0.0348X0.04268*%
%ADD076R,0.03756X0.08874*%
%ADD077R,0.08874X0.03756*%
%ADD079C,0.03953*%
%ADD080R,0.05331X0.03362*%
%ADD081O,0.02969X0.05724*%
%ADD082R,0.06512X0.12811*%
%ADD083R,0.07299X0.15173*%
%ADD084R,0.06X0.046*%
%ADD090R,0.03756X0.03953*%
%ADD091R,0.01984X0.0415*%
%ADD092R,0.0415X0.01984*%
%ADD093R,0.07299X0.02772*%
%ADD094R,0.02575X0.03559*%
%ADD095R,0.05803X0.03717*%
*
*
*
*
G04 PC Circuitry*
G04 Layer Name MiniVario_Full_Alt.pcb - circuitry*
%LPD*%
*
*
G04 PC Custom Flashes*
G04 Layer Name MiniVario_Full_Alt.pcb - flashes*
%LPD*%
*
*
G04 PC Circuitry*
G04 Layer Name MiniVario_Full_Alt.pcb - circuitry*
%LPD*%
*
G54D10*
G54D63*
G01X180315Y266969D03*
Y261969D03*
Y256969D03*
Y251969D03*
Y246969D03*
Y241969D03*
Y236969D03*
Y231969D03*
Y226969D03*
Y221969D03*
Y216969D03*
Y211969D03*
Y206969D03*
Y201969D03*
X247244D03*
Y206969D03*
Y211969D03*
Y216969D03*
Y221969D03*
Y226969D03*
Y231969D03*
Y236969D03*
Y241969D03*
Y246969D03*
Y251969D03*
Y256969D03*
Y261969D03*
Y266969D03*
G54D64*
X191280Y198031D03*
X196280D03*
X201280D03*
X206280D03*
X211280D03*
X216280D03*
X221280D03*
X226280D03*
X231280D03*
X236280D03*
G54D65*
X207874Y237441D03*
G54D66*
X121654Y207136D03*
Y213336D03*
X138189D03*
Y207136D03*
X146457D03*
Y213336D03*
X129921D03*
Y207136D03*
X323228Y286171D03*
Y279971D03*
X174409Y106743D03*
Y112943D03*
X182874Y106743D03*
Y112943D03*
X286614Y106349D03*
Y112549D03*
X329528Y131939D03*
Y138139D03*
X321260Y131939D03*
Y138139D03*
X151181Y121703D03*
Y127903D03*
X227559Y106743D03*
Y112943D03*
X104724Y189813D03*
Y196013D03*
X244094Y106743D03*
Y112943D03*
X142520Y127903D03*
Y121703D03*
X278346Y106349D03*
Y112549D03*
X121654Y196013D03*
Y189813D03*
X146457Y196013D03*
Y189813D03*
X129921D03*
Y196013D03*
X138189Y189813D03*
Y196013D03*
X133858Y127903D03*
Y121703D03*
X106299D03*
Y127903D03*
X235827Y112943D03*
Y106743D03*
X294882Y112549D03*
Y106349D03*
X191142Y112943D03*
Y106743D03*
G54D67*
X397294Y235433D03*
X403494D03*
X397294Y206299D03*
X403494D03*
X162549Y279921D03*
X156349D03*
X397294Y185433D03*
X403494D03*
X365698Y181890D03*
X359498D03*
Y164961D03*
X365698D03*
X397294Y168898D03*
X403494D03*
X365698Y172835D03*
X359498D03*
X397294Y177165D03*
X403494D03*
X365698Y154724D03*
X359498D03*
X220719Y162402D03*
X226919D03*
X281053Y198031D03*
X274853D03*
X281053Y206299D03*
X274853D03*
X359498Y127559D03*
X365698D03*
X359498Y136614D03*
X365698D03*
X398769Y146457D03*
X392569D03*
X274853Y266142D03*
X281053D03*
Y257874D03*
X274853D03*
Y274409D03*
X281053D03*
X162549Y205512D03*
X156349D03*
X181840Y150394D03*
X175640D03*
X281053Y249606D03*
X274853D03*
X365305Y206299D03*
X359105D03*
X397294Y243701D03*
X403494D03*
X281053Y241339D03*
X274853D03*
X365305Y251575D03*
X359105D03*
X281053Y233071D03*
X274853D03*
X281053Y224803D03*
X274853D03*
X365305Y218504D03*
X359105D03*
X281053Y216535D03*
X274853D03*
X359105Y243307D03*
X365305D03*
X162549Y271654D03*
X156349D03*
X162549Y230315D03*
X156349D03*
X162549Y222047D03*
X156349D03*
X302313Y165354D03*
X296113D03*
X365305Y198031D03*
X359105D03*
X162549Y238583D03*
X156349D03*
X162549Y213780D03*
X156349D03*
X112549Y227165D03*
X106349D03*
X156349Y263386D03*
X162549D03*
X397294Y198031D03*
X403494D03*
X112549Y238583D03*
X106349D03*
X117372Y128346D03*
X123572D03*
X220719Y145866D03*
X226919D03*
Y154134D03*
X220719D03*
X302313Y173622D03*
X296113D03*
X156349Y255118D03*
X162549D03*
X365305Y226772D03*
X359105D03*
X307530Y266535D03*
X313730D03*
X307530Y257874D03*
X313730D03*
X334302Y198031D03*
X340502D03*
X307530D03*
X313730D03*
X307530Y206299D03*
X313730D03*
X359105Y235039D03*
X365305D03*
X340502Y206299D03*
X334302D03*
X162549Y246850D03*
X156349D03*
X175640Y133858D03*
X181840D03*
X175640Y166929D03*
X181840D03*
X175640Y158661D03*
X181840D03*
X226919Y170669D03*
X220719D03*
X365698Y146850D03*
X359498D03*
X302313Y157087D03*
X296113D03*
X365305Y267717D03*
X359105D03*
X396113Y136614D03*
X402313D03*
X398769Y155118D03*
X392569D03*
X365305Y275984D03*
X359105D03*
X397294Y267323D03*
X403494D03*
X397294Y275591D03*
X403494D03*
X302313Y148819D03*
X296113D03*
G54D68*
X325197Y157087D03*
G54D69*
X387402Y267520D03*
Y271260D03*
Y275000D03*
X375591D03*
Y267520D03*
Y180906D03*
Y177165D03*
Y173425D03*
X387402D03*
Y180906D03*
X405118Y118701D03*
Y122441D03*
Y126181D03*
X393307D03*
Y118701D03*
X375591Y206102D03*
Y202362D03*
Y198622D03*
X387402D03*
Y206102D03*
G54D70*
X407087Y148031D03*
G54D71*
Y152953D03*
G54D72*
X296850Y287461D03*
Y278681D03*
X304724D03*
Y287461D03*
X312598D03*
Y278681D03*
G54D73*
X386033Y126341D03*
X378533D03*
X253730Y136061D03*
X261230D03*
X278309Y164360D03*
Y171860D03*
G54D74*
X382283Y118341D03*
X257480Y144061D03*
G54D75*
X386280Y136614D03*
X377500D03*
X183130Y141732D03*
X174350D03*
G54D76*
X103543Y142047D03*
X107874D03*
X112205D03*
X116535D03*
X120866D03*
X125197D03*
X129528D03*
X133858D03*
X138189D03*
X142520D03*
X146850D03*
Y176063D03*
X142520D03*
X138189D03*
X133858D03*
X129528D03*
X125197D03*
X120866D03*
X116535D03*
X112205D03*
X107874D03*
X103543D03*
G54D77*
X153937Y148307D03*
Y152638D03*
Y156969D03*
Y161299D03*
Y165630D03*
Y169961D03*
G54D79*
X210236Y113287D03*
Y102461D03*
X155118Y113287D03*
Y102461D03*
X265354Y113287D03*
Y102461D03*
G54D80*
X385827Y231988D03*
Y236909D03*
Y241831D03*
Y246752D03*
X377165D03*
Y241831D03*
Y236909D03*
Y231988D03*
G54D81*
X244685Y152362D03*
X248425D03*
X252165D03*
Y164173D03*
X244685D03*
G54D82*
X343307Y283071D03*
X334646D03*
G54D83*
X121654Y278346D03*
Y248425D03*
G54D84*
X270309Y168110D03*
G54D90*
X255906Y126870D03*
Y120374D03*
X268504D03*
Y126870D03*
G54D91*
X320276Y149409D03*
X322244D03*
X324213D03*
X326181D03*
X328150D03*
X330118D03*
Y164764D03*
X328150D03*
X326181D03*
X324213D03*
X322244D03*
X320276D03*
G54D92*
X332874Y152165D03*
Y154134D03*
Y156102D03*
Y158071D03*
Y160039D03*
Y162008D03*
X317520D03*
Y160039D03*
Y158071D03*
Y156102D03*
Y154134D03*
Y152165D03*
G54D93*
X123917Y233366D03*
Y230807D03*
Y228248D03*
Y225689D03*
X140650D03*
Y228248D03*
Y230807D03*
Y233366D03*
G54D94*
X277756Y152657D03*
X275197D03*
X272638D03*
Y146555D03*
X275197D03*
X277756D03*
G54D95*
X195295Y162008D03*
Y158268D03*
Y154528D03*
X205492D03*
Y158268D03*
Y162008D03*
X0Y0D02*
M02*
