*
*
G04 PADS 9.5 Build Number: 522968 generated Gerber (RS-274-X) file*
G04 PC Version=2.1*
*
%IN "MiniVario_Full_Alt.pcb"*%
*
%MOIN*%
*
%FSLAX35Y35*%
*
*
*
*
G04 PC Standard Apertures*
*
*
G04 Thermal Relief Aperture macro.*
%AMTER*
1,1,$1,0,0*
1,0,$1-$2,0,0*
21,0,$3,$4,0,0,45*
21,0,$3,$4,0,0,135*
%
*
*
G04 Annular Aperture macro.*
%AMANN*
1,1,$1,0,0*
1,0,$2,0,0*
%
*
*
G04 Odd Aperture macro.*
%AMODD*
1,1,$1,0,0*
1,0,$1-0.005,0,0*
%
*
*
G04 PC Custom Aperture Macros*
*
*
*
*
*
*
G04 PC Aperture Table*
*
%ADD010C,0.001*%
%ADD014R,0.03X0.038*%
%ADD015R,0.038X0.03*%
%ADD024R,0.036X0.036*%
%ADD030R,0.06102X0.03937*%
%ADD037R,0.05X0.036*%
%ADD039R,0.01575X0.05315*%
%ADD040R,0.06299X0.05512*%
%ADD041R,0.05709X0.05118*%
%ADD042R,0.0748X0.0748*%
%ADD052R,0.05512X0.01181*%
%ADD053R,0.09055X0.10433*%
%ADD054R,0.0315X0.06614*%
%ADD055R,0.05079X0.05512*%
%ADD056R,0.05079X0.05118*%
%ADD057R,0.05906X0.06693*%
%ADD058R,0.06299X0.05906*%
%ADD059R,0.06693X0.05906*%
%ADD109R,0.04724X0.06299*%
*
*
*
*
G04 PC Circuitry*
G04 Layer Name MiniVario_Full_Alt.pcb - circuitry*
%LPD*%
*
*
G04 PC Custom Flashes*
G04 Layer Name MiniVario_Full_Alt.pcb - flashes*
%LPD*%
*
*
G04 PC Circuitry*
G04 Layer Name MiniVario_Full_Alt.pcb - circuitry*
%LPD*%
*
G54D10*
G54D14*
G01X227165Y217667D03*
Y211467D03*
X202362Y217667D03*
Y211467D03*
X235433Y217667D03*
Y211467D03*
X243701Y217667D03*
Y211467D03*
X176969Y121309D03*
Y127509D03*
X160236Y121309D03*
Y127509D03*
X185827Y217667D03*
Y211467D03*
X194094Y217667D03*
Y211467D03*
X218898Y217667D03*
Y211467D03*
X210630Y217667D03*
Y211467D03*
X244685Y161761D03*
Y155561D03*
X227165Y201919D03*
Y195719D03*
X202362Y201919D03*
Y195719D03*
X235433Y201919D03*
Y195719D03*
X243701Y201919D03*
Y195719D03*
X185827Y201919D03*
Y195719D03*
X194094Y201919D03*
Y195719D03*
X168701Y127509D03*
Y121309D03*
G54D15*
X344931Y158661D03*
X351131D03*
X344931Y150394D03*
X351131D03*
X303987Y116535D03*
X310187D03*
X360286D03*
X366486D03*
X129971Y278346D03*
X136171D03*
X129971Y256693D03*
X136171D03*
X112549Y222441D03*
X106349D03*
X112549Y230709D03*
X106349D03*
X136171Y270079D03*
X129971D03*
X136171Y248425D03*
X129971D03*
X344931Y133858D03*
X351131D03*
X344931Y142126D03*
X351131D03*
X307530Y212205D03*
X313730D03*
X307530Y220472D03*
X313730D03*
X307530Y228740D03*
X313730D03*
X307530Y237008D03*
X313730D03*
X307530Y245276D03*
X313730D03*
X307530Y253543D03*
X313730D03*
X307530Y261811D03*
X313730D03*
G54D24*
X322084Y198612D03*
Y206112D03*
G54D30*
X199902Y104528D03*
Y111220D03*
X220571Y104528D03*
Y111220D03*
X144783Y104528D03*
Y111220D03*
X165453Y104528D03*
Y111220D03*
X255020Y104528D03*
Y111220D03*
X275689Y104528D03*
Y111220D03*
G54D37*
X330084Y202362D03*
G54D39*
X340354Y117421D03*
X337795D03*
X335236D03*
X332677D03*
X330118D03*
G54D40*
X347835Y116535D03*
X322638D03*
G54D41*
X348720Y106890D03*
X321752D03*
G54D42*
X330512D03*
X339961D03*
G54D52*
X348031Y211220D03*
Y213189D03*
Y215157D03*
Y217126D03*
Y219094D03*
Y221063D03*
Y223031D03*
Y225000D03*
Y226969D03*
Y228937D03*
Y230906D03*
Y232874D03*
Y234843D03*
Y236811D03*
Y238780D03*
Y240748D03*
Y242717D03*
Y244685D03*
Y246654D03*
Y248622D03*
Y250591D03*
Y252559D03*
Y254528D03*
Y256496D03*
G54D53*
X352953Y263484D03*
Y204232D03*
G54D54*
X200000Y233760D03*
X204331D03*
X208661D03*
X212992D03*
X217323D03*
X221654D03*
X225984D03*
X230315D03*
G54D55*
X238406Y269390D03*
G54D56*
Y240256D03*
G54D57*
X237992Y292224D03*
X184843D03*
G54D58*
X235827Y233760D03*
G54D59*
X186024D03*
G54D109*
X312205Y103937D03*
X301969D03*
X368504D03*
X358268D03*
X0Y0D02*
M02*
