*
*
G04 PADS 9.5 Build Number: 522968 generated Gerber (RS-274-X) file*
G04 PC Version=2.1*
*
%IN "MiniVario_Full_Alt.pcb"*%
*
%MOIN*%
*
%FSLAX35Y35*%
*
*
*
*
G04 PC Standard Apertures*
*
*
G04 Thermal Relief Aperture macro.*
%AMTER*
1,1,$1,0,0*
1,0,$1-$2,0,0*
21,0,$3,$4,0,0,45*
21,0,$3,$4,0,0,135*
%
*
*
G04 Annular Aperture macro.*
%AMANN*
1,1,$1,0,0*
1,0,$2,0,0*
%
*
*
G04 Odd Aperture macro.*
%AMODD*
1,1,$1,0,0*
1,0,$1-0.005,0,0*
%
*
*
G04 PC Custom Aperture Macros*
*
*
*
*
*
*
G04 PC Aperture Table*
*
%ADD010C,0.001*%
%ADD045C,0.00787*%
%ADD051C,0.01*%
%ADD062C,0.00315*%
%ADD111C,0.00394*%
*
*
*
*
G04 PC Circuitry*
G04 Layer Name MiniVario_Full_Alt.pcb - circuitry*
%LPD*%
*
*
G04 PC Custom Flashes*
G04 Layer Name MiniVario_Full_Alt.pcb - flashes*
%LPD*%
*
*
G04 PC Circuitry*
G04 Layer Name MiniVario_Full_Alt.pcb - circuitry*
%LPD*%
*
G54D10*
G54D45*
G01X239567Y295669D02*
X183268D01*
Y236614*
X239567*
Y295669*
X320472Y120079D02*
X350000D01*
Y101181*
X320472*
Y120079*
G54D51*
X411220Y158858D02*
Y142126D01*
X389567*
Y158858*
X411220*
X390039Y156417D02*
X401850D01*
Y144409*
X389724*
X348819Y264173D02*
Y203543D01*
X359449*
Y199016*
X364961*
Y268701*
X359449*
Y264173*
X348819*
X346831Y155161D02*
X341031D01*
Y162161*
X346831*
X349231Y155161D02*
X355031D01*
Y162161*
X349231*
X342598Y146890D02*
Y153898D01*
X346831Y146894D02*
X341031D01*
Y153894*
X346831*
X349231Y146894D02*
X355031D01*
Y153894*
X349231*
X305887Y113035D02*
X300087D01*
Y120035*
X305887*
X308287Y113035D02*
X314087D01*
Y120035*
X308287*
X362186Y113035D02*
X356386D01*
Y120035*
X362186*
X364586Y113035D02*
X370386D01*
Y120035*
X364586*
X223665Y215767D02*
Y221567D01*
X230665*
Y215767*
X223665Y213367D02*
Y207567D01*
X230665*
Y213367*
X219488Y114764D02*
X200984D01*
Y100984*
X219488*
Y114764*
X215354Y99606D02*
X205118D01*
Y97047*
X215354*
Y99606*
X198862Y215767D02*
Y221567D01*
X205862*
Y215767*
X198862Y213367D02*
Y207567D01*
X205862*
Y213367*
X231933Y215767D02*
Y221567D01*
X238933*
Y215767*
X231933Y213367D02*
Y207567D01*
X238933*
Y213367*
X240201Y215767D02*
Y221567D01*
X247201*
Y215767*
X240201Y213367D02*
Y207567D01*
X247201*
Y213367*
X180469Y123209D02*
Y117409D01*
X173469*
Y123209*
X180469Y125609D02*
Y131409D01*
X173469*
Y125609*
X163736Y123209D02*
Y117409D01*
X156736*
Y123209*
X163736Y125609D02*
Y131409D01*
X156736*
Y125609*
X164370Y114764D02*
X145866D01*
Y100984*
X164370*
Y114764*
X160236Y99606D02*
X150000D01*
Y97047*
X160236*
Y99606*
X182327Y215767D02*
Y221567D01*
X189327*
Y215767*
X182327Y213367D02*
Y207567D01*
X189327*
Y213367*
X190594Y215767D02*
Y221567D01*
X197594*
Y215767*
X190594Y213367D02*
Y207567D01*
X197594*
Y213367*
X215398Y215767D02*
Y221567D01*
X222398*
Y215767*
X215398Y213367D02*
Y207567D01*
X222398*
Y213367*
X207126Y220000D02*
X214134D01*
X207130Y215767D02*
Y221567D01*
X214130*
Y215767*
X207130Y213367D02*
Y207567D01*
X214130*
Y213367*
X131871Y274846D02*
X126071D01*
Y281846*
X131871*
X134271Y274846D02*
X140071D01*
Y281846*
X134271*
X131871Y253193D02*
X126071D01*
Y260193*
X131871*
X134271Y253193D02*
X140071D01*
Y260193*
X134271*
X110649Y225941D02*
X116449D01*
Y218941*
X110649*
X108249Y225941D02*
X102449D01*
Y218941*
X108249*
X114882Y234213D02*
Y227205D01*
X110649Y234209D02*
X116449D01*
Y227209*
X110649*
X108249Y234209D02*
X102449D01*
Y227209*
X108249*
X134271Y273579D02*
X140071D01*
Y266579*
X134271*
X131871Y273579D02*
X126071D01*
Y266579*
X131871*
X134271Y251925D02*
X140071D01*
Y244925*
X134271*
X131871Y251925D02*
X126071D01*
Y244925*
X131871*
X241181Y164094D02*
X248189D01*
X241185Y159861D02*
Y165661D01*
X248185*
Y159861*
X241185Y157461D02*
Y151661D01*
X248185*
Y157461*
X346831Y130358D02*
X341031D01*
Y137358*
X346831*
X349231Y130358D02*
X355031D01*
Y137358*
X349231*
X346831Y138626D02*
X341031D01*
Y145626*
X346831*
X349231Y138626D02*
X355031D01*
Y145626*
X349231*
X309430Y208705D02*
X303630D01*
Y215705*
X309430*
X311830Y208705D02*
X317630D01*
Y215705*
X311830*
X309430Y216972D02*
X303630D01*
Y223972*
X309430*
X311830Y216972D02*
X317630D01*
Y223972*
X311830*
X309430Y225240D02*
X303630D01*
Y232240*
X309430*
X311830Y225240D02*
X317630D01*
Y232240*
X311830*
X309430Y233508D02*
X303630D01*
Y240508*
X309430*
X311830Y233508D02*
X317630D01*
Y240508*
X311830*
X309430Y241776D02*
X303630D01*
Y248776*
X309430*
X311830Y241776D02*
X317630D01*
Y248776*
X311830*
X309430Y250043D02*
X303630D01*
Y257043*
X309430*
X311830Y250043D02*
X317630D01*
Y257043*
X311830*
X309430Y258311D02*
X303630D01*
Y265311*
X309430*
X311830Y258311D02*
X317630D01*
Y265311*
X311830*
X329984Y199362D02*
Y196862D01*
X324984*
X329984Y205362D02*
Y207862D01*
X324984*
X320984Y201862D02*
Y202862D01*
X223665Y200019D02*
Y205819D01*
X230665*
Y200019*
X223665Y197619D02*
Y191819D01*
X230665*
Y197619*
X198862Y200019D02*
Y205819D01*
X205862*
Y200019*
X198862Y197619D02*
Y191819D01*
X205862*
Y197619*
X231933Y200019D02*
Y205819D01*
X238933*
Y200019*
X231933Y197619D02*
Y191819D01*
X238933*
Y197619*
X240201Y200019D02*
Y205819D01*
X247201*
Y200019*
X240201Y197619D02*
Y191819D01*
X247201*
Y197619*
X182327Y200019D02*
Y205819D01*
X189327*
Y200019*
X182327Y197619D02*
Y191819D01*
X189327*
Y197619*
X190594Y200019D02*
Y205819D01*
X197594*
Y200019*
X190594Y197619D02*
Y191819D01*
X197594*
Y197619*
X165201Y125609D02*
Y131409D01*
X172201*
Y125609*
X165201Y123209D02*
Y117409D01*
X172201*
Y123209*
X274606Y114764D02*
X256102D01*
Y100984*
X274606*
Y114764*
X270472Y99606D02*
X260236D01*
Y97047*
X270472*
Y99606*
X300787Y100787D02*
X313386D01*
Y103150*
X300787*
Y100787*
X303150Y98031D02*
X304331Y97047D01*
X309843*
X311024Y98031*
Y100787*
X303150*
Y98031*
X357087Y100787D02*
X369685D01*
Y103150*
X357087*
Y100787*
X359449Y98031D02*
X360630Y97047D01*
X366142*
X367323Y98031*
Y100787*
X359449*
Y98031*
G54D62*
X410916Y140182D02*
Y138214D01*
X411006Y137844*
X411095Y137721*
X411274Y137598*
X411453*
X411632Y137721*
X411722Y137844*
X411811Y138214*
Y138460*
X408948Y140182D02*
X409843D01*
X409932Y139075*
X409843Y139198*
X409574Y139321*
X409306*
X409037Y139198*
X408858Y138952*
X408769Y138583*
X408858Y138337*
X408948Y137968*
X409127Y137721*
X409395Y137598*
X409664*
X409932Y137721*
X410021Y137844*
X410111Y138091*
X354026Y195300D02*
Y193332D01*
X354116Y192963*
X354205Y192840*
X354384Y192717*
X354563*
X354742Y192840*
X354832Y192963*
X354921Y193332*
Y193578*
X353042Y195300D02*
X352058D01*
X352595Y194316*
X352326*
X352147Y194193*
X352058Y194070*
X351969Y193701*
X351969D02*
Y193455D01*
X351969D02*
X352058Y193086D01*
X352237Y192840*
X352505Y192717*
X352774*
X353042Y192840*
X353132Y192963*
X353221Y193209*
X360863Y159843D02*
X360952Y160089D01*
X361131Y160335*
X361310Y160458*
X361668*
X361847Y160335*
X362026Y160089*
X362115Y159843*
X362205Y159473*
Y158858*
X362115Y158489*
X362026Y158243*
X361847Y157997*
X361668Y157874*
X361310*
X361131Y157997*
X360952Y158243*
X360863Y158489*
X359968Y159843D02*
Y159966D01*
X359878Y160212*
X359789Y160335*
X359610Y160458*
X359252*
X359073Y160335*
X358984Y160212*
X358894Y159966*
Y159719*
X358984Y159473*
X359162Y159104*
X360057Y157874*
X358805*
X360863Y150984D02*
X360952Y151230D01*
X361131Y151476*
X361310Y151599*
X361668*
X361847Y151476*
X362026Y151230*
X362115Y150984*
X362205Y150615*
Y150000*
X362115Y149631*
X362026Y149385*
X361847Y149139*
X361668Y149016*
X361310*
X361131Y149139*
X360952Y149385*
X360863Y149631*
X359878Y151599D02*
X358894D01*
X359431Y150615*
X359162*
X358984Y150492*
X358894Y150369*
X358805Y150000*
Y149754*
X358894Y149385*
X359073Y149139*
X359341Y149016*
X359610*
X359878Y149139*
X359968Y149262*
X360057Y149508*
X357462Y151599D02*
X357731Y151476D01*
X357910Y151107*
X357999Y150492*
Y150123*
X357910Y149508*
X357731Y149139*
X357462Y149016*
X357283*
X357015Y149139*
X356836Y149508*
X356747Y150123*
Y150492*
X356836Y151107*
X357015Y151476*
X357283Y151599*
X357462*
X312992Y124631D02*
Y122047D01*
Y124631D02*
X312187D01*
X311918Y124508*
X311829Y124385*
X311739Y124139*
Y123893*
X311829Y123647*
X311918Y123524*
X312187Y123401*
X312992*
X312366D02*
X311739Y122047D01*
X310845Y124016D02*
Y124139D01*
X310755Y124385*
X310666Y124508*
X310487Y124631*
X310129*
X309950Y124508*
X309860Y124385*
X309771Y124139*
Y123893*
X309860Y123647*
X310039Y123278*
X310934Y122047*
X309681*
X369685Y124237D02*
Y121654D01*
Y124237D02*
X368880D01*
X368611Y124114*
X368522Y123991*
X368432Y123745*
Y123499*
X368522Y123253*
X368611Y123130*
X368880Y123007*
X369685*
X369059D02*
X368432Y121654D01*
X367538Y123622D02*
Y123745D01*
X367448Y123991*
X367359Y124114*
X367180Y124237*
X366822*
X366643Y124114*
X366553Y123991*
X366464Y123745*
Y123499*
X366553Y123253*
X366732Y122884*
X367627Y121654*
X366374*
X365032Y124237D02*
X365301Y124114D01*
X365480Y123745*
X365569Y123130*
Y122761*
X365480Y122146*
X365301Y121777*
X365032Y121654*
X364853*
X364585Y121777*
X364406Y122146*
X364316Y122761*
Y123130*
X364406Y123745*
X364585Y124114*
X364853Y124237*
X365032*
X229331Y225615D02*
Y223031D01*
Y225615D02*
X228525D01*
X228257Y225492*
X228168Y225369*
X228168D02*
X228078Y225123D01*
Y224877*
X228168Y224631*
X228168D02*
X228257Y224508D01*
X228525Y224385*
X229331*
X228704D02*
X228078Y223031D01*
X227183Y225000D02*
Y225123D01*
X227094Y225369*
X227004Y225492*
X226825Y225615*
X226467*
X226288Y225492*
X226199Y225369*
X226110Y225123*
Y224877*
X226199Y224631*
X226378Y224262*
X227273Y223031*
X226020*
X225215Y225123D02*
X225036Y225246D01*
X224767Y225615*
Y223031*
X231031Y105561D02*
X231210Y105807D01*
X231478Y105930*
X231836*
X232105Y105807*
X232283Y105561*
Y105315*
X232194Y105069*
X232105Y104946*
X231926Y104823*
X231389Y104577*
X231210Y104454*
X231120Y104331*
X231031Y104085*
Y103716*
X231210Y103469*
X231478Y103346*
X231836*
X232105Y103469*
X232283Y103716*
X230225Y105930D02*
X229778Y103346D01*
X229331Y105930D02*
X229778Y103346D01*
X229331Y105930D02*
X228883Y103346D01*
X228436Y105930D02*
X228883Y103346D01*
X226736Y105930D02*
X227631Y104208D01*
X226288*
X226736Y105930D02*
Y103346D01*
X204724Y225812D02*
Y223228D01*
Y225812D02*
X203919D01*
X203651Y225689*
X203561Y225566*
X203472Y225320*
Y225074*
X203561Y224828*
X203651Y224705*
X203919Y224582*
X204724*
X204098D02*
X203472Y223228D01*
X202577Y225197D02*
Y225320D01*
X202487Y225566*
X202398Y225689*
X202219Y225812*
X201861*
X201682Y225689*
X201593Y225566*
X201503Y225320*
Y225074*
X201593Y224828*
X201772Y224459*
X202666Y223228*
X201414*
X199356Y225812D02*
X200251Y223228D01*
X200608Y225812D02*
X199356D01*
X237598D02*
Y223228D01*
Y225812D02*
X236793D01*
X236525Y225689*
X236435Y225566*
X236346Y225320*
Y225074*
X236435Y224828*
X236525Y224705*
X236793Y224582*
X237598*
X236972D02*
X236346Y223228D01*
X235361Y225812D02*
X234377D01*
X234914Y224828*
X234646*
X234467Y224705*
X234377Y224582*
X234288Y224213*
Y223967*
X234377Y223597*
X234556Y223351*
X234825Y223228*
X235093*
X235361Y223351*
X235451Y223474*
X235540Y223720*
X232319Y225812D02*
X233214D01*
X233304Y224705*
X233214Y224828*
X232946Y224951*
X232677*
X232409Y224828*
X232230Y224582*
X232140Y224213*
X232230Y223967*
X232319Y223597*
X232498Y223351*
X232767Y223228*
X233035*
X233304Y223351*
X233393Y223474*
X233482Y223720*
X245866Y225812D02*
Y223228D01*
Y225812D02*
X245061D01*
X244792Y225689*
X244703Y225566*
X244613Y225320*
Y225074*
X244703Y224828*
X244792Y224705*
X245061Y224582*
X245866*
X245240D02*
X244613Y223228D01*
X242913Y225812D02*
X243808Y224090D01*
X242466*
X242913Y225812D02*
Y223228D01*
X240497Y225812D02*
X241392D01*
X241482Y224705*
X241392Y224828*
X241124Y224951*
X240855*
X240587Y224828*
X240408Y224582*
X240319Y224213*
X240408Y223967*
X240497Y223597*
X240676Y223351*
X240945Y223228*
X241213*
X241482Y223351*
X241571Y223474*
X241661Y223720*
X178740Y135261D02*
Y132677D01*
Y135261D02*
X177935D01*
X177666Y135138*
X177577Y135015*
X177487Y134769*
Y134523*
X177577Y134277*
X177666Y134154*
X177935Y134031*
X178740*
X178114D02*
X177487Y132677D01*
X176682Y134769D02*
X176503Y134892D01*
X176235Y135261*
Y132677*
X174535Y135261D02*
X175429Y133538D01*
X174087*
X174535Y135261D02*
Y132677D01*
X162044Y134646D02*
X162133Y134892D01*
X162312Y135138*
X162491Y135261*
X162849*
X163028Y135138*
X163207Y134892*
X163296Y134646*
X163386Y134277*
Y133661*
X163296Y133292*
X163207Y133046*
X163028Y132800*
X162849Y132677*
X162491*
X162312Y132800*
X162133Y133046*
X162044Y133292*
X161149Y134646D02*
Y134769D01*
X161059Y135015*
X160970Y135138*
X160791Y135261*
X160433*
X160254Y135138*
X160165Y135015*
X160075Y134769*
Y134523*
X160165Y134277*
X160344Y133907*
X161238Y132677*
X159986*
X158017Y135261D02*
X158912D01*
X159001Y134154*
X158912Y134277*
X158644Y134400*
X158375*
X158107Y134277*
X157928Y134031*
X157838Y133661*
X157928Y133415*
X158017Y133046*
X158196Y132800*
X158465Y132677*
X158733*
X159001Y132800*
X159091Y132923*
X159180Y133169*
X175716Y105364D02*
X175895Y105610D01*
X176163Y105733*
X176521*
X176790Y105610*
X176969Y105364*
Y105118*
X176879Y104872*
X176790Y104749*
X176611Y104626*
X176074Y104380*
X175895Y104257*
X175805Y104134*
X175716Y103888*
Y103519*
X175895Y103273*
X176163Y103150*
X176521*
X176790Y103273*
X176969Y103519*
X174911Y105733D02*
X174463Y103150D01*
X174016Y105733D02*
X174463Y103150D01*
X174016Y105733D02*
X173568Y103150D01*
X173121Y105733D02*
X173568Y103150D01*
X171152Y105733D02*
X172047D01*
X172137Y104626*
X172047Y104749*
X171779Y104872*
X171510*
X171242Y104749*
X171063Y104503*
X170974Y104134*
X171063Y103888*
X171152Y103519*
X171331Y103273*
X171600Y103150*
X171868*
X172137Y103273*
X172226Y103396*
X172316Y103642*
X188189Y225812D02*
Y223228D01*
Y225812D02*
X187384D01*
X187115Y225689*
X187026Y225566*
X186936Y225320*
Y225074*
X187026Y224828*
X187115Y224705*
X187384Y224582*
X188189*
X187563D02*
X186936Y223228D01*
X185236Y225812D02*
X186131Y224090D01*
X184789*
X185236Y225812D02*
Y223228D01*
X182910Y225443D02*
X182999Y225689D01*
X183268Y225812*
X183447*
X183715Y225689*
X183894Y225320*
X183984Y224705*
Y224090*
X183894Y223597*
X183715Y223351*
X183447Y223228*
X183357*
X183089Y223351*
X182910Y223597*
X182820Y223967*
Y224090*
X182910Y224459*
X183089Y224705*
X183357Y224828*
X183447*
X183715Y224705*
X183894Y224459*
X183984Y224090*
X196457Y225812D02*
Y223228D01*
Y225812D02*
X195651D01*
X195383Y225689*
X195293Y225566*
X195204Y225320*
Y225074*
X195293Y224828*
X195383Y224705*
X195651Y224582*
X196457*
X195830D02*
X195204Y223228D01*
X193504Y225812D02*
X194399Y224090D01*
X193057*
X193504Y225812D02*
Y223228D01*
X190999Y225812D02*
X191893Y223228D01*
X192251Y225812D02*
X190999D01*
X219130Y225197D02*
X219220Y225443D01*
X219399Y225689*
X219578Y225812*
X219936*
X220115Y225689*
X220293Y225443*
X220383Y225197*
X220472Y224828*
Y224213*
X220383Y223844*
X220293Y223597*
X220115Y223351*
X219936Y223228*
X219578*
X219399Y223351*
X219220Y223597*
X219130Y223844*
X218146Y225812D02*
X217162D01*
X217699Y224828*
X217430*
X217251Y224705*
X217162Y224582*
X217072Y224213*
Y223967*
X217162Y223597*
X217341Y223351*
X217609Y223228*
X217878*
X218146Y223351*
X218236Y223474*
X218325Y223720*
X210863Y225000D02*
X210952Y225246D01*
X211131Y225492*
X211310Y225615*
X211668*
X211847Y225492*
X212026Y225246*
X212115Y225000*
X212205Y224631*
Y224016*
X212115Y223647*
X212026Y223401*
X211847Y223155*
X211668Y223031*
X211310*
X211131Y223155*
X210952Y223401*
X210863Y223647*
X208894Y225615D02*
X209789D01*
X209878Y224508*
X209789Y224631*
X209520Y224754*
X209252*
X208984Y224631*
X208805Y224385*
X208715Y224016*
X208805Y223770*
X208894Y223401*
X209073Y223155*
X209341Y223031*
X209610*
X209878Y223155*
X209968Y223278*
X210057Y223524*
X145508Y279134D02*
X145598Y279380D01*
X145777Y279626*
X145956Y279749*
X146314*
X146492Y279626*
X146671Y279380*
X146761Y279134*
X146850Y278765*
Y278150*
X146761Y277781*
X146671Y277534*
X146492Y277288*
X146314Y277165*
X145956*
X145777Y277288*
X145598Y277534*
X145508Y277781*
X144524Y279749D02*
X143540D01*
X144077Y278765*
X143808*
X143629Y278642*
X143540Y278519*
X143450Y278150*
Y277904*
X143540Y277534*
X143719Y277288*
X143987Y277165*
X144256*
X144524Y277288*
X144613Y277411*
X144703Y277657*
X142645Y279257D02*
X142466Y279380D01*
X142198Y279749*
Y277165*
X145508Y257480D02*
X145598Y257726D01*
X145777Y257972*
X145956Y258095*
X146314*
X146492Y257972*
X146671Y257726*
X146761Y257480*
X146850Y257111*
Y256496*
X146761Y256127*
X146671Y255881*
X146492Y255635*
X146314Y255512*
X145956*
X145777Y255635*
X145598Y255881*
X145508Y256127*
X144524Y258095D02*
X143540D01*
X144077Y257111*
X143808*
X143629Y256988*
X143540Y256865*
X143450Y256496*
Y256250*
X143540Y255881*
X143719Y255635*
X143987Y255512*
X144256*
X144524Y255635*
X144613Y255758*
X144703Y256004*
X141482Y257234D02*
X141571Y256865D01*
X141750Y256619*
X142019Y256496*
X142108*
X142377Y256619*
X142555Y256865*
X142645Y257234*
Y257357*
X142555Y257726*
X142377Y257972*
X142108Y258095*
X142019*
X141750Y257972*
X141571Y257726*
X141482Y257234*
Y256619*
X141571Y256004*
X141750Y255635*
X142019Y255512*
X142198*
X142466Y255635*
X142555Y255881*
X114996Y216929D02*
X115086Y217175D01*
X115265Y217421*
X115444Y217544*
X115802*
X115981Y217421*
X116160Y217175*
X116249Y216929*
X116339Y216560*
Y215945*
X116249Y215576*
X116160Y215330*
X115981Y215084*
X115802Y214961*
X115444*
X115265Y215084*
X115086Y215330*
X114996Y215576*
X114012Y217544D02*
X113028D01*
X113565Y216560*
X113296*
X113117Y216437*
X113028Y216314*
X112938Y215945*
Y215699*
X113028Y215330*
X113207Y215084*
X113475Y214961*
X113744*
X114012Y215084*
X114102Y215207*
X114191Y215453*
X111954Y217544D02*
X110970D01*
X111507Y216560*
X111238*
X111059Y216437*
X110970Y216314*
X110880Y215945*
Y215699*
X110970Y215330*
X111149Y215084*
X111417Y214961*
X111686*
X111954Y215084*
X112044Y215207*
X112133Y215453*
X114800Y237795D02*
X114889Y238041D01*
X115068Y238287*
X115247Y238410*
X115605*
X115784Y238287*
X115963Y238041*
X116052Y237795*
X116142Y237426*
Y236811*
X116052Y236442*
X115963Y236196*
X115784Y235950*
X115605Y235827*
X115247*
X115068Y235950*
X114889Y236196*
X114800Y236442*
X113815Y238410D02*
X112831D01*
X113368Y237426*
X113099*
X113099D02*
X112921Y237303D01*
X112831Y237180*
X112742Y236811*
Y236565*
X112831Y236196*
X113010Y235950*
X113278Y235827*
X113547*
X113815Y235950*
X113905Y236073*
X113994Y236319*
X111042Y238410D02*
X111936Y236688D01*
X110594*
X111042Y238410D02*
Y235827D01*
X145669Y271678D02*
Y269094D01*
X144596*
X142895Y271678D02*
X143790Y269956D01*
X142448*
X142895Y271678D02*
Y269094D01*
X145866Y250025D02*
Y247441D01*
X144792*
X142824Y250025D02*
X143719D01*
X143808Y248917*
X143719Y249040*
X143450Y249163*
X143182*
X142913Y249040*
X142734Y248794*
X142645Y248425*
X142734Y248179*
X142824Y247810*
X143003Y247564*
X143271Y247441*
X143540*
X143808Y247564*
X143898Y247687*
X143987Y247933*
X254563Y163386D02*
X254653Y163632D01*
X254832Y163878*
X255011Y164001*
X255369*
X255548Y163878*
X255727Y163632*
X255816Y163386*
X255906Y163017*
Y162402*
X255816Y162032*
X255727Y161786*
X255548Y161540*
X255369Y161417*
X255011*
X254832Y161540*
X254653Y161786*
X254563Y162032*
X253579Y164001D02*
X252595D01*
X253132Y163017*
X252863*
X252684Y162894*
X252595Y162771*
X252505Y162402*
Y162156*
X252595Y161786*
X252774Y161540*
X253042Y161417*
X253311*
X253579Y161540*
X253669Y161663*
X253758Y161909*
X250626Y163632D02*
X250716Y163878D01*
X250984Y164001*
X251163*
X251432Y163878*
X251611Y163509*
X251700Y162894*
Y162279*
X251611Y161786*
X251432Y161540*
X251163Y161417*
X251074*
X250805Y161540*
X250626Y161786*
X250537Y162156*
Y162279*
X250626Y162648*
X250805Y162894*
X251074Y163017*
X251163*
X251432Y162894*
X251611Y162648*
X251700Y162279*
X360863Y134843D02*
X360952Y135089D01*
X361131Y135335*
X361310Y135458*
X361668*
X361847Y135335*
X362026Y135089*
X362115Y134843*
X362205Y134473*
Y133858*
X362115Y133489*
X362026Y133243*
X361847Y132997*
X361668Y132874*
X361310*
X361131Y132997*
X360952Y133243*
X360863Y133489*
X359878Y135458D02*
X358894D01*
X359431Y134473*
X359162*
X358984Y134350*
X358894Y134227*
X358805Y133858*
Y133612*
X358894Y133243*
X359073Y132997*
X359341Y132874*
X359610*
X359878Y132997*
X359968Y133120*
X360057Y133366*
X356747Y135458D02*
X357641Y132874D01*
X357999Y135458D02*
X356747D01*
X362205Y143922D02*
Y141339D01*
Y143922D02*
X361399D01*
X361131Y143799*
X361042Y143676*
X360952Y143430*
Y143184*
X361042Y142938*
X361131Y142815*
X361399Y142692*
X362205*
X361578D02*
X360952Y141339D01*
X359252Y143922D02*
X360147Y142200D01*
X358805*
X359252Y143922D02*
Y141339D01*
X357820Y143922D02*
X356836D01*
X357373Y142938*
X357105*
X356926Y142815*
X356836Y142692*
X356747Y142323*
Y142077*
X356836Y141708*
X357015Y141462*
X357283Y141339*
X357552*
X357820Y141462*
X357910Y141585*
X357999Y141831*
X300429Y212992D02*
X300519Y213238D01*
X300698Y213484*
X300877Y213607*
X301235*
X301414Y213484*
X301593Y213238*
X301682Y212992*
X301772Y212623*
Y212008*
X301682Y211639*
X301593Y211393*
X301414Y211147*
X301235Y211024*
X300877*
X300698Y211147*
X300519Y211393*
X300429Y211639*
X298729Y213607D02*
X299624Y211885D01*
X298282*
X298729Y213607D02*
Y211024D01*
X297298Y213607D02*
X296314D01*
X296850Y212623*
X296582*
X296403Y212500*
X296314Y212377*
X296224Y212008*
Y211762*
X296314Y211393*
X296492Y211147*
X296761Y211024*
X297029*
X297298Y211147*
X297387Y211270*
X297477Y211516*
X300429Y221063D02*
X300519Y221309D01*
X300698Y221555*
X300877Y221678*
X301235*
X301414Y221555*
X301593Y221309*
X301682Y221063*
X301772Y220694*
Y220079*
X301682Y219710*
X301593Y219464*
X301414Y219218*
X301235Y219094*
X300877*
X300698Y219218*
X300519Y219464*
X300429Y219710*
X298729Y221678D02*
X299624Y219956D01*
X298282*
X298729Y221678D02*
Y219094D01*
X296582Y221678D02*
X297477Y219956D01*
X296135*
X296582Y221678D02*
Y219094D01*
X300429Y229331D02*
X300519Y229577D01*
X300698Y229823*
X300877Y229946*
X301235*
X301414Y229823*
X301593Y229577*
X301682Y229331*
X301772Y228962*
Y228346*
X301682Y227977*
X301593Y227731*
X301414Y227485*
X301235Y227362*
X300877*
X300698Y227485*
X300519Y227731*
X300429Y227977*
X298729Y229946D02*
X299624Y228223D01*
X298282*
X298729Y229946D02*
Y227362D01*
X296403Y229577D02*
X296492Y229823D01*
X296761Y229946*
X296940*
X297208Y229823*
X297387Y229454*
X297477Y228839*
Y228223*
X297387Y227731*
X297208Y227485*
X296940Y227362*
X296850*
X296582Y227485*
X296403Y227731*
X296314Y228100*
Y228223*
X296403Y228593*
X296582Y228839*
X296850Y228962*
X296940*
X297208Y228839*
X297387Y228593*
X297477Y228223*
X300429Y237598D02*
X300519Y237844D01*
X300698Y238091*
X300877Y238214*
X301235*
X301414Y238091*
X301593Y237844*
X301682Y237598*
X301772Y237229*
Y236614*
X301682Y236245*
X301593Y235999*
X301414Y235753*
X301235Y235630*
X300877*
X300698Y235753*
X300519Y235999*
X300429Y236245*
X298729Y238214D02*
X299624Y236491D01*
X298282*
X298729Y238214D02*
Y235630D01*
X296224Y238214D02*
X297119Y235630D01*
X297477Y238214D02*
X296224D01*
X300429Y246654D02*
X300519Y246900D01*
X300698Y247146*
X300877Y247269*
X301235*
X301414Y247146*
X301593Y246900*
X301682Y246654*
X301772Y246284*
Y245669*
X301682Y245300*
X301593Y245054*
X301414Y244808*
X301235Y244685*
X300877*
X300698Y244808*
X300519Y245054*
X300429Y245300*
X298729Y247269D02*
X299624Y245546D01*
X298282*
X298729Y247269D02*
Y244685D01*
X297029Y247269D02*
X297298Y247146D01*
X297387Y246900*
Y246654*
X297298Y246407*
X297119Y246284*
X296761Y246161*
X296492Y246038*
X296314Y245792*
X296224Y245546*
Y245177*
X296314Y244931*
X296403Y244808*
X296671Y244685*
X297029*
X297298Y244808*
X297387Y244931*
X297477Y245177*
Y245546*
X297387Y245792*
X297208Y246038*
X296940Y246161*
X296582Y246284*
X296403Y246407*
X296314Y246654*
Y246900*
X296403Y247146*
X296671Y247269*
X297029*
X300429Y254331D02*
X300519Y254577D01*
X300698Y254823*
X300877Y254946*
X301235*
X301414Y254823*
X301593Y254577*
X301682Y254331*
X301772Y253962*
Y253346*
X301682Y252977*
X301593Y252731*
X301414Y252485*
X301235Y252362*
X300877*
X300698Y252485*
X300519Y252731*
X300429Y252977*
X298461Y254946D02*
X299356D01*
X299445Y253839*
X299356Y253962*
X299087Y254085*
X298819*
X298550Y253962*
X298372Y253716*
X298282Y253346*
X298372Y253100*
X298461Y252731*
X298640Y252485*
X298908Y252362*
X299177*
X299445Y252485*
X299535Y252608*
X299624Y252854*
X296940Y254946D02*
X297208Y254823D01*
X297387Y254454*
X297477Y253839*
Y253469*
X297387Y252854*
X297208Y252485*
X296940Y252362*
X296761*
X296492Y252485*
X296314Y252854*
X296224Y253469*
Y253839*
X296314Y254454*
X296492Y254823*
X296761Y254946*
X296940*
X300429Y262795D02*
X300519Y263041D01*
X300698Y263287*
X300877Y263410*
X301235*
X301414Y263287*
X301593Y263041*
X301682Y262795*
X301772Y262426*
Y261811*
X301682Y261442*
X301593Y261196*
X301414Y260950*
X301235Y260827*
X300877*
X300698Y260950*
X300519Y261196*
X300429Y261442*
X298461Y263410D02*
X299356D01*
X299445Y262303*
X299356Y262426*
X299087Y262549*
X298819*
X298550Y262426*
X298372Y262180*
X298282Y261811*
X298372Y261565*
X298461Y261196*
X298640Y260950*
X298908Y260827*
X299177*
X299445Y260950*
X299535Y261073*
X299624Y261319*
X297477Y262918D02*
X297298Y263041D01*
X297029Y263410*
Y260827*
X328203Y194316D02*
X328382Y194193D01*
X328561Y193947*
X328651Y193701*
X328740Y193332*
Y192717*
X328651Y192347*
X328561Y192101*
X328382Y191855*
X328203Y191732*
X327845*
X327666Y191855*
X327487Y192101*
X327398Y192347*
X327309Y192717*
Y193332*
X327398Y193701*
X327487Y193947*
X327666Y194193*
X327845Y194316*
X328203*
X327935Y192224D02*
X327398Y191486D01*
X326503Y193824D02*
X326324Y193947D01*
X326056Y194316*
Y191732*
X229528Y190379D02*
Y187795D01*
Y190379D02*
X228722D01*
X228454Y190256*
X228364Y190133*
X228275Y189887*
Y189641*
X228364Y189395*
X228454Y189272*
X228722Y189149*
X229528*
X228901D02*
X228275Y187795D01*
X226306Y190379D02*
X227201D01*
X227291Y189272*
X227201Y189395*
X226933Y189518*
X226664*
X226396Y189395*
X226217Y189149*
X226127Y188780*
X226217Y188533*
X226306Y188164*
X226485Y187918*
X226754Y187795*
X227022*
X227291Y187918*
X227380Y188041*
X227470Y188287*
X225322Y189887D02*
X225143Y190010D01*
X224875Y190379*
Y187795*
X205118Y189985D02*
Y187402D01*
Y189985D02*
X204313D01*
X204044Y189862*
X203955Y189739*
X203865Y189493*
Y189247*
X203955Y189001*
X204044Y188878*
X204313Y188755*
X205118*
X204492D02*
X203865Y187402D01*
X201897Y189985D02*
X202792D01*
X202881Y188878*
X202792Y189001*
X202523Y189124*
X202255*
X201986Y189001*
X201807Y188755*
X201718Y188386*
X201807Y188140*
X201897Y187771*
X202076Y187525*
X202344Y187402*
X202613*
X202881Y187525*
X202971Y187648*
X203060Y187894*
X200823Y189370D02*
Y189493D01*
X200734Y189739*
X200644Y189862*
X200465Y189985*
X200107*
X199928Y189862*
X199839Y189739*
X199749Y189493*
Y189247*
X199839Y189001*
X200018Y188632*
X200913Y187402*
X199660*
X238189Y190379D02*
Y187795D01*
Y190379D02*
X237384D01*
X237115Y190256*
X237026Y190133*
X236936Y189887*
Y189641*
X237026Y189395*
X237115Y189272*
X237384Y189149*
X238189*
X237563D02*
X236936Y187795D01*
X234968Y190379D02*
X235863D01*
X235952Y189272*
X235863Y189395*
X235594Y189518*
X235326*
X235057Y189395*
X234878Y189149*
X234789Y188780*
X234878Y188533*
X234968Y188164*
X235147Y187918*
X235415Y187795*
X235684*
X235952Y187918*
X236042Y188041*
X236131Y188287*
X233805Y190379D02*
X232820D01*
X233357Y189395*
X233089*
X232910Y189272*
X232820Y189149*
X232731Y188780*
Y188533*
X232820Y188164*
X232999Y187918*
X233268Y187795*
X233536*
X233805Y187918*
X233894Y188041*
X233984Y188287*
X246457Y190379D02*
Y187795D01*
Y190379D02*
X245651D01*
X245383Y190256*
X245293Y190133*
X245204Y189887*
Y189641*
X245293Y189395*
X245383Y189272*
X245651Y189149*
X246457*
X245830D02*
X245204Y187795D01*
X243236Y190379D02*
X244130D01*
X244220Y189272*
X244130Y189395*
X243862Y189518*
X243593*
X243325Y189395*
X243146Y189149*
X243057Y188780*
X243146Y188533*
X243236Y188164*
X243236D02*
X243414Y187918D01*
X243683Y187795*
X243951*
X244220Y187918*
X244309Y188041*
X244399Y188287*
X241356Y190379D02*
X242251Y188656D01*
X240909*
X241356Y190379D02*
Y187795D01*
X188189Y189985D02*
Y187402D01*
Y189985D02*
X187384D01*
X187115Y189862*
X187026Y189739*
X186936Y189493*
Y189247*
X187026Y189001*
X187115Y188878*
X187384Y188755*
X188189*
X187563D02*
X186936Y187402D01*
X184968Y189985D02*
X185863D01*
X185952Y188878*
X185863Y189001*
X185594Y189124*
X185326*
X185057Y189001*
X184878Y188755*
X184789Y188386*
X184878Y188140*
X184968Y187771*
X185147Y187525*
X185415Y187402*
X185684*
X185952Y187525*
X186042Y187648*
X186131Y187894*
X182820Y189985D02*
X183715D01*
X183805Y188878*
X183715Y189001*
X183447Y189124*
X183178*
X182910Y189001*
X182731Y188755*
X182641Y188386*
X182731Y188140*
X182820Y187771*
X182999Y187525*
X183268Y187402*
X183536*
X183805Y187525*
X183894Y187648*
X183984Y187894*
X196457Y189985D02*
Y187402D01*
Y189985D02*
X195651D01*
X195383Y189862*
X195293Y189739*
X195204Y189493*
Y189247*
X195293Y189001*
X195383Y188878*
X195651Y188755*
X196457*
X195830D02*
X195204Y187402D01*
X193236Y189985D02*
X194130D01*
X194220Y188878*
X194130Y189001*
X193862Y189124*
X193593*
X193325Y189001*
X193146Y188755*
X193057Y188386*
X193146Y188140*
X193236Y187771*
X193236D02*
X193414Y187525D01*
X193683Y187402*
X193951*
X194220Y187525*
X194309Y187648*
X194399Y187894*
X191178Y189616D02*
X191267Y189862D01*
X191535Y189985*
X191714*
X191983Y189862*
X192162Y189493*
X192251Y188878*
Y188263*
X192162Y187771*
X191983Y187525*
X191714Y187402*
X191625*
X191356Y187525*
X191178Y187771*
X191088Y188140*
Y188263*
X191178Y188632*
X191356Y188878*
X191625Y189001*
X191714*
X191983Y188878*
X192162Y188632*
X192251Y188263*
X170866Y135261D02*
Y132677D01*
Y135261D02*
X170061D01*
X169792Y135138*
X169703Y135015*
X169613Y134769*
Y134523*
X169703Y134277*
X169792Y134154*
X170061Y134031*
X170866*
X170240D02*
X169613Y132677D01*
X167734Y134892D02*
X167824Y135138D01*
X168092Y135261*
X168271*
X168540Y135138*
X168719Y134769*
X168808Y134154*
Y133538*
X168719Y133046*
X168540Y132800*
X168271Y132677*
X168182*
X167913Y132800*
X167734Y133046*
X167645Y133415*
Y133538*
X167734Y133907*
X167913Y134154*
X168182Y134277*
X168271*
X168540Y134154*
X168719Y133907*
X168808Y133538*
X166661Y135261D02*
X165676D01*
X166213Y134277*
X165945*
X165766Y134154*
X165676Y134031*
X165587Y133661*
Y133415*
X165676Y133046*
X165855Y132800*
X166124Y132677*
X166392*
X166661Y132800*
X166750Y132923*
X166840Y133169*
X244381Y234867D02*
Y232899D01*
X244470Y232530*
X244560Y232406*
X244739Y232283*
X244918*
X245097Y232406*
X245186Y232530*
X245276Y232899*
Y233145*
X243486Y234252D02*
Y234375D01*
X243397Y234621*
X243307Y234744*
X243128Y234867*
X242770*
X242591Y234744*
X242502Y234621*
X242412Y234375*
Y234129*
X242502Y233883*
X242681Y233514*
X243576Y232283*
X242323*
X286149Y105364D02*
X286328Y105610D01*
X286596Y105733*
X286954*
X287223Y105610*
X287402Y105364*
Y105118*
X287312Y104872*
X287223Y104749*
X287044Y104626*
X286507Y104380*
X286328Y104257*
X286238Y104134*
X286149Y103888*
Y103519*
X286328Y103273*
X286596Y103150*
X286954*
X287223Y103273*
X287402Y103519*
X285344Y105733D02*
X284896Y103150D01*
X284449Y105733D02*
X284896Y103150D01*
X284449Y105733D02*
X284001Y103150D01*
X283554Y105733D02*
X284001Y103150D01*
X282570Y105733D02*
X281586D01*
X282122Y104749*
X281854*
X281675Y104626*
X281586Y104503*
X281496Y104134*
Y103888*
X281586Y103519*
X281764Y103273*
X282033Y103150*
X282301*
X282570Y103273*
X282659Y103396*
X282749Y103642*
X298031Y105733D02*
Y103150D01*
Y105733D02*
X297405D01*
X297137Y105610*
X296958Y105364*
X296868Y105118*
X296779Y104749*
Y104134*
X296868Y103765*
X296958Y103519*
X297137Y103273*
X297405Y103150*
X298031*
X295974Y105241D02*
X295795Y105364D01*
X295526Y105733*
Y103150*
X375197Y104946D02*
Y102362D01*
Y104946D02*
X374571D01*
X374302Y104823*
X374123Y104577*
X374034Y104331*
X373944Y103962*
Y103346*
X374034Y102977*
X374123Y102731*
X374302Y102485*
X374571Y102362*
X375197*
X372244Y104946D02*
X373139Y103223D01*
X371797*
X372244Y104946D02*
Y102362D01*
X347334Y124434D02*
Y122466D01*
X347423Y122096*
X347513Y121973*
X347691Y121850*
X347870*
X348049Y121973*
X348139Y122096*
X348228Y122466*
Y122712*
X346528Y123942D02*
X346349Y124065D01*
X346081Y124434*
Y121850*
G54D111*
X309843Y110458D02*
Y107874D01*
Y110458D02*
X309037D01*
X308769Y110335*
X308679Y110212*
X308590Y109966*
Y109719*
X308679Y109473*
X308769Y109350*
X309037Y109227*
X309843*
X309216D02*
X308590Y107874D01*
X307785Y110458D02*
Y107874D01*
Y110458D02*
X306621D01*
X307785Y109227D02*
X307069D01*
X307785Y107874D02*
X306621D01*
X305816Y110458D02*
Y107874D01*
Y110458D02*
X305190D01*
X304921Y110335*
X304742Y110089*
X304653Y109843*
X304563Y109473*
Y108858*
X304653Y108489*
X304742Y108243*
X304921Y107997*
X305190Y107874*
X305816*
X366374Y109843D02*
X366464Y110089D01*
X366643Y110335*
X366822Y110458*
X367180*
X367359Y110335*
X367538Y110089*
X367627Y109843*
X367717Y109473*
Y108858*
X367627Y108489*
X367538Y108243*
X367359Y107997*
X367180Y107874*
X366822*
X366643Y107997*
X366464Y108243*
X366374Y108489*
Y108858*
X366822D02*
X366374D01*
X365569Y110458D02*
Y107874D01*
Y110458D02*
X364764D01*
X364495Y110335*
X364406Y110212*
X364316Y109966*
Y109719*
X364406Y109473*
X364495Y109350*
X364764Y109227*
X365569*
X364943D02*
X364316Y107874D01*
X363511Y110458D02*
Y107874D01*
Y110458D02*
X362348D01*
X363511Y109227D02*
X362795D01*
X363511Y107874D02*
X362348D01*
X361543Y110458D02*
Y107874D01*
Y110458D02*
X360379D01*
X361543Y109227D02*
X360827D01*
X361543Y107874D02*
X360379D01*
X359574Y110458D02*
Y107874D01*
Y110458D02*
X358321Y107874D01*
Y110458D02*
Y107874D01*
X177165Y110851D02*
Y109006D01*
X177076Y108637*
X176897Y108391*
X176628Y108268*
X176450*
X176181Y108391*
X176002Y108637*
X175913Y109006*
Y110851*
X175107D02*
Y108268D01*
Y110851D02*
X174302D01*
X174034Y110728*
X173944Y110605*
X173855Y110359*
Y109990*
X173944Y109744*
X174034Y109621*
X174302Y109498*
X175107*
X232283Y110458D02*
Y107874D01*
Y110458D02*
X231657D01*
X231389Y110335*
X231210Y110089*
X231120Y109843*
X231031Y109473*
Y108858*
X231120Y108489*
X231210Y108243*
X231389Y107997*
X231657Y107874*
X232283*
X229689Y110458D02*
X229868Y110335D01*
X230047Y110089*
X230136Y109843*
X230225Y109473*
Y108858*
X230136Y108489*
X230047Y108243*
X229868Y107997*
X229689Y107874*
X229331*
X229152Y107997*
X228973Y108243*
X228883Y108489*
X228794Y108858*
Y109473*
X228883Y109843*
X228973Y110089*
X229152Y110335*
X229331Y110458*
X229689*
X227989D02*
X227541Y107874D01*
X227094Y110458D02*
X227541Y107874D01*
X227094Y110458D02*
X226646Y107874D01*
X226199Y110458D02*
X226646Y107874D01*
X225394Y110458D02*
Y107874D01*
Y110458D02*
X224141Y107874D01*
Y110458D02*
Y107874D01*
X286149Y110089D02*
X286328Y110335D01*
X286596Y110458*
X286954*
X287223Y110335*
X287402Y110089*
Y109843*
X287312Y109596*
X287223Y109473*
X287044Y109350*
X286507Y109104*
X286328Y108981*
X286238Y108858*
X286149Y108612*
Y108243*
X286328Y107997*
X286596Y107874*
X286954*
X287223Y107997*
X287402Y108243*
X285344Y110458D02*
Y107874D01*
Y110458D02*
X284180D01*
X285344Y109227D02*
X284628D01*
X285344Y107874D02*
X284180D01*
X282749Y110458D02*
Y107874D01*
X283375Y110458D02*
X282122D01*
X0Y0D02*
M02*
